<?xml version="1.0" encoding="utf-8"?>
<!-- Generator: Adobe Illustrator 23.0.0, SVG Export Plug-In . SVG Version: 6.00 Build 0)  -->
<svg version="1.1" id="Layer_1" xmlns="http://www.w3.org/2000/svg" xmlns:xlink="http://www.w3.org/1999/xlink" x="0px" y="0px"
	 viewBox="0 0 579 416" style="enable-background:new 0 0 579 416;" xml:space="preserve">
<style type="text/css">
	.st0{fill:#FFFFFF;}
</style>
<g>
	<path d="M525.3,168.9c-24.1,6.6-48,13.6-72.2,19.7c-18,4.5-36.1,8.2-54.3,11.8c-15.4,3-31,5.2-46.5,7.8c-16.3,2.8-32.7,5.7-49,8.3
		c-15.4,2.5-30.8,5.4-46.3,6.6c-10.3,0.8-16.8,6.6-24,12.3c-13.6,10.7-27.4,21.3-41,32c-22.2,17.4-44.3,34.9-66.6,52.2
		c-21.5,16.8-43,33.4-64.5,50.2C41.1,385.2,21.6,400.6,2,416c-0.7-0.7-1.3-1.3-2-2c6-8.3,12-16.5,17.9-24.9
		c13.8-19.9,27.6-39.8,41.4-59.8c11.2-16.3,22.3-32.7,33.5-49c11.9-17.4,24-34.7,35.9-52c2.4-3.5,4.8-7.1,7.1-10.6
		c-6.8-6.2-13.9-11.9-20-18.6c-13.1-14.3-24-30.3-28.2-49.3c-7.2-32.7,0.3-61.4,27.3-83C133.5,52,155,42.3,177.7,35
		c21.9-7.1,44.2-12.6,66.9-16.2c22.1-3.5,44.1-7.5,66.2-10.3c19.4-2.5,39-3.6,58.5-5.2C385.2,2,401.1,1.1,417,0c11.3,0,22.7,0,34,0
		c3.4,0.2,6.9,0.4,10.3,0.6c13.4,1.1,26.9,1.5,40,3.8c11.1,1.9,22.6,4.6,32.6,9.6c21.7,10.9,34.3,29.7,40.8,52.7
		c1.9,6.6,2.9,13.5,4.3,20.2c0,4.7,0,9.3,0,14c-0.8,4.2-1.6,8.3-2.3,12.5c-1.8,11.1-7.4,20.3-13.6,29.4c-4.4,6.4-9.6,11.7-16.3,15.5
		 M263.6,205.3c9.9-1.4,19.1-2.6,28.2-4.1c16.4-2.6,32.8-5.4,49.2-8.1c18.7-3.2,37.4-6.2,55.9-9.8c17.4-3.4,34.8-7.2,52.1-11.1
		c27.2-6.1,54.2-12.4,79.8-23.9c18.6-8.3,28.7-22.9,31.7-42c2.8-17.7,0.4-35.2-8.7-51.2C543.4,40,531.5,28.5,514,25
		c-14.4-2.9-29.1-5.1-43.8-6.4c-35.8-3.2-71.6-0.6-107.3,1.8c-22.4,1.5-44.7,4.7-66.9,7.5c-15.3,1.9-30.7,3.7-45.9,6.6
		c-16.4,3.1-32.7,7.2-49,11.3c-23.3,5.9-45.6,14.4-66.1,27.3c-28.6,18.1-40.1,46-29.5,77.9c8.4,25.4,25.3,44.8,49.7,57
		c3.4,1.7,6.7,3.5,10.9,5.7c-41.5,53.7-82.6,107-123.8,160.3c0.2,0.2,0.5,0.4,0.7,0.7c76.4-63.5,152.9-126.9,229.3-190.4
		c0.3,0.2,0.5,0.4,0.8,0.6C270.1,191.5,267.1,197.9,263.6,205.3z"/>
	<path class="st0" d="M263.6,205.3c3.5-7.4,6.5-13.8,9.5-20.3c-0.3-0.2-0.5-0.4-0.8-0.6C196,247.8,119.5,311.3,43.1,374.8
		c-0.2-0.2-0.5-0.4-0.7-0.7c41.2-53.3,82.4-106.6,123.8-160.3c-4.3-2.2-7.6-4.1-10.9-5.7c-24.4-12.2-41.3-31.6-49.7-57
		C95,119.2,106.5,91.3,135,73.2c20.4-13,42.7-21.4,66.1-27.3c16.2-4.1,32.5-8.2,49-11.3c15.2-2.9,30.6-4.7,45.9-6.6
		c22.3-2.7,44.6-5.9,66.9-7.5c35.7-2.5,71.5-5,107.3-1.8c14.7,1.3,29.3,3.5,43.8,6.4c17.5,3.5,29.4,15,37.9,30.1
		c9.1,16,11.5,33.4,8.7,51.2c-3,19.2-13.2,33.7-31.7,42c-25.6,11.4-52.7,17.8-79.8,23.9c-17.3,3.9-34.7,7.7-52.1,11.1
		c-18.6,3.6-37.3,6.6-55.9,9.8c-16.4,2.8-32.8,5.5-49.2,8.1C282.7,202.7,273.5,203.9,263.6,205.3z M264.3,112.3
		c1.2,1,2.7,1.7,2.7,2.5c0.1,1-0.7,2.5-1.7,3.1c-2.1,1.4-4.6,2.4-8.2,4.2c3.6-0.5,5.6-0.8,7.2-1.1c1.2,6-3.2,7.5-8,10
		c2.6-0.4,4-0.6,5.8-0.8c-1.2,4.6-2.3,8.6-3.4,12.7c8,0.1,9-0.7,11.1-7.6c2.6-8.6,5.6-10.6,14.9-9.3c-1.5,5.3-3.1,10.6-4.7,16
		c8.7,0.1,8.7,0.1,10.9-7.5c1.9-6.5,3.9-12.7,12.4-12.7c0.6,0,1.2-0.8,2.4-1.5c-3.3-0.8-6-1.4-8.6-2.1c-0.1-0.5-0.2-1-0.3-1.4
		c4.9-3.8,11.5-3.2,17.1-6.5c-4.3-0.7-8.5-1.4-13.1-2.1c1.6-5.7,6.8-4,11-6.3c-3-1-5.3-1.8-7.8-2.7c1.1-3.6,2.2-7.1,3.5-11.6
		c-5.1,1.7-11.4-1-12.4,6c-1.2,8-6.7,9.6-13.9,10.7c1.6-5.1,3.2-9.8,4.7-14.7c-9.8-1-10.4-0.1-13.3,8
		C270.8,102.9,271.6,110.1,264.3,112.3z M196.9,106.5c-0.3,0.2-0.5,0.4-0.8,0.6c3.2,4.7,6.3,9.5,9.7,14.2c1.8,2.6,2.3,4.4-0.7,6.6
		c-3.3,2.4-6.1,5.5-9.1,8.3c-3.8,3.6-7.7,7.3-11.5,10.9c9.1-2.8,17.7-6.2,26.1-10c3.5-1.6,5.7-1.1,8.1,1.8c4.2,5.2,8.7,10,13,15
		c0.3-0.1,0.6-0.2,0.9-0.4c-1.2-8.1-2.3-16.2-3.3-23.5c9.4-4.9,18.2-9.5,26.9-14c-0.1-0.4-0.3-0.8-0.4-1.2
		c-9.1,1.1-18.2,2.2-27.9,3.3c0-8.3,0-15.7,0-23c-0.4-0.1-0.8-0.2-1.2-0.4c-3.7,6.8-7.4,13.6-11.3,20.7
		C209,112.3,202.9,109.4,196.9,106.5z M350.7,123c5.1,5.6,6.2,5.7,10.4,0.7c3.5-4.2,6.9-8.5,10.1-12.9c1.7-2.4,2.6-2.9,4.5-0.1
		c2.9,4.4,6.5,8.4,9.6,12.6c2.2,2.9,4.4,2.2,6.8,0.5c2.7-1.9,1.4-4,0-5.9c-3.2-4.2-6.2-8.6-9.7-12.5c-3-3.4-3.7-6.1-0.3-9.7
		c2.3-2.5,3.9-5.7,5.5-8.8c0.5-1.1-0.1-2.7-0.2-4.1c-1.3,0.3-3,0.1-3.9,0.9c-3.6,3-6.9,6.2-10.4,9.4c-3.1-3.5-6.3-7.5-9.9-11
		c-1.1-1.1-3.5-0.9-5.3-1.3c0.2,1.6-0.1,3.6,0.6,4.9c3,5.1,6.3,10,9.5,15C362.2,108.3,356.4,115.7,350.7,123z M324.2,100.1
		c-1.7,9.1-3.3,18.3-5.1,27.7c10.4-0.7,10.4-0.7,10.8-9.8c0.1-1.2,0.1-2.3,0.2-3.5c0.2-3.2,0.9-5.2,5-5.9
		c9.4-1.7,15.3-13.2,12.2-22.2c-3.6-10.1-14.1-10.5-22.2-6.4c-3.8,1.9-6.7,6.1-9.5,9.7c-0.7,0.9,0.9,3.4,1.4,5.2
		c1.4-0.6,2.8-1.1,4.1-1.8c3.5-2.1,6.8-5,10.5-6.1c2-0.6,5.9,1.4,7.1,3.4c1.7,2.9-0.2,5.7-3.7,6.7C331.5,98.2,328,99.1,324.2,100.1z
		 M475.8,52c-8.5,0.7-12.2,3-13.6,7.9c-1.7,6-3.6,12-5.3,18.1c-1.8,6.2-3.6,12.5-5.5,18.9c10.2,0.7,10.5,0.8,12.6-6
		C468.1,78.2,471.8,65.3,475.8,52z M452,58c-6.2,2.7-12.4,2.5-13.8,9.9c-1.3,6.5-3.7,12.7-5.5,19.1c-1.5,5.1-2.8,10.3-4.3,15.7
		c10.5-0.5,10.5-0.5,12.9-9.2c0.4-1.6,1.1-3.1,1.6-4.7C445.8,79,448.7,69.2,452,58z M427.1,67.2c-8.1,0.4-10.8,2.7-12.8,9.9
		c-0.8,2.9-1.7,5.7-2.5,8.6c-1.9,6.6-3.8,13.3-6,21c4.2-1.6,8.8,1.5,10.5-3.9C419.9,91.2,423.4,79.5,427.1,67.2z M452.7,104.8
		c-3.7,0-6.9,3.2-6.9,6.9c0,3.8,2.7,6.5,6.5,6.7c4.4,0.2,6.9-2.2,7-6.5C459.4,107.6,456.8,104.9,452.7,104.8z M436.2,116.2
		c0.1-3.4-3.2-6.9-6.4-7c-3.2,0-6.6,3.4-6.7,6.7c-0.1,3.8,2.6,6.6,6.4,6.7C433.1,122.7,436.1,119.9,436.2,116.2z M408.3,113
		c-3.4,0.4-6.2,1.4-6.4,5.5c-0.3,3.9,1.9,6.1,5.4,6.3c3.5,0.3,6.1-1.6,6.5-5.3C414.2,115.6,411.7,113.9,408.3,113z M323.6,140.4
		c2.6-2.3,4.5-4.1,6.5-6c-1.6-1-3.6-3.2-4.8-2.8c-2.6,0.7-4.7,2.8-7.1,4.3C319.8,137.2,321.2,138.4,323.6,140.4z"/>
	<path d="M264.3,112.3c7.4-2.3,6.5-9.5,8.4-14.7c2.9-8.1,3.5-9,13.3-8c-1.5,4.8-3.1,9.6-4.7,14.7c7.2-1,12.7-2.6,13.9-10.7
		c1-7,7.3-4.3,12.4-6c-1.4,4.5-2.4,8-3.5,11.6c2.5,0.9,4.8,1.7,7.8,2.7c-4.2,2.2-9.4,0.5-11,6.3c4.6,0.7,8.9,1.4,13.1,2.1
		c-5.5,3.3-12.2,2.7-17.1,6.5c0.1,0.5,0.2,1,0.3,1.4c2.7,0.6,5.3,1.3,8.6,2.1c-1.2,0.8-1.8,1.5-2.4,1.5c-8.5,0-10.6,6.3-12.4,12.7
		c-2.2,7.6-2.2,7.5-10.9,7.5c1.6-5.5,3.1-10.7,4.7-16c-9.2-1.2-12.3,0.7-14.9,9.3c-2.1,6.9-3.1,7.6-11.1,7.6
		c1.1-4.1,2.2-8.2,3.4-12.7c-1.8,0.3-3.2,0.4-5.8,0.8c4.8-2.5,9.2-4,8-10c-1.6,0.2-3.7,0.6-7.2,1.1c3.6-1.8,6-2.8,8.2-4.2
		c0.9-0.6,1.7-2.1,1.7-3.1C266.9,114,265.4,113.3,264.3,112.3z M288.1,118.5c-7.1-2.8-12.2-0.5-12.8,4.8
		C279.8,121.6,283.9,120,288.1,118.5z M278.4,113.8c4.6-1.7,8.5-3.1,12.3-4.5c-0.2-0.4-0.3-0.9-0.5-1.3
		C284.2,106.9,279.5,108.8,278.4,113.8z"/>
	<path d="M196.9,106.5c6,2.9,12.1,5.9,18.5,9c3.9-7.1,7.6-13.9,11.3-20.7c0.4,0.1,0.8,0.2,1.2,0.4c0,7.4,0,14.8,0,23
		c9.7-1.2,18.8-2.3,27.9-3.3c0.1,0.4,0.3,0.8,0.4,1.2c-8.8,4.6-17.5,9.1-26.9,14c1,7.3,2.2,15.4,3.3,23.5c-0.3,0.1-0.6,0.2-0.9,0.4
		c-4.4-5-8.8-9.9-13-15c-2.4-3-4.6-3.4-8.1-1.8c-8.4,3.8-17,7.2-26.1,10c3.8-3.6,7.6-7.3,11.5-10.9c3-2.8,5.9-5.8,9.1-8.3
		c3-2.2,2.5-4.1,0.7-6.6c-3.3-4.6-6.4-9.4-9.7-14.2C196.4,106.9,196.7,106.7,196.9,106.5z"/>
	<path d="M350.7,123c5.7-7.3,11.5-14.7,17.4-22.3c-3.2-5-6.5-9.9-9.5-15c-0.8-1.3-0.4-3.2-0.6-4.9c1.8,0.4,4.1,0.2,5.3,1.3
		c3.6,3.5,6.8,7.5,9.9,11c3.4-3.2,6.8-6.4,10.4-9.4c0.9-0.8,2.6-0.6,3.9-0.9c0.1,1.4,0.7,3,0.2,4.1c-1.5,3.1-3.2,6.3-5.5,8.8
		c-3.4,3.6-2.7,6.3,0.3,9.7c3.5,3.9,6.5,8.3,9.7,12.5c1.4,1.9,2.7,4,0,5.9c-2.4,1.7-4.6,2.4-6.8-0.5c-3.1-4.3-6.7-8.2-9.6-12.6
		c-1.9-2.8-2.8-2.4-4.5,0.1c-3.2,4.4-6.6,8.7-10.1,12.9C356.9,128.8,355.8,128.7,350.7,123z"/>
	<path d="M324.2,100.1c3.8-1,7.3-1.9,10.8-2.9c3.5-1,5.4-3.8,3.7-6.7c-1.2-2-5.1-4-7.1-3.4c-3.8,1.1-7,4-10.5,6.1
		c-1.3,0.7-2.7,1.2-4.1,1.8c-0.5-1.8-2-4.3-1.4-5.2c2.8-3.6,5.6-7.7,9.5-9.7c8.1-4.1,18.6-3.6,22.2,6.4c3.2,8.9-2.8,20.5-12.2,22.2
		c-4.1,0.7-4.8,2.7-5,5.9c-0.1,1.2-0.1,2.3-0.2,3.5c-0.5,9.1-0.5,9.1-10.8,9.8C320.9,118.4,322.6,109.2,324.2,100.1z"/>
	<path d="M475.8,52c-4,13.3-7.7,26.1-11.8,38.9c-2.2,6.7-2.4,6.6-12.6,6c1.9-6.4,3.7-12.6,5.5-18.9c1.8-6,3.6-12,5.3-18.1
		C463.6,55,467.3,52.7,475.8,52z"/>
	<path d="M452,58c-3.3,11.1-6.3,20.9-9.2,30.7c-0.5,1.6-1.1,3.1-1.6,4.7c-2.4,8.7-2.4,8.7-12.9,9.2c1.5-5.4,2.8-10.6,4.3-15.7
		c1.8-6.4,4.3-12.6,5.5-19.1C439.6,60.5,445.8,60.8,452,58z"/>
	<path d="M427.1,67.2c-3.7,12.2-7.1,24-10.8,35.7c-1.7,5.4-6.3,2.3-10.5,3.9c2.2-7.8,4.1-14.4,6-21c0.8-2.9,1.7-5.7,2.5-8.6
		C416.3,69.9,419,67.6,427.1,67.2z"/>
	<path d="M452.7,104.8c4.1,0,6.7,2.8,6.6,7.1c-0.1,4.3-2.7,6.6-7,6.5c-3.8-0.1-6.5-2.9-6.5-6.7C445.8,108,449.1,104.8,452.7,104.8z"
		/>
	<path d="M436.2,116.2c-0.1,3.6-3.1,6.5-6.7,6.4c-3.8-0.1-6.5-2.9-6.4-6.7c0.1-3.3,3.5-6.7,6.7-6.7
		C433,109.3,436.2,112.8,436.2,116.2z"/>
	<path d="M408.3,113c3.3,0.9,5.9,2.6,5.5,6.5c-0.4,3.8-3,5.6-6.5,5.3c-3.6-0.3-5.7-2.4-5.4-6.3C402.2,114.4,405,113.4,408.3,113z"/>
	<path d="M323.6,140.4c-2.4-2-3.8-3.2-5.3-4.5c2.3-1.5,4.5-3.6,7.1-4.3c1.2-0.4,3.2,1.8,4.8,2.8
		C328.1,136.3,326.2,138.1,323.6,140.4z"/>
	<path class="st0" d="M288.1,118.5c-4.1,1.6-8.2,3.1-12.8,4.8C275.9,117.9,280.9,115.7,288.1,118.5z"/>
	<path class="st0" d="M278.4,113.8c1.1-5,5.8-6.9,11.8-5.8c0.2,0.4,0.3,0.9,0.5,1.3C286.9,110.7,283,112.1,278.4,113.8z"/>
</g>
</svg>
