<?xml version="1.0" encoding="utf-8"?>
<!-- Generator: Adobe Illustrator 23.0.0, SVG Export Plug-In . SVG Version: 6.00 Build 0)  -->
<svg version="1.1" id="Layer_1" xmlns="http://www.w3.org/2000/svg" xmlns:xlink="http://www.w3.org/1999/xlink" x="0px" y="0px"
	 viewBox="0 0 179.5 201.4" style="enable-background:new 0 0 179.5 201.4;" xml:space="preserve">
<style type="text/css">
	.st0{fill:#FFFFFF;}
</style>
<polygon class="st0" points="31,3.1 44.9,0.5 50.9,28.6 80.4,28.6 82.3,46.3 56.6,51.7 57.4,77.3 39.3,82.9 31,54 4.7,60.1 0,38 
	29.7,33.4 "/>
<polygon class="st0" points="58.6,116 88.1,88 114.2,122.1 152.2,92.2 175.1,111 140,140.1 171.5,174.4 145.1,197.7 116.9,165.8 
	77.9,194.6 61.7,181.4 89.2,148.5 87.7,134.3 65.3,125 "/>
<g>
	<path d="M98.1,145.9c-0.8,11.3-7.6,18.8-16.5,24.6c-5.9,3.8-12.4,6.9-18.6,10.3c-0.4,0.2-0.9,0.6-1.4,0.6c-5.7,0.1-5-5.8-7.6-8.6
		c-0.4-0.5,1.3-4.2,2.8-5.1c6.9-4,14.3-7.3,21.1-11.4c2.3-1.3,4.1-4,5.2-6.4c1.8-3.8,1.9-8.1-2.5-10.3c-6.6-3.4-13.3-6.6-20.2-9.4
		c-4.4-1.8-5.8-5-3.8-11.3c1.3-4.2,4.2-3.6,7.6-2.5c9.6,3.2,19.2,6.3,26.7,13.6C95.5,134.3,98.4,139.4,98.1,145.9z"/>
	<path d="M114.4,158.6c9.3-0.5,15.2,5.2,19.5,12.3c4.4,7.1,7.5,15,11.3,22.5c1.2,2.4,0.9,4.2-1.6,5.2c-2.6,1.1-5.2,2.6-7.8,2.7
		c-1.4,0.1-3.5-1.9-4.3-3.4c-4-7.3-7.1-15.1-11.6-22.1c-2.8-4.3-7.4-4.2-11.8-1c-7.5,5.6-12.4,13.2-15.9,21.8c-1.6,4-3.5,4.8-7,2.7
		c-1.2-0.7-2.6-1.2-4-1.8c-2.6-1.2-4.8-2.8-2.8-6.1c5.2-8.6,9.3-17.9,17.2-24.7C101.2,162.1,106.9,158.4,114.4,158.6z"/>
	<path d="M179.5,122.3c-4.8,2-9.3,3.4-13.5,5.6c-5.3,2.9-10.4,6.2-15.4,9.7c-3.9,2.7-3.2,6-0.3,9.3c5.4,6.3,13.1,8.7,20.1,12.2
		c2.2,1.1,5.7,3.4,5.5,4.6c-0.6,3.7-2.7,7.3-4.4,10.8c-0.2,0.3-1.9,0.3-2.6-0.1c-9.2-5.4-19-10.2-27.4-16.7
		c-9.6-7.5-10.8-18.3-3.9-27.2c3.2-4.1,7.6-7.5,12.1-10.2c5.9-3.6,12.4-6.2,18.7-9.1c5.2-2.4,6.4-1.8,8.3,3.6
		C177.6,116.9,178.4,119.1,179.5,122.3z"/>
	<path d="M118.5,130.3c-9.9-0.5-15.6-5-19.2-11.3c-4-6.9-6.8-14.6-10.1-21.9c-0.1-0.3-0.1-0.7-0.2-1c-2.7-8.5-1.7-10.2,7.3-10.9
		c1.5-0.1,3.9,2,4.7,3.6c3,6.5,5,13.6,8.4,19.9c6.2,11.5,9.3,10.8,19.1,0.5c4.4-4.6,6.8-11.1,9.5-17.1c1.7-3.7,3-5.8,7.2-3.2
		c0.9,0.6,2.2,0.7,3.4,0.8c3.3,0.4,4.6,2.8,3.5,5.3c-5.3,12.2-10.3,24.9-23.1,31.6C125.1,128.6,120.8,129.5,118.5,130.3z"/>
	<path d="M11.2,41.3c-2,0-4,0.2-6-0.1c-1.8-0.2-5-0.8-5.1-1.6c-0.4-2.4-0.1-5.3,1-7.4c0.6-1.2,3.2-1.7,4.9-1.8
		c5.2-0.4,10.6,0,15.8-0.6c3.4-0.4,5-2.6,3.8-6.5c-1.5-4.9-2.7-9.9-3.5-14.9c-0.8-5.3,4.3-4,7-5.1c2.9-1.2,2.9,1.5,3.3,3.5
		c1,5,2.4,10,3.3,15.1c1.9,10.8-1.1,15.5-11.7,18.1c-4.2,1-8.5,1.2-12.8,1.8C11.3,41.6,11.2,41.5,11.2,41.3z"/>
	<path d="M32.3,75c-0.8-3.4-1.5-6.7-2.3-10.1c-1.8-7.3-3.4-7.2-10.9-4.2c-1.7,0.7-3.1,1.9-4.6,2.9c-4.9,3.5-7,3.2-9.5-2.2
		c-0.7-1.4-0.2-4.8,0.7-5.3c6.2-3.1,12.4-6.6,19-8c8.7-1.8,15,4.5,16.5,15.2c0.8,5.4,1.2,10.8,1.3,16.3c0,1.1-2.1,3.3-3.2,3.3
		c-2.6-0.1-6.4,1.7-7.5-2.7c-0.4-1.6-0.1-3.3-0.1-5C31.9,75.1,32.1,75.1,32.3,75z"/>
	<path d="M61.2,35.6c-12.1,0-16-3-17.2-11.8c-0.8-6.4-0.7-12.8-0.7-19.3c0-3,1.4-5.3,5-4.3c3,0.8,6.1,1.3,5.4,6.1
		c-0.7,4.7-0.5,9.6-0.2,14.4c0.2,3.4,2.5,5,6,4.2c4.8-1.2,9.6-2.4,14.3-3.9c3.2-1,4.7,0.4,5.7,3c1,2.7,2.1,5.9-1.6,7.1
		C71.4,33.2,64.8,34.7,61.2,35.6z"/>
	<path d="M48.4,51.2c1.5-6.1,6.7-8.6,12-8.7c6.5-0.2,13.2,1,19.6,2.2c3.8,0.7,1.8,4,1.3,6.2c-0.8,2.9-2,5.3-5.9,4.3
		c-3.3-0.8-6.8-1.3-10.2-1.4c-4-0.1-6.4,3.9-5,7.6c1.2,3.2,2.6,6.4,3.4,9.7c1.2,4.8-3.6,4.9-6.1,6.2c-2.2,1.2-3.6-0.2-4.3-3
		c-1.1-4.6-3.1-9-4.9-14"/>
</g>
</svg>
