<?xml version="1.0" encoding="utf-8"?>
<!-- Generator: Adobe Illustrator 23.0.0, SVG Export Plug-In . SVG Version: 6.00 Build 0)  -->
<svg version="1.1" id="comic" xmlns="http://www.w3.org/2000/svg" xmlns:xlink="http://www.w3.org/1999/xlink" x="0px" y="0px"
	 viewBox="0 0 1190.6 841.9" style="enable-background:new 0 0 1190.6 841.9;" xml:space="preserve">
<style type="text/css">
	.st0{clip-path:url(#SVGID_2_);}
</style>
<g>
	<defs>
		<rect id="SVGID_1_" width="1190.6" height="841.9"/>
	</defs>
	<clipPath id="SVGID_2_">
		<use xlink:href="#SVGID_1_"  style="overflow:visible;"/>
	</clipPath>
	<polygon class="st0" points="424.8,166.7 302.3,-52.6 313.8,-56.3 	"/>
	<polygon class="st0" points="436.9,197.5 266.6,-80.9 280.6,-78.7 	"/>
	<polygon class="st0" points="397.3,144.8 250.8,-76.2 260.5,-78.1 	"/>
	<polygon class="st0" points="980.8,508.4 1223.8,572.1 1218.4,582.9 	"/>
	<polygon class="st0" points="1013.8,498.1 1272.1,558 1266.3,566 	"/>
	<polygon class="st0" points="395.9,175 233.7,-34.8 243.3,-37.3 	"/>
	<polygon class="st0" points="415.1,218.6 198,-29 226.5,-22.9 	"/>
	<polygon class="st0" points="331.1,179.6 80.6,-76.9 124,-70.4 	"/>
	<polygon class="st0" points="262.1,122.6 5.6,-133.9 55,-127.4 	"/>
	<polygon class="st0" points="377.8,134.3 212.6,-85.9 241,-88.6 	"/>
	<polygon class="st0" points="354.8,252.8 -15,-28.3 11,-40 	"/>
	<polygon class="st0" points="298.1,227.6 -69.4,-36.4 -28,-49 	"/>
	<polygon class="st0" points="373.1,289.1 -97.9,-31.9 -53.5,-14.5 	"/>
	<polygon class="st0" points="399.6,690.2 234.4,1051.2 244.1,1004.6 	"/>
	<polygon class="st0" points="278,240 -164,-48 -109.5,-32.5 	"/>
	<polygon class="st0" points="781.5,712.4 937.4,969.3 908.9,970.9 	"/>
	<polygon class="st0" points="801,733.9 999.5,1050 971,1051.6 	"/>
	<polygon class="st0" points="775.1,656.1 1028.3,1045.5 999.9,1047.8 	"/>
	<polygon class="st0" points="820,699 1076.8,1071.5 1033.6,1069.4 	"/>
	<polygon class="st0" points="770.1,615.8 1105.1,1076.9 1069.2,1045.6 	"/>
	<polygon class="st0" points="354,132 151.1,-81.4 202.6,-89 	"/>
	<polygon class="st0" points="317.6,146.6 98.6,-81.4 150.1,-89 	"/>
	<polygon class="st0" points="357.3,174.5 168.7,-36.9 179.9,-40.3 	"/>
	<polygon class="st0" points="977.3,390.8 1219.9,325.8 1220.7,337.8 	"/>
	<polygon class="st0" points="938.5,387.5 1250,290.6 1244.5,303.6 	"/>
	<polygon class="st0" points="999.3,362 1249.4,274.1 1248.8,284 	"/>
	<polygon class="st0" points="970.3,353.3 1213.4,247.4 1213.5,257.3 	"/>
	<polygon class="st0" points="923.3,361.2 1216.6,211.4 1203.7,237.5 	"/>
	<polygon class="st0" points="1014.2,345.7 1268.2,239.5 1263.8,267.6 	"/>
	<polygon class="st0" points="1022.3,323.2 1278.9,178.7 1273.6,230.5 	"/>
	<polygon class="st0" points="981.8,301 1232.9,169.9 1233.4,181.6 	"/>
	<g class="st0">
		<polygon points="205.9,388.8 -92.5,353.2 -76.2,329.8 		"/>
		<polygon points="238.9,402.6 -132.3,364 -116.1,340.6 		"/>
		<polygon points="317.7,422.9 -146.1,398.8 -131.3,374.4 		"/>
		<polygon points="256.7,434 -195.7,422.7 -168.6,388.9 		"/>
		<polygon points="312,440 -258,439.8 -211.5,429.2 		"/>
		<polygon points="247,455.6 -280.4,466.4 -226.6,448.5 		"/>
	</g>
	<g class="st0">
		<polygon points="257.5,269.2 -25.7,125 -16.5,117.7 		"/>
		<polygon points="273.5,301 -19.9,177.2 -11.3,169.2 		"/>
		<polygon points="319.1,334.9 -54.5,203.2 -20.8,193.4 		"/>
		<polygon points="207.4,342.3 -206.8,220.3 -157,202.5 		"/>
		<polygon points="101.2,322.7 -319.4,204 -263.2,182.9 		"/>
		<polygon points="230.8,269.4 -71.9,136.6 -43.3,117.9 		"/>
		<polygon points="204.2,280.5 -134.6,175.9 -84.3,139.1 		"/>
		<polygon points="173.9,316 -190.3,205.5 -140,168.6 		"/>
		<polygon points="232.2,322.2 -90.2,211.7 -80.3,201.9 		"/>
	</g>
	<polygon class="st0" points="325.8,398 -191.6,294.9 -135.3,289 	"/>
	<polygon class="st0" points="993.2,609.1 1270.1,725.8 1248,743.8 	"/>
	<polygon class="st0" points="965.3,586.7 1311.4,726.5 1289.3,744.5 	"/>
	<polygon class="st0" points="895.2,545.3 1334.3,696.9 1313.3,716.1 	"/>
	<polygon class="st0" points="957,551.6 1388.5,687.6 1353.1,712.5 	"/>
	<polygon class="st0" points="866.5,516.6 1414.2,674.4 1366.6,671.8 	"/>
	<polygon class="st0" points="972.2,533.5 1482,669.1 1425.4,671.4 	"/>
	<polygon class="st0" points="910.5,709.7 1142.9,926.6 1132,931.1 	"/>
	<polygon class="st0" points="904,674.7 1151.7,874.9 1141.2,880.2 	"/>
	<polygon class="st0" points="869.6,629.5 1192.2,859.4 1157,859.5 	"/>
	<polygon class="st0" points="249.9,483.9 -140.6,550.2 -115.9,525.2 	"/>
	<polygon class="st0" points="979,653.4 1343.2,885.2 1290.5,888.5 	"/>
	<polygon class="st0" points="1075.6,701.6 1446.9,931.9 1387.1,936.7 	"/>
	<polygon class="st0" points="936.3,716.9 1190.4,928.2 1157.8,938.3 	"/>
	<polygon class="st0" points="965,713.6 1261.5,907.8 1203,929.3 	"/>
	<polygon class="st0" points="1003.8,687.8 1323.3,894.8 1264.8,916.3 	"/>
	<polygon class="st0" points="949.5,665.8 1228.8,861.2 1216.5,867.8 	"/>
	<polygon class="st0" points="856.7,556 1325.4,798.2 1269.6,788.3 	"/>
	<g class="st0">
		<polygon points="1040.3,210.7 1232.2,71.2 1240.6,87.5 		"/>
		<polygon points="1056.3,191 1312.6,-11 1312,3.1 		"/>
		<polygon points="1079.6,165.5 1309.2,-27.6 1312.2,-18.2 		"/>
	</g>
	<polygon class="st0" points="521.8,183.4 451.1,-57.7 463.1,-58.7 	"/>
	<polygon class="st0" points="526.8,216.1 422.6,-93.1 435.7,-87.8 	"/>
	<polygon class="st0" points="499.9,155.9 406.1,-92.1 416,-91.7 	"/>
	<polygon class="st0" points="688,680.2 774.7,916 762.8,917.8 	"/>
	<polygon class="st0" points="711.7,706.2 821.9,947.3 812,947.6 	"/>
	<polygon class="st0" points="489.4,194.4 362.1,-59.8 372.2,-62.7 	"/>
	<polygon class="st0" points="489.3,168.3 396.9,-28.7 416,-31.5 	"/>
	<polygon class="st0" points="471.9,174.6 364.5,-14.9 375.1,-19.6 	"/>
	<polygon class="st0" points="502.6,210.9 377.6,-43.3 389.3,-43.6 	"/>
	<polygon class="st0" points="935.8,460.6 1211.2,513 1206.1,525.8 	"/>
	<polygon class="st0" points="900.8,448.8 1260.8,502.3 1249,512.9 	"/>
	<polygon class="st0" points="974.2,452.5 1268.1,485 1262.8,494.9 	"/>
	<polygon class="st0" points="941.3,422 1258.2,423.6 1255.9,435.4 	"/>
	<polygon class="st0" points="967.3,435.4 1209.7,443 1202.9,463.8 	"/>
	<polygon class="st0" points="969.7,414.4 1212.4,402.9 1211.6,416.1 	"/>
	<polygon class="st0" points="918.2,427 1234,430.9 1228.4,442.9 	"/>
	<g class="st0">
		<polygon points="846.9,268.6 1151.6,-38.6 1178,-27.3 		"/>
		<polygon points="859.3,246.5 1090,-10.7 1120.7,-14 		"/>
		<polygon points="908.1,187.5 1101.8,-41.7 1106.3,-32.9 		"/>
		<polygon points="852.6,213.2 1011.8,-22.2 1019.3,-14.8 		"/>
		<polygon points="824.7,265.7 1034.7,-12 1042.4,-2.4 		"/>
		<polygon points="834.3,243.4 1028.7,-21.3 1044.7,-20.7 		"/>
	</g>
	<polygon class="st0" points="960.3,242.9 1369.6,-89.9 1338.2,-42.7 	"/>
	<polygon class="st0" points="1059.6,393.9 1307.2,351.5 1306.8,363.5 	"/>
	<polygon class="st0" points="1037.9,133.8 1246.2,-59.6 1251.7,-50.7 	"/>
	<polygon class="st0" points="998.9,178.6 1202.8,4.9 1208.1,15.9 	"/>
	<polygon class="st0" points="1013.2,159.1 1217.4,-14.5 1220.2,-10.2 	"/>
	<polygon class="st0" points="980.1,268.4 1333.8,20.9 1316.7,70.9 	"/>
	<polygon class="st0" points="1061.6,197.6 1416.8,-57 1398.2,0.1 	"/>
	<polygon class="st0" points="1021.4,258.6 1335.1,43 1332.5,105.3 	"/>
	<polygon class="st0" points="980.2,300.3 1267.8,117.3 1269.2,131.2 	"/>
	<g class="st0">
		<polygon points="591.8,215.1 576.1,-21.7 594.4,-20.1 		"/>
		<polygon points="583.6,191 549.6,-133.5 561.2,-125.5 		"/>
		<polygon points="574.6,157.7 533.7,-139.6 543.2,-137.1 		"/>
		<polygon points="554.4,173.8 485.8,-102 496.3,-102.6 		"/>
		<polygon points="574.7,229.6 521.2,-32.9 533.5,-32.2 		"/>
		<polygon points="564.6,207.6 511.3,-55 516.5,-55.5 		"/>
	</g>
	<polygon class="st0" points="823.7,195.4 955.6,-18.4 964.4,-10.1 	"/>
	<polygon class="st0" points="802.7,221 962.9,-63.3 967.8,-50 	"/>
	<polygon class="st0" points="829.5,160.8 951.2,-74.8 957.5,-67.3 	"/>
	<polygon class="st0" points="793.8,178.6 897.7,-85.9 906.6,-80.3 	"/>
	<polygon class="st0" points="813.2,161.1 897.9,-39.3 912.7,-27 	"/>
	<polygon class="st0" points="796.8,152.4 865.9,-54.2 876.5,-49.4 	"/>
	<polygon class="st0" points="790.4,199.5 895.8,-63.4 903.9,-54.9 	"/>
	<g class="st0">
		<polygon points="650.5,169.3 688.5,-260.8 715.7,-215.5 		"/>
		<polygon points="627.8,192.8 661.2,-242.9 693,-192 		"/>
		<polygon points="669.7,131.4 706.2,-247.5 752.2,-205.5 		"/>
		<polygon points="675.1,189.7 719.8,-148.1 731.4,-140.3 		"/>
	</g>
	<g class="st0">
		<polygon points="580.1,656.8 565.5,893.6 547.5,889.8 		"/>
		<polygon points="585.2,681.7 577.6,1007.9 567.1,998.5 		"/>
		<polygon points="589.9,715.9 592.5,1016 583.4,1012.3 		"/>
		<polygon points="612,702.5 644.8,984.8 634.4,984.1 		"/>
		<polygon points="598.9,644.6 618.5,911.8 606.4,909.5 		"/>
		<polygon points="606.2,667.7 625.5,935 620.4,934.8 		"/>
	</g>
	<polygon class="st0" points="347.6,646.8 161,877 117.6,904.3 	"/>
	<polygon class="st0" points="371.7,624.1 176.6,885.6 173.4,871.9 	"/>
	<polygon class="st0" points="140.6,724.2 -37.9,860.3 -40.3,850.8 	"/>
	<polygon class="st0" points="126,479.1 -97.3,501.8 -94.4,492.4 	"/>
	<polygon class="st0" points="120.2,168 -75.7,58.4 -67.9,52.4 	"/>
	<polygon class="st0" points="132,587.7 -77.9,667.2 -77.5,657.4 	"/>
	<polygon class="st0" points="375.1,667.2 238.3,916.4 230.2,909.7 	"/>
	<polygon class="st0" points="353.7,682.2 244.1,870.1 231,856.1 	"/>
	<polygon class="st0" points="368.8,692.9 273.9,889 264,882.9 	"/>
	<polygon class="st0" points="381.1,647 243.1,894.3 236.2,884.9 	"/>
	<g class="st0">
		<polygon points="439.6,649.8 315.8,942.6 307.9,933.9 		"/>
		<polygon points="470.2,631.7 367.5,933.1 358.9,925 		"/>
		<polygon points="491.9,613.5 386.9,995.5 374.7,962.5 		"/>
		<polygon points="516,694.7 423.6,1116.5 402.4,1068.1 		"/>
		<polygon points="541.5,674.3 452.9,1102.2 427.9,1047.7 		"/>
		<polygon points="441.7,676.5 330.7,987.8 310,960.6 		"/>
		<polygon points="454.7,702.3 374.3,1047.6 334,1000 		"/>
		<polygon points="492.2,729.9 407.7,1101.1 367.4,1053.5 		"/>
		<polygon points="494.3,671.4 406.8,1000.8 396.4,991.6 		"/>
	</g>
	<g class="st0">
		<g>
			<polygon points="265.4,560.9 -22,720.7 -25.3,710.7 			"/>
			<polygon points="313.8,526.5 -37.8,701.3 -40.4,689.3 			"/>
			<polygon points="295.3,542.1 -36.7,712.3 -50.7,704.5 			"/>
		</g>
	</g>
	<polygon class="st0" points="283.2,589.8 -12.7,767.6 -16.8,756.2 	"/>
	<polygon class="st0" points="313.4,576.3 -39.3,804.4 -37.7,790.4 	"/>
	<polygon class="st0" points="262.5,618.1 -34,820 -36.3,810.4 	"/>
	<polygon class="st0" points="305,502.2 -113.4,612.6 -130.4,589.5 	"/>
	<polygon class="st0" points="283.1,515.1 -46.1,619.7 -74.2,607 	"/>
	<polygon class="st0" points="211.2,541.2 -72,640.5 -71.4,630.7 	"/>
	<polygon class="st0" points="733.3,205.3 825.2,-98.9 834.1,-91.2 	"/>
	<polygon class="st0" points="704.9,226.7 774.9,-84 784.3,-76.9 	"/>
	<polygon class="st0" points="685.3,247 748.9,-143.9 764.5,-112.5 	"/>
	<polygon class="st0" points="728.4,179 805.6,-142.3 829.1,-117.5 	"/>
	<polygon class="st0" points="712.8,154.8 755.9,-197.1 801.1,-154.1 	"/>
	<polygon class="st0" points="268,651.8 24.9,856.5 21.7,845.2 	"/>
	<polygon class="st0" points="303.5,649.5 75.2,871.5 71.2,860.4 	"/>
	<polygon class="st0" points="331.1,643.1 64.2,935.9 68.3,901 	"/>
	<polygon class="st0" points="257.8,676.5 17.6,903.5 11.5,869.9 	"/>
	<polygon class="st0" points="257.7,705.4 29.4,976.6 15,915.9 	"/>
	<polygon class="st0" points="661.7,684.2 725.1,961.2 714.6,961.6 	"/>
	<polygon class="st0" points="655.6,709.6 698.7,922.8 679.5,921 	"/>
	<polygon class="st0" points="674,707.5 733.5,917.1 722.1,919.1 	"/>
	<polygon class="st0" points="652.7,665 714,941.6 702.5,939.1 	"/>
	<polygon class="st0" points="864.6,685.9 1204.9,1089 1157.2,1058.5 	"/>
	<polygon class="st0" points="281.6,161.6 55,-35.8 81.6,-46 	"/>
	<polygon class="st0" points="301.1,191.6 16,-49.3 42.6,-59.5 	"/>
	<polygon class="st0" points="758.7,707.6 909.7,967.5 881.2,968.6 	"/>
	<polygon class="st0" points="749.9,673 942.2,992.8 913.7,993.9 	"/>
	<polygon class="st0" points="318.5,691.4 46,1052.6 34.4,1010.9 	"/>
	<polygon class="st0" points="339.6,690.3 87.8,1066.3 41,1008 	"/>
</g>
</svg>
