<?xml version="1.0" encoding="utf-8"?>
<!-- Generator: Adobe Illustrator 23.0.0, SVG Export Plug-In . SVG Version: 6.00 Build 0)  -->
<svg version="1.1" id="Layer_1" xmlns="http://www.w3.org/2000/svg" xmlns:xlink="http://www.w3.org/1999/xlink" x="0px" y="0px"
	 viewBox="0 0 473 285.1" style="enable-background:new 0 0 473 285.1;" xml:space="preserve">
<style type="text/css">
	.st0{fill:#2E2A26;}
	.st1{fill:#F5EC0F;}
	.st2{fill:#FDFDFD;}
</style>
<g>
	<path class="st0" d="M392.2,221.1c-6.2,2-12.1,5-18.1,7.5c-4.5,1.8-5.2,5.1-3.9,9.3c4.5,14.5,9.1,29,17.7,41.7
		c1.2,1.8,1.6,3.5,1.5,5.6c-1,0-2,0-3,0c-7.1-4.7-15.7-6-23.2-9.8c-8.8-4.4-17.2-9.6-25.1-15.5c-1-0.9-2-1.9-3-2.8
		c-0.2-0.2-0.4-0.3-0.6-0.4c-3.8-4.2-7.7-8.4-11.5-12.6c-1.3-1.5-2.7-2-4.5-0.9c-5.5,2-11.4,1.6-17,2.6c-15.6,3-31.3,2.9-47,3.8
		c-18.6,1.1-37.3-0.6-55.9-1.4c-13.3-0.6-26.3-3.9-39.4-6.3c-10.7-2-21.2-5.2-31.7-8c-24.3-6.6-46.4-18-67.9-30.7
		c-11.9-7-20.9-17.4-30.3-27.2c0-0.3-0.1-0.5-0.3-0.6c-0.8-0.8-1.7-1.6-2.5-2.4c-1.6-2.7-3.4-5.3-4.9-8c-13-22.3-14.1-45.2-2.4-68.3
		c10.3-20.2,26.7-34.5,45.4-46.5c25.5-16.3,53.5-26.4,82.8-33.5c26.5-6.4,53.3-9.7,80.5-10.4c16.2-0.4,32.4-0.4,48.6,2
		c6.4,1,13.4,0.8,20.1,1.6c13.9,1.6,27.6,4.4,41.1,7.9c17.1,4.5,33.9,10.1,50.1,17.3c14.2,6.3,27.9,13.4,40.7,22.3
		c14.3,10,26.3,22.3,35.6,37c4.5,8.3,7.1,17.3,8.1,26.6c2.3,19.7-3.1,37.1-15.3,52.7c-12.7,16.2-28.8,28.3-46.7,38.2 M366.6,194.7
		c0.1,8.1-0.2,16.2,0.7,24.3c0.7,5.8,1.2,6.2,6.8,3.9c8.3-3.5,16.8-6.7,24.9-10.8c18.5-9.2,35.5-20.4,49.5-35.8
		c6.8-7.5,13.1-15.7,15.9-25.1c2.8-9.5,5.7-19.2,3.4-30c-2.5-11.9-6.6-22.7-13.7-32.3c-15.4-20.8-36.5-34.3-59.6-45
		c-18.7-8.7-38.3-14.2-58.4-18.7c-17.6-3.9-35.3-6.5-53.2-7.7c-35.9-2.5-71.7-1.8-107.4,4.3c-12.6,2.1-25.2,4.4-37.5,7.8
		C115.4,35.9,93.3,44,72.9,56.2C54.8,67,38.7,79.9,28,98.5c-8.4,14.7-10.8,30.5-6.1,47c5.9,20.5,19.6,35.3,36.2,47.7
		c25.9,19.4,55.5,31.1,86.6,38.9c13.6,3.4,27.1,7.5,41.3,8.4c10.8,0.6,21.5,2.6,32.3,3.2c31.8,1.8,63.5,0.1,95-4.9
		c3.2-0.5,6-1,2.8-5.2c-1.4-1.8-1.9-4.3-2.8-6.4c0.3-0.4,0.7-0.7,1-1.1c14.9,18.3,33,32.2,55.7,41.1
		C361.1,243,358.7,219,366.6,194.7z"/>
	<path class="st1" d="M281.6,1.1c0.2,0.1,0.4,0.1,0.6,0.2c3.6,1.1,7.2,2.6,10.8,2.7c14.2,0.4,27.9,3.7,41.6,6.8
		c25.5,5.9,50,14.8,73.1,27.4c20.5,11.2,38.5,25.4,51.5,45.1c2.3,3.4,4.6,6.9,5.1,11.2c-9.3-14.8-21.3-27-35.6-37
		c-12.8-8.9-26.5-16-40.7-22.3c-16.2-7.2-33-12.9-50.1-17.3c-13.5-3.5-27.2-6.3-41.1-7.9c-6.7-0.8-13.6-0.7-20.1-1.6
		c-16.2-2.4-32.4-2.4-48.6-2c-27.2,0.7-54,4-80.5,10.4c-29.3,7.1-57.3,17.2-82.8,33.5c-18.7,12-35.2,26.3-45.4,46.5
		c-11.7,23.2-10.6,46,2.4,68.3c1.6,2.7,3.3,5.3,4.9,8c-7.7-0.4-11.4-6.2-15.1-11.6C4,149.9,0.8,137.4,0.1,123.5
		C-1,101.3,9.2,84.8,22.9,69.3c13.7-15.4,30.9-26.1,48.6-35.8c11-6,22.7-10.7,34.9-14c12.5-3.4,24.7-7.6,37.2-10.7
		c8.8-2.2,18-2.7,26.8-4.8c7.2-1.7,14.5-1.9,21.8-1.9C192.3,2.1,270.2-1.8,281.6,1.1z"/>
	<path class="st1" d="M29.2,175.3c0.3,0.1,0.4,0.3,0.3,0.6c-0.2,0-0.4,0.1-0.6,0.1C29,175.8,29.1,175.5,29.2,175.3z"/>
	<path class="st2" d="M366.6,194.7c-8,24.3-5.6,48.2,3.4,72.5c-22.8-9-40.8-22.8-55.7-41.1c-0.3,0.4-0.7,0.7-1,1.1
		c0.9,2.2,1.4,4.6,2.8,6.4c3.1,4.2,0.4,4.7-2.8,5.2c-31.5,5-63.2,6.8-95,4.9c-10.8-0.6-21.5-2.6-32.3-3.2
		c-14.2-0.9-27.7-4.9-41.3-8.4c-31.1-7.9-60.7-19.5-86.6-38.9c-16.5-12.4-30.3-27.2-36.2-47.7c-4.7-16.5-2.3-32.2,6.1-47
		C38.7,79.9,54.8,67,72.9,56.2c20.4-12.2,42.5-20.3,65.2-26.7c12.3-3.4,24.9-5.7,37.5-7.8c35.6-6.1,71.5-6.7,107.4-4.3
		c17.9,1.2,35.6,3.9,53.2,7.7c20.1,4.4,39.7,9.9,58.4,18.7c23.1,10.8,44.2,24.2,59.6,45c7.1,9.6,11.2,20.4,13.7,32.3
		c2.3,10.8-0.7,20.6-3.4,30c-2.8,9.4-9.1,17.6-15.9,25.1c-14,15.5-30.9,26.7-49.5,35.8c-8.1,4-16.6,7.3-24.9,10.8
		c-5.6,2.3-6.1,2-6.8-3.9C366.4,210.9,366.7,202.8,366.6,194.7z"/>
</g>
</svg>
