<?xml version="1.0" encoding="utf-8"?>
<!-- Generator: Adobe Illustrator 23.0.0, SVG Export Plug-In . SVG Version: 6.00 Build 0)  -->
<svg version="1.1" xmlns="http://www.w3.org/2000/svg" xmlns:xlink="http://www.w3.org/1999/xlink" x="0px" y="0px"
	 viewBox="0 0 532.2 360.4" style="enable-background:new 0 0 532.2 360.4;" xml:space="preserve">
<style type="text/css">
	.st0{fill-rule:evenodd;clip-rule:evenodd;fill:#231F20;}
	.st1{fill-rule:evenodd;clip-rule:evenodd;fill:#FEC919;}
	.st2{fill-rule:evenodd;clip-rule:evenodd;fill:#FFFFFF;}
	.st3{fill:#7F6350;}
	.st4{fill:#F90F1B;}
</style>
<g id="Layer_2">
</g>
<g id="Layer_3">
</g>
<g id="Layer_4">
	<g>
		<path class="st0" d="M63.2,82.2c20.7,13.9,38.1,17.6,43.2,7.6c20.5-3.7,28.8-21,31-49c26.8,14.4,47.6,18.1,46.2-3
			c30.8,12.1,39.5-0.7,37.4-27c6.1,25.7,16.3,34.6,18.7,6.8c30.3,29.3,52.8,22,79.5-17.6c9.6,39,23.5,45.7,48.3,7.6
			c0.5,42.3,11.9,39.8,33.5,2.9c-21.7,36.9-11.3,45.9,31.3,14.2C415,71.2,429.6,77,470.3,42.9c-40.7,34.1-41.6,40.7,10.9,13
			c-47.2,44.7-40.9,55.1,33.4,38.6c-70.9,40.8-73.8,54.6,12.3,54.6c-82.6,21.1-76.2,28.5,5.2,32.7c-89.8,3.6-91,17.1-14.4,47
			c-79.6-5.6-81.4,5.4-18.8,30.7c-62.6-25.3-76.4-14.1-33.6,32.8c-70.4-24.5-84.1-13.4-41.1,27.6c-32.2-34.8-46.8-35.6-42.7,11.6
			c-30.4-35.5-42.1-23-44.9,19.2c-33.6-33.3-58.3-36.9-85.5-4.3c-5.6-23.7-13.6-11.1-13.3,14.1c-0.3-25.2-10-35.5-36.5-20.4
			c-5-15.5-26.6-5.7-52.6,13.8c-17.5-38-52.2-37.5-71.9-17.7c19.7-19.9,17.6-34.3-21-21.3c17.2-21,25.2-35.1,21.8-40.3
			c-2.7-5.5-16.9-2.1-44.1,12c27.3-14.1,40.4-24.9,36.7-31.2c-1.6-7-20.1-9.6-55.8-7.2c33.6-17.3,49.8-29.7,46.2-36.9
			c1-7.8-17.8-10.3-54.4-7.9c73.2-4.8,40.3-24.5-6.2-34.7c44.8-1.8,36.2-23,8.8-34c35,6.9,50.9-1.4,24.8-27.1
			c28.2,5,46,5.5,49.5,0.8C90.6,105,83.9,96.1,63.2,82.2z"/>
		<path class="st1" d="M77.8,91.7c18.9,12.7,34.7,16,39.4,6.9c18.7-3.4,26.2-19.1,28.3-44.6c24.4,13.1,43.3,16.5,42.1-2.8
			c28.1,11,36-0.6,34-24.6c5.6,23.4,14.8,31.5,17.1,6.2c27.6,26.7,48.1,20.1,72.5-16c8.8,35.6,21.4,41.6,44,6.9
			c0.4,38.5,10.8,36.3,30.5,2.7c-19.7,33.6-10.3,41.8,28.5,13c-15.9,42.3-2.6,47.6,34.5,16.5c-37.1,31-37.9,37.1,10,11.9
			c-43,40.8-37.3,50.2,30.4,35.1c-64.6,37.2-67.2,49.7,11.2,49.8c-75.2,19.3-69.4,26,4.8,29.7c-81.8,3.3-82.9,15.5-13.1,42.8
			c-72.5-5.1-74.1,4.9-17.1,27.9c-57-23-69.6-12.9-30.6,29.9c-64.1-22.3-76.6-12.2-37.4,25.1c-29.3-31.7-42.6-32.4-38.9,10.6
			c-27.7-32.4-38.4-20.9-40.9,17.5c-30.6-30.3-53.1-33.7-77.9-3.9c-5.1-21.6-12.4-10.1-12.1,12.9c-0.2-23-9.1-32.3-33.2-18.5
			c-4.5-14.1-24.2-5.2-47.9,12.6c-15.9-34.6-47.5-34.2-65.5-16.1c17.9-18.1,16-31.3-19.1-19.4c15.6-19.1,23-32,19.8-36.7
			c-2.4-5-15.3-1.9-40.2,10.9c24.8-12.8,36.8-22.6,33.4-28.4c-1.5-6.4-18.3-8.7-50.8-6.6c30.6-15.8,45.4-27.1,42.1-33.6
			c0.9-7.1-16.2-9.4-49.6-7.2c66.7-4.4,36.7-22.3-5.6-31.6c40.8-1.6,33-20.9,8-31c31.9,6.3,46.3-1.2,22.6-24.7
			c25.7,4.5,41.9,5,45.1,0.7C102.8,112.4,96.7,104.4,77.8,91.7z"/>
		<path class="st2" d="M90.4,97.8c17.6,11.8,32.4,14.9,36.7,6.4c17.4-3.1,24.4-17.8,26.4-41.6c22.8,12.3,40.4,15.4,39.3-2.6
			c26.2,10.3,33.5-0.6,31.7-22.9c5.2,21.8,13.8,29.3,15.9,5.8c25.7,24.9,44.8,18.7,67.5-15c8.2,33.1,20,38.8,41,6.5
			c0.4,35.9,10.1,33.8,28.5,2.5c-18.4,31.3-9.6,39,26.5,12.1c-14.8,39.5-2.4,44.4,32.2,15.4c-34.6,28.9-35.3,34.6,9.3,11.1
			c-40.1,38-34.7,46.8,28.4,32.7c-60.2,34.6-62.7,46.4,10.4,46.4c-70.1,18-64.7,24.2,4.5,27.7c-76.3,3.1-77.3,14.5-12.2,39.9
			c-67.6-4.7-69.1,4.6-15.9,26c-53.2-21.5-64.9-12-28.6,27.8c-59.7-20.8-71.5-11.3-34.9,23.4c-27.3-29.5-39.7-30.2-36.3,9.9
			c-25.8-30.2-35.8-19.5-38.2,16.3c-28.6-28.3-49.5-31.4-72.6-3.7c-4.7-20.1-11.5-9.4-11.3,12c-0.2-21.4-8.5-30.1-31-17.3
			c-4.2-13.2-22.6-4.8-44.6,11.7c-14.9-32.3-44.3-31.9-61-15c16.7-16.9,14.9-29.1-17.8-18.1c14.6-17.8,21.4-29.8,18.5-34.2
			c-2.3-4.7-14.3-1.8-37.5,10.2c23.2-11.9,34.3-21.1,31.1-26.5c-1.4-5.9-17-8.1-47.4-6.1c28.5-14.7,42.3-25.2,39.2-31.3
			c0.9-6.6-15.1-8.8-46.2-6.7c62.2-4.1,34.2-20.8-5.2-29.4c38-1.5,30.7-19.5,7.4-28.9c29.7,5.8,43.2-1.2,21-23
			c24,4.2,39.1,4.7,42,0.7C113.7,117.2,108,109.7,90.4,97.8z"/>
	</g>
</g>
<g id="Layer_5">
	<g>
		<g>
			<g>
				<g>
					<g>
						<g>
							<g>
								<path d="M403,140.9c0,0-0.4-0.1-1-0.3c-0.4-0.1-0.6-0.2-1-0.3c-0.4-0.1-0.9-0.2-1.4-0.3c-0.5-0.1-1.1-0.2-1.8-0.3
									c-0.6-0.1-1.3-0.2-2-0.2c-1.4-0.1-2.9-0.2-4.4-0.2c-1.5,0-3,0-4.5,0.1c-0.7,0-1.4,0.1-2.1,0.2c-0.7,0.1-1.3,0.2-1.8,0.2
									c-0.6,0.1-1.1,0.2-1.5,0.3c-0.5,0.1-0.9,0.2-1.2,0.3c-0.6,0.2-1,0.3-1,0.3s0.3-0.2,0.9-0.6c0.3-0.2,0.7-0.3,1.1-0.6
									c0.4-0.2,0.9-0.4,1.5-0.7c0.5-0.2,1.1-0.5,1.8-0.7c0.6-0.2,1.3-0.5,2-0.7c1.4-0.4,2.9-0.9,4.5-1.2c1.5-0.4,3.1-0.7,4.6-0.9
									c0.7-0.1,1.5-0.2,2.2-0.3c0.7-0.1,1.4-0.2,2-0.2c0.6,0,1.2-0.1,1.7-0.1c0.5,0,1.1,0,1.4,0c0.7,0,1.1,0,1.1,0L403,140.9z"/>
							</g>
						</g>
					</g>
				</g>
			</g>
		</g>
	</g>
	<g>
		<g>
			<g>
				<g>
					<g>
						<g>
							<g>
								<path d="M70,247.9c0,0,0.4,0,1.1-0.1c0.4,0,0.7-0.1,1.1-0.1c0.4,0,1-0.1,1.5-0.2c1.1-0.2,2.5-0.5,3.9-0.8
									c1.4-0.4,3-0.8,4.5-1.3c3.1-1,6.1-2.2,8.3-3.2c0.5-0.3,1-0.5,1.5-0.8c0.4-0.3,0.8-0.5,1.1-0.7c0.6-0.4,0.9-0.6,0.9-0.6
									s-0.3,0.3-0.8,0.8c-0.3,0.3-0.6,0.6-0.9,0.9c-0.4,0.3-0.8,0.7-1.3,1.1c-1.9,1.6-4.7,3.5-7.5,5.2c-1.4,0.9-2.9,1.7-4.3,2.4
									c-1.4,0.7-2.8,1.3-4,1.8c-0.6,0.2-1.1,0.5-1.7,0.6c-0.5,0.2-1.1,0.4-1.4,0.5c-0.7,0.2-1.1,0.3-1.1,0.3L70,247.9z"/>
							</g>
						</g>
					</g>
				</g>
			</g>
		</g>
	</g>
	<g>
		<g>
			<g>
				<g>
					<g>
						<g>
							<path class="st3" d="M78.3,258.5c-0.1,3.7-0.3,7.3-0.4,10.9c-0.1,1.1-0.5,1.8-0.9,2.2c-0.5,0.4-1.5,0.6-2.9,0.5
								c-1.7-0.2-3.3-0.3-4.6-0.3c-1.3,0-2.7-0.3-3.9-0.7c-1.3-0.5-2.2-1.2-2.8-2.1c-0.6-0.9-1-2.2-1.1-3.9
								c-0.1-1.4-0.2-3.3-0.4-5.9c-0.2-2.6-0.4-5.5-0.6-8.8c-0.2-3.3-0.4-6.8-0.6-10.6c-0.2-3.8-0.4-7.5-0.5-11.3
								c-0.1-3.8-0.2-7.4-0.2-11c0-3.6,0.1-6.8,0.3-9.7c0.2-2.9,0.5-5.3,0.9-7.2c0.5-1.9,1-3.2,1.8-3.8c3.6-2.4,7.3-4.9,11.2-7.3
								c3.9-2.4,7.8-4.4,11.8-5.8c3.9-1.4,7.8-2.1,11.5-2.2c3.7,0,7.2,1.1,10.3,3.4c2.6,2.1,4.9,4.3,7.2,6.8
								c2.2,2.5,4.1,5.6,5.8,9.5c1.5,4.1,1.7,7.7,0.8,10.7c-1.5,4.8-4.4,9.4-8.8,14c-4.4,4.5-9.8,9-16.2,13.4
								c1.7,1.4,3.5,2.9,5.5,4.5c2,1.6,4,3.1,6.1,4.7c2.1,1.5,4.2,3,6.2,4.4c2,1.4,3.9,2.6,5.7,3.6c1.4,0.9,2.1,1.6,2.1,2.3
								c0,0.7-0.4,1.4-1.3,2.3c-1,1.1-1.8,1.8-2.6,2.1c-0.7,0.3-1.7,0.6-2.8,1c-1.3,0.6-2.8,1-4.5,1.1c-1.7,0.1-3.7-0.3-6.1-1.3
								c-1.6-0.8-3.4-1.8-5.5-3c-2.1-1.2-4.3-2.6-6.6-4.1c-2.3-1.5-4.6-3.1-6.9-4.8c-2.3-1.7-4.4-3.4-6.4-5.2
								C78.6,250.9,78.4,254.8,78.3,258.5z M81.4,217.3c-0.3,3.9-0.8,8-1.3,12.4c4-2.2,7.5-4.6,10.5-7.3c3-2.7,5.4-5.3,7.3-7.9
								c1.9-2.6,3.2-4.9,3.8-7.1c0.7-2.1,0.7-3.7,0.2-4.7c-1-1.7-3.4-2.2-7-1.6c-1.8,0.3-3.7,0.9-5.8,1.7c-2.1,0.8-4.3,2-6.5,3.7
								C82.1,209.8,81.7,213.4,81.4,217.3z"/>
						</g>
					</g>
				</g>
			</g>
		</g>
		<g>
			<g>
				<g>
					<g>
						<g>
							<path class="st3" d="M74.7,272.5c-0.2,0-0.4,0-0.7,0c-1.7-0.2-3.3-0.3-4.6-0.3c-1.4,0-2.7-0.3-4.1-0.7
								c-1.4-0.5-2.4-1.3-3-2.3c-0.6-1-1-2.3-1.2-4.1c-0.1-1.4-0.2-3.3-0.4-5.9c-0.2-2.6-0.4-5.5-0.6-8.8c-0.2-3.3-0.4-6.9-0.6-10.6
								c-0.2-3.8-0.4-7.6-0.5-11.3c-0.1-3.8-0.2-7.5-0.2-11c0-3.6,0.1-6.8,0.3-9.7c0.2-2.9,0.5-5.3,0.9-7.3c0.5-2.1,1.1-3.4,1.9-4
								c3.6-2.4,7.3-4.9,11.2-7.3c3.9-2.4,7.9-4.4,11.8-5.8c4-1.4,7.9-2.2,11.6-2.2c3.8,0,7.4,1.2,10.6,3.5c2.6,2.1,5,4.4,7.2,6.8
								c2.2,2.5,4.2,5.7,5.8,9.6c1.5,4.2,1.8,7.9,0.8,11c-1.5,4.8-4.5,9.6-8.9,14.1c-4.3,4.4-9.6,8.9-15.9,13.1
								c1.6,1.3,3.3,2.7,5.1,4.1c2,1.5,4,3.1,6.1,4.6c2.1,1.5,4.1,3,6.2,4.4c2,1.4,3.9,2.6,5.7,3.6c1.6,1,2.3,1.8,2.3,2.7
								c0,0.8-0.5,1.6-1.4,2.5c-1,1.1-1.9,1.8-2.7,2.2c-0.8,0.3-1.7,0.6-2.8,1c-1.3,0.6-2.8,1-4.6,1.1c-1.7,0.1-3.8-0.3-6.3-1.3
								c-1.6-0.8-3.5-1.8-5.6-3c-2.1-1.2-4.3-2.6-6.6-4.1c-2.3-1.5-4.6-3.1-6.9-4.8c-2.1-1.5-4-3.1-5.8-4.6
								c-0.2,3.7-0.4,7.3-0.5,10.8c-0.1,3.7-0.3,7.3-0.4,10.9c-0.2,1.2-0.5,2-1.1,2.5C76.7,272.3,75.9,272.5,74.7,272.5z
								 M96.7,181.9c-3.7,0-7.5,0.7-11.4,2.1c-3.9,1.4-7.8,3.3-11.7,5.8c-3.9,2.4-7.6,4.9-11.2,7.3c-0.6,0.5-1.2,1.7-1.6,3.6
								c-0.4,1.9-0.8,4.3-0.9,7.2c-0.2,2.9-0.3,6.1-0.3,9.6c0,3.5,0.1,7.2,0.2,11c0.1,3.7,0.3,7.5,0.5,11.3
								c0.2,3.7,0.4,7.2,0.6,10.6c0.2,3.3,0.4,6.2,0.6,8.8c0.2,2.6,0.3,4.6,0.4,5.9c0.1,1.6,0.5,2.8,1,3.7c0.5,0.8,1.4,1.5,2.6,2
								c1.2,0.4,2.5,0.6,3.8,0.7c1.3,0,2.9,0.1,4.7,0.3c0.2,0,0.4,0,0.6,0c1.3,0,1.8-0.2,2-0.4c0.4-0.3,0.7-1,0.8-2
								c0.1-3.5,0.3-7.1,0.4-10.8c0.1-3.7,0.3-7.6,0.6-11.6l0-0.8l0.6,0.6c1.9,1.7,4,3.5,6.3,5.1c2.3,1.7,4.6,3.3,6.9,4.8
								c2.3,1.5,4.5,2.9,6.6,4.1c2.1,1.2,4,2.2,5.5,3c2.3,0.9,4.3,1.4,5.9,1.2c1.6-0.1,3.1-0.5,4.3-1.1c1.1-0.4,2-0.7,2.8-1
								c0.7-0.3,1.5-0.9,2.4-2c0.8-0.8,1.1-1.5,1.2-2c0-0.3-0.2-0.9-1.9-1.9c-1.7-1-3.7-2.2-5.7-3.7c-2.1-1.4-4.2-2.9-6.2-4.5
								c-2.1-1.5-4.2-3.1-6.2-4.7c-2-1.5-3.9-3-5.6-4.5l-0.4-0.3l0.4-0.3c6.4-4.3,11.8-8.8,16.2-13.3c4.3-4.5,7.3-9.1,8.7-13.8
								c1-2.9,0.7-6.4-0.8-10.4c-1.6-3.8-3.5-6.9-5.7-9.4c-2.2-2.4-4.6-4.7-7.1-6.7C103.7,183,100.3,181.9,96.7,181.9z M79.6,230.4
								l0.1-0.8c0.5-4.4,0.9-8.6,1.3-12.4c0.3-3.9,0.7-7.5,1.2-10.9l0-0.2l0.1-0.1c2.2-1.6,4.5-2.9,6.6-3.7c2.1-0.8,4.1-1.4,5.9-1.7
								c3.8-0.7,6.3-0.1,7.4,1.7c0.6,1.2,0.6,2.8-0.1,5.1c-0.7,2.2-2,4.6-3.9,7.2c-1.9,2.6-4.4,5.3-7.3,8c-3,2.7-6.5,5.2-10.6,7.4
								L79.6,230.4z M82.9,206.6c-0.5,3.3-0.9,7-1.2,10.7c-0.3,3.6-0.7,7.5-1.2,11.6c3.7-2.1,7-4.4,9.8-6.9c2.9-2.7,5.4-5.3,7.2-7.9
								c1.8-2.5,3.1-4.9,3.8-7c0.6-2,0.7-3.5,0.2-4.4c-0.9-1.5-3.2-1.9-6.6-1.3c-1.8,0.3-3.7,0.9-5.8,1.7
								C87.2,203.9,85.1,205,82.9,206.6z"/>
						</g>
					</g>
				</g>
			</g>
		</g>
	</g>
	<g>
		<g>
			<g>
				<g>
					<g>
						<g>
							<path class="st3" d="M174.8,182.4c1.4,2,2.6,4.4,3.6,7.1c1.4,4.5,2.4,9.6,2.9,15.1c0.5,5.5,0.5,11.1-0.1,16.7
								c-0.6,5.6-1.8,11.1-3.5,16.3c-1.7,5.2-4.2,9.8-7.3,13.7c-2.2,2.4-4.6,4.2-7.2,5.3c-2.6,1.1-5.7,1.8-9.3,2
								c-2.4,0.1-4.9,0.2-7.4,0c-2.6-0.1-5-0.5-7.2-1.3c-1.8-0.6-3.6-1.5-5.5-2.6c-1.8-1.1-3.4-2.5-4.6-4.1c-2-2.7-3.6-5.8-4.9-9.4
								c-1.3-3.6-2.3-7.4-2.9-11.5c-0.6-4.1-0.8-8.3-0.6-12.7c0.2-4.4,0.8-8.7,1.8-13c1-4.3,2.5-8.5,4.3-12.5
								c1.9-4,4.2-7.7,6.9-11.2c1.9-2.1,4.3-3.8,7.1-5.2c2.9-1.4,5.7-2.1,8.5-2.1c3.6,0,7.1,0.3,10.5,1c3.4,0.7,6.3,1.7,8.7,3
								C171.3,178.6,173.3,180.4,174.8,182.4z M151.1,191.5c-1.4,1.8-2.6,4.2-3.8,7.2c-1.2,3-2.2,6.2-3.1,9.7
								c-0.9,3.5-1.5,6.9-1.9,10.1c-0.4,3.1-0.5,6.4-0.4,9.6c0.1,3.3,0.5,6.3,1.1,9.1c0.6,2.8,1.4,5.1,2.4,6.9
								c1.1,1.9,2.3,2.9,3.8,3.1c1.4,0.2,2.7-0.3,4-1.6c1.3-1.3,2.4-3.1,3.5-5.4c1.1-2.3,2-5.2,2.8-8.5c0.8-3.3,1.3-6.9,1.7-10.7
								c0.3-3.1,0.4-6.5,0.4-10.2c-0.1-3.7-0.4-7.1-0.9-10.2c-0.5-3.2-1.2-5.9-2.2-8c-1-2.2-2.1-3.3-3.4-3.5
								C153.8,188.9,152.4,189.7,151.1,191.5z"/>
						</g>
					</g>
				</g>
			</g>
		</g>
		<g>
			<g>
				<g>
					<g>
						<g>
							<path class="st3" d="M149.8,259.1c-1.1,0-2.3,0-3.4-0.1c-2.6-0.1-5-0.6-7.3-1.3c-1.8-0.6-3.7-1.5-5.6-2.6
								c-1.9-1.1-3.4-2.6-4.7-4.2c-2-2.7-3.7-5.9-5-9.5c-1.3-3.6-2.3-7.5-2.9-11.6c-0.6-4.1-0.8-8.4-0.6-12.8
								c0.2-4.4,0.8-8.8,1.8-13.1c1-4.3,2.5-8.5,4.4-12.6c1.9-4,4.2-7.8,7-11.2c1.9-2.1,4.4-3.9,7.3-5.3c2.9-1.4,5.8-2.2,8.7-2.2
								l0.4,0c3.5,0,6.9,0.3,10.2,1c3.4,0.7,6.4,1.7,8.8,3.1c2.7,1.6,4.8,3.4,6.3,5.5c1.5,2,2.7,4.5,3.6,7.2
								c1.4,4.6,2.4,9.7,2.9,15.2c0.5,5.5,0.5,11.2-0.1,16.8c-0.6,5.6-1.8,11.1-3.5,16.4c-1.7,5.2-4.2,9.9-7.4,13.8
								c-2.2,2.4-4.7,4.3-7.3,5.4c-2.6,1.1-5.8,1.8-9.5,2.1C152.5,259.1,151.2,259.1,149.8,259.1z M149.8,173.4l-0.4,0
								c-2.7,0-5.5,0.7-8.3,2.1c-2.8,1.4-5.2,3.1-7,5.2c-2.7,3.4-5,7.1-6.9,11.1c-1.8,4-3.3,8.1-4.3,12.4c-1,4.2-1.6,8.6-1.8,13
								c-0.2,4.3,0,8.6,0.6,12.6c0.6,4.1,1.6,7.9,2.9,11.4c1.3,3.5,3,6.6,4.9,9.3c1.2,1.6,2.7,2.9,4.5,4c1.8,1.1,3.6,2,5.4,2.6
								c2.2,0.7,4.6,1.1,7.1,1.3c2.5,0.1,5,0.1,7.4,0c3.5-0.2,6.6-0.9,9.2-2c2.6-1.1,4.9-2.9,7-5.2c3.1-3.9,5.5-8.4,7.2-13.6
								c1.7-5.2,2.9-10.6,3.5-16.2c0.6-5.6,0.6-11.2,0.1-16.6c-0.5-5.5-1.5-10.5-2.9-15c-0.9-2.7-2.1-5-3.5-7c-1.4-2-3.4-3.7-6-5.3
								c-2.3-1.3-5.2-2.3-8.5-3C156.6,173.7,153.3,173.4,149.8,173.4z M149.9,247.6L149.9,247.6c-0.2,0-0.5,0-0.7-0.1
								c-1.6-0.2-3-1.3-4.1-3.3c-1.1-1.9-1.9-4.2-2.5-7c-0.6-2.8-0.9-5.8-1.1-9.1c-0.1-3.3,0-6.6,0.4-9.7c0.4-3.2,1-6.6,1.9-10.1
								c0.9-3.5,1.9-6.8,3.1-9.8c1.2-3,2.5-5.4,3.9-7.3c1.4-2,3-2.8,4.5-2.6c1.4,0.2,2.7,1.4,3.7,3.7c1,2.2,1.7,4.9,2.2,8.1
								c0.5,3.1,0.8,6.6,0.9,10.3c0.1,3.7,0,7.1-0.4,10.3c-0.3,3.8-0.9,7.4-1.7,10.7c-0.8,3.3-1.7,6.2-2.8,8.6
								c-1.1,2.4-2.3,4.2-3.6,5.5C152.4,247.1,151.2,247.6,149.9,247.6z M154.7,189.5c-1.1,0-2.2,0.8-3.3,2.3
								c-1.3,1.8-2.6,4.2-3.8,7.1c-1.2,2.9-2.2,6.2-3.1,9.7c-0.9,3.5-1.5,6.9-1.9,10c-0.4,3.1-0.5,6.3-0.4,9.6
								c0.1,3.3,0.5,6.3,1.1,9c0.6,2.7,1.4,5,2.4,6.8c1,1.7,2.2,2.7,3.5,2.9c0.2,0,0.4,0,0.6,0c1,0,2.1-0.5,3.1-1.5
								c1.2-1.2,2.4-3,3.4-5.3c1.1-2.3,2-5.1,2.8-8.4c0.8-3.3,1.3-6.9,1.7-10.6c0.3-3.1,0.4-6.5,0.4-10.2c-0.1-3.7-0.4-7.1-0.9-10.2
								c-0.5-3.1-1.2-5.8-2.2-7.9c-0.9-2-1.9-3.1-3.1-3.3C155,189.5,154.8,189.5,154.7,189.5z"/>
						</g>
					</g>
				</g>
			</g>
		</g>
	</g>
	<g>
		<g>
			<g>
				<g>
					<g>
						<g>
							<path class="st3" d="M186,233.4c-1.1-3-1.9-6.3-2.5-10c-0.6-3.7-1-7.7-1.1-11.9c-0.2-4.2-0.2-8.5-0.1-13
								c0.1-4.4,0.3-8.9,0.7-13.3c0.3-4.5,0.7-8.9,1.2-13.1c0.2-1.9,0.7-3.2,1.6-3.7c0.9-0.5,2.4-0.6,4.5-0.3c2,0.3,3.9,0.7,5.7,1.3
								c1.8,0.6,3.7,1.4,5.5,2.3c3.7,1.9,5.4,4.9,5,9c-0.5,3.5-0.9,7.2-1.4,11.3c-0.5,4-0.8,8.1-1.1,12.2c-0.3,4.1-0.5,8.1-0.5,12
								c0,3.9,0.1,7.3,0.4,10.3c0.3,3,0.9,5.5,1.7,7.4c0.8,1.9,1.9,2.9,3.3,3.1c1.7,0.2,3.3-0.9,4.5-3.3c1.3-2.4,2.3-5.6,3.2-9.5
								c0.9-4,1.6-8.5,2.1-13.7c0.5-5.1,1-10.4,1.3-15.8c0.3-5.4,0.5-10.7,0.6-15.9c0.1-5.2,0.2-9.8,0.3-13.9
								c-0.2-1.9,0.3-3.2,1.5-3.8c1.2-0.6,2.7-0.8,4.5-0.6c1.8,0.2,3.9,0.6,6,1.3c2.2,0.7,4.2,1.4,6,2.2c1,0.4,1.7,0.8,2.3,1.2
								s0.9,0.8,1.2,1.3c0.3,0.5,0.4,1,0.5,1.6c0,0.6,0,1.4,0,2.2c-0.4,9.4-0.9,18.1-1.6,26.1c-0.7,7.9-1.6,15-2.7,21.2
								c-1.2,6.2-2.7,11.5-4.5,15.9c-1.8,4.4-4.1,7.7-6.9,10c-2,1.5-4,2.6-6.1,3.4c-2.1,0.8-4.6,1.3-7.4,1.6
								c-5.6,0.6-10.4,0.1-14.3-1.3c-1.7-0.6-3.3-1.4-4.9-2.4c-1.6-1-3-2.3-4.3-3.9C188.5,238.9,187.1,236.4,186,233.4z"/>
						</g>
					</g>
				</g>
			</g>
		</g>
		<g>
			<g>
				<g>
					<g>
						<g>
							<path class="st3" d="M209,249.2c-3.7,0-7-0.5-9.9-1.6c-1.7-0.6-3.4-1.5-5-2.4c-1.6-1-3.1-2.3-4.4-4c-1.7-2-3.1-4.6-4.2-7.6
								c-1.1-3-1.9-6.4-2.5-10.1c-0.6-3.7-1-7.7-1.2-11.9c-0.2-4.2-0.2-8.6-0.1-13c0.1-4.4,0.3-8.9,0.7-13.3
								c0.3-4.4,0.7-8.9,1.2-13.1c0.2-2.1,0.8-3.4,1.8-4c1-0.6,2.6-0.7,4.8-0.3c1.9,0.3,3.9,0.7,5.8,1.3c1.9,0.6,3.7,1.4,5.5,2.3
								c3.9,2,5.6,5.1,5.2,9.4c-0.5,3.5-0.9,7.3-1.4,11.3c-0.5,4-0.8,8.1-1.1,12.2c-0.3,4.1-0.5,8.1-0.5,12c0,3.8,0.1,7.3,0.4,10.3
								c0.3,3,0.9,5.4,1.6,7.3c0.7,1.8,1.7,2.7,3,2.8c0.1,0,0.2,0,0.3,0c1.4,0,2.7-1.1,3.8-3.1c1.2-2.3,2.3-5.5,3.2-9.4
								c0.9-4,1.6-8.5,2.1-13.6c0.5-5.1,1-10.4,1.3-15.8c0.3-5.4,0.5-10.7,0.6-15.9c0.1-5.2,0.2-9.8,0.3-13.9
								c-0.2-2.1,0.4-3.5,1.7-4.1c1.2-0.6,2.8-0.8,4.7-0.7c1.9,0.2,3.9,0.6,6.1,1.3c2.2,0.7,4.2,1.4,6.1,2.2c1,0.4,1.8,0.9,2.3,1.3
								c0.6,0.4,1,0.9,1.3,1.4c0.3,0.5,0.5,1.1,0.5,1.8c0,0.6,0,1.4,0,2.3c-0.4,9.4-0.9,18.2-1.6,26.1c-0.7,7.9-1.6,15.1-2.7,21.3
								c-1.2,6.2-2.7,11.6-4.5,16c-1.9,4.4-4.2,7.8-7,10.2c-2,1.5-4.1,2.6-6.3,3.4c-2.1,0.8-4.6,1.3-7.5,1.6
								C212,249.1,210.5,249.2,209,249.2z M188,168.3c-0.9,0-1.6,0.1-2.1,0.4c-0.8,0.5-1.3,1.6-1.5,3.4c-0.5,4.3-0.9,8.7-1.2,13.1
								c-0.3,4.4-0.6,8.9-0.7,13.3c-0.1,4.4-0.1,8.7,0.1,12.9c0.2,4.2,0.6,8.2,1.1,11.8c0.6,3.7,1.4,7,2.5,10
								c1.1,2.9,2.4,5.4,4.1,7.4c1.2,1.6,2.6,2.9,4.2,3.8c1.5,1,3.1,1.8,4.8,2.4c3.8,1.4,8.6,1.8,14.2,1.3c2.8-0.3,5.2-0.8,7.3-1.6
								c2.1-0.8,4.1-1.9,6.1-3.3c2.7-2.2,4.9-5.6,6.8-9.9c1.8-4.3,3.3-9.7,4.5-15.8c1.2-6.2,2.1-13.3,2.7-21.2
								c0.7-7.9,1.2-16.7,1.6-26c0.1-0.8,0.1-1.6,0-2.2c0-0.6-0.2-1-0.4-1.5c-0.2-0.4-0.6-0.8-1.1-1.2c-0.5-0.4-1.2-0.8-2.2-1.2
								c-1.8-0.7-3.8-1.4-6-2.2c-2.1-0.7-4.1-1.1-6-1.3c-1.8-0.2-3.2,0-4.3,0.6c-1,0.5-1.4,1.6-1.3,3.4c-0.1,4.1-0.2,8.8-0.3,14
								c-0.1,5.2-0.3,10.5-0.6,15.9c-0.3,5.4-0.7,10.7-1.3,15.8c-0.5,5.1-1.2,9.7-2.1,13.7c-0.9,4-1.9,7.2-3.2,9.6
								c-1.3,2.5-3,3.7-4.9,3.5c-1.6-0.2-2.8-1.3-3.6-3.3c-0.8-1.9-1.4-4.4-1.7-7.5c-0.3-3-0.5-6.5-0.4-10.4c0-3.9,0.2-7.9,0.5-12
								c0.3-4.1,0.7-8.2,1.1-12.2c0.5-4,0.9-7.8,1.4-11.3c0.4-3.9-1.1-6.7-4.8-8.6c-1.8-0.9-3.6-1.7-5.4-2.3c-1.8-0.6-3.7-1-5.6-1.3
								C189.4,168.3,188.7,168.3,188,168.3z"/>
						</g>
					</g>
				</g>
			</g>
		</g>
	</g>
	<g>
		<g>
			<g>
				<g>
					<g>
						<g>
							<path class="st3" d="M284.3,177.4c0.5-8.4,1.1-16.2,1.8-23.3c0.2-1.9,0.8-3.2,1.7-3.8c1-0.6,2.5-0.8,4.5-0.7
								c1,0.1,1.8,0.2,2.6,0.2c0.8,0.1,1.5,0.2,2.3,0.4c0.8,0.2,1.6,0.5,2.5,0.8c0.9,0.3,1.9,0.7,3.1,1.2c2,0.8,3.2,1.8,3.6,3
								c0.4,1.1,0.5,2.6,0.3,4.3c-0.7,5-1.3,10.6-1.9,16.8c-0.6,6.3-1.1,12.6-1.7,19.1c-0.5,6.4-1,12.7-1.5,18.9
								c-0.4,6.1-0.8,11.5-1.1,16.2c0,2.5-1.7,3.6-5.2,3.4c-2.9-0.1-6-0.4-9.1-1c-2.9-0.6-5.1-2.2-6.7-4.8c-1.2-1.8-2.4-4-3.8-6.4
								c-1.3-2.5-2.7-5.1-4.1-8c-1.4-2.9-2.9-5.9-4.3-9c-1.5-3.1-2.9-6.3-4.2-9.5c0,4.1-0.1,8.1-0.2,12.2c-0.1,4.1-0.2,8-0.2,11.7
								c-0.1,3.7-0.1,7.2-0.2,10.3c0,3.2,0,5.9,0,8.3c-0.1,1.1-0.4,1.9-0.9,2.3c-0.5,0.4-1.6,0.5-3.3,0.3c-1.5-0.1-3.1-0.3-4.7-0.4
								c-1.6-0.2-3.2-0.6-4.7-1.2c-1.5-0.5-2.5-1.1-3.1-2c-0.6-0.8-1-2.1-1.1-3.8c-0.2-1.7-0.3-4.2-0.6-7.5c-0.2-3.2-0.4-6.9-0.6-11
								c-0.2-4.1-0.4-8.6-0.5-13.3c-0.2-4.7-0.3-9.4-0.3-14.1c-0.1-4.7-0.1-9.3,0-13.7c0-4.4,0.1-8.3,0.3-11.7c0.1-2,0.7-3.3,1.7-4
								c1-0.7,2.6-0.9,4.6-0.7c2.4,0.3,4.7,0.6,7,1c2.3,0.3,4.7,0.9,7.2,1.6c2.1,0.5,3.6,1.3,4.6,2.4c1,1.1,1.9,2.8,2.7,5.2
								c0.6,1.8,1.4,4.1,2.3,6.9c1,2.8,2,5.8,3.2,9c1.2,3.2,2.4,6.6,3.6,10c1.3,3.4,2.5,6.7,3.7,9.8
								C283.5,194.3,283.8,185.9,284.3,177.4z"/>
						</g>
					</g>
				</g>
			</g>
		</g>
		<g>
			<g>
				<g>
					<g>
						<g>
							<path class="st3" d="M259.9,240.9c-0.4,0-0.9,0-1.4-0.1c-1.5-0.1-3.1-0.3-4.7-0.4c-1.6-0.2-3.2-0.6-4.8-1.2
								c-1.5-0.5-2.6-1.2-3.3-2.1c-0.7-0.9-1.1-2.2-1.2-4c-0.2-1.8-0.4-4.3-0.6-7.5c-0.2-3.3-0.4-7-0.6-11.1
								c-0.2-4.1-0.4-8.6-0.5-13.3c-0.2-4.8-0.3-9.5-0.3-14.2c-0.1-4.7-0.1-9.3,0-13.7c0-4.4,0.1-8.4,0.3-11.8
								c0.1-2.1,0.8-3.6,1.9-4.3c1.1-0.7,2.7-1,4.8-0.8c2.4,0.3,4.8,0.6,7.1,1c2.3,0.3,4.7,0.9,7.3,1.6c2.1,0.5,3.7,1.4,4.8,2.5
								c1,1.1,2,2.9,2.7,5.3c0.6,1.8,1.4,4.1,2.3,6.9c0.9,2.7,2,5.8,3.2,9c1.2,3.2,2.4,6.6,3.6,10c1,2.7,2,5.3,2.9,7.8
								c0-7.8,0.2-15.6,0.7-23.3c0.5-8.4,1.1-16.2,1.8-23.3c0.2-2,0.9-3.4,1.9-4.1c1-0.7,2.6-0.9,4.8-0.7c1,0.1,1.8,0.2,2.6,0.2
								c0.8,0.1,1.6,0.2,2.4,0.4c0.8,0.2,1.6,0.5,2.5,0.8c0.9,0.3,1.9,0.7,3.1,1.3c2.1,0.9,3.3,2,3.8,3.2c0.4,1.2,0.5,2.7,0.3,4.5
								c-0.7,5-1.3,10.6-1.9,16.8c-0.6,6.2-1.1,12.7-1.7,19c-0.5,6.3-1,12.7-1.5,18.9c-0.4,6.1-0.8,11.6-1.1,16.1
								c0,1.1-0.3,2-0.9,2.6c-0.9,0.9-2.5,1.3-4.6,1.2c-2.9-0.1-6-0.4-9.2-1c-3-0.6-5.3-2.3-7-4.9c-1.2-1.8-2.5-4-3.8-6.5
								c-1.3-2.5-2.7-5.2-4.1-8c-1.4-2.8-2.8-5.9-4.3-9c-1.2-2.6-2.4-5.2-3.5-7.7c0,3.4-0.1,6.9-0.2,10.3l-0.2,11.7
								c-0.1,3.7-0.1,7.2-0.2,10.3c0,3.1,0,5.9,0,8.3c-0.1,1.3-0.4,2.1-1,2.6C261.6,240.7,260.9,240.9,259.9,240.9z M248.1,157.3
								c-1.3,0-2.4,0.2-3.1,0.7c-0.9,0.6-1.4,1.8-1.6,3.7c-0.1,3.4-0.2,7.3-0.3,11.7c0,4.3,0,8.9,0,13.6c0.1,4.6,0.2,9.4,0.3,14.1
								c0.2,4.7,0.3,9.2,0.5,13.3c0.2,4.1,0.4,7.8,0.6,11c0.2,3.1,0.4,5.7,0.6,7.5c0.1,1.6,0.5,2.8,1.1,3.6c0.6,0.8,1.5,1.4,2.9,1.8
								c1.6,0.6,3.1,1,4.6,1.2c1.6,0.2,3.1,0.3,4.7,0.4c0.5,0.1,1,0.1,1.4,0.1c1,0,1.5-0.2,1.7-0.3c0.4-0.3,0.7-1,0.7-2
								c-0.1-2.3-0.1-5.1,0-8.3c0-3.2,0.1-6.6,0.2-10.3l0.2-11.7c0.1-4.1,0.1-8.1,0.2-12.2l0-1.9l0.7,1.8c1.3,3.1,2.7,6.3,4.2,9.4
								c1.5,3.1,2.9,6.2,4.3,9c1.4,2.8,2.8,5.5,4.1,8c1.3,2.4,2.6,4.6,3.7,6.4c1.5,2.5,3.7,4,6.4,4.6c3.1,0.6,6.2,0.9,9.1,1
								c0.3,0,0.5,0,0.7,0c1.6,0,2.7-0.3,3.3-1c0.5-0.5,0.7-1.2,0.7-2.1c0.3-4.6,0.6-10.1,1.1-16.2c0.4-6.2,0.9-12.5,1.5-18.9
								c0.5-6.4,1.1-12.8,1.7-19.1c0.6-6.2,1.2-11.9,1.9-16.8c0.2-1.7,0.1-3.1-0.2-4.1c-0.4-1-1.5-2-3.4-2.7c-1.2-0.5-2.2-0.9-3-1.2
								c-0.9-0.3-1.7-0.6-2.4-0.8c-0.7-0.2-1.5-0.3-2.2-0.4c-0.8-0.1-1.7-0.1-2.6-0.2c-1.9-0.2-3.4,0-4.3,0.6
								c-0.8,0.5-1.4,1.7-1.5,3.5c-0.7,7.1-1.3,14.9-1.8,23.3c-0.5,8.4-0.7,16.9-0.6,25.4l0,2.2l-0.8-2.1c-1.2-3.1-2.4-6.4-3.7-9.8
								c-1.3-3.4-2.5-6.8-3.6-10c-1.2-3.3-2.2-6.3-3.2-9c-1-2.8-1.7-5.1-2.3-6.9c-0.7-2.3-1.6-4-2.6-5.1c-0.9-1-2.4-1.8-4.4-2.3
								c-2.5-0.7-4.9-1.3-7.2-1.6c-2.2-0.3-4.6-0.6-7-1C248.9,157.3,248.5,157.3,248.1,157.3z"/>
						</g>
					</g>
				</g>
			</g>
		</g>
	</g>
	<g>
		<g>
			<g>
				<g>
					<g>
						<g>
							<path class="st3" d="M315.9,145.3c3.2-1.3,6.6-2.3,10.3-3c3.6-0.7,7.3-1,11.1-1c3.8,0.1,7.5,0.7,11.1,2
								c3.6,1.2,6.9,3.1,10,5.7c3.1,2.6,5.7,6,7.9,10.4c1.8,3.4,3,7.2,3.6,11.4c0.5,4.1,0.4,8.4-0.4,12.8c-0.8,4.4-2.3,8.8-4.5,13.2
								c-2.2,4.4-5,8.5-8.5,12.4c-3.5,3.9-7.7,7.4-12.6,10.6c-4.9,3.2-10.5,5.7-16.7,7.7c-3.2,1.2-6.5,1-10.1-0.6
								c-1.8-0.9-3.3-1.7-4.7-2.6c-1.3-0.8-2.9-1.9-4.6-3.1c-0.6-0.6-1.3-1.1-1.8-1.7c-0.6-0.5-1.1-1.2-1.5-1.9
								c-0.4-0.7-0.7-1.6-0.9-2.6c-0.1-1-0.1-2.4,0-4l4-61.7C309.9,147.9,312.7,146.6,315.9,145.3z M334.1,204.3
								c3.4-3.1,6.3-6.3,8.5-9.7c2.2-3.4,3.8-6.7,4.9-10c1.1-3.3,1.6-6.4,1.8-9.3c0.2-3.9-0.3-7-1.5-9.2c-1.2-2.2-3.2-3.8-6-4.8
								c-2.9-1-6.3-0.8-10.4,0.6c-2,8.5-3.8,16.9-5.3,25.2c-1.5,8.3-2.9,16.6-4.3,25.1C326.5,210,330.6,207.4,334.1,204.3z"/>
						</g>
					</g>
				</g>
			</g>
		</g>
		<g>
			<g>
				<g>
					<g>
						<g>
							<path class="st3" d="M322.9,228.6c-2,0-4-0.5-6.1-1.5c-1.8-0.9-3.4-1.7-4.7-2.6c-1.3-0.8-2.9-1.9-4.6-3.2
								c-0.7-0.6-1.3-1.1-1.9-1.7c-0.6-0.6-1.1-1.2-1.6-1.9c-0.4-0.7-0.8-1.7-0.9-2.7c-0.2-1.1-0.2-2.4,0-4.1l4.1-61.9l0.2-0.1
								c2.4-1.4,5.2-2.8,8.4-4.1c3.2-1.3,6.7-2.3,10.3-3c3.6-0.7,7.4-1,11.2-1c3.8,0.1,7.6,0.7,11.2,2c3.6,1.2,7,3.2,10.1,5.8
								c3.1,2.6,5.8,6.1,8,10.5c1.8,3.5,3.1,7.3,3.6,11.5c0.5,4.1,0.4,8.5-0.4,12.9c-0.8,4.4-2.3,8.9-4.5,13.3
								c-2.2,4.4-5.1,8.6-8.6,12.5c-3.5,3.9-7.8,7.5-12.7,10.7c-4.9,3.2-10.6,5.8-16.8,7.7C325.8,228.3,324.4,228.6,322.9,228.6z
								 M307.9,149.6l-4,61.5c-0.1,1.6-0.1,2.9,0,3.9c0.1,1,0.4,1.8,0.8,2.4c0.4,0.7,0.9,1.3,1.4,1.8c0.6,0.5,1.2,1.1,1.8,1.6
								c1.7,1.2,3.2,2.3,4.5,3.1c1.3,0.8,2.9,1.7,4.6,2.5c3.4,1.6,6.7,1.8,9.8,0.6c6.2-1.9,11.8-4.5,16.6-7.6
								c4.8-3.1,9.1-6.7,12.5-10.5c3.5-3.9,6.3-8,8.5-12.3c2.1-4.3,3.6-8.7,4.4-13c0.8-4.3,0.9-8.6,0.4-12.6
								c-0.5-4.1-1.7-7.8-3.5-11.2c-2.1-4.3-4.8-7.7-7.8-10.3c-3-2.5-6.3-4.4-9.9-5.6c-3.5-1.2-7.2-1.9-11-1.9
								c-3.8-0.1-7.5,0.3-11.1,0.9c-3.6,0.7-7,1.7-10.2,2.9C312.9,146.9,310.2,148.2,307.9,149.6z M321.1,213l0.1-0.7
								c1.4-8.4,2.8-16.8,4.3-25.1c1.5-8.3,3.3-16.7,5.3-25.2l0-0.2l0.2-0.1c4.1-1.5,7.7-1.7,10.6-0.6c2.9,1.1,5,2.7,6.3,5
								c1.2,2.2,1.7,5.4,1.6,9.4c-0.1,2.9-0.7,6-1.8,9.4c-1.1,3.3-2.7,6.7-4.9,10.1c-2.2,3.4-5.1,6.6-8.5,9.7
								c-3.5,3.1-7.7,5.8-12.5,8.1L321.1,213z M331.6,162.3c-2,8.4-3.7,16.8-5.2,25c-1.5,8-2.9,16.2-4.2,24.3
								c4.5-2.2,8.4-4.7,11.7-7.6c3.4-3.1,6.2-6.3,8.4-9.6c2.2-3.3,3.8-6.6,4.8-9.9c1-3.3,1.6-6.4,1.7-9.2c0.2-3.9-0.3-6.9-1.5-9
								c-1.1-2.1-3.1-3.6-5.8-4.6C338.7,160.8,335.4,161,331.6,162.3z"/>
						</g>
					</g>
				</g>
			</g>
		</g>
	</g>
	<g>
		<g>
			<g>
				<g>
					<g>
						<g>
							<path class="st3" d="M72,256.8c-0.1,3.6-0.3,7.1-0.4,10.5c-0.1,1-0.5,1.8-0.9,2.2c-0.5,0.4-1.4,0.6-2.9,0.5
								c-1.7-0.2-3.3-0.3-4.6-0.3c-1.3,0-2.6-0.3-3.9-0.7c-1.3-0.5-2.2-1.2-2.8-2.1c-0.6-0.9-1-2.1-1.1-3.8
								c-0.1-1.3-0.2-3.2-0.4-5.7c-0.2-2.5-0.4-5.3-0.6-8.5c-0.2-3.2-0.4-6.6-0.6-10.2c-0.2-3.6-0.4-7.3-0.5-11
								c-0.1-3.7-0.2-7.2-0.2-10.7c0-3.5,0.1-6.6,0.3-9.4c0.2-2.8,0.5-5.1,0.9-7c0.4-1.9,1-3.1,1.8-3.7c3.5-2.4,7.3-4.7,11.2-7.1
								c3.9-2.4,7.8-4.2,11.7-5.6c3.9-1.4,7.7-2.1,11.5-2.1c3.7,0,7.1,1.1,10.3,3.3c2.5,2,4.9,4.2,7.1,6.6c2.2,2.4,4.1,5.5,5.8,9.2
								c1.5,4,1.7,7.5,0.8,10.3c-1.5,4.6-4.4,9.1-8.8,13.5c-4.4,4.4-9.8,8.7-16.2,13c1.7,1.4,3.5,2.8,5.5,4.3c2,1.5,4,3,6.1,4.5
								c2.1,1.5,4.1,2.9,6.2,4.3c2,1.4,3.9,2.6,5.7,3.5c1.4,0.8,2.1,1.6,2.1,2.2c0,0.6-0.4,1.4-1.3,2.2c-1,1-1.8,1.7-2.6,2
								c-0.7,0.3-1.7,0.6-2.7,1c-1.3,0.6-2.8,1-4.4,1.1c-1.7,0.1-3.7-0.3-6.1-1.2c-1.6-0.8-3.4-1.7-5.5-2.9c-2.1-1.2-4.3-2.5-6.6-4
								c-2.3-1.5-4.6-3-6.9-4.6c-2.3-1.6-4.4-3.3-6.3-5C72.4,249.4,72.2,253.2,72,256.8z M75.1,216.8c-0.3,3.7-0.8,7.7-1.2,12
								c4-2.1,7.5-4.5,10.5-7.1c3-2.6,5.4-5.2,7.2-7.7c1.9-2.5,3.1-4.8,3.8-6.9c0.7-2.1,0.7-3.6,0.2-4.6c-1-1.6-3.4-2.1-7-1.5
								c-1.8,0.3-3.7,0.8-5.8,1.6c-2.1,0.8-4.2,2-6.5,3.5C75.8,209.6,75.4,213.1,75.1,216.8z"/>
						</g>
					</g>
				</g>
			</g>
		</g>
		<g>
			<g>
				<g>
					<g>
						<g>
							<path class="st3" d="M68.5,271.9c-0.2,0-0.5,0-0.8,0l-0.1,0c-1.7-0.2-3.2-0.2-4.5-0.3c-1.5,0-3-0.3-4.5-0.8l-0.1,0
								c-1.7-0.6-2.9-1.6-3.8-2.8c-0.8-1.2-1.3-2.7-1.4-4.7c-0.1-1.4-0.2-3.3-0.4-5.8c-0.2-2.5-0.4-5.4-0.6-8.5
								c-0.2-3.2-0.4-6.7-0.6-10.3c-0.2-3.7-0.4-7.4-0.5-11c-0.1-3.7-0.2-7.3-0.2-10.7c0-3.5,0.1-6.7,0.3-9.5c0.2-2.9,0.5-5.4,1-7.3
								c0.6-2.4,1.4-3.9,2.5-4.8l0.1-0.1c3.6-2.4,7.3-4.8,11.2-7.1c4-2.4,8.1-4.4,12.1-5.8c4.1-1.4,8.2-2.2,12.1-2.2
								c4.1,0,8,1.2,11.4,3.6l0.1,0.1c2.6,2,5.1,4.3,7.4,6.8c2.3,2.5,4.4,5.8,6.1,9.7l0,0.1c1.6,4.4,1.9,8.3,0.8,11.7
								c-1.5,4.9-4.6,9.7-9.2,14.3c-3.9,4-8.7,7.9-14.2,11.7c1.1,0.9,2.2,1.7,3.4,2.6c2,1.5,4,3,6.1,4.5c2,1.5,4.1,2.9,6.1,4.3
								c2,1.3,3.8,2.5,5.5,3.4c1.4,0.8,3.2,2.1,3.1,4c0,1.2-0.6,2.3-1.8,3.5c-1.2,1.2-2.2,2.1-3.3,2.5c-0.7,0.3-1.6,0.6-2.7,1
								c-1.5,0.7-3.2,1.1-5,1.2c-2,0.1-4.2-0.3-6.9-1.4l-0.1-0.1c-1.6-0.8-3.5-1.7-5.6-3c-2.1-1.2-4.4-2.6-6.7-4
								c-2.3-1.5-4.6-3-6.9-4.7c-1.2-0.8-2.4-1.7-3.5-2.6c-0.1,2.5-0.2,4.9-0.3,7.3c-0.1,3.6-0.3,7.1-0.4,10.5l0,0.2
								c-0.2,1.6-0.7,2.7-1.6,3.4C71.2,271.6,70.1,271.9,68.5,271.9z M67.9,267.9c0.2,0,0.4,0,0.5,0c0.6,0,0.9-0.1,1-0.1
								c0-0.1,0.1-0.3,0.2-0.8c0.1-3.4,0.3-6.9,0.4-10.4c0.1-3.6,0.3-7.4,0.6-11.3l0.3-4l3,2.7c1.9,1.7,3.9,3.3,6.2,4.9
								c2.3,1.6,4.6,3.1,6.8,4.6c2.2,1.4,4.4,2.7,6.5,3.9c2,1.1,3.8,2.1,5.3,2.8c2.1,0.8,3.8,1.2,5.1,1.1c1.4-0.1,2.7-0.4,3.8-0.9
								l0.2-0.1c1.1-0.4,1.9-0.7,2.7-1c0.2-0.1,0.8-0.4,1.8-1.5c0.3-0.3,0.5-0.5,0.6-0.7c-0.2-0.2-0.5-0.4-1-0.7
								c-1.7-1-3.7-2.2-5.8-3.6c-2.1-1.4-4.2-2.8-6.2-4.3c-2.1-1.5-4.2-3-6.2-4.5c-2-1.5-3.9-3-5.6-4.4l-2.1-1.7l2.2-1.5
								c6.3-4.1,11.6-8.4,15.9-12.7c4.1-4.2,6.9-8.4,8.3-12.7c0.8-2.5,0.6-5.5-0.7-9c-1.5-3.5-3.3-6.4-5.4-8.6
								c-2.1-2.3-4.4-4.4-6.9-6.3c-2.8-2-5.8-2.9-9.1-2.9c-3.5,0-7.2,0.7-10.9,2c-3.8,1.3-7.6,3.2-11.4,5.4c-3.8,2.3-7.5,4.7-11,7
								c-0.1,0.1-0.6,0.7-1,2.5c-0.4,1.8-0.7,4-0.9,6.7c-0.2,2.7-0.3,5.8-0.3,9.2c0,3.4,0.1,7,0.2,10.6c0.1,3.6,0.3,7.3,0.5,10.9
								c0.2,3.6,0.4,7,0.6,10.2c0.2,3.2,0.4,6,0.6,8.5c0.2,2.5,0.3,4.4,0.4,5.7c0.1,1.6,0.5,2.4,0.8,2.8c0.3,0.5,1,1,1.8,1.3
								c1.1,0.4,2.2,0.5,3.3,0.6C64.6,267.7,66.2,267.8,67.9,267.9z M71.4,232.4l0.4-3.7c0.5-4.2,0.9-8.3,1.2-12
								c0.3-3.7,0.7-7.3,1.2-10.7l0.1-0.8l0.7-0.5c2.3-1.7,4.7-2.9,6.9-3.8c2.2-0.8,4.3-1.4,6.2-1.7c4.5-0.8,7.5,0.1,9,2.4l0.1,0.1
								c0.8,1.5,0.8,3.5,0,6.2c-0.7,2.3-2.1,4.8-4.1,7.4c-1.9,2.6-4.5,5.3-7.5,8c-3.1,2.7-6.7,5.2-10.9,7.4L71.4,232.4z M78.1,207.4
								c-0.4,3-0.8,6.3-1.1,9.6c-0.2,2.6-0.5,5.3-0.8,8.2c2.5-1.5,4.8-3.2,6.8-5c2.8-2.5,5.2-5,7-7.4c1.7-2.3,2.9-4.4,3.5-6.3
								c0.6-2,0.5-2.8,0.4-3c-0.5-0.6-1.7-0.8-2.6-0.8c-0.7,0-1.5,0.1-2.4,0.2c-1.7,0.3-3.5,0.8-5.4,1.5
								C81.8,205.2,80,206.2,78.1,207.4z"/>
						</g>
					</g>
				</g>
			</g>
		</g>
	</g>
	<g>
		<g>
			<g>
				<g>
					<g>
						<g>
							<path class="st3" d="M168.1,183c1.4,2,2.6,4.2,3.6,6.9c1.4,4.4,2.4,9.3,2.9,14.6c0.5,5.3,0.5,10.7-0.1,16.2
								c-0.6,5.5-1.7,10.7-3.5,15.8c-1.7,5-4.2,9.5-7.3,13.3c-2.2,2.3-4.5,4-7.1,5.1c-2.6,1.1-5.7,1.8-9.3,2c-2.4,0.1-4.9,0.2-7.4,0
								c-2.6-0.1-4.9-0.5-7.2-1.2c-1.8-0.6-3.6-1.4-5.5-2.5c-1.8-1.1-3.4-2.4-4.6-4c-2-2.6-3.6-5.6-4.9-9.1
								c-1.3-3.5-2.3-7.2-2.9-11.1c-0.6-4-0.8-8.1-0.6-12.3c0.2-4.2,0.8-8.5,1.8-12.6c1-4.2,2.5-8.2,4.3-12.1
								c1.9-3.9,4.2-7.5,6.9-10.8c1.9-2,4.3-3.7,7.1-5.1c2.9-1.4,5.7-2,8.5-2.1c3.6,0,7.1,0.3,10.5,0.9c3.4,0.6,6.2,1.6,8.6,3
								C164.7,179.3,166.7,181.1,168.1,183z M144.5,191.9c-1.4,1.8-2.6,4.1-3.8,7c-1.2,2.9-2.2,6-3.1,9.4c-0.9,3.4-1.5,6.7-1.9,9.8
								c-0.4,3-0.5,6.2-0.4,9.3c0.1,3.2,0.5,6.1,1.1,8.8c0.6,2.7,1.4,4.9,2.4,6.7c1.1,1.8,2.3,2.8,3.8,3c1.4,0.2,2.7-0.3,3.9-1.5
								c1.3-1.2,2.4-3,3.5-5.2c1.1-2.3,2-5,2.8-8.2c0.8-3.2,1.3-6.6,1.7-10.3c0.3-3,0.4-6.3,0.4-9.9c-0.1-3.6-0.4-6.9-0.9-9.9
								c-0.5-3.1-1.2-5.7-2.2-7.8c-1-2.1-2.1-3.2-3.4-3.4C147.3,189.3,145.9,190.1,144.5,191.9z"/>
						</g>
					</g>
				</g>
			</g>
		</g>
		<g>
			<g>
				<g>
					<g>
						<g>
							<path class="st3" d="M143.3,259c-1.1,0-2.3,0-3.5-0.1c-2.7-0.1-5.3-0.6-7.7-1.3c-2-0.6-3.9-1.5-5.9-2.7
								c-2-1.2-3.8-2.7-5.1-4.5c-2.1-2.7-3.8-6-5.2-9.6c-1.4-3.6-2.4-7.5-3-11.6c-0.6-4.1-0.8-8.3-0.6-12.7c0.2-4.4,0.8-8.7,1.9-13
								c1.1-4.3,2.6-8.5,4.5-12.5c1.9-4,4.3-7.8,7.2-11.2l0.1-0.1c2-2.2,4.6-4.1,7.7-5.5c3.1-1.5,6.2-2.2,9.3-2.3l0.4,0
								c3.6,0,7.1,0.3,10.4,1c3.6,0.7,6.7,1.8,9.2,3.2c2.9,1.7,5.2,3.6,6.8,5.8c1.5,2.1,2.8,4.6,3.8,7.4c1.5,4.6,2.5,9.6,3,15.1
								c0.5,5.4,0.5,11-0.1,16.6c-0.6,5.6-1.8,11-3.6,16.2c-1.8,5.2-4.4,9.9-7.6,13.9l-0.1,0.1c-2.3,2.5-5,4.4-7.8,5.6
								c-2.8,1.2-6.1,1.9-9.9,2.1C146.1,258.9,144.7,259,143.3,259z M128.8,182.4c-2.6,3.2-4.8,6.6-6.6,10.4
								c-1.8,3.8-3.2,7.7-4.2,11.7c-1,4-1.6,8.1-1.8,12.2c-0.2,4.1,0,8.1,0.6,11.9c0.6,3.8,1.5,7.4,2.8,10.7
								c1.3,3.3,2.8,6.2,4.7,8.6c1,1.4,2.4,2.5,4,3.5c1.7,1,3.4,1.8,5.1,2.3c2,0.7,4.3,1,6.6,1.1c2.5,0.1,4.9,0.1,7.2,0
								c3.3-0.2,6.2-0.8,8.6-1.8c2.3-1,4.5-2.5,6.4-4.6c2.9-3.6,5.2-7.9,6.9-12.6c1.7-4.9,2.8-10,3.4-15.3
								c0.6-5.3,0.6-10.6,0.1-15.8c-0.5-5.2-1.4-9.9-2.8-14.2c-0.9-2.4-2-4.5-3.3-6.3c-1.3-1.7-3.1-3.3-5.5-4.7
								c-2.2-1.2-4.9-2.1-8-2.7c-3.1-0.6-6.4-0.9-9.7-0.9l-0.4,0c-2.5,0-5,0.6-7.6,1.9C132.7,179,130.5,180.6,128.8,182.4z
								 M143.4,247.8L143.4,247.8c-0.3,0-0.6,0-0.9-0.1c-2.1-0.3-3.8-1.6-5.2-3.9c-1.2-2-2.1-4.4-2.7-7.3c-0.6-2.8-1-5.8-1.1-9.1
								c-0.2-3.3,0-6.5,0.4-9.7c0.4-3.2,1-6.5,1.9-10c0.9-3.5,1.9-6.8,3.1-9.7c1.2-3,2.6-5.5,4.1-7.4c1.8-2.4,3.9-3.4,6-3.1
								c2,0.2,3.6,1.8,4.9,4.5c1,2.2,1.8,5,2.3,8.3c0.5,3.1,0.8,6.5,0.9,10.2c0.1,3.6,0,7.1-0.4,10.2c-0.3,3.7-0.9,7.3-1.7,10.6
								c-0.8,3.3-1.8,6.2-2.9,8.6c-1.2,2.5-2.5,4.4-3.9,5.8C146.7,247.1,145.1,247.8,143.4,247.8z M148.2,191.5
								c-0.5,0-1.3,0.6-2.1,1.6c-1.2,1.6-2.4,3.8-3.5,6.5c-1.1,2.7-2.1,5.8-3,9.1c-0.8,3.3-1.4,6.5-1.8,9.5c-0.4,2.9-0.5,5.9-0.3,9
								c0.1,3.1,0.5,5.9,1,8.4c0.5,2.4,1.3,4.5,2.2,6.1c1.1,1.9,2.1,2,2.4,2c0.2,0,0.3,0,0.4,0c0.6,0,1.3-0.3,1.9-1
								c1.1-1,2.1-2.6,3.1-4.7c1-2.1,1.9-4.8,2.6-7.8c0.7-3.1,1.3-6.5,1.6-10c0.3-3,0.4-6.2,0.4-9.7c-0.1-3.5-0.4-6.7-0.9-9.6
								c-0.5-2.9-1.2-5.3-2-7.3c-0.6-1.3-1.3-2.2-1.8-2.2C148.3,191.5,148.2,191.5,148.2,191.5z"/>
						</g>
					</g>
				</g>
			</g>
		</g>
	</g>
	<g>
		<g>
			<g>
				<g>
					<g>
						<g>
							<path class="st3" d="M179.4,232.5c-1.1-2.9-1.9-6.1-2.5-9.7c-0.6-3.6-1-7.4-1.1-11.5c-0.2-4.1-0.2-8.3-0.1-12.5
								c0.1-4.3,0.3-8.6,0.7-12.9c0.3-4.3,0.7-8.6,1.2-12.7c0.2-1.9,0.7-3.1,1.6-3.6c0.9-0.5,2.4-0.6,4.5-0.3
								c1.9,0.2,3.8,0.7,5.7,1.2c1.8,0.6,3.7,1.3,5.5,2.2c3.7,1.9,5.4,4.8,5,8.7c-0.5,3.4-0.9,7-1.4,10.9c-0.5,3.9-0.8,7.9-1.1,11.8
								c-0.3,4-0.5,7.8-0.5,11.6c0,3.8,0.1,7.1,0.4,10c0.3,2.9,0.9,5.3,1.7,7.1c0.8,1.8,1.9,2.8,3.3,3c1.7,0.2,3.2-0.9,4.5-3.2
								c1.3-2.3,2.3-5.4,3.2-9.2c0.9-3.9,1.6-8.3,2.1-13.2c0.5-5,1-10.1,1.3-15.3c0.3-5.2,0.5-10.3,0.6-15.4c0.1-5,0.2-9.5,0.3-13.5
								c-0.2-1.9,0.3-3.1,1.5-3.7c1.2-0.6,2.7-0.8,4.5-0.6c1.8,0.2,3.8,0.6,6,1.3c2.2,0.7,4.2,1.4,6,2.1c1,0.4,1.7,0.8,2.2,1.2
								c0.5,0.4,0.9,0.8,1.2,1.3c0.3,0.5,0.4,1,0.5,1.6c0,0.6,0,1.3,0,2.1c-0.4,9.1-0.9,17.6-1.6,25.2c-0.7,7.7-1.6,14.6-2.7,20.6
								c-1.2,6-2.7,11.2-4.5,15.4c-1.8,4.2-4.1,7.5-6.9,9.7c-2,1.4-4,2.5-6.1,3.2c-2.1,0.8-4.5,1.3-7.4,1.6
								c-5.6,0.5-10.4,0.1-14.3-1.3c-1.7-0.6-3.3-1.4-4.9-2.3c-1.6-0.9-3-2.2-4.2-3.8C181.8,237.8,180.5,235.4,179.4,232.5z"/>
						</g>
					</g>
				</g>
			</g>
		</g>
		<g>
			<g>
				<g>
					<g>
						<g>
							<path class="st3" d="M202.3,249.3c-3.9,0-7.4-0.5-10.4-1.6c-1.8-0.7-3.6-1.5-5.2-2.5c-1.7-1.1-3.3-2.5-4.7-4.2
								c-1.8-2.1-3.3-4.7-4.4-7.8c-1.1-3-2-6.4-2.6-10.1c-0.6-3.6-1-7.6-1.2-11.8c-0.2-4.1-0.2-8.4-0.1-12.7c0.1-4.3,0.3-8.7,0.7-13
								c0.3-4.3,0.7-8.6,1.2-12.8c0.3-2.5,1.1-4.2,2.6-5.1c1.3-0.8,3.2-1,5.8-0.5c2,0.3,4,0.7,5.9,1.3c1.9,0.6,3.9,1.4,5.8,2.4
								c4.5,2.2,6.6,5.9,6,10.7c-0.5,3.4-0.9,7.1-1.4,11c-0.5,3.9-0.8,7.8-1.1,11.8c-0.3,3.9-0.5,7.8-0.5,11.5c0,3.7,0.1,7,0.4,9.8
								c0.3,2.7,0.8,4.9,1.5,6.6c0.7,1.7,1.4,1.8,1.7,1.8c0,0,0.1,0,0.1,0c0.8,0,1.6-0.7,2.4-2.2c1.2-2.1,2.2-5.1,3-8.7
								c0.8-3.8,1.5-8.2,2.1-13c0.5-4.9,1-10,1.3-15.2c0.3-5.2,0.5-10.3,0.6-15.3c0.1-5,0.2-9.4,0.3-13.4c-0.3-3.5,1.5-5,2.6-5.5
								c1.5-0.7,3.4-1,5.6-0.8c2,0.2,4.1,0.6,6.4,1.4c2.2,0.7,4.3,1.4,6.1,2.1c1.2,0.5,2,1,2.7,1.4c0.8,0.6,1.4,1.2,1.8,1.9
								c0.4,0.7,0.7,1.6,0.7,2.5c0,0.7,0,1.5,0,2.4c-0.4,9.1-0.9,17.6-1.6,25.3c-0.7,7.7-1.6,14.7-2.8,20.8
								c-1.2,6.1-2.7,11.5-4.6,15.8c-2,4.5-4.5,8-7.4,10.4l-0.1,0.1c-2.1,1.5-4.3,2.7-6.6,3.5c-2.2,0.8-4.9,1.4-7.8,1.7
								C205.4,249.2,203.8,249.3,202.3,249.3z M181.4,171c-0.8,0-1.2,0.2-1.2,0.2c-0.2,0.1-0.5,0.7-0.7,2.1
								c-0.5,4.1-0.9,8.4-1.2,12.7c-0.3,4.3-0.5,8.6-0.7,12.8c-0.1,4.2-0.1,8.4,0.1,12.4c0.2,4,0.5,7.8,1.1,11.3
								c0.6,3.4,1.4,6.6,2.4,9.4c1,2.7,2.3,4.9,3.8,6.7c1.2,1.4,2.4,2.5,3.8,3.4c1.4,0.9,2.9,1.6,4.5,2.2c3.6,1.3,8.1,1.7,13.4,1.1
								c2.6-0.3,4.9-0.7,6.9-1.4c1.9-0.7,3.8-1.7,5.6-3c2.5-2,4.6-5,6.2-8.9c1.8-4.1,3.2-9.1,4.4-15c1.1-5.9,2.1-12.8,2.7-20.4
								c0.7-7.6,1.2-16.1,1.6-25.2c0.1-0.8,0.1-1.4,0-1.9c0-0.3-0.1-0.5-0.2-0.7c-0.1-0.2-0.3-0.4-0.6-0.7c-0.3-0.2-0.9-0.5-1.9-1
								c-1.7-0.7-3.7-1.4-5.8-2c-2-0.6-3.9-1-5.6-1.2c-1.4-0.1-2.6,0-3.5,0.4c-0.4,0.2-0.5,0.7-0.4,1.7l0,0.1l0,0.1
								c-0.1,4-0.2,8.4-0.3,13.5c-0.1,5-0.3,10.2-0.6,15.5c-0.3,5.2-0.7,10.4-1.3,15.4c-0.5,5-1.3,9.5-2.1,13.5
								c-0.9,4-2,7.3-3.4,9.8c-1.7,3-3.8,4.5-6.4,4.2c-1.5-0.2-3.6-1-4.9-4.2c-0.9-2-1.5-4.6-1.8-7.7c-0.3-3-0.5-6.4-0.4-10.3
								c0-3.8,0.2-7.7,0.5-11.7c0.3-4,0.7-8,1.1-11.9c0.5-3.9,0.9-7.6,1.4-11c0.3-3-0.9-5.2-3.9-6.7c-1.7-0.9-3.4-1.6-5.2-2.1
								c-1.7-0.5-3.5-0.9-5.3-1.2C182.5,171,181.9,171,181.4,171z"/>
						</g>
					</g>
				</g>
			</g>
		</g>
	</g>
	<g>
		<g>
			<g>
				<g>
					<g>
						<g>
							<path class="st3" d="M277.3,178.3c0.5-8.1,1.1-15.7,1.8-22.6c0.2-1.9,0.8-3.1,1.7-3.7c0.9-0.6,2.4-0.8,4.5-0.7
								c1,0.1,1.8,0.2,2.6,0.2c0.8,0.1,1.5,0.2,2.3,0.4c0.8,0.2,1.6,0.4,2.5,0.7c0.9,0.3,1.9,0.7,3.1,1.2c2,0.8,3.2,1.8,3.6,2.9
								c0.4,1.1,0.5,2.5,0.3,4.2c-0.7,4.8-1.3,10.2-1.9,16.3c-0.6,6.1-1.1,12.2-1.7,18.5c-0.5,6.2-1,12.3-1.4,18.3
								c-0.4,5.9-0.8,11.2-1.1,15.6c0,2.4-1.7,3.5-5.2,3.3c-2.9-0.1-6-0.4-9.1-1c-2.9-0.6-5.1-2.1-6.7-4.6c-1.2-1.8-2.4-3.8-3.7-6.2
								c-1.3-2.4-2.7-5-4.1-7.7c-1.4-2.8-2.8-5.7-4.3-8.7c-1.5-3-2.8-6.1-4.2-9.2c0,3.9-0.1,7.9-0.2,11.8c-0.1,3.9-0.2,7.7-0.2,11.3
								c-0.1,3.6-0.1,6.9-0.2,10c0,3.1,0,5.8,0,8c-0.1,1.1-0.4,1.8-0.9,2.2c-0.5,0.4-1.6,0.5-3.3,0.3c-1.5-0.1-3.1-0.3-4.7-0.4
								c-1.6-0.2-3.1-0.5-4.7-1.2c-1.5-0.5-2.5-1.1-3.1-1.9c-0.6-0.8-1-2-1.1-3.7c-0.2-1.7-0.3-4.1-0.6-7.2
								c-0.2-3.1-0.4-6.7-0.6-10.7c-0.2-4-0.4-8.3-0.5-12.9c-0.2-4.6-0.3-9.1-0.3-13.7c-0.1-4.6-0.1-9,0-13.2c0-4.3,0.1-8,0.3-11.4
								c0.1-1.9,0.7-3.2,1.7-3.9c1-0.6,2.6-0.9,4.5-0.7c2.4,0.3,4.7,0.6,7,0.9c2.3,0.3,4.7,0.8,7.2,1.6c2,0.5,3.6,1.3,4.6,2.3
								c1,1.1,1.9,2.7,2.6,5c0.6,1.7,1.4,4,2.3,6.7c1,2.7,2,5.6,3.2,8.8c1.2,3.1,2.4,6.4,3.6,9.7c1.2,3.3,2.5,6.5,3.7,9.5
								C276.5,194.6,276.7,186.4,277.3,178.3z"/>
						</g>
					</g>
				</g>
			</g>
		</g>
		<g>
			<g>
				<g>
					<g>
						<g>
							<path class="st3" d="M253,241.3c-0.5,0-1,0-1.6-0.1c-1.5-0.1-3.1-0.3-4.7-0.4c-1.7-0.2-3.5-0.6-5.2-1.3
								c-1.8-0.6-3.2-1.4-4-2.6c-0.8-1.1-1.3-2.7-1.5-4.7c-0.2-1.7-0.3-4.1-0.6-7.3c-0.2-3.2-0.4-6.8-0.6-10.8
								c-0.2-4-0.4-8.3-0.5-12.9c-0.2-4.6-0.3-9.3-0.3-13.7c-0.1-4.6-0.1-9.1,0-13.3c0-4.3,0.1-8.1,0.3-11.4
								c0.2-2.6,1.1-4.4,2.7-5.4c1.4-0.9,3.3-1.2,5.8-1c2.5,0.3,4.8,0.6,7.1,0.9c2.3,0.3,4.8,0.9,7.4,1.6c2.4,0.6,4.3,1.6,5.5,2.9
								c1.2,1.3,2.2,3.2,3.1,5.8c0.6,1.7,1.4,3.9,2.3,6.6c0.9,2.7,2,5.6,3.2,8.7c1.1,3,2.3,6.1,3.5,9.3c0.1-4.8,0.3-9.5,0.6-14.2
								c0.5-8.1,1.1-15.7,1.8-22.6c0.3-2.5,1.1-4.2,2.6-5.2c1.3-0.8,3.2-1.2,5.7-1c1,0.1,1.8,0.2,2.6,0.2c0.9,0.1,1.8,0.2,2.6,0.4
								c0.8,0.2,1.7,0.5,2.6,0.8c0.9,0.3,2,0.7,3.2,1.3c2.5,1,4,2.4,4.6,4c0.5,1.4,0.6,3.1,0.4,5.1c-0.7,4.8-1.3,10.2-1.9,16.2
								c-0.6,6-1.1,12.2-1.7,18.4c-0.5,6.1-1,12.3-1.4,18.3c-0.4,5.9-0.8,11.1-1.1,15.6c0,1.8-0.8,3-1.4,3.6c-1.1,1.1-2.8,1.7-5,1.7
								c-0.3,0-0.5,0-0.8,0c-3-0.1-6.1-0.4-9.3-1c-3.5-0.7-6.1-2.6-8-5.5c-1.2-1.8-2.5-3.9-3.8-6.3c-1.3-2.4-2.7-5-4.1-7.8
								c-1.4-2.8-2.9-5.7-4.3-8.7c-0.2-0.4-0.4-0.8-0.5-1.1c0,1,0,2-0.1,3l-0.2,11.3c-0.1,3.6-0.1,6.9-0.2,10c0,3,0,5.7,0,8l0,0.1
								l0,0.1c-0.1,1.7-0.7,2.9-1.7,3.7C255.4,241,254.4,241.3,253,241.3z M241.2,160.3c-1,0-1.8,0.2-2.3,0.5
								c-0.4,0.3-0.7,1.1-0.8,2.3c-0.1,3.2-0.2,7-0.3,11.3c0,4.2,0,8.6,0,13.2c0.1,4.5,0.2,9,0.3,13.7c0.2,4.5,0.3,8.9,0.5,12.8
								c0.2,3.9,0.4,7.5,0.6,10.6c0.2,3.1,0.4,5.5,0.6,7.2c0.1,1.6,0.5,2.3,0.7,2.7c0.2,0.3,0.8,0.8,2.1,1.2l0.2,0.1
								c1.4,0.6,2.8,0.9,4.2,1c1.6,0.1,3.1,0.3,4.7,0.4c1,0.1,1.6,0.1,1.9,0c0-0.1,0.1-0.3,0.1-0.6c-0.1-2.3-0.1-5,0-8
								c0-3.1,0.1-6.4,0.2-10l0.2-11.3c0.1-3.9,0.1-7.9,0.2-11.8l0.1-9.3l3.7,8.5c1.3,3,2.7,6,4.1,9.1c1.4,3,2.9,5.9,4.3,8.7
								c1.4,2.7,2.7,5.3,4.1,7.7c1.3,2.3,2.5,4.4,3.7,6.1c1.3,2.1,3.1,3.3,5.4,3.8c3,0.5,5.9,0.8,8.8,0.9c0.3,0,0.5,0,0.7,0
								c1.6,0,2.1-0.4,2.2-0.5c0.1-0.1,0.2-0.2,0.2-0.8l0-0.1l0-0.1c0.3-4.5,0.6-9.8,1.1-15.7c0.4-6,0.9-12.2,1.5-18.3
								c0.5-6.2,1.1-12.4,1.7-18.5c0.6-6,1.2-11.5,1.9-16.4c0.2-1.4,0.1-2.4-0.2-3.2c-0.1-0.2-0.5-0.9-2.5-1.7
								c-1.1-0.5-2.1-0.9-2.9-1.2c-0.8-0.3-1.6-0.5-2.3-0.7c-0.7-0.2-1.3-0.3-2-0.3c-0.8-0.1-1.7-0.1-2.6-0.2c-0.4,0-0.7,0-1.1,0
								c-1.4,0-2,0.2-2.2,0.4c-0.1,0.1-0.6,0.5-0.8,2.2c-0.7,6.8-1.3,14.4-1.8,22.5c-0.5,8.1-0.7,16.3-0.6,24.5l0.1,10.7l-4-10
								c-1.2-3-2.4-6.2-3.7-9.6c-1.2-3.3-2.5-6.6-3.6-9.7c-1.2-3.1-2.2-6.1-3.2-8.8c-1-2.7-1.7-4.9-2.3-6.7c-0.7-2-1.4-3.5-2.2-4.3
								c-0.7-0.8-1.9-1.4-3.6-1.8l-0.1,0c-2.4-0.7-4.8-1.2-6.9-1.5c-2.3-0.3-4.6-0.6-7-0.9C241.9,160.4,241.5,160.3,241.2,160.3z"/>
						</g>
					</g>
				</g>
			</g>
		</g>
	</g>
	<g>
		<g>
			<g>
				<g>
					<g>
						<g>
							<path class="st3" d="M308.8,147.1c3.2-1.2,6.6-2.2,10.2-2.9c3.6-0.7,7.3-1,11.1-0.9c3.8,0.1,7.5,0.7,11,1.9
								c3.6,1.2,6.9,3,9.9,5.5c3.1,2.5,5.7,5.8,7.8,10.1c1.8,3.3,3,7,3.5,11c0.5,4,0.4,8.1-0.4,12.4c-0.8,4.2-2.3,8.5-4.4,12.7
								c-2.2,4.2-5,8.3-8.5,12c-3.5,3.8-7.7,7.2-12.6,10.3c-4.9,3.1-10.4,5.5-16.6,7.4c-3.2,1.2-6.5,1-10.1-0.6
								c-1.8-0.8-3.3-1.7-4.7-2.5c-1.3-0.8-2.9-1.8-4.6-3c-0.6-0.5-1.2-1.1-1.8-1.6c-0.6-0.5-1.1-1.1-1.5-1.8
								c-0.4-0.7-0.7-1.5-0.9-2.5c-0.1-1-0.1-2.3,0-3.9l4-59.7C302.8,149.6,305.6,148.3,308.8,147.1z M326.9,204.3
								c3.4-3,6.2-6.1,8.4-9.4c2.2-3.2,3.8-6.5,4.8-9.7c1-3.2,1.6-6.2,1.8-9c0.2-3.8-0.3-6.8-1.5-8.9c-1.2-2.1-3.2-3.6-6-4.6
								c-2.8-1-6.3-0.8-10.3,0.6c-2,8.3-3.7,16.4-5.2,24.4c-1.5,8-2.9,16.1-4.3,24.3C319.3,209.8,323.4,207.2,326.9,204.3z"/>
						</g>
					</g>
				</g>
			</g>
		</g>
		<g>
			<g>
				<g>
					<g>
						<g>
							<path class="st3" d="M315.7,229.4c-2.2,0-4.4-0.5-6.7-1.6c-1.9-0.9-3.5-1.7-4.9-2.6c-1.4-0.8-2.9-1.9-4.7-3.1l-0.2-0.1
								c-0.6-0.6-1.3-1.1-1.9-1.6c-0.7-0.6-1.3-1.4-1.9-2.2c-0.6-0.9-0.9-2-1.1-3.3c-0.2-1.2-0.2-2.6,0-4.3l4.1-60.7l0.9-0.5
								c2.4-1.4,5.3-2.8,8.6-4c3.3-1.3,6.8-2.3,10.6-3c3.7-0.7,7.6-1,11.5-1c4,0.1,7.9,0.7,11.6,2c3.8,1.3,7.3,3.3,10.6,5.9
								c3.3,2.7,6.1,6.3,8.4,10.7c1.9,3.5,3.2,7.4,3.8,11.6c0.6,4.2,0.4,8.6-0.4,13c-0.8,4.4-2.4,8.9-4.6,13.3
								c-2.2,4.4-5.2,8.6-8.8,12.5c-3.6,3.9-8,7.4-13,10.6c-5,3.1-10.7,5.7-17,7.6C319,229.1,317.4,229.4,315.7,229.4z M301.8,219
								c1.6,1.2,3.1,2.1,4.4,2.9c1.3,0.8,2.8,1.6,4.5,2.4c3,1.4,5.9,1.6,8.5,0.5l0.1,0c6-1.8,11.5-4.3,16.2-7.2
								c4.7-3,8.8-6.3,12.2-9.9c3.4-3.6,6.1-7.5,8.2-11.6c2.1-4.1,3.5-8.2,4.3-12.2c0.8-4,0.9-8,0.4-11.7c-0.5-3.7-1.6-7.2-3.3-10.3
								c-2.1-4-4.5-7.2-7.4-9.5c-2.9-2.3-6-4.1-9.3-5.2c-3.4-1.1-6.9-1.7-10.4-1.8c-3.6-0.1-7.2,0.2-10.7,0.9
								c-3.5,0.7-6.8,1.6-9.9,2.8c-2.7,1-5.1,2.1-7.1,3.3l-4,58.7c-0.1,1.5-0.1,2.6,0,3.4c0.1,0.7,0.3,1.3,0.6,1.8
								c0.3,0.5,0.7,1,1.1,1.4C300.6,217.9,301.2,218.4,301.8,219z M311.9,215.3l0.6-3.7c1.4-8.1,2.8-16.3,4.3-24.3
								c1.5-8,3.3-16.3,5.3-24.5l0.3-1l1-0.4c4.5-1.6,8.4-1.8,11.6-0.6c3.3,1.2,5.7,3,7.1,5.5c1.4,2.4,2,5.7,1.8,9.9
								c-0.1,2.9-0.8,6.1-1.9,9.5c-1.1,3.4-2.8,6.8-5.1,10.2c-2.3,3.4-5.2,6.7-8.8,9.7c-3.6,3.1-7.9,5.8-12.9,8.1L311.9,215.3z
								 M325.7,164.9c-1.9,7.8-3.5,15.6-5,23.2c-1.3,6.7-2.5,13.6-3.7,20.4c3.2-1.7,6.1-3.6,8.5-5.8c3.3-2.9,6-5.9,8.1-9
								c2.1-3.1,3.6-6.2,4.6-9.2c1-3,1.5-5.9,1.7-8.4c0.1-3.4-0.3-6.1-1.3-7.8c-0.9-1.7-2.6-2.9-5-3.7
								C331.5,163.8,328.8,163.9,325.7,164.9z"/>
						</g>
					</g>
				</g>
			</g>
		</g>
	</g>
	<g>
		<g>
			<g>
				<g>
					<g>
						<g>
							<path d="M74.4,252.8c-0.1,3.7-0.3,7.3-0.4,10.9c-0.1,1.1-0.5,1.8-0.9,2.2c-0.5,0.4-1.5,0.6-2.9,0.5c-1.7-0.2-3.3-0.3-4.6-0.3
								c-1.3,0-2.7-0.3-3.9-0.7c-1.3-0.5-2.2-1.2-2.8-2.1c-0.6-0.9-1-2.2-1.1-3.9c-0.1-1.4-0.2-3.3-0.4-5.9
								c-0.2-2.6-0.4-5.5-0.6-8.8c-0.2-3.3-0.4-6.8-0.6-10.6c-0.2-3.8-0.4-7.5-0.5-11.3c-0.1-3.8-0.2-7.4-0.2-11
								c0-3.6,0.1-6.8,0.3-9.7c0.2-2.9,0.5-5.3,0.9-7.2c0.5-1.9,1-3.2,1.8-3.8c3.6-2.4,7.3-4.9,11.2-7.3c3.9-2.4,7.8-4.4,11.8-5.8
								c3.9-1.4,7.8-2.1,11.5-2.2c3.7,0,7.2,1.1,10.3,3.4c2.6,2.1,4.9,4.3,7.2,6.8c2.2,2.5,4.1,5.6,5.8,9.5
								c1.5,4.1,1.7,7.7,0.8,10.7c-1.5,4.8-4.4,9.4-8.8,14c-4.4,4.5-9.8,9-16.2,13.4c1.7,1.4,3.5,2.9,5.5,4.5c2,1.6,4,3.1,6.1,4.7
								c2.1,1.5,4.2,3,6.2,4.4c2,1.4,3.9,2.6,5.7,3.6c1.4,0.9,2.1,1.6,2.1,2.3c0,0.7-0.4,1.4-1.3,2.3c-1,1.1-1.8,1.8-2.6,2.1
								c-0.7,0.3-1.7,0.6-2.8,1c-1.3,0.6-2.8,1-4.5,1.1c-1.7,0.1-3.7-0.3-6.1-1.3c-1.6-0.8-3.4-1.8-5.5-3c-2.1-1.2-4.3-2.6-6.6-4.1
								c-2.3-1.5-4.6-3.1-6.9-4.8c-2.3-1.7-4.4-3.4-6.4-5.2C74.7,245.3,74.6,249.1,74.4,252.8z M77.5,211.6c-0.3,3.9-0.8,8-1.3,12.4
								c4-2.2,7.5-4.6,10.5-7.3c3-2.7,5.4-5.3,7.3-7.9c1.9-2.6,3.2-4.9,3.8-7.1c0.7-2.1,0.7-3.7,0.2-4.7c-1-1.7-3.4-2.2-7-1.6
								c-1.8,0.3-3.7,0.9-5.8,1.7c-2.1,0.8-4.3,2-6.5,3.7C78.2,204.1,77.8,207.8,77.5,211.6z"/>
						</g>
					</g>
				</g>
			</g>
		</g>
		<g>
			<g>
				<g>
					<g>
						<g>
							<path d="M70.8,266.8c-0.2,0-0.4,0-0.7,0c-1.7-0.2-3.3-0.3-4.6-0.3c-1.4,0-2.7-0.3-4.1-0.7c-1.4-0.5-2.4-1.3-3-2.3
								c-0.6-1-1-2.3-1.2-4.1c-0.1-1.4-0.2-3.3-0.4-5.9c-0.2-2.6-0.4-5.5-0.6-8.8c-0.2-3.3-0.4-6.9-0.6-10.6
								c-0.2-3.8-0.4-7.6-0.5-11.3c-0.1-3.8-0.2-7.5-0.2-11c0-3.6,0.1-6.8,0.3-9.7c0.2-2.9,0.5-5.3,0.9-7.3c0.5-2.1,1.1-3.4,1.9-4
								c3.6-2.4,7.3-4.9,11.2-7.3c3.9-2.4,7.9-4.4,11.8-5.8c4-1.4,7.9-2.2,11.6-2.2c3.8,0,7.4,1.2,10.6,3.5c2.6,2.1,5,4.4,7.2,6.8
								c2.2,2.5,4.2,5.7,5.8,9.6c1.5,4.2,1.8,7.9,0.8,11c-1.5,4.8-4.5,9.6-8.9,14.1c-4.3,4.4-9.6,8.9-15.9,13.1
								c1.6,1.3,3.3,2.7,5.1,4.1c2,1.5,4,3.1,6.1,4.6c2.1,1.5,4.1,3,6.2,4.4c2,1.4,3.9,2.6,5.7,3.6c1.6,1,2.3,1.8,2.3,2.7
								c0,0.8-0.5,1.6-1.4,2.5c-1,1.1-1.9,1.8-2.7,2.2c-0.8,0.3-1.7,0.6-2.8,1c-1.3,0.6-2.8,1-4.6,1.1c-1.7,0.1-3.8-0.3-6.3-1.3
								c-1.6-0.8-3.5-1.8-5.6-3c-2.1-1.2-4.3-2.6-6.6-4.1c-2.3-1.5-4.6-3.1-6.9-4.8c-2.1-1.5-4-3.1-5.8-4.6
								c-0.2,3.7-0.4,7.3-0.5,10.8c-0.1,3.7-0.3,7.3-0.4,10.9c-0.2,1.2-0.5,2-1.1,2.5C72.9,266.6,72,266.8,70.8,266.8z M92.8,176.2
								c-3.7,0-7.5,0.7-11.4,2.1c-3.9,1.4-7.8,3.3-11.7,5.8c-3.9,2.4-7.6,4.9-11.2,7.3c-0.6,0.5-1.2,1.7-1.6,3.6
								c-0.4,1.9-0.8,4.3-0.9,7.2c-0.2,2.9-0.3,6.1-0.3,9.6c0,3.5,0.1,7.2,0.2,11c0.1,3.7,0.3,7.5,0.5,11.3
								c0.2,3.7,0.4,7.2,0.6,10.6c0.2,3.3,0.4,6.2,0.6,8.8c0.2,2.6,0.3,4.6,0.4,5.9c0.1,1.6,0.5,2.8,1,3.7c0.5,0.8,1.4,1.5,2.6,2
								c1.2,0.4,2.5,0.6,3.8,0.7c1.3,0,2.9,0.1,4.7,0.3c0.2,0,0.4,0,0.6,0c1.3,0,1.8-0.2,2-0.4c0.4-0.3,0.7-1,0.8-2
								c0.1-3.5,0.3-7.1,0.4-10.8c0.1-3.7,0.3-7.6,0.6-11.6l0-0.8l0.6,0.6c1.9,1.7,4,3.5,6.3,5.1c2.3,1.7,4.6,3.3,6.9,4.8
								c2.3,1.5,4.5,2.9,6.6,4.1c2.1,1.2,4,2.2,5.5,3c2.3,0.9,4.3,1.4,5.9,1.2c1.6-0.1,3.1-0.5,4.3-1.1c1.1-0.4,2-0.7,2.8-1
								c0.7-0.3,1.5-0.9,2.4-2c0.8-0.8,1.1-1.5,1.2-2c0-0.3-0.2-0.9-1.9-1.9c-1.7-1-3.7-2.2-5.7-3.7c-2.1-1.4-4.2-2.9-6.2-4.5
								c-2.1-1.5-4.2-3.1-6.2-4.7c-2-1.5-3.9-3-5.6-4.5l-0.4-0.3l0.4-0.3c6.4-4.3,11.8-8.8,16.2-13.3c4.3-4.5,7.3-9.1,8.7-13.8
								c1-2.9,0.7-6.4-0.8-10.4c-1.6-3.8-3.5-6.9-5.7-9.4c-2.2-2.4-4.6-4.7-7.1-6.7C99.8,177.4,96.4,176.2,92.8,176.2z M75.8,224.7
								l0.1-0.8c0.5-4.4,0.9-8.6,1.3-12.4c0.3-3.9,0.7-7.5,1.2-10.9l0-0.2l0.1-0.1c2.2-1.6,4.5-2.9,6.6-3.7c2.1-0.8,4.1-1.4,5.9-1.7
								c3.8-0.7,6.3-0.1,7.4,1.7c0.6,1.2,0.6,2.8-0.1,5.1c-0.7,2.2-2,4.6-3.9,7.2c-1.9,2.6-4.4,5.3-7.3,8c-3,2.7-6.5,5.2-10.6,7.4
								L75.8,224.7z M79.1,200.9c-0.5,3.3-0.9,7-1.2,10.7c-0.3,3.6-0.7,7.5-1.2,11.6c3.7-2.1,7-4.4,9.8-6.9c2.9-2.7,5.4-5.3,7.2-7.9
								c1.8-2.5,3.1-4.9,3.8-7c0.6-2,0.7-3.5,0.2-4.4c-0.9-1.5-3.2-1.9-6.6-1.3c-1.8,0.3-3.7,0.9-5.8,1.7
								C83.3,198.2,81.2,199.4,79.1,200.9z"/>
						</g>
					</g>
				</g>
			</g>
		</g>
	</g>
	<g>
		<g>
			<g>
				<g>
					<g>
						<g>
							<path d="M170.9,176.7c1.4,2,2.6,4.4,3.6,7.1c1.4,4.5,2.4,9.6,2.9,15.1c0.5,5.5,0.5,11.1-0.1,16.7c-0.6,5.6-1.8,11.1-3.5,16.3
								c-1.7,5.2-4.2,9.8-7.3,13.7c-2.2,2.4-4.6,4.2-7.2,5.3c-2.6,1.1-5.7,1.8-9.3,2c-2.4,0.1-4.9,0.2-7.4,0c-2.6-0.1-5-0.5-7.2-1.3
								c-1.8-0.6-3.6-1.5-5.5-2.6c-1.8-1.1-3.4-2.5-4.6-4.1c-2-2.7-3.6-5.8-4.9-9.4c-1.3-3.6-2.3-7.4-2.9-11.5
								c-0.6-4.1-0.8-8.3-0.6-12.7c0.2-4.4,0.8-8.7,1.8-13c1-4.3,2.5-8.5,4.3-12.5c1.9-4,4.2-7.7,6.9-11.2c1.9-2.1,4.3-3.8,7.1-5.2
								c2.9-1.4,5.7-2.1,8.5-2.1c3.6,0,7.1,0.3,10.5,1c3.4,0.7,6.3,1.7,8.7,3C167.4,172.9,169.4,174.7,170.9,176.7z M147.2,185.9
								c-1.4,1.8-2.6,4.2-3.8,7.2c-1.2,3-2.2,6.2-3.1,9.7c-0.9,3.5-1.5,6.9-1.9,10.1c-0.4,3.1-0.5,6.4-0.4,9.6
								c0.1,3.3,0.5,6.3,1.1,9.1c0.6,2.8,1.4,5.1,2.4,6.9c1.1,1.9,2.3,2.9,3.8,3.1c1.4,0.2,2.7-0.3,4-1.6c1.3-1.3,2.4-3.1,3.5-5.4
								c1.1-2.3,2-5.2,2.8-8.5c0.8-3.3,1.3-6.9,1.7-10.7c0.3-3.1,0.4-6.5,0.4-10.2c-0.1-3.7-0.4-7.1-0.9-10.2
								c-0.5-3.2-1.2-5.9-2.2-8c-1-2.2-2.1-3.3-3.4-3.5C149.9,183.2,148.5,184,147.2,185.9z"/>
						</g>
					</g>
				</g>
			</g>
		</g>
		<g>
			<g>
				<g>
					<g>
						<g>
							<path d="M145.9,253.4c-1.1,0-2.3,0-3.4-0.1c-2.6-0.1-5-0.6-7.3-1.3c-1.8-0.6-3.7-1.5-5.6-2.6c-1.9-1.1-3.4-2.6-4.7-4.2
								c-2-2.7-3.7-5.9-5-9.5c-1.3-3.6-2.3-7.5-2.9-11.6c-0.6-4.1-0.8-8.4-0.6-12.8c0.2-4.4,0.8-8.8,1.8-13.1
								c1-4.3,2.5-8.5,4.4-12.6c1.9-4,4.2-7.8,7-11.2c1.9-2.1,4.4-3.9,7.3-5.3c2.9-1.4,5.8-2.2,8.7-2.2l0.4,0c3.5,0,6.9,0.3,10.2,1
								c3.4,0.7,6.4,1.7,8.8,3.1c2.7,1.6,4.8,3.4,6.3,5.5c1.5,2,2.7,4.5,3.6,7.2c1.4,4.6,2.4,9.7,2.9,15.2
								c0.5,5.5,0.5,11.2-0.1,16.8c-0.6,5.6-1.8,11.1-3.5,16.4c-1.7,5.2-4.2,9.9-7.4,13.8c-2.2,2.4-4.7,4.3-7.3,5.4
								c-2.6,1.1-5.8,1.8-9.5,2.1C148.7,253.4,147.3,253.4,145.9,253.4z M146,167.7l-0.4,0c-2.7,0-5.5,0.7-8.3,2.1
								c-2.8,1.4-5.2,3.1-7,5.2c-2.7,3.4-5,7.1-6.9,11.1c-1.8,4-3.3,8.1-4.3,12.4c-1,4.2-1.6,8.6-1.8,13c-0.2,4.3,0,8.6,0.6,12.6
								c0.6,4.1,1.6,7.9,2.9,11.4c1.3,3.5,3,6.6,4.9,9.3c1.2,1.6,2.7,2.9,4.5,4c1.8,1.1,3.6,2,5.4,2.6c2.2,0.7,4.6,1.1,7.1,1.3
								c2.5,0.1,5,0.1,7.4,0c3.5-0.2,6.6-0.9,9.2-2c2.6-1.1,4.9-2.9,7-5.2c3.1-3.9,5.5-8.4,7.2-13.6c1.7-5.2,2.9-10.6,3.5-16.2
								c0.6-5.6,0.6-11.2,0.1-16.6c-0.5-5.5-1.5-10.5-2.9-15c-0.9-2.7-2.1-5-3.5-7c-1.4-2-3.4-3.7-6-5.3c-2.3-1.3-5.2-2.3-8.5-3
								C152.8,168,149.4,167.7,146,167.7z M146.1,242L146.1,242c-0.2,0-0.5,0-0.7-0.1c-1.6-0.2-3-1.3-4.1-3.3
								c-1.1-1.9-1.9-4.2-2.5-7c-0.6-2.8-0.9-5.8-1.1-9.1c-0.1-3.3,0-6.6,0.4-9.7c0.4-3.2,1-6.6,1.9-10.1c0.9-3.5,1.9-6.8,3.1-9.8
								c1.2-3,2.5-5.4,3.9-7.3c1.4-2,3-2.8,4.5-2.6c1.4,0.2,2.7,1.4,3.7,3.7c1,2.2,1.7,4.9,2.2,8.1c0.5,3.1,0.8,6.6,0.9,10.3
								c0.1,3.7,0,7.1-0.4,10.3c-0.3,3.8-0.9,7.4-1.7,10.7c-0.8,3.3-1.7,6.2-2.8,8.6c-1.1,2.4-2.3,4.2-3.6,5.5
								C148.5,241.4,147.3,242,146.1,242z M150.8,183.8c-1.1,0-2.2,0.8-3.3,2.3c-1.3,1.8-2.6,4.2-3.8,7.1c-1.2,2.9-2.2,6.2-3.1,9.7
								c-0.9,3.5-1.5,6.9-1.9,10c-0.4,3.1-0.5,6.3-0.4,9.6c0.1,3.3,0.5,6.3,1.1,9c0.6,2.7,1.4,5,2.4,6.8c1,1.7,2.2,2.7,3.5,2.9
								c0.2,0,0.4,0,0.6,0c1,0,2.1-0.5,3.1-1.5c1.2-1.2,2.4-3,3.4-5.3c1.1-2.3,2-5.1,2.8-8.4c0.8-3.3,1.3-6.9,1.7-10.6
								c0.3-3.1,0.4-6.5,0.4-10.2c-0.1-3.7-0.4-7.1-0.9-10.2c-0.5-3.1-1.2-5.8-2.2-7.9c-0.9-2-1.9-3.1-3.1-3.3
								C151.1,183.8,151,183.8,150.8,183.8z"/>
						</g>
					</g>
				</g>
			</g>
		</g>
	</g>
	<g>
		<g>
			<g>
				<g>
					<g>
						<g>
							<path d="M182.1,227.8c-1.1-3-1.9-6.3-2.5-10c-0.6-3.7-1-7.7-1.1-11.9c-0.2-4.2-0.2-8.5-0.1-13c0.1-4.4,0.3-8.9,0.7-13.3
								c0.3-4.5,0.7-8.9,1.2-13.1c0.2-1.9,0.7-3.2,1.6-3.7c0.9-0.5,2.4-0.6,4.5-0.3c2,0.3,3.9,0.7,5.7,1.3c1.8,0.6,3.7,1.4,5.5,2.3
								c3.7,1.9,5.4,4.9,5,9c-0.5,3.5-0.9,7.2-1.4,11.3c-0.5,4-0.8,8.1-1.1,12.2c-0.3,4.1-0.5,8.1-0.5,12c0,3.9,0.1,7.3,0.4,10.3
								c0.3,3,0.9,5.5,1.7,7.4c0.8,1.9,1.9,2.9,3.3,3.1c1.7,0.2,3.3-0.9,4.5-3.3c1.3-2.4,2.3-5.6,3.2-9.5c0.9-4,1.6-8.5,2.1-13.7
								c0.5-5.1,1-10.4,1.3-15.8c0.3-5.4,0.5-10.7,0.6-15.9c0.1-5.2,0.2-9.8,0.3-13.9c-0.2-1.9,0.3-3.2,1.5-3.8
								c1.2-0.6,2.7-0.8,4.5-0.6c1.8,0.2,3.9,0.6,6,1.3c2.2,0.7,4.2,1.4,6,2.2c1,0.4,1.7,0.8,2.3,1.2s0.9,0.8,1.2,1.3
								c0.3,0.5,0.4,1,0.5,1.6c0,0.6,0,1.4,0,2.2c-0.4,9.4-0.9,18.1-1.6,26.1c-0.7,7.9-1.6,15-2.7,21.2c-1.2,6.2-2.7,11.5-4.5,15.9
								c-1.8,4.4-4.1,7.7-6.9,10c-2,1.5-4,2.6-6.1,3.4c-2.1,0.8-4.6,1.3-7.4,1.6c-5.6,0.6-10.4,0.1-14.3-1.3
								c-1.7-0.6-3.3-1.4-4.9-2.4c-1.6-1-3-2.3-4.3-3.9C184.6,233.2,183.2,230.7,182.1,227.8z"/>
						</g>
					</g>
				</g>
			</g>
		</g>
		<g>
			<g>
				<g>
					<g>
						<g>
							<path d="M205.1,243.5c-3.7,0-7-0.5-9.9-1.6c-1.7-0.6-3.4-1.5-5-2.4c-1.6-1-3.1-2.3-4.4-4c-1.7-2-3.1-4.6-4.2-7.6
								c-1.1-3-1.9-6.4-2.5-10.1c-0.6-3.7-1-7.7-1.2-11.9c-0.2-4.2-0.2-8.6-0.1-13c0.1-4.4,0.3-8.9,0.7-13.3
								c0.3-4.4,0.7-8.9,1.2-13.1c0.2-2.1,0.8-3.4,1.8-4c1-0.6,2.6-0.7,4.8-0.3c1.9,0.3,3.9,0.7,5.8,1.3c1.9,0.6,3.7,1.4,5.5,2.3
								c3.9,2,5.6,5.1,5.2,9.4c-0.5,3.5-0.9,7.3-1.4,11.3c-0.5,4-0.8,8.1-1.1,12.2c-0.3,4.1-0.5,8.1-0.5,12c0,3.8,0.1,7.3,0.4,10.3
								c0.3,3,0.9,5.4,1.6,7.3c0.7,1.8,1.7,2.7,3,2.8c0.1,0,0.2,0,0.3,0c1.4,0,2.7-1.1,3.8-3.1c1.2-2.3,2.3-5.5,3.2-9.4
								c0.9-4,1.6-8.5,2.1-13.6c0.5-5.1,1-10.4,1.3-15.8c0.3-5.4,0.5-10.7,0.6-15.9c0.1-5.2,0.2-9.8,0.3-13.9
								c-0.2-2.1,0.4-3.5,1.7-4.1c1.2-0.6,2.8-0.8,4.7-0.7c1.9,0.2,3.9,0.6,6.1,1.3c2.2,0.7,4.2,1.4,6.1,2.2c1,0.4,1.8,0.9,2.3,1.3
								c0.6,0.4,1,0.9,1.3,1.4c0.3,0.5,0.5,1.1,0.5,1.8c0,0.6,0,1.4,0,2.3c-0.4,9.4-0.9,18.2-1.6,26.1c-0.7,7.9-1.6,15.1-2.7,21.3
								c-1.2,6.2-2.7,11.6-4.5,16c-1.9,4.4-4.2,7.8-7,10.2c-2,1.5-4.1,2.6-6.3,3.4c-2.1,0.8-4.6,1.3-7.5,1.6
								C208.2,243.4,206.6,243.5,205.1,243.5z M184.2,162.6c-0.9,0-1.6,0.1-2.1,0.4c-0.8,0.5-1.3,1.6-1.5,3.4
								c-0.5,4.3-0.9,8.7-1.2,13.1c-0.3,4.4-0.6,8.9-0.7,13.3c-0.1,4.4-0.1,8.7,0.1,12.9c0.2,4.2,0.6,8.2,1.1,11.8
								c0.6,3.7,1.4,7,2.5,10c1.1,2.9,2.4,5.4,4.1,7.4c1.2,1.6,2.6,2.9,4.2,3.8c1.5,1,3.1,1.8,4.8,2.4c3.8,1.4,8.6,1.8,14.2,1.3
								c2.8-0.3,5.2-0.8,7.3-1.6c2.1-0.8,4.1-1.9,6.1-3.3c2.7-2.2,4.9-5.6,6.8-9.9c1.8-4.3,3.3-9.7,4.5-15.8
								c1.2-6.2,2.1-13.3,2.7-21.2c0.7-7.9,1.2-16.7,1.6-26c0.1-0.8,0.1-1.6,0-2.2c0-0.6-0.2-1-0.4-1.5c-0.2-0.4-0.6-0.8-1.1-1.2
								c-0.5-0.4-1.2-0.8-2.2-1.2c-1.8-0.7-3.8-1.4-6-2.2c-2.1-0.7-4.1-1.1-6-1.3c-1.8-0.2-3.2,0-4.3,0.6c-1,0.5-1.4,1.6-1.3,3.4
								c-0.1,4.1-0.2,8.8-0.3,14c-0.1,5.2-0.3,10.5-0.6,15.9c-0.3,5.4-0.7,10.7-1.3,15.8c-0.5,5.1-1.2,9.7-2.1,13.7
								c-0.9,4-1.9,7.2-3.2,9.6c-1.3,2.5-3,3.7-4.9,3.5c-1.6-0.2-2.8-1.3-3.6-3.3c-0.8-1.9-1.4-4.4-1.7-7.5c-0.3-3-0.5-6.5-0.4-10.4
								c0-3.9,0.2-7.9,0.5-12c0.3-4.1,0.7-8.2,1.1-12.2c0.5-4,0.9-7.8,1.4-11.3c0.4-3.9-1.1-6.7-4.8-8.6c-1.8-0.9-3.6-1.7-5.4-2.3
								c-1.8-0.6-3.7-1-5.6-1.3C185.5,162.7,184.8,162.6,184.2,162.6z"/>
						</g>
					</g>
				</g>
			</g>
		</g>
	</g>
	<g>
		<g>
			<g>
				<g>
					<g>
						<g>
							<path d="M280.4,171.8c0.5-8.4,1.1-16.2,1.8-23.3c0.2-1.9,0.8-3.2,1.7-3.8c1-0.6,2.5-0.8,4.5-0.7c1,0.1,1.8,0.2,2.6,0.2
								c0.8,0.1,1.5,0.2,2.3,0.4c0.8,0.2,1.6,0.5,2.5,0.8c0.9,0.3,1.9,0.7,3.1,1.2c2,0.8,3.2,1.8,3.6,3c0.4,1.1,0.5,2.6,0.3,4.3
								c-0.7,5-1.3,10.6-1.9,16.8c-0.6,6.3-1.1,12.6-1.7,19.1c-0.5,6.4-1,12.7-1.5,18.9c-0.4,6.1-0.8,11.5-1.1,16.2
								c0,2.5-1.7,3.6-5.2,3.4c-2.9-0.1-6-0.4-9.1-1c-2.9-0.6-5.1-2.2-6.7-4.8c-1.2-1.8-2.4-4-3.8-6.4c-1.3-2.5-2.7-5.1-4.1-8
								c-1.4-2.9-2.9-5.9-4.3-9c-1.5-3.1-2.9-6.3-4.2-9.5c0,4.1-0.1,8.1-0.2,12.2c-0.1,4.1-0.2,8-0.2,11.7
								c-0.1,3.7-0.1,7.2-0.2,10.3c0,3.2,0,5.9,0,8.3c-0.1,1.1-0.4,1.9-0.9,2.3c-0.5,0.4-1.6,0.5-3.3,0.3c-1.5-0.1-3.1-0.3-4.7-0.4
								c-1.6-0.2-3.2-0.6-4.7-1.2c-1.5-0.5-2.5-1.1-3.1-2c-0.6-0.8-1-2.1-1.1-3.8c-0.2-1.7-0.3-4.2-0.6-7.5c-0.2-3.2-0.4-6.9-0.6-11
								c-0.2-4.1-0.4-8.6-0.5-13.3c-0.2-4.7-0.3-9.4-0.3-14.1c-0.1-4.7-0.1-9.3,0-13.7c0-4.4,0.1-8.3,0.3-11.7c0.1-2,0.7-3.3,1.7-4
								c1-0.7,2.6-0.9,4.6-0.7c2.4,0.3,4.7,0.6,7,1c2.3,0.3,4.7,0.9,7.2,1.6c2.1,0.5,3.6,1.3,4.6,2.4c1,1.1,1.9,2.8,2.7,5.2
								c0.6,1.8,1.4,4.1,2.3,6.9c1,2.8,2,5.8,3.2,9c1.2,3.2,2.4,6.6,3.6,10c1.3,3.4,2.5,6.7,3.7,9.8
								C279.7,188.7,279.9,180.2,280.4,171.8z"/>
						</g>
					</g>
				</g>
			</g>
		</g>
		<g>
			<g>
				<g>
					<g>
						<g>
							<path d="M256.1,235.2c-0.4,0-0.9,0-1.4-0.1c-1.5-0.1-3.1-0.3-4.7-0.4c-1.6-0.2-3.2-0.6-4.8-1.2c-1.5-0.5-2.6-1.2-3.3-2.1
								c-0.7-0.9-1.1-2.2-1.2-4c-0.2-1.8-0.4-4.3-0.6-7.5c-0.2-3.3-0.4-7-0.6-11.1c-0.2-4.1-0.4-8.6-0.5-13.3
								c-0.2-4.8-0.3-9.5-0.3-14.2c-0.1-4.7-0.1-9.3,0-13.7c0-4.4,0.1-8.4,0.3-11.8c0.1-2.1,0.8-3.6,1.9-4.3c1.1-0.7,2.7-1,4.8-0.8
								c2.4,0.3,4.8,0.6,7.1,1c2.3,0.3,4.7,0.9,7.3,1.6c2.1,0.5,3.7,1.4,4.8,2.5c1,1.1,2,2.9,2.7,5.3c0.6,1.8,1.4,4.1,2.3,6.9
								c0.9,2.7,2,5.8,3.2,9c1.2,3.2,2.4,6.6,3.6,10c1,2.7,2,5.3,2.9,7.8c0-7.8,0.2-15.6,0.7-23.3c0.5-8.4,1.1-16.2,1.8-23.3
								c0.2-2,0.9-3.4,1.9-4.1c1-0.7,2.6-0.9,4.8-0.7c1,0.1,1.8,0.2,2.6,0.2c0.8,0.1,1.6,0.2,2.4,0.4c0.8,0.2,1.6,0.5,2.5,0.8
								c0.9,0.3,1.9,0.7,3.1,1.3c2.1,0.9,3.3,2,3.8,3.2c0.4,1.2,0.5,2.7,0.3,4.5c-0.7,5-1.3,10.6-1.9,16.8c-0.6,6.2-1.1,12.7-1.7,19
								c-0.5,6.3-1,12.7-1.5,18.9c-0.4,6.1-0.8,11.6-1.1,16.1c0,1.1-0.3,2-0.9,2.6c-0.9,0.9-2.5,1.3-4.6,1.2c-2.9-0.1-6-0.4-9.2-1
								c-3-0.6-5.3-2.3-7-4.9c-1.2-1.8-2.4-4-3.8-6.5c-1.3-2.5-2.7-5.2-4.1-8c-1.4-2.8-2.8-5.9-4.3-9c-1.2-2.6-2.4-5.2-3.5-7.7
								c0,3.4-0.1,6.9-0.2,10.3l-0.2,11.7c-0.1,3.7-0.1,7.2-0.2,10.3c0,3.1,0,5.9,0,8.3c-0.1,1.3-0.4,2.1-1,2.6
								C257.8,235,257.1,235.2,256.1,235.2z M244.2,151.6c-1.3,0-2.4,0.2-3.1,0.7c-0.9,0.6-1.4,1.8-1.6,3.7
								c-0.1,3.4-0.2,7.3-0.3,11.7c0,4.3,0,8.9,0,13.6c0.1,4.6,0.2,9.4,0.3,14.1c0.2,4.7,0.3,9.2,0.5,13.3c0.2,4.1,0.4,7.8,0.6,11
								c0.2,3.1,0.4,5.7,0.6,7.5c0.1,1.6,0.5,2.8,1.1,3.6c0.6,0.8,1.5,1.4,2.9,1.8c1.6,0.6,3.1,1,4.6,1.2c1.6,0.2,3.1,0.3,4.7,0.4
								c0.5,0.1,1,0.1,1.4,0.1c1,0,1.5-0.2,1.7-0.3c0.4-0.3,0.7-1,0.7-2c-0.1-2.3-0.1-5.1,0-8.3c0-3.2,0.1-6.6,0.2-10.3l0.2-11.7
								c0.1-4.1,0.1-8.1,0.2-12.2l0-1.9l0.7,1.8c1.3,3.1,2.7,6.3,4.2,9.4c1.5,3.1,2.9,6.2,4.3,9c1.4,2.8,2.8,5.5,4.1,8
								c1.3,2.4,2.6,4.6,3.7,6.4c1.5,2.5,3.7,4,6.4,4.6c3.1,0.6,6.2,0.9,9.1,1c0.3,0,0.5,0,0.7,0c1.6,0,2.7-0.3,3.3-1
								c0.5-0.5,0.7-1.2,0.7-2.1c0.3-4.6,0.6-10.1,1.1-16.2c0.4-6.2,0.9-12.5,1.5-18.9c0.5-6.4,1.1-12.8,1.7-19.1
								c0.6-6.2,1.2-11.9,1.9-16.8c0.2-1.7,0.1-3.1-0.2-4.1c-0.4-1-1.5-2-3.4-2.7c-1.2-0.5-2.2-0.9-3-1.2c-0.9-0.3-1.7-0.6-2.4-0.8
								c-0.7-0.2-1.5-0.3-2.2-0.4c-0.8-0.1-1.7-0.1-2.6-0.2c-1.9-0.2-3.4,0-4.3,0.6c-0.8,0.5-1.4,1.7-1.5,3.5
								c-0.7,7.1-1.3,14.9-1.8,23.3c-0.5,8.4-0.7,16.9-0.6,25.4l0,2.2l-0.8-2.1c-1.2-3.1-2.4-6.4-3.7-9.8c-1.3-3.4-2.5-6.8-3.6-10
								c-1.2-3.3-2.2-6.3-3.2-9c-1-2.8-1.7-5.1-2.3-6.9c-0.7-2.3-1.6-4-2.6-5.1c-0.9-1-2.4-1.8-4.4-2.3c-2.5-0.7-4.9-1.3-7.2-1.6
								c-2.2-0.3-4.6-0.6-7-1C245,151.6,244.6,151.6,244.2,151.6z"/>
						</g>
					</g>
				</g>
			</g>
		</g>
	</g>
	<g>
		<g>
			<g>
				<g>
					<g>
						<g>
							<path class="st4" d="M68.2,251.1c-0.1,3.6-0.3,7.1-0.4,10.5c-0.1,1-0.5,1.8-0.9,2.2c-0.5,0.4-1.4,0.6-2.9,0.5
								c-1.7-0.2-3.3-0.3-4.6-0.3c-1.3,0-2.6-0.3-3.9-0.7c-1.3-0.5-2.2-1.2-2.8-2.1c-0.6-0.9-1-2.1-1.1-3.8
								c-0.1-1.3-0.2-3.2-0.4-5.7c-0.2-2.5-0.4-5.3-0.6-8.5c-0.2-3.2-0.4-6.6-0.6-10.2c-0.2-3.6-0.4-7.3-0.5-11
								c-0.1-3.7-0.2-7.2-0.2-10.7c0-3.5,0.1-6.6,0.3-9.4c0.2-2.8,0.5-5.1,0.9-7c0.4-1.9,1-3.1,1.8-3.7c3.5-2.4,7.3-4.7,11.2-7.1
								c3.9-2.4,7.8-4.2,11.7-5.6c3.9-1.4,7.7-2.1,11.5-2.1c3.7,0,7.1,1.1,10.3,3.3c2.5,2,4.9,4.2,7.1,6.6c2.2,2.4,4.1,5.5,5.8,9.2
								c1.5,4,1.7,7.5,0.8,10.3c-1.5,4.6-4.4,9.1-8.8,13.5c-4.4,4.4-9.8,8.7-16.2,13c1.7,1.4,3.5,2.8,5.5,4.3c2,1.5,4,3,6.1,4.5
								c2.1,1.5,4.1,2.9,6.2,4.3c2,1.4,3.9,2.6,5.7,3.5c1.4,0.8,2.1,1.6,2.1,2.2c0,0.6-0.4,1.4-1.3,2.2c-1,1-1.8,1.7-2.6,2
								c-0.7,0.3-1.7,0.6-2.7,1c-1.3,0.6-2.8,1-4.4,1.1c-1.7,0.1-3.7-0.3-6.1-1.2c-1.6-0.8-3.4-1.7-5.5-2.9c-2.1-1.2-4.3-2.5-6.6-4
								c-2.3-1.5-4.6-3-6.9-4.6c-2.3-1.6-4.4-3.3-6.3-5C68.5,243.8,68.3,247.5,68.2,251.1z M71.2,211.2c-0.3,3.7-0.8,7.7-1.2,12
								c4-2.1,7.5-4.5,10.5-7.1c3-2.6,5.4-5.2,7.2-7.7c1.9-2.5,3.1-4.8,3.8-6.9c0.7-2.1,0.7-3.6,0.2-4.6c-1-1.6-3.4-2.1-7-1.5
								c-1.8,0.3-3.7,0.8-5.8,1.6c-2.1,0.8-4.2,2-6.5,3.5C72,203.9,71.6,207.4,71.2,211.2z"/>
						</g>
					</g>
				</g>
			</g>
		</g>
		<g>
			<g>
				<g>
					<g>
						<g>
							<path d="M64.6,266.2c-0.2,0-0.5,0-0.8,0l-0.1,0c-1.7-0.2-3.2-0.2-4.5-0.3c-1.5,0-3-0.3-4.5-0.8l-0.1,0
								c-1.7-0.6-2.9-1.6-3.8-2.8c-0.8-1.2-1.3-2.7-1.4-4.7c-0.1-1.4-0.2-3.3-0.4-5.8c-0.2-2.5-0.4-5.4-0.6-8.5
								c-0.2-3.2-0.4-6.7-0.6-10.3c-0.2-3.7-0.4-7.4-0.5-11c-0.1-3.7-0.2-7.3-0.2-10.7c0-3.5,0.1-6.7,0.3-9.5c0.2-2.9,0.5-5.4,1-7.3
								c0.6-2.4,1.4-3.9,2.5-4.8l0.1-0.1c3.6-2.4,7.3-4.8,11.2-7.1c4-2.4,8.1-4.4,12.1-5.8c4.1-1.4,8.2-2.2,12.1-2.2
								c4.1,0,8,1.2,11.4,3.6l0.1,0.1c2.6,2,5.1,4.3,7.4,6.8c2.3,2.5,4.4,5.8,6.1,9.7l0,0.1c1.6,4.4,1.9,8.3,0.8,11.7
								c-1.5,4.9-4.6,9.7-9.2,14.3c-3.9,4-8.7,7.9-14.2,11.7c1.1,0.9,2.2,1.7,3.4,2.6c2,1.5,4,3,6.1,4.5c2,1.5,4.1,2.9,6.1,4.3
								c2,1.3,3.8,2.5,5.5,3.4c1.4,0.8,3.2,2.1,3.1,4c0,1.2-0.6,2.3-1.8,3.5c-1.2,1.2-2.2,2.1-3.3,2.5c-0.7,0.3-1.6,0.6-2.7,1
								c-1.5,0.7-3.2,1.1-5,1.2c-2,0.1-4.2-0.3-6.9-1.4l-0.1-0.1c-1.6-0.8-3.5-1.7-5.6-3c-2.1-1.2-4.4-2.6-6.7-4
								c-2.3-1.5-4.6-3-6.9-4.7c-1.2-0.8-2.4-1.7-3.5-2.6c-0.1,2.5-0.2,4.9-0.3,7.3c-0.1,3.6-0.3,7.1-0.4,10.5l0,0.2
								c-0.2,1.6-0.7,2.7-1.6,3.4C67.3,265.9,66.2,266.2,64.6,266.2z M64.1,262.3c0.2,0,0.4,0,0.5,0c0.6,0,0.9-0.1,1-0.1
								c0-0.1,0.1-0.3,0.2-0.8c0.1-3.4,0.3-6.9,0.4-10.4c0.1-3.6,0.3-7.4,0.6-11.3l0.3-4l3,2.7c1.9,1.7,3.9,3.3,6.2,4.9
								c2.3,1.6,4.6,3.1,6.8,4.6c2.2,1.4,4.4,2.7,6.5,3.9c2,1.1,3.8,2.1,5.3,2.8c2.1,0.8,3.8,1.2,5.1,1.1c1.4-0.1,2.7-0.4,3.8-0.9
								l0.2-0.1c1.1-0.4,1.9-0.7,2.7-1c0.2-0.1,0.8-0.4,1.8-1.5c0.3-0.3,0.5-0.5,0.6-0.7c-0.2-0.2-0.5-0.4-1-0.7
								c-1.7-1-3.7-2.2-5.8-3.6c-2.1-1.4-4.2-2.8-6.2-4.3c-2.1-1.5-4.2-3-6.2-4.5c-2-1.5-3.9-3-5.6-4.4l-2.1-1.7l2.2-1.5
								c6.3-4.1,11.6-8.4,15.9-12.7c4.1-4.2,6.9-8.4,8.3-12.7c0.8-2.5,0.6-5.5-0.7-9c-1.5-3.5-3.3-6.4-5.4-8.6
								c-2.1-2.3-4.4-4.4-6.9-6.3c-2.8-2-5.8-2.9-9.1-2.9c-3.5,0-7.2,0.7-10.9,2c-3.8,1.3-7.6,3.2-11.4,5.4c-3.8,2.3-7.5,4.7-11,7
								c-0.1,0.1-0.6,0.7-1,2.5c-0.4,1.8-0.7,4-0.9,6.7c-0.2,2.7-0.3,5.8-0.3,9.2c0,3.4,0.1,7,0.2,10.6c0.1,3.6,0.3,7.3,0.5,10.9
								c0.2,3.6,0.4,7,0.6,10.2c0.2,3.2,0.4,6,0.6,8.5c0.2,2.5,0.3,4.4,0.4,5.7c0.1,1.6,0.5,2.4,0.8,2.8c0.3,0.5,1,1,1.8,1.3
								c1.1,0.4,2.2,0.5,3.3,0.6C60.7,262,62.3,262.1,64.1,262.3z M67.6,226.7L68,223c0.5-4.2,0.9-8.3,1.2-12
								c0.3-3.7,0.7-7.3,1.2-10.7l0.1-0.8l0.7-0.5c2.3-1.7,4.7-2.9,6.9-3.8c2.2-0.8,4.3-1.4,6.2-1.7c4.5-0.8,7.5,0.1,9,2.4l0.1,0.1
								c0.8,1.5,0.8,3.5,0,6.2c-0.7,2.3-2.1,4.8-4.1,7.4c-1.9,2.6-4.5,5.3-7.5,8c-3.1,2.7-6.7,5.2-10.9,7.4L67.6,226.7z M74.3,201.7
								c-0.4,3-0.8,6.3-1.1,9.6c-0.2,2.6-0.5,5.3-0.8,8.2c2.5-1.5,4.8-3.2,6.8-5c2.8-2.5,5.2-5,7-7.4c1.7-2.3,2.9-4.4,3.5-6.3
								c0.6-2,0.5-2.8,0.4-3c-0.5-0.6-1.7-0.8-2.6-0.8c-0.7,0-1.5,0.1-2.4,0.2c-1.7,0.3-3.5,0.8-5.4,1.5
								C77.9,199.6,76.1,200.5,74.3,201.7z"/>
						</g>
					</g>
				</g>
			</g>
		</g>
	</g>
	<g>
		<g>
			<g>
				<g>
					<g>
						<g>
							<path class="st4" d="M164.3,177.4c1.4,2,2.6,4.2,3.6,6.9c1.4,4.4,2.4,9.3,2.9,14.6c0.5,5.3,0.5,10.7-0.1,16.2
								c-0.6,5.5-1.7,10.7-3.5,15.8c-1.7,5-4.2,9.5-7.3,13.3c-2.2,2.3-4.5,4-7.1,5.1c-2.6,1.1-5.7,1.8-9.3,2c-2.4,0.1-4.9,0.2-7.4,0
								c-2.6-0.1-4.9-0.5-7.2-1.2c-1.8-0.6-3.6-1.4-5.5-2.5c-1.8-1.1-3.4-2.4-4.6-4c-2-2.6-3.6-5.6-4.9-9.1
								c-1.3-3.5-2.3-7.2-2.9-11.1c-0.6-4-0.8-8.1-0.6-12.3c0.2-4.2,0.8-8.5,1.8-12.6c1-4.2,2.5-8.2,4.3-12.1
								c1.9-3.9,4.2-7.5,6.9-10.8c1.9-2,4.3-3.7,7.1-5.1c2.9-1.4,5.7-2,8.5-2.1c3.6,0,7.1,0.3,10.5,0.9c3.4,0.6,6.2,1.6,8.6,3
								C160.8,173.7,162.8,175.4,164.3,177.4z M140.7,186.2c-1.4,1.8-2.6,4.1-3.8,7c-1.2,2.9-2.2,6-3.1,9.4
								c-0.9,3.4-1.5,6.7-1.9,9.8c-0.4,3-0.5,6.2-0.4,9.3c0.1,3.2,0.5,6.1,1.1,8.8c0.6,2.7,1.4,4.9,2.4,6.7c1.1,1.8,2.3,2.8,3.8,3
								c1.4,0.2,2.7-0.3,3.9-1.5c1.3-1.2,2.4-3,3.5-5.2c1.1-2.3,2-5,2.8-8.2c0.8-3.2,1.3-6.6,1.7-10.3c0.3-3,0.4-6.3,0.4-9.9
								c-0.1-3.6-0.4-6.9-0.9-9.9c-0.5-3.1-1.2-5.7-2.2-7.8c-1-2.1-2.1-3.2-3.4-3.4C143.4,183.7,142,184.4,140.7,186.2z"/>
						</g>
					</g>
				</g>
			</g>
		</g>
		<g>
			<g>
				<g>
					<g>
						<g>
							<path d="M139.4,253.3c-1.1,0-2.3,0-3.5-0.1c-2.7-0.1-5.3-0.6-7.7-1.3c-2-0.6-3.9-1.5-5.9-2.7c-2-1.2-3.8-2.7-5.1-4.5
								c-2.1-2.7-3.8-6-5.2-9.6c-1.4-3.6-2.4-7.5-3-11.6c-0.6-4.1-0.8-8.3-0.6-12.7c0.2-4.4,0.8-8.7,1.9-13
								c1.1-4.3,2.6-8.5,4.5-12.5c1.9-4,4.3-7.8,7.2-11.2l0.1-0.1c2-2.2,4.6-4.1,7.7-5.5c3.1-1.5,6.2-2.2,9.3-2.3l0.4,0
								c3.6,0,7.1,0.3,10.4,1c3.6,0.7,6.7,1.8,9.2,3.2c2.9,1.7,5.2,3.6,6.8,5.8c1.5,2.1,2.8,4.6,3.8,7.4c1.5,4.6,2.5,9.6,3,15.1
								c0.5,5.4,0.5,11-0.1,16.6c-0.6,5.6-1.8,11-3.6,16.2c-1.8,5.2-4.4,9.9-7.6,13.9l-0.1,0.1c-2.3,2.5-5,4.4-7.8,5.6
								c-2.8,1.2-6.1,1.9-9.9,2.1C142.2,253.2,140.8,253.3,139.4,253.3z M124.9,176.7c-2.6,3.2-4.8,6.6-6.6,10.4
								c-1.8,3.8-3.2,7.7-4.2,11.7c-1,4-1.6,8.1-1.8,12.2c-0.2,4.1,0,8.1,0.6,11.9c0.6,3.8,1.5,7.4,2.8,10.7
								c1.3,3.3,2.8,6.2,4.7,8.6c1,1.4,2.4,2.5,4,3.5c1.7,1,3.4,1.8,5.1,2.3c2,0.7,4.3,1,6.6,1.1c2.5,0.1,4.9,0.1,7.2,0
								c3.3-0.2,6.2-0.8,8.6-1.8c2.3-1,4.5-2.5,6.4-4.6c2.9-3.6,5.2-7.9,6.9-12.6c1.7-4.9,2.8-10,3.4-15.3
								c0.6-5.3,0.6-10.6,0.1-15.8c-0.5-5.2-1.4-9.9-2.8-14.2c-0.9-2.4-2-4.5-3.3-6.3c-1.3-1.7-3.1-3.3-5.5-4.7
								c-2.2-1.2-4.9-2.1-8-2.7c-3.1-0.6-6.4-0.9-9.7-0.9l-0.4,0c-2.5,0-5,0.6-7.6,1.9C128.8,173.4,126.6,174.9,124.9,176.7z
								 M139.5,242.2L139.5,242.2c-0.3,0-0.6,0-0.9-0.1c-2.1-0.3-3.8-1.6-5.2-3.9c-1.2-2-2.1-4.4-2.7-7.3c-0.6-2.8-1-5.8-1.1-9.1
								c-0.2-3.3,0-6.5,0.4-9.7c0.4-3.2,1-6.5,1.9-10c0.9-3.5,1.9-6.8,3.1-9.7c1.2-3,2.6-5.5,4.1-7.4c1.8-2.4,3.9-3.4,6-3.1
								c2,0.2,3.6,1.8,4.9,4.5c1,2.2,1.8,5,2.3,8.3c0.5,3.1,0.8,6.5,0.9,10.2c0.1,3.6,0,7.1-0.4,10.2c-0.3,3.7-0.9,7.3-1.7,10.6
								c-0.8,3.3-1.8,6.2-2.9,8.6c-1.2,2.5-2.5,4.4-3.9,5.8C142.8,241.5,141.2,242.2,139.5,242.2z M144.3,185.8
								c-0.5,0-1.3,0.6-2.1,1.6c-1.2,1.6-2.4,3.8-3.5,6.5c-1.1,2.7-2.1,5.8-3,9.1c-0.8,3.3-1.4,6.5-1.8,9.5c-0.4,2.9-0.5,5.9-0.3,9
								c0.1,3.1,0.5,5.9,1,8.4c0.5,2.4,1.3,4.5,2.2,6.1c1.1,1.9,2.1,2,2.4,2c0.2,0,0.3,0,0.4,0c0.6,0,1.3-0.3,1.9-1
								c1.1-1,2.1-2.6,3.1-4.7c1-2.1,1.9-4.8,2.6-7.8c0.7-3.1,1.3-6.5,1.6-10c0.3-3,0.4-6.2,0.4-9.7c-0.1-3.5-0.4-6.7-0.9-9.6
								c-0.5-2.9-1.2-5.3-2-7.3c-0.6-1.3-1.3-2.2-1.8-2.2C144.4,185.8,144.3,185.8,144.3,185.8z"/>
						</g>
					</g>
				</g>
			</g>
		</g>
	</g>
	<g>
		<g>
			<g>
				<g>
					<g>
						<g>
							<path class="st4" d="M175.5,226.8c-1.1-2.9-1.9-6.1-2.5-9.7c-0.6-3.6-1-7.4-1.1-11.5c-0.2-4.1-0.2-8.3-0.1-12.5
								c0.1-4.3,0.3-8.6,0.7-12.9c0.3-4.3,0.7-8.6,1.2-12.7c0.2-1.9,0.7-3.1,1.6-3.6c0.9-0.5,2.4-0.6,4.5-0.3
								c1.9,0.2,3.8,0.7,5.7,1.2c1.8,0.6,3.7,1.3,5.5,2.2c3.7,1.9,5.4,4.8,5,8.7c-0.5,3.4-0.9,7-1.4,10.9c-0.5,3.9-0.8,7.9-1.1,11.8
								c-0.3,4-0.5,7.8-0.5,11.6c0,3.8,0.1,7.1,0.4,10c0.3,2.9,0.9,5.3,1.7,7.1c0.8,1.8,1.9,2.8,3.3,3c1.7,0.2,3.2-0.9,4.5-3.2
								c1.3-2.3,2.3-5.4,3.2-9.2c0.9-3.9,1.6-8.3,2.1-13.2c0.5-5,1-10.1,1.3-15.3c0.3-5.2,0.5-10.3,0.6-15.4c0.1-5,0.2-9.5,0.3-13.5
								c-0.2-1.9,0.3-3.1,1.5-3.7c1.2-0.6,2.7-0.8,4.5-0.6c1.8,0.2,3.8,0.6,6,1.3c2.2,0.7,4.2,1.4,6,2.1c1,0.4,1.7,0.8,2.2,1.2
								c0.5,0.4,0.9,0.8,1.2,1.3c0.3,0.5,0.4,1,0.5,1.6c0,0.6,0,1.3,0,2.1c-0.4,9.1-0.9,17.6-1.6,25.2c-0.7,7.7-1.6,14.6-2.7,20.6
								c-1.2,6-2.7,11.2-4.5,15.4c-1.8,4.2-4.1,7.5-6.9,9.7c-2,1.4-4,2.5-6.1,3.2c-2.1,0.8-4.5,1.3-7.4,1.6
								c-5.6,0.5-10.4,0.1-14.3-1.3c-1.7-0.6-3.3-1.4-4.9-2.3c-1.6-0.9-3-2.2-4.2-3.8C177.9,232.1,176.6,229.7,175.5,226.8z"/>
						</g>
					</g>
				</g>
			</g>
		</g>
		<g>
			<g>
				<g>
					<g>
						<g>
							<path d="M198.4,243.6c-3.9,0-7.4-0.5-10.4-1.6c-1.8-0.7-3.6-1.5-5.2-2.5c-1.7-1.1-3.3-2.5-4.7-4.2c-1.8-2.1-3.3-4.7-4.4-7.8
								c-1.1-3-2-6.4-2.6-10.1c-0.6-3.6-1-7.6-1.2-11.8c-0.2-4.1-0.2-8.4-0.1-12.7c0.1-4.3,0.3-8.7,0.7-13c0.3-4.3,0.7-8.6,1.2-12.8
								c0.3-2.5,1.1-4.2,2.6-5.1c1.3-0.8,3.2-1,5.8-0.5c2,0.3,4,0.7,5.9,1.3c1.9,0.6,3.9,1.4,5.8,2.4c4.5,2.2,6.6,5.9,6,10.7
								c-0.5,3.4-0.9,7.1-1.4,11c-0.5,3.9-0.8,7.8-1.1,11.8c-0.3,3.9-0.5,7.8-0.5,11.5c0,3.7,0.1,7,0.4,9.8c0.3,2.7,0.8,4.9,1.5,6.6
								c0.7,1.7,1.4,1.8,1.7,1.8c0,0,0.1,0,0.1,0c0.8,0,1.6-0.7,2.4-2.2c1.2-2.1,2.2-5.1,3-8.7c0.8-3.8,1.5-8.2,2.1-13
								c0.5-4.9,1-10,1.3-15.2c0.3-5.2,0.5-10.3,0.6-15.3c0.1-5,0.2-9.4,0.3-13.4c-0.3-3.5,1.5-5,2.6-5.5c1.5-0.7,3.4-1,5.6-0.8
								c2,0.2,4.1,0.6,6.4,1.4c2.2,0.7,4.3,1.4,6.1,2.1c1.2,0.5,2,1,2.7,1.4c0.8,0.6,1.4,1.2,1.8,1.9c0.4,0.7,0.7,1.6,0.7,2.5
								c0,0.7,0,1.5,0,2.4c-0.4,9.1-0.9,17.6-1.6,25.3c-0.7,7.7-1.6,14.7-2.8,20.8c-1.2,6.1-2.7,11.5-4.6,15.8
								c-2,4.5-4.5,8-7.4,10.4l-0.1,0.1c-2.1,1.5-4.3,2.7-6.6,3.5c-2.2,0.8-4.9,1.4-7.8,1.7C201.5,243.6,199.9,243.6,198.4,243.6z
								 M177.5,165.3c-0.8,0-1.2,0.2-1.2,0.2c-0.2,0.1-0.5,0.7-0.7,2.1c-0.5,4.1-0.9,8.4-1.2,12.7c-0.3,4.3-0.5,8.6-0.7,12.8
								c-0.1,4.2-0.1,8.4,0.1,12.4c0.2,4,0.5,7.8,1.1,11.3c0.6,3.4,1.4,6.6,2.4,9.4c1,2.7,2.3,4.9,3.8,6.7c1.2,1.4,2.4,2.5,3.8,3.4
								c1.4,0.9,2.9,1.6,4.5,2.2c3.6,1.3,8.1,1.7,13.4,1.1c2.6-0.3,4.9-0.7,6.9-1.4c1.9-0.7,3.8-1.7,5.6-3c2.5-2,4.6-5,6.2-8.9
								c1.8-4.1,3.2-9.1,4.4-15c1.1-5.9,2.1-12.8,2.7-20.4c0.7-7.6,1.2-16.1,1.6-25.2c0.1-0.8,0.1-1.4,0-1.9c0-0.3-0.1-0.5-0.2-0.7
								c-0.1-0.2-0.3-0.4-0.6-0.7c-0.3-0.2-0.9-0.5-1.9-1c-1.7-0.7-3.7-1.4-5.8-2c-2-0.6-3.9-1-5.6-1.2c-1.4-0.1-2.6,0-3.5,0.4
								c-0.4,0.2-0.5,0.7-0.4,1.7l0,0.1l0,0.1c-0.1,4-0.2,8.4-0.3,13.5c-0.1,5-0.3,10.2-0.6,15.5c-0.3,5.2-0.7,10.4-1.3,15.4
								c-0.5,5-1.3,9.5-2.1,13.5c-0.9,4-2,7.3-3.4,9.8c-1.7,3-3.8,4.5-6.4,4.2c-1.5-0.2-3.6-1-4.9-4.2c-0.9-2-1.5-4.6-1.8-7.7
								c-0.3-3-0.5-6.4-0.4-10.3c0-3.8,0.2-7.7,0.5-11.7c0.3-4,0.7-8,1.1-11.9c0.5-3.9,0.9-7.6,1.4-11c0.3-3-0.9-5.2-3.9-6.7
								c-1.7-0.9-3.4-1.6-5.2-2.1c-1.7-0.5-3.5-0.9-5.3-1.2C178.7,165.4,178,165.3,177.5,165.3z"/>
						</g>
					</g>
				</g>
			</g>
		</g>
	</g>
	<g>
		<g>
			<g>
				<g>
					<g>
						<g>
							<path class="st4" d="M273.4,172.6c0.5-8.1,1.1-15.7,1.8-22.6c0.2-1.9,0.8-3.1,1.7-3.7c0.9-0.6,2.4-0.8,4.5-0.7
								c1,0.1,1.8,0.2,2.6,0.2c0.8,0.1,1.5,0.2,2.3,0.4c0.8,0.2,1.6,0.4,2.5,0.7c0.9,0.3,1.9,0.7,3.1,1.2c2,0.8,3.2,1.8,3.6,2.9
								c0.4,1.1,0.5,2.5,0.3,4.2c-0.7,4.8-1.3,10.2-1.9,16.3c-0.6,6.1-1.1,12.2-1.7,18.5c-0.5,6.2-1,12.3-1.4,18.3
								c-0.4,5.9-0.8,11.2-1.1,15.6c0,2.4-1.7,3.5-5.2,3.3c-2.9-0.1-6-0.4-9.1-1c-2.9-0.6-5.1-2.1-6.7-4.6c-1.2-1.8-2.4-3.8-3.7-6.2
								c-1.3-2.4-2.7-5-4.1-7.7c-1.4-2.8-2.8-5.7-4.3-8.7c-1.5-3-2.8-6.1-4.2-9.2c0,3.9-0.1,7.9-0.2,11.8c-0.1,3.9-0.2,7.7-0.2,11.3
								c-0.1,3.6-0.1,6.9-0.2,10c0,3.1,0,5.8,0,8c-0.1,1.1-0.4,1.8-0.9,2.2c-0.5,0.4-1.6,0.5-3.3,0.3c-1.5-0.1-3.1-0.3-4.7-0.4
								c-1.6-0.2-3.1-0.5-4.7-1.2c-1.5-0.5-2.5-1.1-3.1-1.9c-0.6-0.8-1-2-1.1-3.7c-0.2-1.7-0.3-4.1-0.6-7.2
								c-0.2-3.1-0.4-6.7-0.6-10.7c-0.2-4-0.4-8.3-0.5-12.9c-0.2-4.6-0.3-9.1-0.3-13.7c-0.1-4.6-0.1-9,0-13.2c0-4.3,0.1-8,0.3-11.4
								c0.1-1.9,0.7-3.2,1.7-3.9c1-0.6,2.6-0.9,4.5-0.7c2.4,0.3,4.7,0.6,7,0.9c2.3,0.3,4.7,0.8,7.2,1.6c2,0.5,3.6,1.3,4.6,2.3
								c1,1.1,1.9,2.7,2.6,5c0.6,1.7,1.4,4,2.3,6.7c1,2.7,2,5.6,3.2,8.8c1.2,3.1,2.4,6.4,3.6,9.7c1.2,3.3,2.5,6.5,3.7,9.5
								C272.7,189,272.9,180.7,273.4,172.6z"/>
						</g>
					</g>
				</g>
			</g>
		</g>
		<g>
			<g>
				<g>
					<g>
						<g>
							<path d="M249.1,235.6c-0.5,0-1,0-1.6-0.1c-1.5-0.1-3.1-0.3-4.7-0.4c-1.7-0.2-3.5-0.6-5.2-1.3c-1.8-0.6-3.2-1.4-4-2.6
								c-0.8-1.1-1.3-2.7-1.5-4.7c-0.2-1.7-0.3-4.1-0.6-7.3c-0.2-3.2-0.4-6.8-0.6-10.8c-0.2-4-0.4-8.3-0.5-12.9
								c-0.2-4.6-0.3-9.3-0.3-13.7c-0.1-4.6-0.1-9.1,0-13.3c0-4.3,0.1-8.1,0.3-11.4c0.2-2.6,1.1-4.4,2.7-5.4c1.4-0.9,3.3-1.2,5.8-1
								c2.5,0.3,4.8,0.6,7.1,0.9c2.3,0.3,4.8,0.9,7.4,1.6c2.4,0.6,4.3,1.6,5.5,2.9c1.2,1.3,2.2,3.2,3.1,5.8c0.6,1.7,1.4,3.9,2.3,6.6
								c0.9,2.7,2,5.6,3.2,8.7c1.1,3,2.3,6.1,3.5,9.3c0.1-4.8,0.3-9.5,0.6-14.2c0.5-8.1,1.1-15.7,1.8-22.6c0.3-2.5,1.1-4.2,2.6-5.2
								c1.3-0.8,3.2-1.2,5.7-1c1,0.1,1.8,0.2,2.6,0.2c0.9,0.1,1.8,0.2,2.6,0.4c0.8,0.2,1.7,0.5,2.6,0.8c0.9,0.3,2,0.7,3.2,1.3
								c2.5,1,4,2.4,4.6,4c0.5,1.4,0.6,3.1,0.4,5.1c-0.7,4.8-1.3,10.2-1.9,16.2c-0.6,6-1.1,12.2-1.7,18.4c-0.5,6.1-1,12.3-1.4,18.3
								c-0.4,5.9-0.8,11.1-1.1,15.6c0,1.8-0.8,3-1.4,3.6c-1.1,1.1-2.8,1.7-5,1.7c-0.3,0-0.5,0-0.8,0c-3-0.1-6.1-0.4-9.3-1
								c-3.5-0.7-6.1-2.6-8-5.5c-1.2-1.8-2.5-3.9-3.8-6.3c-1.3-2.4-2.7-5-4.1-7.8c-1.4-2.8-2.9-5.7-4.3-8.7
								c-0.2-0.4-0.4-0.8-0.5-1.1c0,1,0,2-0.1,3L254,213c-0.1,3.6-0.1,6.9-0.2,10c0,3,0,5.7,0,8l0,0.1l0,0.1
								c-0.1,1.7-0.7,2.9-1.7,3.7C251.5,235.4,250.5,235.6,249.1,235.6z M237.3,154.7c-1,0-1.8,0.2-2.3,0.5
								c-0.4,0.3-0.7,1.1-0.8,2.3c-0.1,3.2-0.2,7-0.3,11.3c0,4.2,0,8.6,0,13.2c0.1,4.5,0.2,9,0.3,13.7c0.2,4.5,0.3,8.9,0.5,12.8
								c0.2,3.9,0.4,7.5,0.6,10.6c0.2,3.1,0.4,5.5,0.6,7.2c0.1,1.6,0.5,2.3,0.7,2.7c0.2,0.3,0.8,0.8,2.1,1.2l0.2,0.1
								c1.4,0.6,2.8,0.9,4.2,1c1.6,0.1,3.1,0.3,4.7,0.4c1,0.1,1.6,0.1,1.9,0c0-0.1,0.1-0.3,0.1-0.6c-0.1-2.3-0.1-5,0-8
								c0-3.1,0.1-6.4,0.2-10l0.2-11.3c0.1-3.9,0.1-7.9,0.2-11.8l0.1-9.3l3.7,8.5c1.3,3,2.7,6,4.1,9.1c1.4,3,2.9,5.9,4.3,8.7
								c1.4,2.7,2.7,5.3,4.1,7.7c1.3,2.3,2.5,4.4,3.7,6.1c1.3,2.1,3.1,3.3,5.4,3.8c3,0.5,5.9,0.8,8.8,0.9c0.3,0,0.5,0,0.7,0
								c1.6,0,2.1-0.4,2.2-0.5c0.1-0.1,0.2-0.2,0.2-0.8l0-0.1l0-0.1c0.3-4.5,0.6-9.8,1.1-15.7c0.4-6,0.9-12.2,1.5-18.3
								c0.5-6.2,1.1-12.4,1.7-18.5c0.6-6,1.2-11.6,1.9-16.4c0.2-1.4,0.1-2.4-0.2-3.2c-0.1-0.2-0.5-0.9-2.5-1.7
								c-1.1-0.5-2.1-0.9-2.9-1.2c-0.8-0.3-1.6-0.5-2.3-0.7c-0.7-0.2-1.3-0.3-2-0.3c-0.8-0.1-1.7-0.1-2.6-0.2c-0.4,0-0.7,0-1.1,0
								c-1.4,0-2,0.2-2.2,0.4c-0.1,0.1-0.6,0.5-0.8,2.2c-0.7,6.8-1.3,14.4-1.8,22.5c-0.5,8.1-0.7,16.3-0.6,24.5l0.1,10.7l-4-10
								c-1.2-3-2.4-6.2-3.7-9.6c-1.2-3.3-2.5-6.6-3.6-9.7c-1.2-3.1-2.2-6.1-3.2-8.8c-1-2.7-1.7-4.9-2.3-6.7c-0.7-2-1.4-3.5-2.2-4.3
								c-0.7-0.8-1.9-1.4-3.6-1.8l-0.1,0c-2.4-0.7-4.8-1.2-6.9-1.5c-2.3-0.3-4.6-0.6-7-0.9C238,154.7,237.7,154.7,237.3,154.7z"/>
						</g>
					</g>
				</g>
			</g>
		</g>
	</g>
	<g>
		<g>
			<g>
				<g>
					<g>
						<g>
							<path d="M312,139.6c3.2-1.3,6.6-2.3,10.3-3c3.6-0.7,7.3-1,11.1-1c3.8,0.1,7.5,0.7,11.1,2c3.6,1.2,6.9,3.1,10,5.7
								c3.1,2.6,5.7,6,7.9,10.4c1.8,3.4,3,7.2,3.6,11.4c0.5,4.1,0.4,8.4-0.4,12.8c-0.8,4.4-2.3,8.8-4.5,13.2
								c-2.2,4.4-5,8.5-8.5,12.4c-3.5,3.9-7.7,7.4-12.6,10.6c-4.9,3.2-10.5,5.7-16.7,7.7c-3.2,1.2-6.5,1-10.1-0.6
								c-1.8-0.9-3.3-1.7-4.7-2.6c-1.3-0.8-2.9-1.9-4.6-3.1c-0.6-0.6-1.3-1.1-1.8-1.7c-0.6-0.5-1.1-1.2-1.5-1.9
								c-0.4-0.7-0.7-1.6-0.9-2.6c-0.1-1-0.1-2.4,0-4l4-61.7C306,142.2,308.8,140.9,312,139.6z M330.2,198.6
								c3.4-3.1,6.3-6.3,8.4-9.7c2.2-3.4,3.8-6.7,4.9-10c1.1-3.3,1.6-6.4,1.8-9.3c0.2-3.9-0.3-7-1.5-9.2c-1.2-2.2-3.2-3.8-6-4.8
								c-2.9-1-6.3-0.8-10.4,0.6c-2,8.5-3.8,16.9-5.3,25.2c-1.5,8.3-2.9,16.6-4.3,25.1C322.6,204.4,326.7,201.7,330.2,198.6z"/>
						</g>
					</g>
				</g>
			</g>
		</g>
		<g>
			<g>
				<g>
					<g>
						<g>
							<path d="M319,222.9c-2,0-4-0.5-6.1-1.5c-1.8-0.9-3.4-1.7-4.7-2.6c-1.3-0.8-2.9-1.9-4.6-3.2c-0.7-0.6-1.3-1.1-1.9-1.7
								c-0.6-0.6-1.1-1.2-1.6-1.9c-0.4-0.7-0.8-1.7-0.9-2.7c-0.2-1.1-0.2-2.4,0-4.1l4.1-61.9l0.2-0.1c2.4-1.4,5.2-2.8,8.4-4.1
								c3.2-1.3,6.7-2.3,10.3-3c3.6-0.7,7.4-1,11.2-1c3.8,0.1,7.6,0.7,11.2,2c3.6,1.2,7,3.2,10.1,5.8c3.1,2.6,5.8,6.1,8,10.5
								c1.8,3.5,3.1,7.3,3.6,11.5c0.5,4.1,0.4,8.5-0.4,12.9c-0.8,4.4-2.3,8.9-4.5,13.3c-2.2,4.4-5.1,8.6-8.6,12.5
								c-3.5,3.9-7.8,7.5-12.7,10.7c-4.9,3.2-10.6,5.8-16.8,7.7C321.9,222.6,320.5,222.9,319,222.9z M304,143.9l-4,61.5
								c-0.1,1.6-0.1,2.9,0,3.9c0.1,1,0.4,1.8,0.8,2.4c0.4,0.7,0.9,1.3,1.4,1.8c0.6,0.5,1.2,1.1,1.8,1.6c1.7,1.2,3.2,2.3,4.5,3.1
								c1.3,0.8,2.9,1.7,4.6,2.5c3.4,1.6,6.7,1.8,9.8,0.6c6.2-1.9,11.8-4.5,16.6-7.6c4.8-3.1,9.1-6.7,12.5-10.5
								c3.5-3.9,6.3-8,8.5-12.3c2.1-4.3,3.6-8.7,4.4-13c0.8-4.3,0.9-8.6,0.4-12.6c-0.5-4.1-1.7-7.8-3.5-11.2
								c-2.1-4.3-4.8-7.7-7.8-10.3c-3-2.5-6.3-4.4-9.9-5.6c-3.5-1.2-7.2-1.9-11-1.9c-3.8-0.1-7.5,0.3-11.1,0.9
								c-3.6,0.7-7,1.7-10.2,2.9C309.1,141.2,306.3,142.5,304,143.9z M317.2,207.3l0.1-0.7c1.4-8.4,2.8-16.8,4.3-25.1
								c1.5-8.3,3.3-16.7,5.3-25.2l0-0.2l0.2-0.1c4.1-1.5,7.7-1.7,10.6-0.6c2.9,1.1,5,2.7,6.3,5c1.2,2.2,1.7,5.4,1.6,9.4
								c-0.1,2.9-0.7,6-1.8,9.4c-1.1,3.3-2.7,6.7-4.9,10.1c-2.2,3.4-5.1,6.6-8.5,9.7c-3.5,3.1-7.7,5.8-12.5,8.1L317.2,207.3z
								 M327.7,156.7c-2,8.4-3.7,16.8-5.2,25c-1.5,8-2.9,16.2-4.2,24.3c4.5-2.2,8.4-4.7,11.7-7.6c3.4-3.1,6.2-6.3,8.4-9.6
								c2.2-3.3,3.8-6.6,4.8-9.9c1-3.3,1.6-6.4,1.7-9.2c0.2-3.9-0.3-6.9-1.5-9c-1.1-2.1-3.1-3.6-5.8-4.6
								C334.9,155.1,331.5,155.3,327.7,156.7z"/>
						</g>
					</g>
				</g>
			</g>
		</g>
	</g>
	<g>
		<g>
			<g>
				<g>
					<g>
						<g>
							<path class="st4" d="M304.9,141.4c3.2-1.2,6.6-2.2,10.2-2.9c3.6-0.7,7.3-1,11.1-0.9c3.8,0.1,7.5,0.7,11,1.9
								c3.6,1.2,6.9,3,9.9,5.5c3.1,2.5,5.7,5.8,7.8,10.1c1.8,3.3,3,7,3.5,11c0.5,4,0.4,8.1-0.4,12.4c-0.8,4.2-2.3,8.5-4.4,12.7
								c-2.2,4.2-5,8.3-8.5,12c-3.5,3.8-7.7,7.2-12.6,10.3c-4.9,3.1-10.4,5.5-16.6,7.4c-3.2,1.2-6.5,1-10.1-0.6
								c-1.8-0.8-3.3-1.7-4.7-2.5c-1.3-0.8-2.9-1.8-4.6-3c-0.6-0.5-1.2-1.1-1.8-1.6c-0.6-0.5-1.1-1.1-1.5-1.8
								c-0.4-0.7-0.7-1.5-0.9-2.5c-0.1-1-0.1-2.3,0-3.9l4-59.7C298.9,144,301.7,142.7,304.9,141.4z M323,198.6
								c3.4-3,6.2-6.1,8.4-9.4c2.2-3.2,3.8-6.5,4.8-9.7c1-3.2,1.6-6.2,1.8-9c0.2-3.8-0.3-6.8-1.5-8.9c-1.2-2.1-3.2-3.6-6-4.6
								c-2.8-1-6.3-0.8-10.3,0.6c-2,8.3-3.7,16.4-5.2,24.4c-1.5,8-2.9,16.1-4.3,24.3C315.4,204.2,319.6,201.6,323,198.6z"/>
						</g>
					</g>
				</g>
			</g>
		</g>
		<g>
			<g>
				<g>
					<g>
						<g>
							<path d="M311.9,223.7c-2.2,0-4.4-0.5-6.7-1.6c-1.9-0.9-3.5-1.7-4.9-2.6c-1.4-0.8-2.9-1.9-4.7-3.1l-0.2-0.1
								c-0.6-0.6-1.3-1.1-1.9-1.6c-0.7-0.6-1.3-1.4-1.9-2.2c-0.6-0.9-0.9-2-1.1-3.3c-0.2-1.2-0.2-2.6,0-4.3l4.1-60.7l0.9-0.5
								c2.4-1.4,5.3-2.8,8.6-4c3.3-1.3,6.8-2.3,10.6-3c3.7-0.7,7.6-1,11.5-1c4,0.1,7.9,0.7,11.6,2c3.8,1.3,7.3,3.3,10.6,5.9
								c3.3,2.7,6.1,6.3,8.4,10.7c1.9,3.5,3.2,7.4,3.8,11.6c0.6,4.2,0.4,8.6-0.4,13c-0.8,4.4-2.4,8.9-4.6,13.3
								c-2.2,4.4-5.2,8.6-8.8,12.5c-3.6,3.9-8,7.4-13,10.6c-5,3.1-10.7,5.7-17,7.6C315.1,223.4,313.5,223.7,311.9,223.7z
								 M297.9,213.3c1.6,1.2,3.1,2.1,4.4,2.9c1.3,0.8,2.8,1.6,4.5,2.4c3,1.4,5.9,1.6,8.5,0.5l0.1,0c6-1.8,11.5-4.3,16.2-7.2
								c4.7-3,8.8-6.3,12.2-9.9c3.4-3.6,6.1-7.5,8.2-11.6c2.1-4.1,3.5-8.2,4.3-12.2c0.8-4,0.9-8,0.4-11.7c-0.5-3.7-1.6-7.2-3.3-10.3
								c-2.1-4-4.5-7.2-7.4-9.5c-2.9-2.3-6-4.1-9.3-5.2c-3.4-1.1-6.9-1.7-10.4-1.8c-3.6-0.1-7.2,0.2-10.7,0.9
								c-3.5,0.7-6.8,1.6-9.9,2.8c-2.7,1-5.1,2.1-7.1,3.3l-4,58.7c-0.1,1.5-0.1,2.6,0,3.4c0.1,0.7,0.3,1.3,0.6,1.8
								c0.3,0.5,0.7,1,1.1,1.4C296.8,212.3,297.3,212.8,297.9,213.3z M308,209.7l0.6-3.7c1.4-8.1,2.8-16.3,4.3-24.3
								c1.5-8,3.3-16.3,5.3-24.5l0.3-1l1-0.4c4.5-1.6,8.4-1.8,11.6-0.6c3.3,1.2,5.7,3,7.1,5.5c1.4,2.4,2,5.7,1.8,9.9
								c-0.1,2.9-0.8,6.1-1.9,9.5c-1.1,3.4-2.8,6.8-5.1,10.2c-2.3,3.4-5.2,6.7-8.8,9.7c-3.6,3.1-7.9,5.8-12.9,8.1L308,209.7z
								 M321.8,159.2c-1.9,7.8-3.5,15.6-5,23.2c-1.3,6.7-2.5,13.6-3.7,20.4c3.2-1.7,6.1-3.6,8.5-5.8c3.3-2.9,6-5.9,8.1-9
								c2.1-3.1,3.6-6.2,4.6-9.2c1-3,1.5-5.9,1.7-8.4c0.1-3.4-0.3-6.1-1.3-7.8c-0.9-1.7-2.6-2.9-5-3.7
								C327.6,158.1,325,158.2,321.8,159.2z"/>
						</g>
					</g>
				</g>
			</g>
		</g>
	</g>
	<g>
		<g>
			<g>
				<path class="st3" d="M444.3,170.2c2.4,1,4.6,2.5,6.7,4.3c4,3.5,6.9,7.1,8.9,10.8c1.9,3.7,3,7.4,3.3,11.1
					c0.3,3.7-0.2,7.4-1.5,10.9c-1.3,3.6-3.1,6.9-5.5,10c-5.7,6.9-12,11.5-19,14.1c-7,2.5-14.9,3.8-23.6,3.8
					c-6.6,0-13.5-1.1-20.7-3.4c-7.2-2.3-14.6-6.6-22-12.9c-2.3-1.9-4-3.5-5.1-4.8c-1.1-1.4-1.7-2.5-1.9-3.5c-0.2-1,0-1.8,0.5-2.5
					c0.5-0.7,1.3-1.3,2.2-1.9c3.2-2.1,6.9-2.9,10.9-2.5c4,0.4,7.6,1.3,10.8,2.9c4.5,2.3,8.6,3.9,12.2,4.8c3.6,0.9,6.9,1.3,9.9,1.1
					c3-0.2,5.7-0.9,8.1-2.1c2.4-1.3,4.7-3,6.8-5.1c2-2.2,3.5-4.4,4.4-6.5c0.9-2.2,1.5-4.2,1.6-6.2c0.2-2-0.1-3.7-0.6-5.2
					c-0.6-1.5-1.3-2.7-2.3-3.6c-2.1-1.7-4.3-2.7-6.7-2.9c-2.4-0.2-5.5-0.1-9.3,0.5c-4.9,0.7-9.7-0.3-14.4-2.9
					c-4.7-2.6-8.6-6.5-11.9-11.8c-2.9-4.6-2.3-7.6,1.9-9.1c10.4-3.4,19.1-6.8,26.1-10.4c7.1-3.5,12.7-6.9,16.9-10
					c4.2-3.1,7-5.9,8.3-8.5c1.4-2.6,1.4-4.7,0.2-6.3c-0.7-1.2-2-1.8-3.9-1.8c-1.3,0-2.6,0.2-4.1,0.7c-1.5,0.5-3,1.1-4.7,2
					c-1.7,0.8-3.3,1.7-4.9,2.6c-1.6,0.9-3.2,1.9-4.8,2.9c-2.1,1.6-4.6,2.7-7.4,3.2c-2.8,0.5-5.7,0.6-8.6,0.2c-2.9-0.3-5.8-1-8.5-2.1
					c-2.7-1.1-5-2.4-6.9-3.9c-3.8-3.5-4.3-7-1.6-10.6c1.7-2.3,3.8-4.7,6.4-7.2c2.6-2.5,5.5-4.8,8.6-7c3.1-2.2,6.5-4.1,10.1-5.9
					c3.6-1.7,7.3-3,11.1-3.9c2.8-0.5,5.9-1,9.1-1.2c3.2-0.3,6.6,0,10.2,0.8c3.6,0.8,7.2,2.4,10.8,4.7c3.7,2.3,7.3,5.7,11,10.1
					c3.7,4.8,6.2,9.5,7.6,14.1c1.4,4.6,2,8.9,1.6,13.1c-0.3,4.1-1.3,7.9-3.1,11.4c-1.7,3.4-3.8,6.3-6.4,8.6c-3,2.8-6.6,5.4-10.8,7.8
					c-4.1,2.4-8.8,4.7-13.9,6.9C439.4,168.2,441.9,169.1,444.3,170.2z"/>
			</g>
		</g>
		<g>
			<g>
				<path class="st3" d="M434.2,175.6c2.4,1,4.6,2.5,6.7,4.3c4,3.5,6.9,7.1,8.9,10.8c1.9,3.7,3,7.4,3.3,11.1
					c0.3,3.7-0.2,7.4-1.5,10.9c-1.3,3.6-3.1,6.9-5.5,10c-5.7,6.9-12,11.5-19,14.1c-7,2.5-14.9,3.8-23.6,3.8
					c-6.6,0-13.5-1.1-20.7-3.4c-7.2-2.3-14.6-6.6-22-12.9c-2.3-1.9-4-3.5-5.1-4.8c-1.1-1.4-1.7-2.5-1.9-3.5c-0.2-1,0-1.8,0.5-2.5
					c0.5-0.7,1.3-1.3,2.2-1.9c3.2-2.1,6.9-2.9,10.9-2.5c4,0.4,7.6,1.3,10.8,2.9c4.5,2.3,8.6,3.9,12.2,4.8c3.6,0.9,6.9,1.3,9.9,1.1
					c3-0.2,5.7-0.9,8.1-2.1c2.4-1.3,4.7-3,6.8-5.1c2-2.2,3.5-4.4,4.4-6.5c0.9-2.2,1.5-4.2,1.6-6.2c0.2-2-0.1-3.7-0.6-5.2
					c-0.6-1.5-1.3-2.7-2.3-3.6c-2.1-1.7-4.3-2.7-6.7-2.9c-2.4-0.2-5.5-0.1-9.3,0.5c-4.9,0.7-9.7-0.3-14.4-2.9
					c-4.7-2.6-8.6-6.5-11.9-11.8c-2.9-4.6-2.3-7.6,1.9-9.1c10.4-3.4,19.1-6.8,26.1-10.4c7.1-3.5,12.7-6.9,16.9-10
					c4.2-3.1,7-5.9,8.3-8.5c1.4-2.6,1.4-4.7,0.2-6.3c-0.7-1.2-2-1.8-3.9-1.8c-1.3,0-2.6,0.2-4.1,0.7c-1.5,0.5-3,1.1-4.7,2
					c-1.7,0.8-3.3,1.7-4.9,2.6c-1.6,0.9-3.2,1.9-4.8,2.9c-2.1,1.6-4.6,2.7-7.4,3.2c-2.8,0.5-5.7,0.6-8.6,0.2c-2.9-0.3-5.8-1-8.5-2.1
					c-2.7-1.1-5-2.4-6.9-3.9c-3.8-3.5-4.3-7-1.6-10.6c1.7-2.3,3.8-4.7,6.4-7.2c2.6-2.5,5.5-4.8,8.6-7c3.1-2.2,6.5-4.1,10.1-5.9
					c3.6-1.7,7.3-3,11.1-3.9c2.8-0.5,5.9-1,9.1-1.2c3.2-0.3,6.6,0,10.2,0.8c3.6,0.8,7.2,2.4,10.8,4.7c3.7,2.3,7.3,5.7,11,10.1
					c3.7,4.8,6.2,9.5,7.6,14.1c1.4,4.6,2,8.9,1.6,13.1c-0.3,4.1-1.3,7.9-3.1,11.4c-1.7,3.4-3.8,6.3-6.4,8.6c-3,2.8-6.6,5.4-10.8,7.8
					c-4.1,2.4-8.8,4.7-13.9,6.9C429.3,173.7,431.8,174.6,434.2,175.6z"/>
			</g>
		</g>
	</g>
	<g>
		<g>
			<path d="M428,169.2c2.3,1,4.5,2.3,6.6,4.1c3.9,3.3,6.8,6.7,8.7,10.2c1.9,3.5,3,7,3.3,10.5c0.3,3.5-0.2,7-1.5,10.4
				c-1.2,3.4-3,6.6-5.4,9.4c-5.6,6.5-11.8,10.9-18.7,13.3c-6.9,2.4-14.7,3.6-23.2,3.6c-6.5,0-13.3-1.1-20.4-3.3
				c-7.1-2.2-14.3-6.2-21.7-12.2c-2.3-1.8-3.9-3.3-5-4.6c-1.1-1.3-1.7-2.4-1.9-3.3c-0.2-0.9,0-1.7,0.5-2.4c0.5-0.7,1.2-1.3,2.2-1.8
				c3.2-2,6.8-2.8,10.8-2.4c4,0.4,7.5,1.3,10.6,2.7c4.4,2.2,8.4,3.7,12,4.6c3.6,0.9,6.8,1.2,9.8,1.1c2.9-0.2,5.6-0.8,8-2
				c2.4-1.2,4.6-2.8,6.7-4.9c2-2.1,3.4-4.1,4.3-6.2c0.9-2.1,1.5-4,1.6-5.9c0.2-1.9-0.1-3.5-0.6-5c-0.6-1.4-1.3-2.6-2.2-3.4
				c-2.1-1.6-4.3-2.6-6.6-2.8c-2.3-0.2-5.4-0.1-9.2,0.5c-4.9,0.6-9.6-0.3-14.2-2.8c-4.6-2.5-8.5-6.2-11.7-11.1
				c-2.9-4.3-2.3-7.2,1.9-8.7c10.2-3.2,18.8-6.5,25.8-9.8c7-3.4,12.5-6.5,16.6-9.4c4.1-2.9,6.9-5.6,8.2-8.1c1.3-2.4,1.4-4.4,0.2-6
				c-0.7-1.1-2-1.7-3.9-1.7c-1.2,0-2.6,0.2-4,0.7c-1.4,0.5-3,1.1-4.6,1.9c-1.7,0.8-3.3,1.6-4.9,2.5c-1.6,0.9-3.2,1.8-4.7,2.7
				c-2.1,1.5-4.5,2.6-7.3,3c-2.8,0.5-5.6,0.5-8.5,0.2c-2.9-0.3-5.7-1-8.4-2c-2.7-1-5-2.3-6.8-3.7c-3.7-3.3-4.2-6.7-1.5-10.1
				c1.6-2.2,3.8-4.4,6.3-6.8c2.6-2.4,5.4-4.6,8.5-6.7c3.1-2.1,6.4-3.9,10-5.6c3.6-1.6,7.2-2.9,10.9-3.7c2.8-0.5,5.8-0.9,9-1.2
				c3.2-0.3,6.6,0,10.1,0.8c3.5,0.8,7.1,2.2,10.7,4.4c3.6,2.2,7.2,5.4,10.8,9.6c3.6,4.5,6.1,9,7.5,13.3c1.4,4.3,1.9,8.5,1.6,12.4
				c-0.3,3.9-1.3,7.5-3,10.8c-1.7,3.3-3.8,6-6.3,8.1c-3,2.7-6.5,5.2-10.6,7.4c-4.1,2.3-8.6,4.4-13.7,6.5
				C423.2,167.4,425.7,168.3,428,169.2z"/>
			<path d="M397.7,234.3c-6.8,0-14-1.1-21.5-3.4c-7.5-2.3-15.2-6.6-22.9-12.9c-2.4-1.9-4.2-3.5-5.5-5c-1.5-1.8-2.4-3.4-2.6-5
				c-0.3-1.9,0.1-3.7,1.2-5.1c0.8-1,1.9-1.9,3.2-2.7c3.8-2.3,8.2-3.3,12.8-2.9c4.4,0.4,8.3,1.4,11.8,3c4.3,2.1,8.1,3.5,11.4,4.3
				c3.2,0.8,6.1,1.1,8.7,1c2.4-0.1,4.7-0.7,6.6-1.6c2-1,4-2.4,5.7-4.2c1.6-1.7,2.9-3.5,3.6-5.2c0.8-1.7,1.2-3.3,1.3-4.7
				c0.1-1.3,0-2.4-0.4-3.4c-0.3-0.9-0.8-1.6-1.3-2c-1.5-1.2-3-1.8-4.6-2c-2-0.2-4.9,0-8.4,0.4c-1.1,0.1-2.3,0.2-3.4,0.2
				c-4.4,0-8.8-1.1-12.9-3.4c-5.1-2.7-9.5-6.9-13-12.3c-2.2-3.2-2.8-6.2-2-8.8c0.8-2.3,2.7-4,5.6-5.1l0.1,0
				c10-3.1,18.5-6.4,25.3-9.6c6.7-3.2,12.2-6.3,16.1-9.1c4.6-3.3,6.4-5.6,7.2-6.9c0.3-0.6,0.8-1.7,0.5-2.1l-0.2-0.3
				c0,0-0.3-0.1-0.9-0.1c-0.9,0-1.9,0.2-3,0.5c-1.3,0.4-2.7,1-4.2,1.7c-1.6,0.7-3.1,1.5-4.7,2.4c-1.5,0.8-3,1.7-4.5,2.6
				c-2.5,1.8-5.4,3-8.6,3.6c-3.1,0.5-6.3,0.6-9.5,0.3c-3.2-0.3-6.3-1.1-9.2-2.2c-3-1.1-5.6-2.6-7.7-4.2l-0.2-0.1
				c-5.1-4.5-5.8-10-2-14.8c1.7-2.3,4-4.7,6.7-7.2c2.7-2.5,5.7-4.8,8.9-7c3.2-2.2,6.7-4.1,10.5-5.8c3.8-1.7,7.7-3.1,11.6-4l0.1,0
				c2.9-0.5,6-0.9,9.3-1.2c3.5-0.3,7.3,0,11.1,0.8c3.9,0.9,7.8,2.5,11.7,4.8c3.9,2.4,7.9,5.8,11.7,10.3l0.1,0.1
				c3.9,4.9,6.6,9.7,8.1,14.4c1.5,4.8,2.1,9.4,1.8,13.7c-0.3,4.4-1.5,8.5-3.4,12.1c-1.9,3.6-4.3,6.7-7.1,9.1
				c-3.1,2.8-6.9,5.5-11.2,7.9c-1.9,1.1-3.9,2.1-6.1,3.1c2.5,1.1,4.8,2.6,7,4.5c4.2,3.6,7.4,7.3,9.6,11.2c2.1,3.9,3.4,8,3.7,11.9
				c0.3,4-0.3,8-1.7,11.8c-1.4,3.8-3.4,7.3-6,10.5c-6,7-12.8,11.8-20.3,14.4C414.8,233,406.7,234.3,397.7,234.3z M352.2,206.9
				c0.1,0.2,0.4,0.7,1,1.5c0.9,1.1,2.4,2.5,4.5,4c7,5.7,13.9,9.6,20.6,11.7c6.8,2.1,13.3,3.1,19.4,3.1c8.1,0,15.6-1.1,22.1-3.4
				c6.3-2.2,12.1-6.3,17.2-12.3c2.1-2.5,3.7-5.3,4.8-8.4c1.1-2.9,1.5-5.9,1.3-8.9c-0.2-3-1.2-6.1-2.8-9.1c-1.7-3.1-4.4-6.2-7.9-9.2
				c-1.8-1.5-3.7-2.7-5.7-3.6c-2.2-0.9-4.6-1.8-7.2-2.6l-9.4-2.9l9.1-3.7c4.9-2,9.4-4.1,13.3-6.3c3.8-2.1,7.2-4.5,10-7
				c2.2-1.9,4-4.3,5.5-7.1c1.5-2.8,2.4-6,2.6-9.4c0.3-3.4-0.2-7.2-1.5-11c-1.3-3.9-3.6-8-6.9-12.2c-3.3-3.9-6.7-6.9-9.9-8.8
				c-3.3-2-6.5-3.3-9.6-4c-3.1-0.7-6.2-0.9-9-0.7c-3,0.2-5.9,0.6-8.6,1.1c-3.4,0.8-6.8,1.9-10.1,3.5c-3.4,1.6-6.6,3.4-9.5,5.3
				c-2.9,2-5.7,4.1-8.1,6.3c-2.4,2.2-4.4,4.4-5.9,6.4c-1.1,1.5-1.8,2.7,1,5.3c1.6,1.2,3.5,2.3,5.8,3.1c2.4,0.9,4.9,1.5,7.5,1.8
				c2.6,0.3,5.1,0.2,7.6-0.2c2.2-0.4,4.1-1.1,5.8-2.4l0.3-0.2c1.6-1,3.2-1.9,4.8-2.8c1.7-0.9,3.4-1.8,5.1-2.6c1.8-0.8,3.5-1.5,5.1-2
				c1.8-0.6,3.5-0.9,5.1-0.9c3.8,0,5.7,1.7,6.7,3.2c1.2,1.6,2.7,4.9,0.1,9.7c-1.6,2.9-4.6,5.9-9.2,9.2c-4.3,3-10.1,6.3-17.2,9.7
				c-7.1,3.4-15.9,6.8-26.2,10c-1,0.4-1.2,0.7-1.3,0.7l0,0c0,0-0.1,0.8,1.2,2.7c2.9,4.5,6.4,7.8,10.4,10c4,2.1,7.9,2.9,12.1,2.4
				c4-0.5,7.4-0.7,10-0.5c3,0.3,5.9,1.5,8.5,3.5l0.1,0.1c1.3,1.2,2.4,2.8,3.2,4.7c0.8,2,1,4.1,0.9,6.5c-0.2,2.3-0.8,4.6-1.9,7
				c-1.1,2.4-2.8,4.8-5,7.2c-2.4,2.4-4.9,4.3-7.6,5.6c-2.8,1.4-5.9,2.2-9.4,2.4c-3.3,0.2-6.9-0.2-10.8-1.2
				c-3.8-0.9-8.1-2.6-12.7-4.8c-2.7-1.2-5.8-2-9.4-2.4c-3.2-0.3-6,0.3-8.6,1.9l-0.1,0.1C352.8,206.5,352.5,206.7,352.2,206.9z"/>
		</g>
	</g>
	<g>
		<g>
			<path class="st4" d="M418,171.1c2.3,1,4.5,2.3,6.6,4.1c3.9,3.3,6.8,6.7,8.7,10.2c1.9,3.5,3,7,3.3,10.5c0.3,3.5-0.2,7-1.5,10.4
				c-1.2,3.4-3,6.6-5.4,9.4c-5.6,6.5-11.8,10.9-18.7,13.3c-6.9,2.4-14.7,3.6-23.2,3.6c-6.5,0-13.3-1.1-20.4-3.3
				c-7.1-2.2-14.3-6.2-21.7-12.2c-2.3-1.8-3.9-3.3-5-4.6c-1.1-1.3-1.7-2.4-1.9-3.3c-0.2-0.9,0-1.7,0.5-2.4c0.5-0.7,1.2-1.3,2.2-1.8
				c3.2-2,6.8-2.8,10.8-2.4c4,0.4,7.5,1.3,10.6,2.7c4.4,2.2,8.4,3.7,12,4.6c3.6,0.9,6.8,1.2,9.8,1.1c2.9-0.2,5.6-0.8,8-2
				c2.4-1.2,4.6-2.8,6.7-4.9c2-2.1,3.4-4.1,4.3-6.2c0.9-2.1,1.5-4,1.6-5.9c0.2-1.9-0.1-3.5-0.6-5c-0.6-1.4-1.3-2.6-2.2-3.4
				c-2.1-1.6-4.3-2.6-6.6-2.8c-2.3-0.2-5.4-0.1-9.2,0.5c-4.9,0.6-9.6-0.3-14.2-2.8c-4.6-2.5-8.5-6.2-11.7-11.1
				c-2.9-4.3-2.3-7.2,1.9-8.7c10.2-3.2,18.8-6.5,25.8-9.8c7-3.4,12.5-6.5,16.6-9.4c4.1-2.9,6.9-5.6,8.2-8.1c1.3-2.4,1.4-4.4,0.2-6
				c-0.7-1.1-2-1.7-3.9-1.7c-1.2,0-2.6,0.2-4,0.7c-1.4,0.5-3,1.1-4.6,1.9c-1.7,0.8-3.3,1.6-4.9,2.5c-1.6,0.9-3.2,1.8-4.7,2.7
				c-2.1,1.5-4.5,2.6-7.3,3c-2.8,0.5-5.6,0.5-8.5,0.2c-2.9-0.3-5.7-1-8.4-2c-2.7-1-5-2.3-6.8-3.7c-3.7-3.3-4.2-6.7-1.5-10.1
				c1.6-2.2,3.8-4.4,6.3-6.8c2.6-2.4,5.4-4.6,8.5-6.7c3.1-2.1,6.4-3.9,10-5.6c3.6-1.6,7.2-2.9,10.9-3.7c2.8-0.5,5.8-0.9,9-1.2
				c3.2-0.3,6.6,0,10.1,0.8c3.5,0.8,7.1,2.2,10.7,4.4c3.6,2.2,7.2,5.4,10.8,9.6c3.6,4.5,6.1,9,7.5,13.3c1.4,4.3,1.9,8.5,1.6,12.4
				c-0.3,3.9-1.3,7.5-3,10.8c-1.7,3.3-3.8,6-6.3,8.1c-3,2.7-6.5,5.2-10.6,7.4c-4.1,2.3-8.6,4.4-13.7,6.5
				C413.2,169.2,415.7,170.1,418,171.1z"/>
			<path d="M387.7,236.1c-6.8,0-14-1.1-21.5-3.4c-7.5-2.3-15.2-6.6-22.9-12.9c-2.4-1.9-4.2-3.5-5.5-5c-1.5-1.8-2.4-3.4-2.6-5
				c-0.3-1.9,0.1-3.7,1.2-5.1c0.8-1,1.9-1.9,3.2-2.7c3.8-2.3,8.2-3.3,12.8-2.9c4.4,0.4,8.3,1.4,11.8,3c4.3,2.1,8.1,3.5,11.4,4.3
				c3.2,0.8,6.1,1.1,8.7,1c2.4-0.1,4.7-0.7,6.6-1.6c2-1,4-2.4,5.7-4.2c1.6-1.7,2.9-3.5,3.6-5.2c0.8-1.7,1.2-3.3,1.3-4.7
				c0.1-1.3,0-2.4-0.4-3.4c-0.3-0.9-0.8-1.6-1.3-2c-1.5-1.2-3-1.8-4.6-2c-2-0.2-4.9,0-8.4,0.4c-1.1,0.1-2.3,0.2-3.4,0.2
				c-4.4,0-8.8-1.1-12.9-3.4c-5.1-2.8-9.5-6.9-13-12.3c-2.2-3.2-2.8-6.2-2-8.8c0.8-2.3,2.7-4,5.6-5.1l0.1,0
				c10-3.1,18.5-6.4,25.3-9.6c6.7-3.2,12.2-6.3,16.1-9.1c4.6-3.3,6.4-5.6,7.2-6.9c0.3-0.6,0.8-1.7,0.5-2.1l-0.2-0.3
				c0,0-0.3-0.1-0.9-0.1c-0.9,0-1.9,0.2-3,0.5c-1.3,0.4-2.7,1-4.2,1.7c-1.6,0.7-3.1,1.5-4.7,2.4c-1.5,0.8-3,1.7-4.5,2.6
				c-2.5,1.8-5.4,3-8.6,3.6c-3.1,0.5-6.3,0.6-9.5,0.3c-3.2-0.3-6.3-1.1-9.2-2.2c-3-1.1-5.6-2.6-7.7-4.2l-0.2-0.1
				c-5.1-4.5-5.8-10-2-14.8c1.7-2.3,4-4.7,6.7-7.2c2.7-2.5,5.7-4.8,8.9-7c3.2-2.2,6.7-4.1,10.5-5.8c3.8-1.7,7.7-3.1,11.6-4l0.1,0
				c2.9-0.5,6-0.9,9.3-1.2c3.5-0.3,7.3,0,11.1,0.8c3.9,0.9,7.8,2.5,11.7,4.8c3.9,2.4,7.9,5.8,11.7,10.3l0.1,0.1
				c3.9,4.9,6.6,9.7,8.1,14.4c1.5,4.8,2.1,9.4,1.8,13.7c-0.3,4.4-1.5,8.5-3.4,12.1c-1.9,3.6-4.3,6.7-7.1,9.1
				c-3.1,2.8-6.9,5.5-11.2,7.9c-1.9,1.1-3.9,2.1-6.1,3.1c2.5,1.1,4.8,2.6,7,4.5c4.2,3.6,7.4,7.3,9.6,11.2c2.1,3.9,3.4,8,3.7,11.9
				c0.3,4-0.3,8-1.7,11.8c-1.4,3.8-3.4,7.3-6,10.5c-6,7-12.8,11.8-20.3,14.4C404.8,234.9,396.7,236.1,387.7,236.1z M342.2,208.8
				c0.1,0.2,0.4,0.7,1,1.5c0.9,1.1,2.4,2.5,4.5,4c7,5.7,13.9,9.6,20.6,11.7c6.8,2.1,13.3,3.1,19.4,3.1c8.1,0,15.6-1.1,22.1-3.4
				c6.3-2.2,12.1-6.3,17.2-12.3c2.1-2.5,3.7-5.3,4.8-8.4c1.1-2.9,1.5-5.9,1.3-8.9c-0.2-3-1.2-6.1-2.8-9.1c-1.7-3.1-4.4-6.2-7.9-9.2
				c-1.8-1.5-3.7-2.7-5.7-3.6c-2.2-0.9-4.6-1.8-7.2-2.6l-9.4-2.9l9.1-3.7c4.9-2,9.4-4.1,13.3-6.3c3.8-2.1,7.2-4.5,10-7
				c2.2-1.9,4-4.3,5.5-7.1c1.5-2.8,2.4-6,2.6-9.4c0.3-3.4-0.2-7.2-1.5-11c-1.3-3.9-3.6-8-6.9-12.2c-3.3-3.9-6.7-6.9-9.9-8.8
				c-3.3-2-6.5-3.3-9.6-4c-3.1-0.7-6.2-0.9-9-0.7c-3,0.2-5.9,0.6-8.6,1.1c-3.4,0.8-6.8,1.9-10.1,3.5c-3.4,1.6-6.6,3.4-9.5,5.3
				c-2.9,2-5.7,4.1-8.1,6.3c-2.4,2.2-4.4,4.4-5.9,6.4c-1.1,1.5-1.8,2.7,1,5.3c1.6,1.2,3.5,2.3,5.8,3.1c2.4,0.9,4.9,1.5,7.5,1.8
				c2.6,0.3,5.1,0.2,7.6-0.2c2.2-0.4,4.1-1.1,5.8-2.4l0.3-0.2c1.6-1,3.2-1.9,4.8-2.8c1.7-0.9,3.4-1.8,5.1-2.6c1.8-0.8,3.5-1.5,5.1-2
				c1.8-0.6,3.5-0.9,5.1-0.9c3.8,0,5.7,1.7,6.7,3.2c1.2,1.6,2.7,4.9,0.1,9.7c-1.6,2.9-4.6,5.9-9.2,9.2c-4.3,3-10.1,6.3-17.2,9.7
				c-7.1,3.4-15.9,6.8-26.2,10c-1,0.4-1.2,0.7-1.3,0.7l0,0c0,0-0.1,0.8,1.2,2.7c2.9,4.5,6.4,7.8,10.4,10c4,2.1,7.9,2.9,12.1,2.4
				c4-0.5,7.4-0.7,10-0.5c3,0.3,5.9,1.5,8.5,3.5l0.1,0.1c1.3,1.2,2.4,2.8,3.2,4.7c0.8,2,1,4.1,0.9,6.5c-0.2,2.3-0.8,4.6-1.9,7
				c-1.1,2.4-2.8,4.8-5,7.2c-2.4,2.4-4.9,4.3-7.6,5.6c-2.8,1.4-5.9,2.2-9.4,2.4c-3.3,0.2-6.9-0.2-10.8-1.2
				c-3.8-0.9-8.1-2.6-12.7-4.8c-2.7-1.2-5.8-2-9.4-2.4c-3.2-0.3-6,0.3-8.6,1.9l-0.1,0.1C342.8,208.4,342.5,208.6,342.2,208.8z"/>
		</g>
	</g>
</g>
</svg>
