<?xml version="1.0" encoding="utf-8"?>
<!-- Generator: Adobe Illustrator 23.0.0, SVG Export Plug-In . SVG Version: 6.00 Build 0)  -->
<svg version="1.1" xmlns="http://www.w3.org/2000/svg" xmlns:xlink="http://www.w3.org/1999/xlink" x="0px" y="0px"
	 viewBox="0 0 532.2 360.4" style="enable-background:new 0 0 532.2 360.4;" xml:space="preserve">
<style type="text/css">
	.st0{fill-rule:evenodd;clip-rule:evenodd;fill:#231F20;}
	.st1{fill-rule:evenodd;clip-rule:evenodd;fill:#FEC919;}
	.st2{fill-rule:evenodd;clip-rule:evenodd;fill:#FFFFFF;}
	.st3{fill:#7F6350;}
	.st4{fill:#F90F1B;}
</style>
<g id="Layer_4">
	<g>
		<path class="st0" d="M63.2,82.2c20.7,13.9,38.1,17.6,43.2,7.6c20.5-3.7,28.8-21,31-49c26.8,14.4,47.6,18.1,46.2-3
			c30.8,12.1,39.5-0.7,37.4-27c6.1,25.7,16.3,34.6,18.7,6.8c30.3,29.3,52.8,22,79.5-17.6c9.6,39,23.5,45.7,48.3,7.6
			c0.5,42.3,11.9,39.8,33.5,2.9c-21.7,36.9-11.3,45.9,31.3,14.2C415,71.2,429.6,77,470.3,42.9c-40.7,34.1-41.6,40.7,10.9,13
			c-47.2,44.7-40.9,55.1,33.4,38.6c-70.9,40.8-73.8,54.6,12.3,54.6c-82.6,21.1-76.2,28.5,5.2,32.7c-89.8,3.6-91,17.1-14.4,47
			c-79.6-5.6-81.4,5.4-18.8,30.7c-62.6-25.3-76.4-14.1-33.6,32.8c-70.4-24.5-84.1-13.4-41.1,27.6c-32.2-34.8-46.8-35.6-42.7,11.6
			c-30.4-35.5-42.1-23-44.9,19.2c-33.6-33.3-58.3-36.9-85.5-4.3c-5.6-23.7-13.6-11.1-13.3,14.1c-0.3-25.2-10-35.5-36.5-20.4
			c-5-15.5-26.6-5.7-52.6,13.8c-17.5-38-52.2-37.5-71.9-17.7c19.7-19.9,17.6-34.3-21-21.3c17.2-21,25.2-35.1,21.8-40.3
			c-2.7-5.5-16.9-2.1-44.1,12c27.3-14.1,40.4-24.9,36.7-31.2c-1.6-7-20.1-9.6-55.8-7.2c33.6-17.3,49.8-29.7,46.2-36.9
			c1-7.8-17.8-10.3-54.4-7.9c73.2-4.8,40.3-24.5-6.2-34.7c44.8-1.8,36.2-23,8.8-34c35,6.9,50.9-1.4,24.8-27.1
			c28.2,5,46,5.5,49.5,0.8C90.6,105,83.9,96.1,63.2,82.2z"/>
		<path class="st1" d="M77.8,91.7c18.9,12.7,34.7,16,39.4,6.9c18.7-3.4,26.2-19.1,28.3-44.6c24.4,13.1,43.3,16.5,42.1-2.8
			c28.1,11,36-0.6,34-24.6c5.6,23.4,14.8,31.5,17.1,6.2c27.6,26.7,48.1,20.1,72.5-16c8.8,35.6,21.4,41.6,44,6.9
			c0.4,38.5,10.8,36.3,30.5,2.7c-19.7,33.6-10.3,41.8,28.5,13c-15.9,42.3-2.6,47.6,34.5,16.5c-37.1,31-37.9,37.1,10,11.9
			c-43,40.8-37.3,50.2,30.4,35.1c-64.6,37.2-67.2,49.7,11.2,49.8c-75.2,19.3-69.4,26,4.8,29.7c-81.8,3.3-82.9,15.5-13.1,42.8
			c-72.5-5.1-74.1,4.9-17.1,27.9c-57-23-69.6-12.9-30.6,29.9c-64.1-22.3-76.6-12.2-37.4,25.1c-29.3-31.7-42.6-32.4-38.9,10.6
			c-27.7-32.4-38.4-20.9-40.9,17.5c-30.6-30.3-53.1-33.7-77.9-3.9c-5.1-21.6-12.4-10.1-12.1,12.9c-0.2-23-9.1-32.3-33.2-18.5
			c-4.5-14.1-24.2-5.2-47.9,12.6c-15.9-34.6-47.5-34.2-65.5-16.1c17.9-18.1,16-31.3-19.1-19.4c15.6-19.1,23-32,19.8-36.7
			c-2.4-5-15.3-1.9-40.2,10.9c24.8-12.8,36.8-22.6,33.4-28.4c-1.5-6.4-18.3-8.7-50.8-6.6c30.6-15.8,45.4-27.1,42.1-33.6
			c0.9-7.1-16.2-9.4-49.6-7.2c66.7-4.4,36.7-22.3-5.6-31.6c40.8-1.6,33-20.9,8-31c31.9,6.3,46.3-1.2,22.6-24.7
			c25.7,4.5,41.9,5,45.1,0.7C102.8,112.4,96.7,104.4,77.8,91.7z"/>
		<path class="st2" d="M90.4,97.8c17.6,11.8,32.4,14.9,36.7,6.4c17.4-3.1,24.4-17.8,26.4-41.6c22.8,12.3,40.4,15.4,39.3-2.6
			c26.2,10.3,33.5-0.6,31.7-22.9c5.2,21.8,13.8,29.3,15.9,5.8c25.7,24.9,44.8,18.7,67.5-15c8.2,33.1,20,38.8,41,6.5
			c0.4,35.9,10.1,33.8,28.5,2.5c-18.4,31.3-9.6,39,26.5,12.1c-14.8,39.5-2.4,44.4,32.2,15.4c-34.6,28.9-35.3,34.6,9.3,11.1
			c-40.1,38-34.7,46.8,28.4,32.7c-60.2,34.6-62.7,46.4,10.4,46.4c-70.1,18-64.7,24.2,4.5,27.7c-76.3,3.1-77.3,14.5-12.2,39.9
			c-67.6-4.7-69.1,4.6-15.9,26c-53.2-21.5-64.9-12-28.6,27.8c-59.7-20.8-71.5-11.3-34.9,23.4c-27.3-29.5-39.7-30.2-36.3,9.9
			c-25.8-30.2-35.8-19.5-38.2,16.3c-28.6-28.3-49.5-31.4-72.6-3.7c-4.7-20.1-11.5-9.4-11.3,12c-0.2-21.4-8.5-30.1-31-17.3
			c-4.2-13.2-22.6-4.8-44.6,11.7c-14.9-32.3-44.3-31.9-61-15c16.7-16.9,14.9-29.1-17.8-18.1c14.6-17.8,21.4-29.8,18.5-34.2
			c-2.3-4.7-14.3-1.8-37.5,10.2c23.2-11.9,34.3-21.1,31.1-26.5c-1.4-5.9-17-8.1-47.4-6.1c28.5-14.7,42.3-25.2,39.2-31.3
			c0.9-6.6-15.1-8.8-46.2-6.7c62.2-4.1,34.2-20.8-5.2-29.4c38-1.5,30.7-19.5,7.4-28.9c29.7,5.8,43.2-1.2,21-23
			c24,4.2,39.1,4.7,42,0.7C113.7,117.2,108,109.7,90.4,97.8z"/>
	</g>
</g>
<g id="Layer_5">
	<g>
		<g>
			<g>
				<g>
					<path d="M414.1,140.2c0,0-0.4-0.1-1-0.3c-0.4-0.1-0.6-0.2-1-0.3c-0.4-0.1-0.9-0.2-1.4-0.3c-0.5-0.1-1.1-0.2-1.8-0.3
						c-0.6-0.1-1.3-0.2-2-0.2c-1.4-0.1-2.9-0.2-4.4-0.2c-1.5,0-3,0-4.5,0.1c-0.7,0-1.4,0.1-2.1,0.2c-0.7,0.1-1.3,0.2-1.8,0.2
						c-0.6,0.1-1.1,0.2-1.5,0.3c-0.5,0.1-0.9,0.2-1.2,0.3c-0.6,0.2-1,0.3-1,0.3s0.3-0.2,0.9-0.6c0.3-0.2,0.7-0.3,1.1-0.6
						c0.4-0.2,0.9-0.4,1.5-0.7c0.5-0.2,1.1-0.5,1.8-0.7c0.6-0.2,1.3-0.5,2-0.7c1.4-0.4,2.9-0.9,4.5-1.2c1.5-0.4,3.1-0.7,4.6-0.9
						c0.7-0.1,1.5-0.2,2.2-0.3c0.7-0.1,1.4-0.2,2-0.2c0.6,0,1.2-0.1,1.7-0.1c0.5,0,1.1,0,1.4,0c0.7,0,1.1,0,1.1,0L414.1,140.2z"/>
				</g>
			</g>
		</g>
	</g>
	<g>
		<g>
			<g>
				<g>
					<path d="M81.1,247.2c0,0,0.4,0,1.1-0.1c0.4,0,0.7-0.1,1.1-0.1c0.4,0,1-0.1,1.5-0.2c1.1-0.2,2.5-0.5,3.9-0.8
						c1.4-0.4,3-0.8,4.5-1.3c3.1-1,6.1-2.2,8.3-3.2c0.5-0.3,1-0.5,1.5-0.8c0.4-0.3,0.8-0.5,1.1-0.7c0.6-0.4,0.9-0.6,0.9-0.6
						s-0.3,0.3-0.8,0.8c-0.3,0.3-0.6,0.6-0.9,0.9c-0.4,0.3-0.8,0.7-1.3,1.1c-1.9,1.6-4.7,3.5-7.5,5.2c-1.4,0.9-2.9,1.7-4.3,2.4
						c-1.4,0.7-2.8,1.3-4,1.8c-0.6,0.2-1.1,0.5-1.7,0.6c-0.5,0.2-1.1,0.4-1.4,0.5c-0.7,0.2-1.1,0.3-1.1,0.3L81.1,247.2z"/>
				</g>
			</g>
		</g>
	</g>
	<g>
		<g>
			<g>
				<path class="st3" d="M89.4,257.8c-0.1,3.7-0.3,7.3-0.4,10.9c-0.1,1.1-0.5,1.8-0.9,2.2c-0.5,0.4-1.5,0.6-2.9,0.5
					c-1.7-0.2-3.3-0.3-4.6-0.3c-1.3,0-2.7-0.3-3.9-0.7c-1.3-0.5-2.2-1.2-2.8-2.1c-0.6-0.9-1-2.2-1.1-3.9c-0.1-1.4-0.2-3.3-0.4-5.9
					c-0.2-2.6-0.4-5.5-0.6-8.8c-0.2-3.3-0.4-6.8-0.6-10.6c-0.2-3.8-0.4-7.5-0.5-11.3c-0.1-3.8-0.2-7.4-0.2-11c0-3.6,0.1-6.8,0.3-9.7
					c0.2-2.9,0.5-5.3,0.9-7.2c0.5-1.9,1-3.2,1.8-3.8c3.6-2.4,7.3-4.9,11.2-7.3c3.9-2.4,7.8-4.4,11.8-5.8c3.9-1.4,7.8-2.1,11.5-2.2
					c3.7,0,7.2,1.1,10.3,3.4c2.6,2.1,4.9,4.3,7.2,6.8c2.2,2.5,4.1,5.6,5.8,9.5c1.5,4.1,1.7,7.7,0.8,10.7c-1.5,4.8-4.4,9.4-8.8,14
					c-4.4,4.5-9.8,9-16.2,13.4c1.7,1.4,3.5,2.9,5.5,4.5c2,1.6,4,3.1,6.1,4.7c2.1,1.5,4.2,3,6.2,4.4c2,1.4,3.9,2.6,5.7,3.6
					c1.4,0.9,2.1,1.6,2.1,2.3c0,0.7-0.4,1.4-1.3,2.3c-1,1.1-1.8,1.8-2.6,2.1c-0.7,0.3-1.7,0.6-2.8,1c-1.3,0.6-2.8,1-4.5,1.1
					c-1.7,0.1-3.7-0.3-6.1-1.3c-1.6-0.8-3.4-1.8-5.5-3c-2.1-1.2-4.3-2.6-6.6-4.1c-2.3-1.5-4.6-3.1-6.9-4.8c-2.3-1.7-4.4-3.4-6.4-5.2
					C89.7,250.2,89.5,254.1,89.4,257.8z M92.4,216.6c-0.3,3.9-0.8,8-1.3,12.4c4-2.2,7.5-4.6,10.5-7.3c3-2.7,5.4-5.3,7.3-7.9
					c1.9-2.6,3.2-4.9,3.8-7.1c0.7-2.1,0.7-3.7,0.2-4.7c-1-1.7-3.4-2.2-7-1.6c-1.8,0.3-3.7,0.9-5.8,1.7c-2.1,0.8-4.3,2-6.5,3.7
					C93.2,209.1,92.8,212.7,92.4,216.6z"/>
			</g>
		</g>
		<g>
			<g>
				<path class="st3" d="M85.8,271.8c-0.2,0-0.4,0-0.7,0c-1.7-0.2-3.3-0.3-4.6-0.3c-1.4,0-2.7-0.3-4.1-0.7c-1.4-0.5-2.4-1.3-3-2.3
					c-0.6-1-1-2.3-1.2-4.1c-0.1-1.4-0.2-3.3-0.4-5.9c-0.2-2.6-0.4-5.5-0.6-8.8c-0.2-3.3-0.4-6.9-0.6-10.6c-0.2-3.8-0.4-7.6-0.5-11.3
					c-0.1-3.8-0.2-7.5-0.2-11c0-3.6,0.1-6.8,0.3-9.7c0.2-2.9,0.5-5.3,0.9-7.3c0.5-2.1,1.1-3.4,1.9-4c3.6-2.4,7.3-4.9,11.2-7.3
					c3.9-2.4,7.9-4.4,11.8-5.8c4-1.4,7.9-2.2,11.6-2.2c3.8,0,7.4,1.2,10.6,3.5c2.6,2.1,5,4.4,7.2,6.8c2.2,2.5,4.2,5.7,5.8,9.6
					c1.5,4.2,1.8,7.9,0.8,11c-1.5,4.8-4.5,9.6-8.9,14.1c-4.3,4.4-9.6,8.9-15.9,13.1c1.6,1.3,3.3,2.7,5.1,4.1c2,1.5,4,3.1,6.1,4.6
					c2.1,1.5,4.1,3,6.2,4.4c2,1.4,3.9,2.6,5.7,3.6c1.6,1,2.3,1.8,2.3,2.7c0,0.8-0.5,1.6-1.4,2.5c-1,1.1-1.9,1.8-2.7,2.2
					c-0.8,0.3-1.7,0.6-2.8,1c-1.3,0.6-2.8,1-4.6,1.1c-1.7,0.1-3.8-0.3-6.3-1.3c-1.6-0.8-3.5-1.8-5.6-3c-2.1-1.2-4.3-2.6-6.6-4.1
					c-2.3-1.5-4.6-3.1-6.9-4.8c-2.1-1.5-4-3.1-5.8-4.6c-0.2,3.7-0.4,7.3-0.5,10.8c-0.1,3.7-0.3,7.3-0.4,10.9c-0.2,1.2-0.5,2-1.1,2.5
					C87.8,271.6,87,271.8,85.8,271.8z M107.8,181.2c-3.7,0-7.5,0.7-11.4,2.1c-3.9,1.4-7.8,3.3-11.7,5.8c-3.9,2.4-7.6,4.9-11.2,7.3
					c-0.6,0.5-1.2,1.7-1.6,3.6c-0.4,1.9-0.8,4.3-0.9,7.2c-0.2,2.9-0.3,6.1-0.3,9.6c0,3.5,0.1,7.2,0.2,11c0.1,3.7,0.3,7.5,0.5,11.3
					c0.2,3.7,0.4,7.2,0.6,10.6c0.2,3.3,0.4,6.2,0.6,8.8c0.2,2.6,0.3,4.6,0.4,5.9c0.1,1.6,0.5,2.8,1,3.7c0.5,0.8,1.4,1.5,2.6,2
					c1.2,0.4,2.5,0.6,3.8,0.7c1.3,0,2.9,0.1,4.7,0.3c0.2,0,0.4,0,0.6,0c1.3,0,1.8-0.2,2-0.4c0.4-0.3,0.7-1,0.8-2
					c0.1-3.5,0.3-7.1,0.4-10.8c0.1-3.7,0.3-7.6,0.6-11.6l0-0.8l0.6,0.6c1.9,1.7,4,3.5,6.3,5.1c2.3,1.7,4.6,3.3,6.9,4.8
					c2.3,1.5,4.5,2.9,6.6,4.1c2.1,1.2,4,2.2,5.5,3c2.3,0.9,4.3,1.4,5.9,1.2c1.6-0.1,3.1-0.5,4.3-1.1c1.1-0.4,2-0.7,2.8-1
					c0.7-0.3,1.5-0.9,2.4-2c0.8-0.8,1.1-1.5,1.2-2c0-0.3-0.2-0.9-1.9-1.9c-1.7-1-3.7-2.2-5.7-3.7c-2.1-1.4-4.2-2.9-6.2-4.5
					c-2.1-1.5-4.2-3.1-6.2-4.7c-2-1.5-3.9-3-5.6-4.5l-0.4-0.3l0.4-0.3c6.4-4.3,11.8-8.8,16.2-13.3c4.3-4.5,7.3-9.1,8.7-13.8
					c1-2.9,0.7-6.4-0.8-10.4c-1.6-3.8-3.5-6.9-5.7-9.4c-2.2-2.4-4.6-4.7-7.1-6.7C114.8,182.3,111.4,181.2,107.8,181.2z M90.7,229.7
					l0.1-0.8c0.5-4.4,0.9-8.6,1.3-12.4c0.3-3.9,0.7-7.5,1.2-10.9l0-0.2l0.1-0.1c2.2-1.6,4.5-2.9,6.6-3.7c2.1-0.8,4.1-1.4,5.9-1.7
					c3.8-0.7,6.3-0.1,7.4,1.7c0.6,1.2,0.6,2.8-0.1,5.1c-0.7,2.2-2,4.6-3.9,7.2c-1.9,2.6-4.4,5.3-7.3,8c-3,2.7-6.5,5.2-10.6,7.4
					L90.7,229.7z M94,205.9c-0.5,3.3-0.9,7-1.2,10.7c-0.3,3.6-0.7,7.5-1.2,11.6c3.7-2.1,7-4.4,9.8-6.9c2.9-2.7,5.4-5.3,7.2-7.9
					c1.8-2.5,3.1-4.9,3.8-7c0.6-2,0.7-3.5,0.2-4.4c-0.9-1.5-3.2-1.9-6.6-1.3c-1.8,0.3-3.7,0.9-5.8,1.7
					C98.3,203.1,96.2,204.3,94,205.9z"/>
			</g>
		</g>
	</g>
	<g>
		<g>
			<g>
				<path class="st3" d="M185.8,181.7c1.4,2,2.6,4.4,3.6,7.1c1.4,4.5,2.4,9.6,2.9,15.1c0.5,5.5,0.5,11.1-0.1,16.7
					c-0.6,5.6-1.8,11.1-3.5,16.3c-1.7,5.2-4.2,9.8-7.3,13.7c-2.2,2.4-4.6,4.2-7.2,5.3c-2.6,1.1-5.7,1.8-9.3,2
					c-2.4,0.1-4.9,0.2-7.4,0c-2.6-0.1-5-0.5-7.2-1.3c-1.8-0.6-3.6-1.5-5.5-2.6c-1.8-1.1-3.4-2.5-4.6-4.1c-2-2.7-3.6-5.8-4.9-9.4
					c-1.3-3.6-2.3-7.4-2.9-11.5c-0.6-4.1-0.8-8.3-0.6-12.7c0.2-4.4,0.8-8.7,1.8-13c1-4.3,2.5-8.5,4.3-12.5c1.9-4,4.2-7.7,6.9-11.2
					c1.9-2.1,4.3-3.8,7.1-5.2c2.9-1.4,5.7-2.1,8.5-2.1c3.6,0,7.1,0.3,10.5,1c3.4,0.7,6.3,1.7,8.7,3
					C182.3,177.8,184.4,179.6,185.8,181.7z M162.1,190.8c-1.4,1.8-2.6,4.2-3.8,7.2c-1.2,3-2.2,6.2-3.1,9.7
					c-0.9,3.5-1.5,6.9-1.9,10.1c-0.4,3.1-0.5,6.4-0.4,9.6c0.1,3.3,0.5,6.3,1.1,9.1c0.6,2.8,1.4,5.1,2.4,6.9c1.1,1.9,2.3,2.9,3.8,3.1
					c1.4,0.2,2.7-0.3,4-1.6c1.3-1.3,2.4-3.1,3.5-5.4c1.1-2.3,2-5.2,2.8-8.5c0.8-3.3,1.3-6.9,1.7-10.7c0.3-3.1,0.4-6.5,0.4-10.2
					c-0.1-3.7-0.4-7.1-0.9-10.2c-0.5-3.2-1.2-5.9-2.2-8c-1-2.2-2.1-3.3-3.4-3.5C164.9,188.2,163.5,189,162.1,190.8z"/>
			</g>
		</g>
		<g>
			<g>
				<path class="st3" d="M160.9,258.4c-1.1,0-2.3,0-3.4-0.1c-2.6-0.1-5-0.6-7.3-1.3c-1.8-0.6-3.7-1.5-5.6-2.6
					c-1.9-1.1-3.4-2.6-4.7-4.2c-2-2.7-3.7-5.9-5-9.5c-1.3-3.6-2.3-7.5-2.9-11.6c-0.6-4.1-0.8-8.4-0.6-12.8c0.2-4.4,0.8-8.8,1.8-13.1
					c1-4.3,2.5-8.5,4.4-12.6c1.9-4,4.2-7.8,7-11.2c1.9-2.1,4.4-3.9,7.3-5.3c2.9-1.4,5.8-2.2,8.7-2.2l0.4,0c3.5,0,6.9,0.3,10.2,1
					c3.4,0.7,6.4,1.7,8.8,3.1c2.7,1.6,4.8,3.4,6.3,5.5c1.5,2,2.7,4.5,3.6,7.2c1.4,4.6,2.4,9.7,2.9,15.2c0.5,5.5,0.5,11.2-0.1,16.8
					c-0.6,5.6-1.8,11.1-3.5,16.4c-1.7,5.2-4.2,9.9-7.4,13.8c-2.2,2.4-4.7,4.3-7.3,5.4c-2.6,1.1-5.8,1.8-9.5,2.1
					C163.6,258.4,162.2,258.4,160.9,258.4z M160.9,172.7l-0.4,0c-2.7,0-5.5,0.7-8.3,2.1c-2.8,1.4-5.2,3.1-7,5.2
					c-2.7,3.4-5,7.1-6.9,11.1c-1.8,4-3.3,8.1-4.3,12.4c-1,4.2-1.6,8.6-1.8,13c-0.2,4.3,0,8.6,0.6,12.6c0.6,4.1,1.6,7.9,2.9,11.4
					c1.3,3.5,3,6.6,4.9,9.3c1.2,1.6,2.7,2.9,4.5,4c1.8,1.1,3.6,2,5.4,2.6c2.2,0.7,4.6,1.1,7.1,1.3c2.5,0.1,5,0.1,7.4,0
					c3.5-0.2,6.6-0.9,9.2-2c2.6-1.1,4.9-2.9,7-5.2c3.1-3.9,5.5-8.4,7.2-13.6c1.7-5.2,2.9-10.6,3.5-16.2c0.6-5.6,0.6-11.2,0.1-16.6
					c-0.5-5.5-1.5-10.5-2.9-15c-0.9-2.7-2.1-5-3.5-7c-1.4-2-3.4-3.7-6-5.3c-2.3-1.3-5.2-2.3-8.5-3
					C167.7,173,164.3,172.7,160.9,172.7z M161,246.9L161,246.9c-0.2,0-0.5,0-0.7-0.1c-1.6-0.2-3-1.3-4.1-3.3c-1.1-1.9-1.9-4.2-2.5-7
					c-0.6-2.8-0.9-5.8-1.1-9.1c-0.1-3.3,0-6.6,0.4-9.7c0.4-3.2,1-6.6,1.9-10.1c0.9-3.5,1.9-6.8,3.1-9.8c1.2-3,2.5-5.4,3.9-7.3
					c1.4-2,3-2.8,4.5-2.6c1.4,0.2,2.7,1.4,3.7,3.7c1,2.2,1.7,4.9,2.2,8.1c0.5,3.1,0.8,6.6,0.9,10.3c0.1,3.7,0,7.1-0.4,10.3
					c-0.3,3.8-0.9,7.4-1.7,10.7c-0.8,3.3-1.7,6.2-2.8,8.6c-1.1,2.4-2.3,4.2-3.6,5.5C163.5,246.3,162.3,246.9,161,246.9z
					 M165.8,188.7c-1.1,0-2.2,0.8-3.3,2.3c-1.3,1.8-2.6,4.2-3.8,7.1c-1.2,2.9-2.2,6.2-3.1,9.7c-0.9,3.5-1.5,6.9-1.9,10
					c-0.4,3.1-0.5,6.3-0.4,9.6c0.1,3.3,0.5,6.3,1.1,9c0.6,2.7,1.4,5,2.4,6.8c1,1.7,2.2,2.7,3.5,2.9c0.2,0,0.4,0,0.6,0
					c1,0,2.1-0.5,3.1-1.5c1.2-1.2,2.4-3,3.4-5.3c1.1-2.3,2-5.1,2.8-8.4c0.8-3.3,1.3-6.9,1.7-10.6c0.3-3.1,0.4-6.5,0.4-10.2
					c-0.1-3.7-0.4-7.1-0.9-10.2c-0.5-3.1-1.2-5.8-2.2-7.9c-0.9-2-1.9-3.1-3.1-3.3C166,188.8,165.9,188.7,165.8,188.7z"/>
			</g>
		</g>
	</g>
	<g>
		<g>
			<g>
				<path class="st3" d="M197.1,232.7c-1.1-3-1.9-6.3-2.5-10c-0.6-3.7-1-7.7-1.1-11.9c-0.2-4.2-0.2-8.5-0.1-13
					c0.1-4.4,0.3-8.9,0.7-13.3c0.3-4.5,0.7-8.9,1.2-13.1c0.2-1.9,0.7-3.2,1.6-3.7c0.9-0.5,2.4-0.6,4.5-0.3c2,0.3,3.9,0.7,5.7,1.3
					c1.8,0.6,3.7,1.4,5.5,2.3c3.7,1.9,5.4,4.9,5,9c-0.5,3.5-0.9,7.2-1.4,11.3c-0.5,4-0.8,8.1-1.1,12.2c-0.3,4.1-0.5,8.1-0.5,12
					c0,3.9,0.1,7.3,0.4,10.3c0.3,3,0.9,5.5,1.7,7.4c0.8,1.9,1.9,2.9,3.3,3.1c1.7,0.2,3.3-0.9,4.5-3.3c1.3-2.4,2.3-5.6,3.2-9.5
					c0.9-4,1.6-8.5,2.1-13.7c0.5-5.1,1-10.4,1.3-15.8c0.3-5.4,0.5-10.7,0.6-15.9c0.1-5.2,0.2-9.8,0.3-13.9c-0.2-1.9,0.3-3.2,1.5-3.8
					c1.2-0.6,2.7-0.8,4.5-0.6c1.8,0.2,3.9,0.6,6,1.3c2.2,0.7,4.2,1.4,6,2.2c1,0.4,1.7,0.8,2.3,1.2c0.5,0.4,0.9,0.8,1.2,1.3
					c0.3,0.5,0.4,1,0.5,1.6c0,0.6,0,1.4,0,2.2c-0.4,9.4-0.9,18.1-1.6,26.1c-0.7,7.9-1.6,15-2.7,21.2c-1.2,6.2-2.7,11.5-4.5,15.9
					c-1.8,4.4-4.1,7.7-6.9,10c-2,1.5-4,2.6-6.1,3.4c-2.1,0.8-4.6,1.3-7.4,1.6c-5.6,0.6-10.4,0.1-14.3-1.3c-1.7-0.6-3.3-1.4-4.9-2.4
					c-1.6-1-3-2.3-4.3-3.9C199.6,238.2,198.2,235.7,197.1,232.7z"/>
			</g>
		</g>
		<g>
			<g>
				<path class="st3" d="M220.1,248.4c-3.7,0-7-0.5-9.9-1.6c-1.7-0.6-3.4-1.5-5-2.4c-1.6-1-3.1-2.3-4.4-4c-1.7-2-3.1-4.6-4.2-7.6
					c-1.1-3-1.9-6.4-2.5-10.1c-0.6-3.7-1-7.7-1.2-11.9c-0.2-4.2-0.2-8.6-0.1-13c0.1-4.4,0.3-8.9,0.7-13.3c0.3-4.4,0.7-8.9,1.2-13.1
					c0.2-2.1,0.8-3.4,1.8-4c1-0.6,2.6-0.7,4.8-0.3c1.9,0.3,3.9,0.7,5.8,1.3c1.9,0.6,3.7,1.4,5.5,2.3c3.9,2,5.6,5.1,5.2,9.4
					c-0.5,3.5-0.9,7.3-1.4,11.3c-0.5,4-0.8,8.1-1.1,12.2c-0.3,4.1-0.5,8.1-0.5,12c0,3.8,0.1,7.3,0.4,10.3c0.3,3,0.9,5.4,1.6,7.3
					c0.7,1.8,1.7,2.7,3,2.8c0.1,0,0.2,0,0.3,0c1.4,0,2.7-1.1,3.8-3.1c1.2-2.3,2.3-5.5,3.2-9.4c0.9-4,1.6-8.5,2.1-13.6
					c0.5-5.1,1-10.4,1.3-15.8c0.3-5.4,0.5-10.7,0.6-15.9c0.1-5.2,0.2-9.8,0.3-13.9c-0.2-2.1,0.4-3.5,1.7-4.1
					c1.2-0.6,2.8-0.8,4.7-0.7c1.9,0.2,3.9,0.6,6.1,1.3c2.2,0.7,4.2,1.4,6.1,2.2c1,0.4,1.8,0.9,2.3,1.3c0.6,0.4,1,0.9,1.3,1.4
					c0.3,0.5,0.5,1.1,0.5,1.8c0,0.6,0,1.4,0,2.3c-0.4,9.4-0.9,18.2-1.6,26.1c-0.7,7.9-1.6,15.1-2.7,21.3c-1.2,6.2-2.7,11.6-4.5,16
					c-1.9,4.4-4.2,7.8-7,10.2c-2,1.5-4.1,2.6-6.3,3.4c-2.1,0.8-4.6,1.3-7.5,1.6C223.1,248.4,221.6,248.4,220.1,248.4z M199.1,167.6
					c-0.9,0-1.6,0.1-2.1,0.4c-0.8,0.5-1.3,1.6-1.5,3.4c-0.5,4.3-0.9,8.7-1.2,13.1c-0.3,4.4-0.6,8.9-0.7,13.3
					c-0.1,4.4-0.1,8.7,0.1,12.9c0.2,4.2,0.6,8.2,1.1,11.8c0.6,3.7,1.4,7,2.5,10c1.1,2.9,2.4,5.4,4.1,7.4c1.2,1.6,2.6,2.9,4.2,3.8
					c1.5,1,3.1,1.8,4.8,2.4c3.8,1.4,8.6,1.8,14.2,1.3c2.8-0.3,5.2-0.8,7.3-1.6c2.1-0.8,4.1-1.9,6.1-3.3c2.7-2.2,4.9-5.6,6.8-9.9
					c1.8-4.3,3.3-9.7,4.5-15.8c1.2-6.2,2.1-13.3,2.7-21.2c0.7-7.9,1.2-16.7,1.6-26c0.1-0.8,0.1-1.6,0-2.2c0-0.6-0.2-1-0.4-1.5
					c-0.2-0.4-0.6-0.8-1.1-1.2c-0.5-0.4-1.2-0.8-2.2-1.2c-1.8-0.7-3.8-1.4-6-2.2c-2.1-0.7-4.1-1.1-6-1.3c-1.8-0.2-3.2,0-4.3,0.6
					c-1,0.5-1.4,1.6-1.3,3.4c-0.1,4.1-0.2,8.8-0.3,14c-0.1,5.2-0.3,10.5-0.6,15.9c-0.3,5.4-0.7,10.7-1.3,15.8
					c-0.5,5.1-1.2,9.7-2.1,13.7c-0.9,4-1.9,7.2-3.2,9.6c-1.3,2.5-3,3.7-4.9,3.5c-1.6-0.2-2.8-1.3-3.6-3.3c-0.8-1.9-1.4-4.4-1.7-7.5
					c-0.3-3-0.5-6.5-0.4-10.4c0-3.9,0.2-7.9,0.5-12c0.3-4.1,0.7-8.2,1.1-12.2c0.5-4,0.9-7.8,1.4-11.3c0.4-3.9-1.1-6.7-4.8-8.6
					c-1.8-0.9-3.6-1.7-5.4-2.3c-1.8-0.6-3.7-1-5.6-1.3C200.5,167.6,199.7,167.6,199.1,167.6z"/>
			</g>
		</g>
	</g>
	<g>
		<g>
			<g>
				<path class="st3" d="M295.4,176.7c0.5-8.4,1.1-16.2,1.8-23.3c0.2-1.9,0.8-3.2,1.7-3.8c1-0.6,2.5-0.8,4.5-0.7
					c1,0.1,1.8,0.2,2.6,0.2c0.8,0.1,1.5,0.2,2.3,0.4c0.8,0.2,1.6,0.5,2.5,0.8c0.9,0.3,1.9,0.7,3.1,1.2c2,0.8,3.2,1.8,3.6,3
					c0.4,1.1,0.5,2.6,0.3,4.3c-0.7,5-1.3,10.6-1.9,16.8c-0.6,6.3-1.1,12.6-1.7,19.1c-0.5,6.4-1,12.7-1.5,18.9
					c-0.4,6.1-0.8,11.5-1.1,16.2c0,2.5-1.7,3.6-5.2,3.4c-2.9-0.1-6-0.4-9.1-1c-2.9-0.6-5.1-2.2-6.7-4.8c-1.2-1.8-2.4-4-3.8-6.4
					c-1.3-2.5-2.7-5.1-4.1-8c-1.4-2.9-2.9-5.9-4.3-9c-1.5-3.1-2.9-6.3-4.2-9.5c0,4.1-0.1,8.1-0.2,12.2c-0.1,4.1-0.2,8-0.2,11.7
					c-0.1,3.7-0.1,7.2-0.2,10.3c0,3.2,0,5.9,0,8.3c-0.1,1.1-0.4,1.9-0.9,2.3c-0.5,0.4-1.6,0.5-3.3,0.3c-1.5-0.1-3.1-0.3-4.7-0.4
					c-1.6-0.2-3.2-0.6-4.7-1.2c-1.5-0.5-2.5-1.1-3.1-2c-0.6-0.8-1-2.1-1.1-3.8c-0.2-1.7-0.3-4.2-0.6-7.5c-0.2-3.2-0.4-6.9-0.6-11
					c-0.2-4.1-0.4-8.6-0.5-13.3c-0.2-4.7-0.3-9.4-0.3-14.1c-0.1-4.7-0.1-9.3,0-13.7c0-4.4,0.1-8.3,0.3-11.7c0.1-2,0.7-3.3,1.7-4
					c1-0.7,2.6-0.9,4.6-0.7c2.4,0.3,4.7,0.6,7,1c2.3,0.3,4.7,0.9,7.2,1.6c2.1,0.5,3.6,1.3,4.6,2.4c1,1.1,1.9,2.8,2.7,5.2
					c0.6,1.8,1.4,4.1,2.3,6.9c1,2.8,2,5.8,3.2,9c1.2,3.2,2.4,6.6,3.6,10c1.3,3.4,2.5,6.7,3.7,9.8
					C294.6,193.6,294.8,185.1,295.4,176.7z"/>
			</g>
		</g>
		<g>
			<g>
				<path class="st3" d="M271,240.1c-0.4,0-0.9,0-1.4-0.1c-1.5-0.1-3.1-0.3-4.7-0.4c-1.6-0.2-3.2-0.6-4.8-1.2
					c-1.5-0.5-2.6-1.2-3.3-2.1c-0.7-0.9-1.1-2.2-1.2-4c-0.2-1.8-0.4-4.3-0.6-7.5c-0.2-3.3-0.4-7-0.6-11.1c-0.2-4.1-0.4-8.6-0.5-13.3
					c-0.2-4.8-0.3-9.5-0.3-14.2c-0.1-4.7-0.1-9.3,0-13.7c0-4.4,0.1-8.4,0.3-11.8c0.1-2.1,0.8-3.6,1.9-4.3c1.1-0.7,2.7-1,4.8-0.8
					c2.4,0.3,4.8,0.6,7.1,1c2.3,0.3,4.7,0.9,7.3,1.6c2.1,0.5,3.7,1.4,4.8,2.5c1,1.1,2,2.9,2.7,5.3c0.6,1.8,1.4,4.1,2.3,6.9
					c0.9,2.7,2,5.8,3.2,9c1.2,3.2,2.4,6.6,3.6,10c1,2.7,2,5.3,2.9,7.8c0-7.8,0.2-15.6,0.7-23.3c0.5-8.4,1.1-16.2,1.8-23.3
					c0.2-2,0.9-3.4,1.9-4.1c1-0.7,2.6-0.9,4.8-0.7c1,0.1,1.8,0.2,2.6,0.2c0.8,0.1,1.6,0.2,2.4,0.4c0.8,0.2,1.6,0.5,2.5,0.8
					c0.9,0.3,1.9,0.7,3.1,1.3c2.1,0.9,3.3,2,3.8,3.2c0.4,1.2,0.5,2.7,0.3,4.5c-0.7,5-1.3,10.6-1.9,16.8c-0.6,6.2-1.1,12.7-1.7,19
					c-0.5,6.3-1,12.7-1.5,18.9c-0.4,6.1-0.8,11.6-1.1,16.1c0,1.1-0.3,2-0.9,2.6c-0.9,0.9-2.5,1.3-4.6,1.2c-2.9-0.1-6-0.4-9.2-1
					c-3-0.6-5.3-2.3-7-4.9c-1.2-1.8-2.4-4-3.8-6.5c-1.3-2.5-2.7-5.2-4.1-8c-1.4-2.8-2.8-5.9-4.3-9c-1.2-2.6-2.4-5.2-3.5-7.7
					c0,3.4-0.1,6.9-0.2,10.3l-0.2,11.7c-0.1,3.7-0.1,7.2-0.2,10.3c0,3.1,0,5.9,0,8.3c-0.1,1.3-0.4,2.1-1,2.6
					C272.7,240,272,240.1,271,240.1z M259.2,156.6c-1.3,0-2.4,0.2-3.1,0.7c-0.9,0.6-1.4,1.8-1.6,3.7c-0.1,3.4-0.2,7.3-0.3,11.7
					c0,4.3,0,8.9,0,13.6c0.1,4.6,0.2,9.4,0.3,14.1c0.2,4.7,0.3,9.2,0.5,13.3c0.2,4.1,0.4,7.8,0.6,11c0.2,3.1,0.4,5.7,0.6,7.5
					c0.1,1.6,0.5,2.8,1.1,3.6c0.6,0.8,1.5,1.4,2.9,1.8c1.6,0.6,3.1,1,4.6,1.2c1.6,0.2,3.1,0.3,4.7,0.4c0.5,0.1,1,0.1,1.4,0.1
					c1,0,1.5-0.2,1.7-0.3c0.4-0.3,0.7-1,0.7-2c-0.1-2.3-0.1-5.1,0-8.3c0-3.2,0.1-6.6,0.2-10.3l0.2-11.7c0.1-4.1,0.1-8.1,0.2-12.2
					l0-1.9l0.7,1.8c1.3,3.1,2.7,6.3,4.2,9.4c1.5,3.1,2.9,6.2,4.3,9c1.4,2.8,2.8,5.5,4.1,8c1.3,2.4,2.6,4.6,3.7,6.4
					c1.5,2.5,3.7,4,6.4,4.6c3.1,0.6,6.2,0.9,9.1,1c0.3,0,0.5,0,0.7,0c1.6,0,2.7-0.3,3.3-1c0.5-0.5,0.7-1.2,0.7-2.1
					c0.3-4.6,0.6-10.1,1.1-16.2c0.4-6.2,0.9-12.5,1.5-18.9c0.5-6.4,1.1-12.8,1.7-19.1c0.6-6.2,1.2-11.9,1.9-16.8
					c0.2-1.7,0.1-3.1-0.2-4.1c-0.4-1-1.5-2-3.4-2.7c-1.2-0.5-2.2-0.9-3-1.2c-0.9-0.3-1.7-0.6-2.4-0.8c-0.7-0.2-1.5-0.3-2.2-0.4
					c-0.8-0.1-1.7-0.1-2.6-0.2c-1.9-0.2-3.4,0-4.3,0.6c-0.8,0.5-1.4,1.7-1.5,3.5c-0.7,7.1-1.3,14.9-1.8,23.3
					c-0.5,8.4-0.7,16.9-0.6,25.4l0,2.2l-0.8-2.1c-1.2-3.1-2.4-6.4-3.7-9.8c-1.3-3.4-2.5-6.8-3.6-10c-1.2-3.3-2.2-6.3-3.2-9
					c-1-2.8-1.7-5.1-2.3-6.9c-0.7-2.3-1.6-4-2.6-5.1c-0.9-1-2.4-1.8-4.4-2.3c-2.5-0.7-4.9-1.3-7.2-1.6c-2.2-0.3-4.6-0.6-7-1
					C259.9,156.6,259.5,156.6,259.2,156.6z"/>
			</g>
		</g>
	</g>
	<g>
		<g>
			<g>
				<path class="st3" d="M327,144.6c3.2-1.3,6.6-2.3,10.3-3c3.6-0.7,7.3-1,11.1-1c3.8,0.1,7.5,0.7,11.1,2c3.6,1.2,6.9,3.1,10,5.7
					c3.1,2.6,5.7,6,7.9,10.4c1.8,3.4,3,7.2,3.6,11.4c0.5,4.1,0.4,8.4-0.4,12.8c-0.8,4.4-2.3,8.8-4.5,13.2c-2.2,4.4-5,8.5-8.5,12.4
					c-3.5,3.9-7.7,7.4-12.6,10.6c-4.9,3.2-10.5,5.7-16.7,7.7c-3.2,1.2-6.5,1-10.1-0.6c-1.8-0.9-3.3-1.7-4.7-2.6
					c-1.3-0.8-2.9-1.9-4.6-3.1c-0.6-0.6-1.3-1.1-1.8-1.7c-0.6-0.5-1.1-1.2-1.5-1.9c-0.4-0.7-0.7-1.6-0.9-2.6c-0.1-1-0.1-2.4,0-4
					l4-61.7C321,147.2,323.8,145.8,327,144.6z M345.2,203.6c3.4-3.1,6.3-6.3,8.5-9.7c2.2-3.3,3.8-6.7,4.9-10
					c1.1-3.3,1.6-6.4,1.8-9.3c0.2-3.9-0.3-7-1.5-9.2c-1.2-2.2-3.2-3.8-6-4.8c-2.9-1-6.3-0.8-10.4,0.6c-2,8.5-3.8,16.9-5.3,25.2
					c-1.5,8.3-2.9,16.6-4.3,25.1C337.6,209.3,341.7,206.6,345.2,203.6z"/>
			</g>
		</g>
		<g>
			<g>
				<path class="st3" d="M334,227.9c-2,0-4-0.5-6.1-1.5c-1.8-0.9-3.4-1.7-4.7-2.6c-1.3-0.8-2.9-1.9-4.6-3.2
					c-0.7-0.6-1.3-1.1-1.9-1.7c-0.6-0.6-1.1-1.2-1.6-1.9c-0.4-0.7-0.8-1.7-0.9-2.7c-0.2-1.1-0.2-2.4,0-4.1l4.1-61.9l0.2-0.1
					c2.4-1.4,5.2-2.8,8.4-4.1c3.2-1.3,6.7-2.3,10.3-3c3.6-0.7,7.4-1,11.2-1c3.8,0.1,7.6,0.7,11.2,2c3.6,1.2,7,3.2,10.1,5.8
					c3.1,2.6,5.8,6.1,8,10.5c1.8,3.5,3.1,7.3,3.6,11.5c0.5,4.1,0.4,8.5-0.4,12.9c-0.8,4.4-2.3,8.9-4.5,13.3
					c-2.2,4.4-5.1,8.6-8.6,12.5c-3.5,3.9-7.8,7.5-12.7,10.7c-4.9,3.2-10.6,5.8-16.8,7.7C336.9,227.6,335.4,227.9,334,227.9z
					 M319,148.8l-4,61.5c-0.1,1.6-0.1,2.9,0,3.9c0.1,1,0.4,1.8,0.8,2.4c0.4,0.7,0.9,1.3,1.4,1.8c0.6,0.5,1.2,1.1,1.8,1.6
					c1.7,1.2,3.2,2.3,4.5,3.1c1.3,0.8,2.9,1.7,4.6,2.5c3.4,1.6,6.7,1.8,9.8,0.6c6.2-1.9,11.8-4.5,16.6-7.6
					c4.8-3.1,9.1-6.7,12.5-10.5c3.5-3.9,6.3-8,8.5-12.3c2.1-4.3,3.6-8.7,4.4-13c0.8-4.3,0.9-8.6,0.4-12.6c-0.5-4.1-1.7-7.8-3.5-11.2
					c-2.1-4.3-4.8-7.7-7.8-10.3c-3-2.5-6.3-4.4-9.9-5.6c-3.5-1.2-7.2-1.9-11-1.9c-3.8-0.1-7.5,0.3-11.1,0.9c-3.6,0.7-7,1.7-10.2,2.9
					C324,146.2,321.3,147.5,319,148.8z M332.2,212.2l0.1-0.7c1.4-8.4,2.8-16.8,4.3-25.1c1.5-8.3,3.3-16.7,5.3-25.2l0-0.2l0.2-0.1
					c4.1-1.5,7.7-1.7,10.6-0.6c2.9,1.1,5,2.7,6.3,5c1.2,2.2,1.7,5.4,1.6,9.4c-0.1,2.9-0.7,6-1.8,9.4c-1.1,3.3-2.7,6.7-4.9,10.1
					c-2.2,3.4-5.1,6.6-8.5,9.7c-3.5,3.1-7.7,5.8-12.5,8.1L332.2,212.2z M342.6,161.6c-2,8.4-3.7,16.8-5.2,25
					c-1.5,8-2.9,16.2-4.2,24.3c4.5-2.2,8.4-4.7,11.7-7.6c3.4-3.1,6.2-6.3,8.4-9.6c2.2-3.3,3.8-6.6,4.8-9.9c1-3.3,1.6-6.4,1.7-9.2
					c0.2-3.9-0.3-6.9-1.5-9c-1.1-2.1-3.1-3.6-5.8-4.6C349.8,160.1,346.5,160.2,342.6,161.6z"/>
			</g>
		</g>
	</g>
	<g>
		<g>
			<g>
				<path class="st3" d="M83.1,256c-0.1,3.6-0.3,7.1-0.4,10.5c-0.1,1-0.5,1.8-0.9,2.2c-0.5,0.4-1.4,0.6-2.9,0.5
					c-1.7-0.2-3.3-0.3-4.6-0.3c-1.3,0-2.6-0.3-3.9-0.7c-1.3-0.5-2.2-1.2-2.8-2.1c-0.6-0.9-1-2.1-1.1-3.8c-0.1-1.3-0.2-3.2-0.4-5.7
					c-0.2-2.5-0.4-5.3-0.6-8.5c-0.2-3.2-0.4-6.6-0.6-10.2c-0.2-3.6-0.4-7.3-0.5-11c-0.1-3.7-0.2-7.2-0.2-10.7c0-3.5,0.1-6.6,0.3-9.4
					c0.2-2.8,0.5-5.1,0.9-7c0.4-1.9,1-3.1,1.8-3.7c3.5-2.4,7.3-4.7,11.2-7.1c3.9-2.4,7.8-4.2,11.7-5.6c3.9-1.4,7.7-2.1,11.5-2.1
					c3.7,0,7.1,1.1,10.3,3.3c2.5,2,4.9,4.2,7.1,6.6c2.2,2.4,4.1,5.5,5.8,9.2c1.5,4,1.7,7.5,0.8,10.3c-1.5,4.6-4.4,9.1-8.8,13.5
					c-4.4,4.4-9.8,8.7-16.2,13c1.7,1.4,3.5,2.8,5.5,4.3c2,1.5,4,3,6.1,4.5c2.1,1.5,4.1,2.9,6.2,4.3c2,1.4,3.9,2.6,5.7,3.5
					c1.4,0.8,2.1,1.6,2.1,2.2c0,0.6-0.4,1.4-1.3,2.2c-1,1-1.8,1.7-2.6,2c-0.7,0.3-1.7,0.6-2.7,1c-1.3,0.6-2.8,1-4.4,1.1
					c-1.7,0.1-3.7-0.3-6.1-1.2c-1.6-0.8-3.4-1.7-5.5-2.9c-2.1-1.2-4.3-2.5-6.6-4c-2.3-1.5-4.6-3-6.9-4.6c-2.3-1.6-4.4-3.3-6.3-5
					C83.4,248.7,83.3,252.5,83.1,256z M86.2,216.1c-0.3,3.7-0.8,7.7-1.2,12c4-2.1,7.5-4.5,10.5-7.1c3-2.6,5.4-5.2,7.2-7.7
					c1.9-2.5,3.1-4.8,3.8-6.9c0.7-2.1,0.7-3.6,0.2-4.6c-1-1.6-3.4-2.1-7-1.5c-1.8,0.3-3.7,0.8-5.8,1.6c-2.1,0.8-4.2,2-6.5,3.5
					C86.9,208.9,86.5,212.4,86.2,216.1z"/>
			</g>
		</g>
		<g>
			<g>
				<path class="st3" d="M79.5,271.2c-0.2,0-0.5,0-0.8,0l-0.1,0c-1.7-0.2-3.2-0.2-4.5-0.3c-1.5,0-3-0.3-4.5-0.8l-0.1,0
					c-1.7-0.6-2.9-1.6-3.8-2.8c-0.8-1.2-1.3-2.7-1.4-4.7c-0.1-1.4-0.2-3.3-0.4-5.8c-0.2-2.5-0.4-5.4-0.6-8.5
					c-0.2-3.2-0.4-6.7-0.6-10.3c-0.2-3.7-0.4-7.4-0.5-11c-0.1-3.7-0.2-7.3-0.2-10.7c0-3.5,0.1-6.7,0.3-9.5c0.2-2.9,0.5-5.4,1-7.3
					c0.6-2.4,1.4-3.9,2.5-4.8l0.1-0.1c3.6-2.4,7.3-4.8,11.2-7.1c4-2.4,8.1-4.4,12.1-5.8c4.1-1.4,8.2-2.2,12.1-2.2
					c4.1,0,8,1.2,11.4,3.6l0.1,0.1c2.6,2,5.1,4.3,7.4,6.8c2.3,2.5,4.4,5.8,6.1,9.7l0,0.1c1.6,4.4,1.9,8.3,0.8,11.7
					c-1.5,4.9-4.6,9.7-9.2,14.3c-3.9,4-8.7,7.9-14.2,11.7c1.1,0.9,2.2,1.7,3.4,2.6c2,1.5,4,3,6.1,4.5c2,1.5,4.1,2.9,6.1,4.3
					c2,1.3,3.8,2.5,5.5,3.4c1.4,0.8,3.2,2.1,3.1,4c0,1.2-0.6,2.3-1.8,3.5c-1.2,1.2-2.2,2.1-3.3,2.5c-0.7,0.3-1.6,0.6-2.7,1
					c-1.5,0.7-3.2,1.1-5,1.2c-2,0.1-4.2-0.3-6.9-1.4l-0.1-0.1c-1.6-0.8-3.5-1.7-5.6-3c-2.1-1.2-4.4-2.6-6.7-4
					c-2.3-1.5-4.6-3-6.9-4.7c-1.2-0.8-2.4-1.7-3.5-2.6c-0.1,2.5-0.2,4.9-0.3,7.3c-0.1,3.6-0.3,7.1-0.4,10.5l0,0.2
					c-0.2,1.6-0.7,2.7-1.6,3.4C82.3,270.9,81.2,271.2,79.5,271.2z M79,267.2c0.2,0,0.4,0,0.5,0c0.6,0,0.9-0.1,1-0.1
					c0-0.1,0.1-0.3,0.2-0.8c0.1-3.4,0.3-6.9,0.4-10.4c0.1-3.6,0.3-7.4,0.6-11.3l0.3-4l3,2.7c1.9,1.7,3.9,3.3,6.2,4.9
					c2.3,1.6,4.6,3.1,6.8,4.6c2.2,1.4,4.4,2.7,6.5,3.9c2,1.1,3.8,2.1,5.3,2.8c2.1,0.8,3.8,1.2,5.1,1.1c1.4-0.1,2.7-0.4,3.8-0.9
					l0.2-0.1c1.1-0.4,1.9-0.7,2.7-1c0.2-0.1,0.8-0.4,1.8-1.5c0.3-0.3,0.5-0.5,0.6-0.7c-0.2-0.2-0.5-0.4-1-0.7
					c-1.7-1-3.7-2.2-5.8-3.6c-2.1-1.4-4.2-2.8-6.2-4.3c-2.1-1.5-4.2-3-6.2-4.5c-2-1.5-3.9-3-5.6-4.4l-2.1-1.7l2.2-1.5
					c6.3-4.1,11.6-8.4,15.9-12.7c4.1-4.2,6.9-8.4,8.3-12.7c0.8-2.5,0.6-5.5-0.7-9c-1.5-3.5-3.3-6.4-5.4-8.6
					c-2.1-2.3-4.4-4.4-6.9-6.3c-2.8-2-5.8-2.9-9.1-2.9c-3.5,0-7.2,0.7-10.9,2c-3.8,1.3-7.6,3.2-11.4,5.4c-3.8,2.3-7.5,4.7-11,7
					c-0.1,0.1-0.6,0.7-1,2.5c-0.4,1.8-0.7,4-0.9,6.7c-0.2,2.7-0.3,5.8-0.3,9.2c0,3.4,0.1,7,0.2,10.6c0.1,3.6,0.3,7.3,0.5,10.9
					c0.2,3.6,0.4,7,0.6,10.2c0.2,3.2,0.4,6,0.6,8.5c0.2,2.5,0.3,4.4,0.4,5.7c0.1,1.6,0.5,2.4,0.8,2.8c0.3,0.5,1,1,1.8,1.3
					c1.1,0.4,2.2,0.5,3.3,0.6C75.7,267,77.2,267.1,79,267.2z M82.5,231.6l0.4-3.7c0.5-4.2,0.9-8.3,1.2-12c0.3-3.7,0.7-7.3,1.2-10.7
					l0.1-0.8l0.7-0.5c2.3-1.7,4.7-2.9,6.9-3.8c2.2-0.8,4.3-1.4,6.2-1.7c4.5-0.8,7.5,0.1,9,2.4l0.1,0.1c0.8,1.5,0.8,3.5,0,6.2
					c-0.7,2.3-2.1,4.8-4.1,7.4c-1.9,2.6-4.5,5.3-7.5,8c-3.1,2.7-6.7,5.2-10.9,7.4L82.5,231.6z M89.2,206.7c-0.4,3-0.8,6.3-1.1,9.6
					c-0.2,2.6-0.5,5.3-0.8,8.2c2.5-1.5,4.8-3.2,6.8-5c2.8-2.5,5.2-5,7-7.4c1.7-2.3,2.9-4.4,3.5-6.3c0.6-2,0.5-2.8,0.4-3
					c-0.5-0.6-1.7-0.8-2.6-0.8c-0.7,0-1.5,0.1-2.4,0.2c-1.7,0.3-3.5,0.8-5.4,1.5C92.8,204.5,91,205.5,89.2,206.7z"/>
			</g>
		</g>
	</g>
	<g>
		<g>
			<g>
				<path class="st3" d="M179.2,182.3c1.4,2,2.6,4.2,3.6,6.9c1.4,4.4,2.4,9.3,2.9,14.6c0.5,5.3,0.5,10.7-0.1,16.2
					c-0.6,5.5-1.7,10.7-3.5,15.8c-1.7,5-4.2,9.5-7.3,13.3c-2.2,2.3-4.5,4-7.1,5.1c-2.6,1.1-5.7,1.8-9.3,2c-2.4,0.1-4.9,0.2-7.4,0
					c-2.6-0.1-4.9-0.5-7.2-1.2c-1.8-0.6-3.6-1.4-5.5-2.5c-1.8-1.1-3.4-2.4-4.6-4c-2-2.6-3.6-5.6-4.9-9.1c-1.3-3.5-2.3-7.2-2.9-11.1
					c-0.6-4-0.8-8.1-0.6-12.3c0.2-4.2,0.8-8.5,1.8-12.6c1-4.2,2.5-8.2,4.3-12.1c1.9-3.9,4.2-7.5,6.9-10.8c1.9-2,4.3-3.7,7.1-5.1
					c2.9-1.4,5.7-2,8.5-2.1c3.6,0,7.1,0.3,10.5,0.9c3.4,0.6,6.2,1.6,8.6,3C175.7,178.6,177.8,180.4,179.2,182.3z M155.6,191.2
					c-1.4,1.8-2.6,4.1-3.8,7c-1.2,2.9-2.2,6-3.1,9.4c-0.9,3.4-1.5,6.7-1.9,9.8c-0.4,3-0.5,6.2-0.4,9.3c0.1,3.2,0.5,6.1,1.1,8.8
					c0.6,2.7,1.4,4.9,2.4,6.7c1.1,1.8,2.3,2.8,3.8,3c1.4,0.2,2.7-0.3,3.9-1.5c1.3-1.2,2.4-3,3.5-5.2c1.1-2.3,2-5,2.8-8.2
					c0.8-3.2,1.3-6.6,1.7-10.3c0.3-3,0.4-6.3,0.4-9.9c-0.1-3.6-0.4-6.9-0.9-9.9c-0.5-3.1-1.2-5.7-2.2-7.8c-1-2.1-2.1-3.2-3.4-3.4
					C158.3,188.6,157,189.4,155.6,191.2z"/>
			</g>
		</g>
		<g>
			<g>
				<path class="st3" d="M154.4,258.2c-1.1,0-2.3,0-3.5-0.1c-2.7-0.1-5.3-0.6-7.7-1.3c-2-0.6-3.9-1.5-5.9-2.7
					c-2-1.2-3.8-2.7-5.1-4.5c-2.1-2.7-3.8-6-5.2-9.6c-1.4-3.6-2.4-7.5-3-11.6c-0.6-4.1-0.8-8.3-0.6-12.7c0.2-4.4,0.8-8.7,1.9-13
					c1.1-4.3,2.6-8.5,4.5-12.5c1.9-4,4.3-7.8,7.2-11.2l0.1-0.1c2-2.2,4.6-4.1,7.7-5.5c3.1-1.5,6.2-2.2,9.3-2.3l0.4,0
					c3.6,0,7.1,0.3,10.4,1c3.6,0.7,6.7,1.8,9.2,3.2c2.9,1.7,5.2,3.6,6.8,5.8c1.5,2.1,2.8,4.6,3.8,7.4c1.5,4.6,2.5,9.6,3,15.1
					c0.5,5.4,0.5,11-0.1,16.6c-0.6,5.6-1.8,11-3.6,16.2c-1.8,5.2-4.4,9.9-7.6,13.9l-0.1,0.1c-2.3,2.5-5,4.4-7.8,5.6
					c-2.8,1.2-6.1,1.9-9.9,2.1C157.1,258.2,155.8,258.2,154.4,258.2z M139.9,181.7c-2.6,3.2-4.8,6.6-6.6,10.4
					c-1.8,3.8-3.2,7.7-4.2,11.7c-1,4-1.6,8.1-1.8,12.2c-0.2,4.1,0,8.1,0.6,11.9c0.6,3.8,1.5,7.4,2.8,10.7c1.3,3.3,2.8,6.2,4.7,8.6
					c1,1.4,2.4,2.5,4,3.5c1.7,1,3.4,1.8,5.1,2.3c2,0.7,4.3,1,6.6,1.1c2.5,0.1,4.9,0.1,7.2,0c3.3-0.2,6.2-0.8,8.6-1.8
					c2.3-1,4.5-2.5,6.4-4.6c2.9-3.6,5.2-7.9,6.9-12.6c1.7-4.9,2.8-10,3.4-15.3c0.6-5.3,0.6-10.6,0.1-15.8c-0.5-5.2-1.4-9.9-2.8-14.2
					c-0.9-2.4-2-4.5-3.3-6.3c-1.3-1.7-3.1-3.3-5.5-4.7c-2.2-1.2-4.9-2.1-8-2.7c-3.1-0.6-6.4-0.9-9.7-0.9l-0.4,0
					c-2.5,0-5,0.6-7.6,1.9C143.8,178.3,141.6,179.9,139.9,181.7z M154.5,247.1L154.5,247.1c-0.3,0-0.6,0-0.9-0.1
					c-2.1-0.3-3.8-1.6-5.2-3.9c-1.2-2-2.1-4.4-2.7-7.3c-0.6-2.8-1-5.8-1.1-9.1c-0.2-3.3,0-6.5,0.4-9.7c0.4-3.2,1-6.5,1.9-10
					c0.9-3.5,1.9-6.8,3.1-9.7c1.2-3,2.6-5.5,4.1-7.4c1.8-2.4,3.9-3.4,6-3.1c2,0.2,3.6,1.8,4.9,4.5c1,2.2,1.8,5,2.3,8.3
					c0.5,3.1,0.8,6.5,0.9,10.2c0.1,3.6,0,7.1-0.4,10.2c-0.3,3.7-0.9,7.3-1.7,10.6c-0.8,3.3-1.8,6.2-2.9,8.6
					c-1.2,2.5-2.5,4.4-3.9,5.8C157.7,246.4,156.2,247.1,154.5,247.1z M159.3,190.8c-0.5,0-1.3,0.6-2.1,1.6c-1.2,1.6-2.4,3.8-3.5,6.5
					c-1.1,2.7-2.1,5.8-3,9.1c-0.8,3.3-1.4,6.5-1.8,9.5c-0.4,2.9-0.5,5.9-0.3,9c0.1,3.1,0.5,5.9,1,8.4c0.5,2.4,1.3,4.5,2.2,6.1
					c1.1,1.9,2.1,2,2.4,2c0.2,0,0.3,0,0.4,0c0.6,0,1.3-0.3,1.9-1c1.1-1,2.1-2.6,3.1-4.7c1-2.1,1.9-4.8,2.6-7.8
					c0.7-3.1,1.3-6.5,1.6-10c0.3-3,0.4-6.2,0.4-9.7c-0.1-3.5-0.4-6.7-0.9-9.6c-0.5-2.9-1.2-5.3-2-7.3c-0.6-1.3-1.3-2.2-1.8-2.2
					C159.3,190.8,159.3,190.8,159.3,190.8z"/>
			</g>
		</g>
	</g>
	<g>
		<g>
			<g>
				<path class="st3" d="M190.4,231.8c-1.1-2.9-1.9-6.1-2.5-9.7c-0.6-3.6-1-7.4-1.1-11.5c-0.2-4.1-0.2-8.3-0.1-12.5
					c0.1-4.3,0.3-8.6,0.7-12.9c0.3-4.3,0.7-8.6,1.2-12.7c0.2-1.9,0.7-3.1,1.6-3.6c0.9-0.5,2.4-0.6,4.5-0.3c1.9,0.2,3.8,0.7,5.7,1.2
					c1.8,0.6,3.7,1.3,5.5,2.2c3.7,1.9,5.4,4.8,5,8.7c-0.5,3.4-0.9,7-1.4,10.9c-0.5,3.9-0.8,7.9-1.1,11.8c-0.3,4-0.5,7.8-0.5,11.6
					c0,3.8,0.1,7.1,0.4,10c0.3,2.9,0.9,5.3,1.7,7.1c0.8,1.8,1.9,2.8,3.3,3c1.7,0.2,3.2-0.9,4.5-3.2c1.3-2.3,2.3-5.4,3.2-9.2
					c0.9-3.9,1.6-8.3,2.1-13.2c0.5-5,1-10.1,1.3-15.3c0.3-5.2,0.5-10.3,0.6-15.4c0.1-5,0.2-9.5,0.3-13.5c-0.2-1.9,0.3-3.1,1.5-3.7
					c1.2-0.6,2.7-0.8,4.5-0.6c1.8,0.2,3.8,0.6,6,1.3c2.2,0.7,4.2,1.4,6,2.1c1,0.4,1.7,0.8,2.2,1.2c0.5,0.4,0.9,0.8,1.2,1.3
					c0.3,0.5,0.4,1,0.5,1.6c0,0.6,0,1.3,0,2.1c-0.4,9.1-0.9,17.6-1.6,25.2c-0.7,7.7-1.6,14.6-2.7,20.6c-1.2,6-2.7,11.2-4.5,15.4
					c-1.8,4.2-4.1,7.5-6.9,9.7c-2,1.4-4,2.5-6.1,3.2c-2.1,0.8-4.5,1.3-7.4,1.6c-5.6,0.5-10.4,0.1-14.3-1.3c-1.7-0.6-3.3-1.4-4.9-2.3
					c-1.6-0.9-3-2.2-4.2-3.8C192.9,237.1,191.5,234.7,190.4,231.8z"/>
			</g>
		</g>
		<g>
			<g>
				<path class="st3" d="M213.4,248.6c-3.9,0-7.4-0.5-10.4-1.6c-1.8-0.7-3.6-1.5-5.2-2.5c-1.7-1.1-3.3-2.5-4.7-4.2
					c-1.8-2.1-3.3-4.7-4.4-7.8c-1.1-3-2-6.4-2.6-10.1c-0.6-3.6-1-7.6-1.2-11.8c-0.2-4.1-0.2-8.4-0.1-12.7c0.1-4.3,0.3-8.7,0.7-13
					c0.3-4.3,0.7-8.6,1.2-12.8c0.3-2.5,1.1-4.2,2.6-5.1c1.3-0.8,3.2-1,5.8-0.5c2,0.3,4,0.7,5.9,1.3c1.9,0.6,3.9,1.4,5.8,2.4
					c4.5,2.2,6.6,5.9,6,10.7c-0.5,3.4-0.9,7.1-1.4,11c-0.5,3.9-0.8,7.8-1.1,11.8c-0.3,3.9-0.5,7.8-0.5,11.5c0,3.7,0.1,7,0.4,9.8
					c0.3,2.7,0.8,4.9,1.5,6.6c0.7,1.7,1.4,1.8,1.7,1.8c0,0,0.1,0,0.1,0c0.8,0,1.6-0.7,2.4-2.2c1.2-2.1,2.2-5.1,3-8.7
					c0.8-3.8,1.5-8.2,2.1-13c0.5-4.9,1-10,1.3-15.2c0.3-5.2,0.5-10.3,0.6-15.3c0.1-5,0.2-9.4,0.3-13.4c-0.3-3.5,1.5-5,2.6-5.5
					c1.5-0.7,3.4-1,5.6-0.8c2,0.2,4.1,0.6,6.4,1.4c2.2,0.7,4.3,1.4,6.1,2.1c1.2,0.5,2,1,2.7,1.4c0.8,0.6,1.4,1.2,1.8,1.9
					c0.4,0.7,0.7,1.6,0.7,2.5c0,0.7,0,1.5,0,2.4c-0.4,9.1-0.9,17.6-1.6,25.3c-0.7,7.7-1.6,14.7-2.8,20.8c-1.2,6.1-2.7,11.5-4.6,15.8
					c-2,4.5-4.5,8-7.4,10.4l-0.1,0.1c-2.1,1.5-4.3,2.7-6.6,3.5c-2.2,0.8-4.9,1.4-7.8,1.7C216.5,248.5,214.9,248.6,213.4,248.6z
					 M192.5,170.2c-0.8,0-1.2,0.2-1.2,0.2c-0.2,0.1-0.5,0.7-0.7,2.1c-0.5,4.1-0.9,8.4-1.2,12.7c-0.3,4.3-0.5,8.6-0.7,12.8
					c-0.1,4.2-0.1,8.4,0.1,12.4c0.2,4,0.5,7.8,1.1,11.3c0.6,3.4,1.4,6.6,2.4,9.4c1,2.7,2.3,4.9,3.8,6.7c1.2,1.4,2.4,2.5,3.8,3.4
					c1.4,0.9,2.9,1.6,4.5,2.2c3.6,1.3,8.1,1.7,13.4,1.1c2.6-0.3,4.9-0.7,6.9-1.4c1.9-0.7,3.8-1.7,5.6-3c2.5-2,4.6-5,6.2-8.9
					c1.8-4.1,3.2-9.1,4.4-15c1.1-5.9,2.1-12.8,2.7-20.4c0.7-7.6,1.2-16.1,1.6-25.2c0.1-0.8,0.1-1.4,0-1.9c0-0.3-0.1-0.5-0.2-0.7
					c-0.1-0.2-0.3-0.4-0.6-0.7c-0.3-0.2-0.9-0.5-1.9-1c-1.7-0.7-3.7-1.4-5.8-2c-2-0.6-3.9-1-5.6-1.2c-1.4-0.1-2.6,0-3.5,0.4
					c-0.4,0.2-0.5,0.7-0.4,1.7l0,0.1l0,0.1c-0.1,4-0.2,8.4-0.3,13.5c-0.1,5-0.3,10.2-0.6,15.5c-0.3,5.2-0.7,10.4-1.3,15.4
					c-0.5,5-1.3,9.5-2.1,13.5c-0.9,4-2,7.3-3.4,9.8c-1.7,3-3.8,4.5-6.4,4.2c-1.5-0.2-3.6-1-4.9-4.2c-0.9-2-1.5-4.6-1.8-7.7
					c-0.3-3-0.5-6.4-0.4-10.3c0-3.8,0.2-7.7,0.5-11.7c0.3-4,0.7-8,1.1-11.9c0.5-3.9,0.9-7.6,1.4-11c0.3-3-0.9-5.2-3.9-6.7
					c-1.7-0.9-3.4-1.6-5.2-2.1c-1.7-0.5-3.5-0.9-5.3-1.2C193.6,170.3,193,170.2,192.5,170.2z"/>
			</g>
		</g>
	</g>
	<g>
		<g>
			<g>
				<path class="st3" d="M288.4,177.5c0.5-8.1,1.1-15.7,1.8-22.6c0.2-1.9,0.8-3.1,1.7-3.7c0.9-0.6,2.4-0.8,4.5-0.7
					c1,0.1,1.8,0.2,2.6,0.2c0.8,0.1,1.5,0.2,2.3,0.4c0.8,0.2,1.6,0.4,2.5,0.7c0.9,0.3,1.9,0.7,3.1,1.2c2,0.8,3.2,1.8,3.6,2.9
					c0.4,1.1,0.5,2.5,0.3,4.2c-0.7,4.8-1.3,10.2-1.9,16.3c-0.6,6.1-1.1,12.2-1.7,18.5c-0.5,6.2-1,12.3-1.4,18.3
					c-0.4,5.9-0.8,11.2-1.1,15.6c0,2.4-1.7,3.5-5.2,3.3c-2.9-0.1-6-0.4-9.1-1c-2.9-0.6-5.1-2.1-6.7-4.6c-1.2-1.8-2.4-3.8-3.7-6.2
					c-1.3-2.4-2.7-5-4.1-7.7c-1.4-2.8-2.8-5.7-4.3-8.7c-1.5-3-2.8-6.1-4.2-9.2c0,3.9-0.1,7.9-0.2,11.8c-0.1,3.9-0.2,7.7-0.2,11.3
					c-0.1,3.6-0.1,6.9-0.2,10c0,3.1,0,5.8,0,8c-0.1,1.1-0.4,1.8-0.9,2.2c-0.5,0.4-1.6,0.5-3.3,0.3c-1.5-0.1-3.1-0.3-4.7-0.4
					c-1.6-0.2-3.1-0.5-4.7-1.2c-1.5-0.5-2.5-1.1-3.1-1.9c-0.6-0.8-1-2-1.1-3.7c-0.2-1.7-0.3-4.1-0.6-7.2c-0.2-3.1-0.4-6.7-0.6-10.7
					c-0.2-4-0.4-8.3-0.5-12.9c-0.2-4.6-0.3-9.1-0.3-13.7c-0.1-4.6-0.1-9,0-13.2c0-4.3,0.1-8,0.3-11.4c0.1-1.9,0.7-3.2,1.7-3.9
					c1-0.6,2.6-0.9,4.5-0.7c2.4,0.3,4.7,0.6,7,0.9c2.3,0.3,4.7,0.8,7.2,1.6c2,0.5,3.6,1.3,4.6,2.3c1,1.1,1.9,2.7,2.6,5
					c0.6,1.7,1.4,4,2.3,6.7c1,2.7,2,5.6,3.2,8.8c1.2,3.1,2.4,6.4,3.6,9.7c1.2,3.3,2.5,6.5,3.7,9.5
					C287.6,193.9,287.8,185.7,288.4,177.5z"/>
			</g>
		</g>
		<g>
			<g>
				<path class="st3" d="M264.1,240.6c-0.5,0-1,0-1.6-0.1c-1.5-0.1-3.1-0.3-4.7-0.4c-1.7-0.2-3.5-0.6-5.2-1.3
					c-1.8-0.6-3.2-1.4-4-2.6c-0.8-1.1-1.3-2.7-1.5-4.7c-0.2-1.7-0.3-4.1-0.6-7.3c-0.2-3.2-0.4-6.8-0.6-10.8c-0.2-4-0.4-8.3-0.5-12.9
					c-0.2-4.6-0.3-9.3-0.3-13.7c-0.1-4.6-0.1-9.1,0-13.3c0-4.3,0.1-8.1,0.3-11.4c0.2-2.6,1.1-4.4,2.7-5.4c1.4-0.9,3.3-1.2,5.8-1
					c2.5,0.3,4.8,0.6,7.1,0.9c2.3,0.3,4.8,0.9,7.4,1.6c2.4,0.6,4.3,1.6,5.5,2.9c1.2,1.3,2.2,3.2,3.1,5.8c0.6,1.7,1.4,3.9,2.3,6.6
					c0.9,2.7,2,5.6,3.2,8.7c1.1,3,2.3,6.1,3.5,9.3c0.1-4.8,0.3-9.5,0.6-14.2c0.5-8.1,1.1-15.7,1.8-22.6c0.3-2.5,1.1-4.2,2.6-5.2
					c1.3-0.8,3.2-1.2,5.7-1c1,0.1,1.8,0.2,2.6,0.2c0.9,0.1,1.8,0.2,2.6,0.4c0.8,0.2,1.7,0.5,2.6,0.8c0.9,0.3,2,0.7,3.2,1.3
					c2.5,1,4,2.4,4.6,4c0.5,1.4,0.6,3.1,0.4,5.1c-0.7,4.8-1.3,10.2-1.9,16.2c-0.6,6-1.1,12.2-1.7,18.4c-0.5,6.1-1,12.3-1.4,18.3
					c-0.4,5.9-0.8,11.1-1.1,15.6c0,1.8-0.8,3-1.4,3.6c-1.1,1.1-2.8,1.7-5,1.7c-0.3,0-0.5,0-0.8,0c-3-0.1-6.1-0.4-9.3-1
					c-3.5-0.7-6.1-2.6-8-5.5c-1.2-1.8-2.5-3.9-3.8-6.3c-1.3-2.4-2.7-5-4.1-7.8c-1.4-2.8-2.9-5.7-4.3-8.7c-0.2-0.4-0.4-0.8-0.5-1.1
					c0,1,0,2-0.1,3l-0.2,11.3c-0.1,3.6-0.1,6.9-0.2,10c0,3,0,5.7,0,8l0,0.1l0,0.1c-0.1,1.7-0.7,2.9-1.7,3.7
					C266.4,240.3,265.5,240.6,264.1,240.6z M252.3,159.6c-1,0-1.8,0.2-2.3,0.5c-0.4,0.3-0.7,1.1-0.8,2.3c-0.1,3.2-0.2,7-0.3,11.3
					c0,4.2,0,8.6,0,13.2c0.1,4.5,0.2,9,0.3,13.7c0.2,4.5,0.3,8.9,0.5,12.8c0.2,3.9,0.4,7.5,0.6,10.6c0.2,3.1,0.4,5.5,0.6,7.2
					c0.1,1.6,0.5,2.3,0.7,2.7c0.2,0.3,0.8,0.8,2.1,1.2l0.2,0.1c1.4,0.6,2.8,0.9,4.2,1c1.6,0.1,3.1,0.3,4.7,0.4c1,0.1,1.6,0.1,1.9,0
					c0-0.1,0.1-0.3,0.1-0.6c-0.1-2.3-0.1-5,0-8c0-3.1,0.1-6.4,0.2-10l0.2-11.3c0.1-3.9,0.1-7.9,0.2-11.8l0.1-9.3l3.7,8.5
					c1.3,3,2.7,6,4.1,9.1c1.4,3,2.9,5.9,4.3,8.7c1.4,2.7,2.7,5.3,4.1,7.7c1.3,2.3,2.5,4.4,3.7,6.1c1.3,2.1,3.1,3.3,5.4,3.8
					c3,0.5,5.9,0.8,8.8,0.9c0.3,0,0.5,0,0.7,0c1.6,0,2.1-0.4,2.2-0.5c0.1-0.1,0.2-0.2,0.2-0.8l0-0.1l0-0.1c0.3-4.5,0.6-9.8,1.1-15.7
					c0.4-6,0.9-12.2,1.5-18.3c0.5-6.2,1.1-12.4,1.7-18.5c0.6-6,1.2-11.5,1.9-16.4c0.2-1.4,0.1-2.4-0.2-3.2c-0.1-0.2-0.5-0.9-2.5-1.7
					c-1.1-0.5-2.1-0.9-2.9-1.2c-0.8-0.3-1.6-0.5-2.3-0.7c-0.7-0.2-1.3-0.3-2-0.3c-0.8-0.1-1.7-0.1-2.6-0.2c-0.4,0-0.7,0-1.1,0
					c-1.4,0-2,0.2-2.2,0.4c-0.1,0.1-0.6,0.5-0.8,2.2c-0.7,6.8-1.3,14.4-1.8,22.5c-0.5,8.1-0.7,16.3-0.6,24.5l0.1,10.7l-4-10
					c-1.2-3-2.4-6.2-3.7-9.6c-1.2-3.3-2.5-6.6-3.6-9.7c-1.2-3.1-2.2-6.1-3.2-8.8c-1-2.7-1.7-4.9-2.3-6.7c-0.7-2-1.4-3.5-2.2-4.3
					c-0.7-0.8-1.9-1.4-3.6-1.8l-0.1,0c-2.4-0.7-4.8-1.2-6.9-1.5c-2.3-0.3-4.6-0.6-7-0.9C253,159.6,252.6,159.6,252.3,159.6z"/>
			</g>
		</g>
	</g>
	<g>
		<g>
			<g>
				<path class="st3" d="M319.8,146.4c3.2-1.2,6.6-2.2,10.2-2.9c3.6-0.7,7.3-1,11.1-0.9c3.8,0.1,7.5,0.7,11,1.9
					c3.6,1.2,6.9,3,9.9,5.5c3.1,2.5,5.7,5.8,7.8,10.1c1.8,3.3,3,7,3.5,11c0.5,4,0.4,8.1-0.4,12.4c-0.8,4.2-2.3,8.5-4.4,12.7
					c-2.2,4.2-5,8.3-8.5,12c-3.5,3.8-7.7,7.2-12.6,10.3c-4.9,3.1-10.4,5.5-16.6,7.4c-3.2,1.2-6.5,1-10.1-0.6
					c-1.8-0.8-3.3-1.7-4.7-2.5c-1.3-0.8-2.9-1.8-4.6-3c-0.6-0.5-1.2-1.1-1.8-1.6c-0.6-0.5-1.1-1.1-1.5-1.8c-0.4-0.7-0.7-1.5-0.9-2.5
					c-0.1-1-0.1-2.3,0-3.9l4-59.7C313.9,148.9,316.6,147.6,319.8,146.4z M338,203.5c3.4-3,6.2-6.1,8.4-9.4c2.2-3.2,3.8-6.5,4.8-9.7
					c1-3.2,1.6-6.2,1.8-9c0.2-3.8-0.3-6.8-1.5-8.9c-1.2-2.1-3.2-3.6-6-4.6c-2.8-1-6.3-0.8-10.3,0.6c-2,8.3-3.7,16.4-5.2,24.4
					c-1.5,8-2.9,16.1-4.3,24.3C330.4,209.1,334.5,206.5,338,203.5z"/>
			</g>
		</g>
		<g>
			<g>
				<path class="st3" d="M326.8,228.7c-2.2,0-4.4-0.5-6.7-1.6c-1.9-0.9-3.5-1.7-4.9-2.6c-1.4-0.8-2.9-1.9-4.7-3.1l-0.2-0.1
					c-0.6-0.6-1.3-1.1-1.9-1.6c-0.7-0.6-1.3-1.4-1.9-2.2c-0.6-0.9-0.9-2-1.1-3.3c-0.2-1.2-0.2-2.6,0-4.3l4.1-60.7l0.9-0.5
					c2.4-1.4,5.3-2.8,8.6-4c3.3-1.3,6.8-2.3,10.6-3c3.7-0.7,7.6-1,11.5-1c4,0.1,7.9,0.7,11.6,2c3.8,1.3,7.3,3.3,10.6,5.9
					c3.3,2.7,6.1,6.3,8.4,10.7c1.9,3.5,3.2,7.4,3.8,11.6c0.6,4.2,0.4,8.6-0.4,13c-0.8,4.4-2.4,8.9-4.6,13.3
					c-2.2,4.4-5.2,8.6-8.8,12.5c-3.6,3.9-8,7.4-13,10.6c-5,3.1-10.7,5.7-17,7.6C330.1,228.4,328.4,228.7,326.8,228.7z M312.9,218.2
					c1.6,1.2,3.1,2.1,4.4,2.9c1.3,0.8,2.8,1.6,4.5,2.4c3,1.4,5.9,1.6,8.5,0.5l0.1,0c6-1.8,11.5-4.3,16.2-7.2c4.7-3,8.8-6.3,12.2-9.9
					c3.4-3.6,6.1-7.5,8.2-11.6c2.1-4.1,3.5-8.2,4.3-12.2c0.8-4,0.9-8,0.4-11.7c-0.5-3.7-1.6-7.2-3.3-10.3c-2.1-4-4.5-7.2-7.4-9.5
					c-2.9-2.3-6-4.1-9.3-5.2c-3.4-1.1-6.9-1.7-10.4-1.8c-3.6-0.1-7.2,0.2-10.7,0.9c-3.5,0.7-6.8,1.6-9.9,2.8c-2.7,1-5.1,2.1-7.1,3.3
					l-4,58.7c-0.1,1.5-0.1,2.6,0,3.4c0.1,0.7,0.3,1.3,0.6,1.8c0.3,0.5,0.7,1,1.1,1.4C311.7,217.2,312.3,217.7,312.9,218.2z
					 M323,214.6l0.6-3.7c1.4-8.1,2.8-16.3,4.3-24.3c1.5-8,3.3-16.3,5.3-24.5l0.3-1l1-0.4c4.5-1.6,8.4-1.8,11.6-0.6
					c3.3,1.2,5.7,3,7.1,5.5c1.4,2.4,2,5.7,1.8,9.9c-0.1,2.9-0.8,6.1-1.9,9.5c-1.1,3.4-2.8,6.8-5.1,10.2c-2.3,3.4-5.2,6.7-8.8,9.7
					c-3.6,3.1-7.9,5.8-12.9,8.1L323,214.6z M336.8,164.1c-1.9,7.8-3.5,15.6-5,23.2c-1.3,6.7-2.5,13.6-3.7,20.4
					c3.2-1.7,6.1-3.6,8.5-5.8c3.3-2.9,6-5.9,8.1-9c2.1-3.1,3.6-6.2,4.6-9.2c1-3,1.5-5.9,1.7-8.4c0.1-3.4-0.3-6.1-1.3-7.8
					c-0.9-1.7-2.6-2.9-5-3.7C342.6,163.1,339.9,163.2,336.8,164.1z"/>
			</g>
		</g>
	</g>
	<g>
		<g>
			<g>
				<path d="M85.5,252.1c-0.1,3.7-0.3,7.3-0.4,10.9c-0.1,1.1-0.5,1.8-0.9,2.2c-0.5,0.4-1.5,0.6-2.9,0.5c-1.7-0.2-3.3-0.3-4.6-0.3
					c-1.3,0-2.7-0.3-3.9-0.7c-1.3-0.5-2.2-1.2-2.8-2.1c-0.6-0.9-1-2.2-1.1-3.9c-0.1-1.4-0.2-3.3-0.4-5.9c-0.2-2.6-0.4-5.5-0.6-8.8
					c-0.2-3.3-0.4-6.8-0.6-10.6c-0.2-3.8-0.4-7.5-0.5-11.3c-0.1-3.8-0.2-7.4-0.2-11c0-3.6,0.1-6.8,0.3-9.7c0.2-2.9,0.5-5.3,0.9-7.2
					c0.5-1.9,1-3.2,1.8-3.8c3.6-2.4,7.3-4.9,11.2-7.3c3.9-2.4,7.8-4.4,11.8-5.8c3.9-1.4,7.8-2.1,11.5-2.2c3.7,0,7.2,1.1,10.3,3.4
					c2.6,2.1,4.9,4.3,7.2,6.8c2.2,2.5,4.1,5.6,5.8,9.5c1.5,4.1,1.7,7.7,0.8,10.7c-1.5,4.8-4.4,9.4-8.8,14c-4.4,4.5-9.8,9-16.2,13.4
					c1.7,1.4,3.5,2.9,5.5,4.5c2,1.6,4,3.1,6.1,4.7c2.1,1.5,4.2,3,6.2,4.4c2,1.4,3.9,2.6,5.7,3.6c1.4,0.9,2.1,1.6,2.1,2.3
					c0,0.7-0.4,1.4-1.3,2.3c-1,1.1-1.8,1.8-2.6,2.1c-0.7,0.3-1.7,0.6-2.8,1c-1.3,0.6-2.8,1-4.5,1.1c-1.7,0.1-3.7-0.3-6.1-1.3
					c-1.6-0.8-3.4-1.8-5.5-3c-2.1-1.2-4.3-2.6-6.6-4.1c-2.3-1.5-4.6-3.1-6.9-4.8c-2.3-1.7-4.4-3.4-6.4-5.2
					C85.8,244.5,85.6,248.4,85.5,252.1z M88.6,210.9c-0.3,3.9-0.8,8-1.3,12.4c4-2.2,7.5-4.6,10.5-7.3c3-2.7,5.4-5.3,7.3-7.9
					c1.9-2.6,3.2-4.9,3.8-7.1c0.7-2.1,0.7-3.7,0.2-4.7c-1-1.7-3.4-2.2-7-1.6c-1.8,0.3-3.7,0.9-5.8,1.7c-2.1,0.8-4.3,2-6.5,3.7
					C89.3,203.4,88.9,207,88.6,210.9z"/>
			</g>
		</g>
		<g>
			<g>
				<path d="M81.9,266.1c-0.2,0-0.4,0-0.7,0c-1.7-0.2-3.3-0.3-4.6-0.3c-1.4,0-2.7-0.3-4.1-0.7c-1.4-0.5-2.4-1.3-3-2.3
					c-0.6-1-1-2.3-1.2-4.1c-0.1-1.4-0.2-3.3-0.4-5.9c-0.2-2.6-0.4-5.5-0.6-8.8c-0.2-3.3-0.4-6.9-0.6-10.6c-0.2-3.8-0.4-7.6-0.5-11.3
					c-0.1-3.8-0.2-7.5-0.2-11c0-3.6,0.1-6.8,0.3-9.7c0.2-2.9,0.5-5.3,0.9-7.3c0.5-2.1,1.1-3.4,1.9-4c3.6-2.4,7.3-4.9,11.2-7.3
					c3.9-2.4,7.9-4.4,11.8-5.8c4-1.4,7.9-2.2,11.6-2.2c3.8,0,7.4,1.2,10.6,3.5c2.6,2.1,5,4.4,7.2,6.8c2.2,2.5,4.2,5.7,5.8,9.6
					c1.5,4.2,1.8,7.9,0.8,11c-1.5,4.8-4.5,9.6-8.9,14.1c-4.3,4.4-9.6,8.9-15.9,13.1c1.6,1.3,3.3,2.7,5.1,4.1c2,1.5,4,3.1,6.1,4.6
					c2.1,1.5,4.1,3,6.2,4.4c2,1.4,3.9,2.6,5.7,3.6c1.6,1,2.3,1.8,2.3,2.7c0,0.8-0.5,1.6-1.4,2.5c-1,1.1-1.9,1.8-2.7,2.2
					c-0.8,0.3-1.7,0.6-2.8,1c-1.3,0.6-2.8,1-4.6,1.1c-1.7,0.1-3.8-0.3-6.3-1.3c-1.6-0.8-3.5-1.8-5.6-3c-2.1-1.2-4.3-2.6-6.6-4.1
					c-2.3-1.5-4.6-3.1-6.9-4.8c-2.1-1.5-4-3.1-5.8-4.6c-0.2,3.7-0.4,7.3-0.5,10.8c-0.1,3.7-0.3,7.3-0.4,10.9c-0.2,1.2-0.5,2-1.1,2.5
					C83.9,265.9,83.1,266.1,81.9,266.1z M103.9,175.5c-3.7,0-7.5,0.7-11.4,2.1c-3.9,1.4-7.8,3.3-11.7,5.8c-3.9,2.4-7.6,4.9-11.2,7.3
					c-0.6,0.5-1.2,1.7-1.6,3.6c-0.4,1.9-0.8,4.3-0.9,7.2c-0.2,2.9-0.3,6.1-0.3,9.6c0,3.5,0.1,7.2,0.2,11c0.1,3.7,0.3,7.5,0.5,11.3
					c0.2,3.7,0.4,7.2,0.6,10.6c0.2,3.3,0.4,6.2,0.6,8.8c0.2,2.6,0.3,4.6,0.4,5.9c0.1,1.6,0.5,2.8,1,3.7c0.5,0.8,1.4,1.5,2.6,2
					c1.2,0.4,2.5,0.6,3.8,0.7c1.3,0,2.9,0.1,4.7,0.3c0.2,0,0.4,0,0.6,0c1.3,0,1.8-0.2,2-0.4c0.4-0.3,0.7-1,0.8-2
					c0.1-3.5,0.3-7.1,0.4-10.8c0.1-3.7,0.3-7.6,0.6-11.6l0-0.8l0.6,0.6c1.9,1.7,4,3.5,6.3,5.1c2.3,1.7,4.6,3.3,6.9,4.8
					c2.3,1.5,4.5,2.9,6.6,4.1c2.1,1.2,4,2.2,5.5,3c2.3,0.9,4.3,1.4,5.9,1.2c1.6-0.1,3.1-0.5,4.3-1.1c1.1-0.4,2-0.7,2.8-1
					c0.7-0.3,1.5-0.9,2.4-2c0.8-0.8,1.1-1.5,1.2-2c0-0.3-0.2-0.9-1.9-1.9c-1.7-1-3.7-2.2-5.7-3.7c-2.1-1.4-4.2-2.9-6.2-4.5
					c-2.1-1.5-4.2-3.1-6.2-4.7c-2-1.5-3.9-3-5.6-4.5l-0.4-0.3l0.4-0.3c6.4-4.3,11.8-8.8,16.2-13.3c4.3-4.5,7.3-9.1,8.7-13.8
					c1-2.9,0.7-6.4-0.8-10.4c-1.6-3.8-3.5-6.9-5.7-9.4c-2.2-2.4-4.6-4.7-7.1-6.7C110.9,176.6,107.5,175.5,103.9,175.5z M86.8,224
					l0.1-0.8c0.5-4.4,0.9-8.6,1.3-12.4c0.3-3.9,0.7-7.5,1.2-10.9l0-0.2l0.1-0.1c2.2-1.6,4.5-2.9,6.6-3.7c2.1-0.8,4.1-1.4,5.9-1.7
					c3.8-0.7,6.3-0.1,7.4,1.7c0.6,1.2,0.6,2.8-0.1,5.1c-0.7,2.2-2,4.6-3.9,7.2c-1.9,2.6-4.4,5.3-7.3,8c-3,2.7-6.5,5.2-10.6,7.4
					L86.8,224z M90.1,200.2c-0.5,3.3-0.9,7-1.2,10.7c-0.3,3.6-0.7,7.5-1.2,11.6c3.7-2.1,7-4.4,9.8-6.9c2.9-2.7,5.4-5.3,7.2-7.9
					c1.8-2.5,3.1-4.9,3.8-7c0.6-2,0.7-3.5,0.2-4.4c-0.9-1.5-3.2-1.9-6.6-1.3c-1.8,0.3-3.7,0.9-5.8,1.7
					C94.4,197.5,92.3,198.7,90.1,200.2z"/>
			</g>
		</g>
	</g>
	<g>
		<g>
			<g>
				<path d="M182,176c1.4,2,2.6,4.4,3.6,7.1c1.4,4.5,2.4,9.6,2.9,15.1c0.5,5.5,0.5,11.1-0.1,16.7c-0.6,5.6-1.8,11.1-3.5,16.3
					c-1.7,5.2-4.2,9.8-7.3,13.7c-2.2,2.4-4.6,4.2-7.2,5.3c-2.6,1.1-5.7,1.8-9.3,2c-2.4,0.1-4.9,0.2-7.4,0c-2.6-0.1-5-0.5-7.2-1.3
					c-1.8-0.6-3.6-1.5-5.5-2.6c-1.8-1.1-3.4-2.5-4.6-4.1c-2-2.7-3.6-5.8-4.9-9.4c-1.3-3.6-2.3-7.4-2.9-11.5
					c-0.6-4.1-0.8-8.3-0.6-12.7c0.2-4.4,0.8-8.7,1.8-13c1-4.3,2.5-8.5,4.3-12.5c1.9-4,4.2-7.7,6.9-11.2c1.9-2.1,4.3-3.8,7.1-5.2
					c2.9-1.4,5.7-2.1,8.5-2.1c3.6,0,7.1,0.3,10.5,1c3.4,0.7,6.3,1.7,8.7,3C178.5,172.2,180.5,174,182,176z M158.3,185.1
					c-1.4,1.8-2.6,4.2-3.8,7.2c-1.2,3-2.2,6.2-3.1,9.7c-0.9,3.5-1.5,6.9-1.9,10.1c-0.4,3.1-0.5,6.4-0.4,9.6c0.1,3.3,0.5,6.3,1.1,9.1
					c0.6,2.8,1.4,5.1,2.4,6.9c1.1,1.9,2.3,2.9,3.8,3.1c1.4,0.2,2.7-0.3,4-1.6c1.3-1.3,2.4-3.1,3.5-5.4c1.1-2.3,2-5.2,2.8-8.5
					c0.8-3.3,1.3-6.9,1.7-10.7c0.3-3.1,0.4-6.5,0.4-10.2c-0.1-3.7-0.4-7.1-0.9-10.2c-0.5-3.2-1.2-5.9-2.2-8c-1-2.2-2.1-3.3-3.4-3.5
					C161,182.5,159.6,183.3,158.3,185.1z"/>
			</g>
		</g>
		<g>
			<g>
				<path d="M157,252.7c-1.1,0-2.3,0-3.4-0.1c-2.6-0.1-5-0.6-7.3-1.3c-1.8-0.6-3.7-1.5-5.6-2.6c-1.9-1.1-3.4-2.6-4.7-4.2
					c-2-2.7-3.7-5.9-5-9.5c-1.3-3.6-2.3-7.5-2.9-11.6c-0.6-4.1-0.8-8.4-0.6-12.8c0.2-4.4,0.8-8.8,1.8-13.1c1-4.3,2.5-8.5,4.4-12.6
					c1.9-4,4.2-7.8,7-11.2c1.9-2.1,4.4-3.9,7.3-5.3c2.9-1.4,5.8-2.2,8.7-2.2l0.4,0c3.5,0,6.9,0.3,10.2,1c3.4,0.7,6.4,1.7,8.8,3.1
					c2.7,1.6,4.8,3.4,6.3,5.5c1.5,2,2.7,4.5,3.6,7.2c1.4,4.6,2.4,9.7,2.9,15.2c0.5,5.5,0.5,11.2-0.1,16.8
					c-0.6,5.6-1.8,11.1-3.5,16.4c-1.7,5.2-4.2,9.9-7.4,13.8c-2.2,2.4-4.7,4.3-7.3,5.4c-2.6,1.1-5.8,1.8-9.5,2.1
					C159.7,252.7,158.4,252.7,157,252.7z M157,167l-0.4,0c-2.7,0-5.5,0.7-8.3,2.1c-2.8,1.4-5.2,3.1-7,5.2c-2.7,3.4-5,7.1-6.9,11.1
					c-1.8,4-3.3,8.1-4.3,12.4c-1,4.2-1.6,8.6-1.8,13c-0.2,4.3,0,8.6,0.6,12.6c0.6,4.1,1.6,7.9,2.9,11.4c1.3,3.5,3,6.6,4.9,9.3
					c1.2,1.6,2.7,2.9,4.5,4c1.8,1.1,3.6,2,5.4,2.6c2.2,0.7,4.6,1.1,7.1,1.3c2.5,0.1,5,0.1,7.4,0c3.5-0.2,6.6-0.9,9.2-2
					c2.6-1.1,4.9-2.9,7-5.2c3.1-3.9,5.5-8.4,7.2-13.6c1.7-5.2,2.9-10.6,3.5-16.2c0.6-5.6,0.6-11.2,0.1-16.6
					c-0.5-5.5-1.5-10.5-2.9-15c-0.9-2.7-2.1-5-3.5-7c-1.4-2-3.4-3.7-6-5.3c-2.3-1.3-5.2-2.3-8.5-3C163.8,167.3,160.5,167,157,167z
					 M157.1,241.2L157.1,241.2c-0.2,0-0.5,0-0.7-0.1c-1.6-0.2-3-1.3-4.1-3.3c-1.1-1.9-1.9-4.2-2.5-7c-0.6-2.8-0.9-5.8-1.1-9.1
					c-0.1-3.3,0-6.6,0.4-9.7c0.4-3.2,1-6.6,1.9-10.1c0.9-3.5,1.9-6.8,3.1-9.8c1.2-3,2.5-5.4,3.9-7.3c1.4-2,3-2.8,4.5-2.6
					c1.4,0.2,2.7,1.4,3.7,3.7c1,2.2,1.7,4.9,2.2,8.1c0.5,3.1,0.8,6.6,0.9,10.3c0.1,3.7,0,7.1-0.4,10.3c-0.3,3.8-0.9,7.4-1.7,10.7
					c-0.8,3.3-1.7,6.2-2.8,8.6c-1.1,2.4-2.3,4.2-3.6,5.5C159.6,240.7,158.4,241.2,157.1,241.2z M161.9,183.1c-1.1,0-2.2,0.8-3.3,2.3
					c-1.3,1.8-2.6,4.2-3.8,7.1c-1.2,2.9-2.2,6.2-3.1,9.7c-0.9,3.5-1.5,6.9-1.9,10c-0.4,3.1-0.5,6.3-0.4,9.6c0.1,3.3,0.5,6.3,1.1,9
					c0.6,2.7,1.4,5,2.4,6.8c1,1.7,2.2,2.7,3.5,2.9c0.2,0,0.4,0,0.6,0c1,0,2.1-0.5,3.1-1.5c1.2-1.2,2.4-3,3.4-5.3
					c1.1-2.3,2-5.1,2.8-8.4c0.8-3.3,1.3-6.9,1.7-10.6c0.3-3.1,0.4-6.5,0.4-10.2c-0.1-3.7-0.4-7.1-0.9-10.2c-0.5-3.1-1.2-5.8-2.2-7.9
					c-0.9-2-1.9-3.1-3.1-3.3C162.2,183.1,162,183.1,161.9,183.1z"/>
			</g>
		</g>
	</g>
	<g>
		<g>
			<g>
				<path d="M193.2,227c-1.1-3-1.9-6.3-2.5-10c-0.6-3.7-1-7.7-1.1-11.9c-0.2-4.2-0.2-8.5-0.1-13c0.1-4.4,0.3-8.9,0.7-13.3
					c0.3-4.5,0.7-8.9,1.2-13.1c0.2-1.9,0.7-3.2,1.6-3.7c0.9-0.5,2.4-0.6,4.5-0.3c2,0.3,3.9,0.7,5.7,1.3c1.8,0.6,3.7,1.4,5.5,2.3
					c3.7,1.9,5.4,4.9,5,9c-0.5,3.5-0.9,7.2-1.4,11.3c-0.5,4-0.8,8.1-1.1,12.2c-0.3,4.1-0.5,8.1-0.5,12c0,3.9,0.1,7.3,0.4,10.3
					c0.3,3,0.9,5.5,1.7,7.4c0.8,1.9,1.9,2.9,3.3,3.1c1.7,0.2,3.3-0.9,4.5-3.3c1.3-2.4,2.3-5.6,3.2-9.5c0.9-4,1.6-8.5,2.1-13.7
					c0.5-5.1,1-10.4,1.3-15.8c0.3-5.4,0.5-10.7,0.6-15.9c0.1-5.2,0.2-9.8,0.3-13.9c-0.2-1.9,0.3-3.2,1.5-3.8
					c1.2-0.6,2.7-0.8,4.5-0.6c1.8,0.2,3.9,0.6,6,1.3c2.2,0.7,4.2,1.4,6,2.2c1,0.4,1.7,0.8,2.3,1.2c0.5,0.4,0.9,0.8,1.2,1.3
					c0.3,0.5,0.4,1,0.5,1.6c0,0.6,0,1.4,0,2.2c-0.4,9.4-0.9,18.1-1.6,26.1c-0.7,7.9-1.6,15-2.7,21.2c-1.2,6.2-2.7,11.5-4.5,15.9
					c-1.8,4.4-4.1,7.7-6.9,10c-2,1.5-4,2.6-6.1,3.4c-2.1,0.8-4.6,1.3-7.4,1.6c-5.6,0.6-10.4,0.1-14.3-1.3c-1.7-0.6-3.3-1.4-4.9-2.4
					c-1.6-1-3-2.3-4.3-3.9C195.7,232.5,194.3,230,193.2,227z"/>
			</g>
		</g>
		<g>
			<g>
				<path d="M216.2,242.8c-3.7,0-7-0.5-9.9-1.6c-1.7-0.6-3.4-1.5-5-2.4c-1.6-1-3.1-2.3-4.4-4c-1.7-2-3.1-4.6-4.2-7.6
					c-1.1-3-1.9-6.4-2.5-10.1c-0.6-3.7-1-7.7-1.2-11.9c-0.2-4.2-0.2-8.6-0.1-13c0.1-4.4,0.3-8.9,0.7-13.3c0.3-4.4,0.7-8.9,1.2-13.1
					c0.2-2.1,0.8-3.4,1.8-4c1-0.6,2.6-0.7,4.8-0.3c1.9,0.3,3.9,0.7,5.8,1.3c1.9,0.6,3.7,1.4,5.5,2.3c3.9,2,5.6,5.1,5.2,9.4
					c-0.5,3.5-0.9,7.3-1.4,11.3c-0.5,4-0.8,8.1-1.1,12.2c-0.3,4.1-0.5,8.1-0.5,12c0,3.8,0.1,7.3,0.4,10.3c0.3,3,0.9,5.4,1.6,7.3
					c0.7,1.8,1.7,2.7,3,2.8c0.1,0,0.2,0,0.3,0c1.4,0,2.7-1.1,3.8-3.1c1.2-2.3,2.3-5.5,3.2-9.4c0.9-4,1.6-8.5,2.1-13.6
					c0.5-5.1,1-10.4,1.3-15.8c0.3-5.4,0.5-10.7,0.6-15.9c0.1-5.2,0.2-9.8,0.3-13.9c-0.2-2.1,0.4-3.5,1.7-4.1
					c1.2-0.6,2.8-0.8,4.7-0.7c1.9,0.2,3.9,0.6,6.1,1.3c2.2,0.7,4.2,1.4,6.1,2.2c1,0.4,1.8,0.9,2.3,1.3c0.6,0.4,1,0.9,1.3,1.4
					c0.3,0.5,0.5,1.1,0.5,1.8c0,0.6,0,1.4,0,2.3c-0.4,9.4-0.9,18.2-1.6,26.1c-0.7,7.9-1.6,15.1-2.7,21.3c-1.2,6.2-2.7,11.6-4.5,16
					c-1.9,4.4-4.2,7.8-7,10.2c-2,1.5-4.1,2.6-6.3,3.4c-2.1,0.8-4.6,1.3-7.5,1.6C219.2,242.7,217.7,242.8,216.2,242.8z M195.2,161.9
					c-0.9,0-1.6,0.1-2.1,0.4c-0.8,0.5-1.3,1.6-1.5,3.4c-0.5,4.3-0.9,8.7-1.2,13.1c-0.3,4.4-0.6,8.9-0.7,13.3
					c-0.1,4.4-0.1,8.7,0.1,12.9c0.2,4.2,0.6,8.2,1.1,11.8c0.6,3.7,1.4,7,2.5,10c1.1,2.9,2.4,5.4,4.1,7.4c1.2,1.6,2.6,2.9,4.2,3.8
					c1.5,1,3.1,1.8,4.8,2.4c3.8,1.4,8.6,1.8,14.2,1.3c2.8-0.3,5.2-0.8,7.3-1.6c2.1-0.8,4.1-1.9,6.1-3.3c2.7-2.2,4.9-5.6,6.8-9.9
					c1.8-4.3,3.3-9.7,4.5-15.8c1.2-6.2,2.1-13.3,2.7-21.2c0.7-7.9,1.2-16.7,1.6-26c0.1-0.8,0.1-1.6,0-2.2c0-0.6-0.2-1-0.4-1.5
					c-0.2-0.4-0.6-0.8-1.1-1.2c-0.5-0.4-1.2-0.8-2.2-1.2c-1.8-0.7-3.8-1.4-6-2.2c-2.1-0.7-4.1-1.1-6-1.3c-1.8-0.2-3.2,0-4.3,0.6
					c-1,0.5-1.4,1.6-1.3,3.4c-0.1,4.1-0.2,8.8-0.3,14c-0.1,5.2-0.3,10.5-0.6,15.9c-0.3,5.4-0.7,10.7-1.3,15.8
					c-0.5,5.1-1.2,9.7-2.1,13.7c-0.9,4-1.9,7.2-3.2,9.6c-1.3,2.5-3,3.7-4.9,3.5c-1.6-0.2-2.8-1.3-3.6-3.3c-0.8-1.9-1.4-4.4-1.7-7.5
					c-0.3-3-0.5-6.5-0.4-10.4c0-3.9,0.2-7.9,0.5-12c0.3-4.1,0.7-8.2,1.1-12.2c0.5-4,0.9-7.8,1.4-11.3c0.4-3.9-1.1-6.7-4.8-8.6
					c-1.8-0.9-3.6-1.7-5.4-2.3c-1.8-0.6-3.7-1-5.6-1.3C196.6,162,195.9,161.9,195.2,161.9z"/>
			</g>
		</g>
	</g>
	<g>
		<g>
			<g>
				<path d="M291.5,171.1c0.5-8.4,1.1-16.2,1.8-23.3c0.2-1.9,0.8-3.2,1.7-3.8c1-0.6,2.5-0.8,4.5-0.7c1,0.1,1.8,0.2,2.6,0.2
					c0.8,0.1,1.5,0.2,2.3,0.4c0.8,0.2,1.6,0.5,2.5,0.8c0.9,0.3,1.9,0.7,3.1,1.2c2,0.8,3.2,1.8,3.6,3c0.4,1.1,0.5,2.6,0.3,4.3
					c-0.7,5-1.3,10.6-1.9,16.8c-0.6,6.3-1.1,12.6-1.7,19.1c-0.5,6.4-1,12.7-1.5,18.9c-0.4,6.1-0.8,11.5-1.1,16.2
					c0,2.5-1.7,3.6-5.2,3.4c-2.9-0.1-6-0.4-9.1-1c-2.9-0.6-5.1-2.2-6.7-4.8c-1.2-1.8-2.4-4-3.8-6.4c-1.3-2.5-2.7-5.1-4.1-8
					c-1.4-2.9-2.9-5.9-4.3-9c-1.5-3.1-2.9-6.3-4.2-9.5c0,4.1-0.1,8.1-0.2,12.2c-0.1,4.1-0.2,8-0.2,11.7c-0.1,3.7-0.1,7.2-0.2,10.3
					c0,3.2,0,5.9,0,8.3c-0.1,1.1-0.4,1.9-0.9,2.3c-0.5,0.4-1.6,0.5-3.3,0.3c-1.5-0.1-3.1-0.3-4.7-0.4c-1.6-0.2-3.2-0.6-4.7-1.2
					c-1.5-0.5-2.5-1.1-3.1-2c-0.6-0.8-1-2.1-1.1-3.8c-0.2-1.7-0.3-4.2-0.6-7.5c-0.2-3.2-0.4-6.9-0.6-11c-0.2-4.1-0.4-8.6-0.5-13.3
					c-0.2-4.7-0.3-9.4-0.3-14.1c-0.1-4.7-0.1-9.3,0-13.7c0-4.4,0.1-8.3,0.3-11.7c0.1-2,0.7-3.3,1.7-4c1-0.7,2.6-0.9,4.6-0.7
					c2.4,0.3,4.7,0.6,7,1c2.3,0.3,4.7,0.9,7.2,1.6c2.1,0.5,3.6,1.3,4.6,2.4c1,1.1,1.9,2.8,2.7,5.2c0.6,1.8,1.4,4.1,2.3,6.9
					c1,2.8,2,5.8,3.2,9c1.2,3.2,2.4,6.6,3.6,10c1.3,3.4,2.5,6.7,3.7,9.8C290.7,187.9,291,179.5,291.5,171.1z"/>
			</g>
		</g>
		<g>
			<g>
				<path d="M267.1,234.5c-0.4,0-0.9,0-1.4-0.1c-1.5-0.1-3.1-0.3-4.7-0.4c-1.6-0.2-3.2-0.6-4.8-1.2c-1.5-0.5-2.6-1.2-3.3-2.1
					c-0.7-0.9-1.1-2.2-1.2-4c-0.2-1.8-0.4-4.3-0.6-7.5c-0.2-3.3-0.4-7-0.6-11.1c-0.2-4.1-0.4-8.6-0.5-13.3
					c-0.2-4.8-0.3-9.5-0.3-14.2c-0.1-4.7-0.1-9.3,0-13.7c0-4.4,0.1-8.4,0.3-11.8c0.1-2.1,0.8-3.6,1.9-4.3c1.1-0.7,2.7-1,4.8-0.8
					c2.4,0.3,4.8,0.6,7.1,1c2.3,0.3,4.7,0.9,7.3,1.6c2.1,0.5,3.7,1.4,4.8,2.5c1,1.1,2,2.9,2.7,5.3c0.6,1.8,1.4,4.1,2.3,6.9
					c0.9,2.7,2,5.8,3.2,9c1.2,3.2,2.4,6.6,3.6,10c1,2.7,2,5.3,2.9,7.8c0-7.8,0.2-15.6,0.7-23.3c0.5-8.4,1.1-16.2,1.8-23.3
					c0.2-2,0.9-3.4,1.9-4.1c1-0.7,2.6-0.9,4.8-0.7c1,0.1,1.8,0.2,2.6,0.2c0.8,0.1,1.6,0.2,2.4,0.4c0.8,0.2,1.6,0.5,2.5,0.8
					c0.9,0.3,1.9,0.7,3.1,1.3c2.1,0.9,3.3,2,3.8,3.2c0.4,1.2,0.5,2.7,0.3,4.5c-0.7,5-1.3,10.6-1.9,16.8c-0.6,6.2-1.1,12.7-1.7,19
					c-0.5,6.3-1,12.7-1.5,18.9c-0.4,6.1-0.8,11.6-1.1,16.1c0,1.1-0.3,2-0.9,2.6c-0.9,0.9-2.5,1.3-4.6,1.2c-2.9-0.1-6-0.4-9.2-1
					c-3-0.6-5.3-2.3-7-4.9c-1.2-1.8-2.4-4-3.8-6.5c-1.3-2.5-2.7-5.2-4.1-8c-1.4-2.8-2.8-5.9-4.3-9c-1.2-2.6-2.4-5.2-3.5-7.7
					c0,3.4-0.1,6.9-0.2,10.3l-0.2,11.7c-0.1,3.7-0.1,7.2-0.2,10.3c0,3.1,0,5.9,0,8.3c-0.1,1.3-0.4,2.1-1,2.6
					C268.8,234.3,268.1,234.5,267.1,234.5z M255.3,150.9c-1.3,0-2.4,0.2-3.1,0.7c-0.9,0.6-1.4,1.8-1.6,3.7
					c-0.1,3.4-0.2,7.3-0.3,11.7c0,4.3,0,8.9,0,13.6c0.1,4.6,0.2,9.4,0.3,14.1c0.2,4.7,0.3,9.2,0.5,13.3c0.2,4.1,0.4,7.8,0.6,11
					c0.2,3.1,0.4,5.7,0.6,7.5c0.1,1.6,0.5,2.8,1.1,3.6c0.6,0.8,1.5,1.4,2.9,1.8c1.6,0.6,3.1,1,4.6,1.2c1.6,0.2,3.1,0.3,4.7,0.4
					c0.5,0.1,1,0.1,1.4,0.1c1,0,1.5-0.2,1.7-0.3c0.4-0.3,0.7-1,0.7-2c-0.1-2.3-0.1-5.1,0-8.3c0-3.2,0.1-6.6,0.2-10.3l0.2-11.7
					c0.1-4.1,0.1-8.1,0.2-12.2l0-1.9l0.7,1.8c1.3,3.1,2.7,6.3,4.2,9.4c1.5,3.1,2.9,6.2,4.3,9c1.4,2.8,2.8,5.5,4.1,8
					c1.3,2.4,2.6,4.6,3.7,6.4c1.5,2.5,3.7,4,6.4,4.6c3.1,0.6,6.2,0.9,9.1,1c0.3,0,0.5,0,0.7,0c1.6,0,2.7-0.3,3.3-1
					c0.5-0.5,0.7-1.2,0.7-2.1c0.3-4.6,0.6-10.1,1.1-16.2c0.4-6.2,0.9-12.5,1.5-18.9c0.5-6.4,1.1-12.8,1.7-19.1
					c0.6-6.2,1.2-11.9,1.9-16.8c0.2-1.7,0.1-3.1-0.2-4.1c-0.4-1-1.5-2-3.4-2.7c-1.2-0.5-2.2-0.9-3-1.2c-0.9-0.3-1.7-0.6-2.4-0.8
					c-0.7-0.2-1.5-0.3-2.2-0.4c-0.8-0.1-1.7-0.1-2.6-0.2c-1.9-0.2-3.4,0-4.3,0.6c-0.8,0.5-1.4,1.7-1.5,3.5
					c-0.7,7.1-1.3,14.9-1.8,23.3c-0.5,8.4-0.7,16.9-0.6,25.4l0,2.2l-0.8-2.1c-1.2-3.1-2.4-6.4-3.7-9.8c-1.3-3.4-2.5-6.8-3.6-10
					c-1.2-3.3-2.2-6.3-3.2-9c-1-2.8-1.7-5.1-2.3-6.9c-0.7-2.3-1.6-4-2.6-5.1c-0.9-1-2.4-1.8-4.4-2.3c-2.5-0.7-4.9-1.3-7.2-1.6
					c-2.2-0.3-4.6-0.6-7-1C256.1,150.9,255.7,150.9,255.3,150.9z"/>
			</g>
		</g>
	</g>
	<g>
		<g>
			<g>
				<path class="st4" d="M79.2,250.4c-0.1,3.6-0.3,7.1-0.4,10.5c-0.1,1-0.5,1.8-0.9,2.2c-0.5,0.4-1.4,0.6-2.9,0.5
					c-1.7-0.2-3.3-0.3-4.6-0.3c-1.3,0-2.6-0.3-3.9-0.7c-1.3-0.5-2.2-1.2-2.8-2.1c-0.6-0.9-1-2.1-1.1-3.8c-0.1-1.3-0.2-3.2-0.4-5.7
					c-0.2-2.5-0.4-5.3-0.6-8.5c-0.2-3.2-0.4-6.6-0.6-10.2c-0.2-3.6-0.4-7.3-0.5-11c-0.1-3.7-0.2-7.2-0.2-10.7c0-3.5,0.1-6.6,0.3-9.4
					c0.2-2.8,0.5-5.1,0.9-7c0.4-1.9,1-3.1,1.8-3.7c3.5-2.4,7.3-4.7,11.2-7.1c3.9-2.4,7.8-4.2,11.7-5.6c3.9-1.4,7.7-2.1,11.5-2.1
					c3.7,0,7.1,1.1,10.3,3.3c2.5,2,4.9,4.2,7.1,6.6c2.2,2.4,4.1,5.5,5.8,9.2c1.5,4,1.7,7.5,0.8,10.3c-1.5,4.6-4.4,9.1-8.8,13.5
					c-4.4,4.4-9.8,8.7-16.2,13c1.7,1.4,3.5,2.8,5.5,4.3c2,1.5,4,3,6.1,4.5c2.1,1.5,4.1,2.9,6.2,4.3c2,1.4,3.9,2.6,5.7,3.5
					c1.4,0.8,2.1,1.6,2.1,2.2c0,0.6-0.4,1.4-1.3,2.2c-1,1-1.8,1.7-2.6,2c-0.7,0.3-1.7,0.6-2.7,1c-1.3,0.6-2.8,1-4.4,1.1
					c-1.7,0.1-3.7-0.3-6.1-1.2c-1.6-0.8-3.4-1.7-5.5-2.9c-2.1-1.2-4.3-2.5-6.6-4c-2.3-1.5-4.6-3-6.9-4.6c-2.3-1.6-4.4-3.3-6.3-5
					C79.6,243,79.4,246.8,79.2,250.4z M82.3,210.5c-0.3,3.7-0.8,7.7-1.2,12c4-2.1,7.5-4.5,10.5-7.1c3-2.6,5.4-5.2,7.2-7.7
					c1.9-2.5,3.1-4.8,3.8-6.9c0.7-2.1,0.7-3.6,0.2-4.6c-1-1.6-3.4-2.1-7-1.5c-1.8,0.3-3.7,0.8-5.8,1.6c-2.1,0.8-4.2,2-6.5,3.5
					C83,203.2,82.6,206.7,82.3,210.5z"/>
			</g>
		</g>
		<g>
			<g>
				<path d="M75.7,265.5c-0.2,0-0.5,0-0.8,0l-0.1,0c-1.7-0.2-3.2-0.2-4.5-0.3c-1.5,0-3-0.3-4.5-0.8l-0.1,0c-1.7-0.6-2.9-1.6-3.8-2.8
					c-0.8-1.2-1.3-2.7-1.4-4.7c-0.1-1.4-0.2-3.3-0.4-5.8c-0.2-2.5-0.4-5.4-0.6-8.5c-0.2-3.2-0.4-6.7-0.6-10.3
					c-0.2-3.7-0.4-7.4-0.5-11c-0.1-3.7-0.2-7.3-0.2-10.7c0-3.5,0.1-6.7,0.3-9.5c0.2-2.9,0.5-5.4,1-7.3c0.6-2.4,1.4-3.9,2.5-4.8
					l0.1-0.1c3.6-2.4,7.3-4.8,11.2-7.1c4-2.4,8.1-4.4,12.1-5.8c4.1-1.4,8.2-2.2,12.1-2.2c4.1,0,8,1.2,11.4,3.6l0.1,0.1
					c2.6,2,5.1,4.3,7.4,6.8c2.3,2.5,4.4,5.8,6.1,9.7l0,0.1c1.6,4.4,1.9,8.3,0.8,11.7c-1.5,4.9-4.6,9.7-9.2,14.3
					c-3.9,4-8.7,7.9-14.2,11.7c1.1,0.9,2.2,1.7,3.4,2.6c2,1.5,4,3,6.1,4.5c2,1.5,4.1,2.9,6.1,4.3c2,1.3,3.8,2.5,5.5,3.4
					c1.4,0.8,3.2,2.1,3.1,4c0,1.2-0.6,2.3-1.8,3.5c-1.2,1.2-2.2,2.1-3.3,2.5c-0.7,0.3-1.6,0.6-2.7,1c-1.5,0.7-3.2,1.1-5,1.2
					c-2,0.1-4.2-0.3-6.9-1.4l-0.1-0.1c-1.6-0.8-3.5-1.7-5.6-3c-2.1-1.2-4.4-2.6-6.7-4c-2.3-1.5-4.6-3-6.9-4.7
					c-1.2-0.8-2.4-1.7-3.5-2.6c-0.1,2.5-0.2,4.9-0.3,7.3c-0.1,3.6-0.3,7.1-0.4,10.5l0,0.2c-0.2,1.6-0.7,2.7-1.6,3.4
					C78.4,265.2,77.3,265.5,75.7,265.5z M75.1,261.6c0.2,0,0.4,0,0.5,0c0.6,0,0.9-0.1,1-0.1c0-0.1,0.1-0.3,0.2-0.8
					c0.1-3.4,0.3-6.9,0.4-10.4c0.1-3.6,0.3-7.4,0.6-11.3l0.3-4l3,2.7c1.9,1.7,3.9,3.3,6.2,4.9c2.3,1.6,4.6,3.1,6.8,4.6
					c2.2,1.4,4.4,2.7,6.5,3.9c2,1.1,3.8,2.1,5.3,2.8c2.1,0.8,3.8,1.2,5.1,1.1c1.4-0.1,2.7-0.4,3.8-0.9l0.2-0.1
					c1.1-0.4,1.9-0.7,2.7-1c0.2-0.1,0.8-0.4,1.8-1.5c0.3-0.3,0.5-0.5,0.6-0.7c-0.2-0.2-0.5-0.4-1-0.7c-1.7-1-3.7-2.2-5.8-3.6
					c-2.1-1.4-4.2-2.8-6.2-4.3c-2.1-1.5-4.2-3-6.2-4.5c-2-1.5-3.9-3-5.6-4.4l-2.1-1.7l2.2-1.5c6.3-4.1,11.6-8.4,15.9-12.7
					c4.1-4.2,6.9-8.4,8.3-12.7c0.8-2.5,0.6-5.5-0.7-9c-1.5-3.5-3.3-6.4-5.4-8.6c-2.1-2.3-4.4-4.4-6.9-6.3c-2.8-2-5.8-2.9-9.1-2.9
					c-3.5,0-7.2,0.7-10.9,2c-3.8,1.3-7.6,3.2-11.4,5.4c-3.8,2.3-7.5,4.7-11,7c-0.1,0.1-0.6,0.7-1,2.5c-0.4,1.8-0.7,4-0.9,6.7
					c-0.2,2.7-0.3,5.8-0.3,9.2c0,3.4,0.1,7,0.2,10.6c0.1,3.6,0.3,7.3,0.5,10.9c0.2,3.6,0.4,7,0.6,10.2c0.2,3.2,0.4,6,0.6,8.5
					c0.2,2.5,0.3,4.4,0.4,5.7c0.1,1.6,0.5,2.4,0.8,2.8c0.3,0.5,1,1,1.8,1.3c1.1,0.4,2.2,0.5,3.3,0.6
					C71.8,261.3,73.4,261.4,75.1,261.6z M78.7,226l0.4-3.7c0.5-4.2,0.9-8.3,1.2-12c0.3-3.7,0.7-7.3,1.2-10.7l0.1-0.8l0.7-0.5
					c2.3-1.7,4.7-2.9,6.9-3.8c2.2-0.8,4.3-1.4,6.2-1.7c4.5-0.8,7.5,0.1,9,2.4l0.1,0.1c0.8,1.5,0.8,3.5,0,6.2
					c-0.7,2.3-2.1,4.8-4.1,7.4c-1.9,2.6-4.5,5.3-7.5,8c-3.1,2.7-6.7,5.2-10.9,7.4L78.7,226z M85.3,201c-0.4,3-0.8,6.3-1.1,9.6
					c-0.2,2.6-0.5,5.3-0.8,8.2c2.5-1.5,4.8-3.2,6.8-5c2.8-2.5,5.2-5,7-7.4c1.7-2.3,2.9-4.4,3.5-6.3c0.6-2,0.5-2.8,0.4-3
					c-0.5-0.6-1.7-0.8-2.6-0.8c-0.7,0-1.5,0.1-2.4,0.2c-1.7,0.3-3.5,0.8-5.4,1.5C89,198.8,87.2,199.8,85.3,201z"/>
			</g>
		</g>
	</g>
	<g>
		<g>
			<g>
				<path class="st4" d="M175.3,176.6c1.4,2,2.6,4.2,3.6,6.9c1.4,4.4,2.4,9.3,2.9,14.6c0.5,5.3,0.5,10.7-0.1,16.2
					c-0.6,5.5-1.7,10.7-3.5,15.8c-1.7,5-4.2,9.5-7.3,13.3c-2.2,2.3-4.5,4-7.1,5.1c-2.6,1.1-5.7,1.8-9.3,2c-2.4,0.1-4.9,0.2-7.4,0
					c-2.6-0.1-4.9-0.5-7.2-1.2c-1.8-0.6-3.6-1.4-5.5-2.5c-1.8-1.1-3.4-2.4-4.6-4c-2-2.6-3.6-5.6-4.9-9.1c-1.3-3.5-2.3-7.2-2.9-11.1
					c-0.6-4-0.8-8.1-0.6-12.3c0.2-4.2,0.8-8.5,1.8-12.6c1-4.2,2.5-8.2,4.3-12.1c1.9-3.9,4.2-7.5,6.9-10.8c1.9-2,4.3-3.7,7.1-5.1
					c2.9-1.4,5.7-2,8.5-2.1c3.6,0,7.1,0.3,10.5,0.9c3.4,0.6,6.2,1.6,8.6,3C171.9,173,173.9,174.7,175.3,176.6z M151.7,185.5
					c-1.4,1.8-2.6,4.1-3.8,7c-1.2,2.9-2.2,6-3.1,9.4c-0.9,3.4-1.5,6.7-1.9,9.8c-0.4,3-0.5,6.2-0.4,9.3c0.1,3.2,0.5,6.1,1.1,8.8
					c0.6,2.7,1.4,4.9,2.4,6.7c1.1,1.8,2.3,2.8,3.8,3c1.4,0.2,2.7-0.3,3.9-1.5c1.3-1.2,2.4-3,3.5-5.2c1.1-2.3,2-5,2.8-8.2
					c0.8-3.2,1.3-6.6,1.7-10.3c0.3-3,0.4-6.3,0.4-9.9c-0.1-3.6-0.4-6.9-0.9-9.9c-0.5-3.1-1.2-5.7-2.2-7.8c-1-2.1-2.1-3.2-3.4-3.4
					C154.5,182.9,153.1,183.7,151.7,185.5z"/>
			</g>
		</g>
		<g>
			<g>
				<path d="M150.5,252.6c-1.1,0-2.3,0-3.5-0.1c-2.7-0.1-5.3-0.6-7.7-1.3c-2-0.6-3.9-1.5-5.9-2.7c-2-1.2-3.8-2.7-5.1-4.5
					c-2.1-2.7-3.8-6-5.2-9.6c-1.4-3.6-2.4-7.5-3-11.6c-0.6-4.1-0.8-8.3-0.6-12.7c0.2-4.4,0.8-8.7,1.9-13c1.1-4.3,2.6-8.5,4.5-12.5
					c1.9-4,4.3-7.8,7.2-11.2l0.1-0.1c2-2.2,4.6-4.1,7.7-5.5c3.1-1.5,6.2-2.2,9.3-2.3l0.4,0c3.6,0,7.1,0.3,10.4,1
					c3.6,0.7,6.7,1.8,9.2,3.2c2.9,1.7,5.2,3.6,6.8,5.8c1.5,2.1,2.8,4.6,3.8,7.4c1.5,4.6,2.5,9.6,3,15.1c0.5,5.4,0.5,11-0.1,16.6
					c-0.6,5.6-1.8,11-3.6,16.2c-1.8,5.2-4.4,9.9-7.6,13.9l-0.1,0.1c-2.3,2.5-5,4.4-7.8,5.6c-2.8,1.2-6.1,1.9-9.9,2.1
					C153.3,252.5,151.9,252.6,150.5,252.6z M136,176c-2.6,3.2-4.8,6.6-6.6,10.4c-1.8,3.8-3.2,7.7-4.2,11.7c-1,4-1.6,8.1-1.8,12.2
					c-0.2,4.1,0,8.1,0.6,11.9c0.6,3.8,1.5,7.4,2.8,10.7c1.3,3.3,2.8,6.2,4.7,8.6c1,1.4,2.4,2.5,4,3.5c1.7,1,3.4,1.8,5.1,2.3
					c2,0.7,4.3,1,6.6,1.1c2.5,0.1,4.9,0.1,7.2,0c3.3-0.2,6.2-0.8,8.6-1.8c2.3-1,4.5-2.5,6.4-4.6c2.9-3.6,5.2-7.9,6.9-12.6
					c1.7-4.9,2.8-10,3.4-15.3c0.6-5.3,0.6-10.6,0.1-15.8c-0.5-5.2-1.4-9.9-2.8-14.2c-0.9-2.4-2-4.5-3.3-6.3
					c-1.3-1.7-3.1-3.3-5.5-4.7c-2.2-1.2-4.9-2.1-8-2.7c-3.1-0.6-6.4-0.9-9.7-0.9l-0.4,0c-2.5,0-5,0.6-7.6,1.9
					C139.9,172.6,137.7,174.2,136,176z M150.6,241.4L150.6,241.4c-0.3,0-0.6,0-0.9-0.1c-2.1-0.3-3.8-1.6-5.2-3.9
					c-1.2-2-2.1-4.4-2.7-7.3c-0.6-2.8-1-5.8-1.1-9.1c-0.2-3.3,0-6.5,0.4-9.7c0.4-3.2,1-6.5,1.9-10c0.9-3.5,1.9-6.8,3.1-9.7
					c1.2-3,2.6-5.5,4.1-7.4c1.8-2.4,3.9-3.4,6-3.1c2,0.2,3.6,1.8,4.9,4.5c1,2.2,1.8,5,2.3,8.3c0.5,3.1,0.8,6.5,0.9,10.2
					c0.1,3.6,0,7.1-0.4,10.2c-0.3,3.7-0.9,7.3-1.7,10.6c-0.8,3.3-1.8,6.2-2.9,8.6c-1.2,2.5-2.5,4.4-3.9,5.8
					C153.9,240.7,152.3,241.4,150.6,241.4z M155.4,185.1c-0.5,0-1.3,0.6-2.1,1.6c-1.2,1.6-2.4,3.8-3.5,6.5c-1.1,2.7-2.1,5.8-3,9.1
					c-0.8,3.3-1.4,6.5-1.8,9.5c-0.4,2.9-0.5,5.9-0.3,9c0.1,3.1,0.5,5.9,1,8.4c0.5,2.4,1.3,4.5,2.2,6.1c1.1,1.9,2.1,2,2.4,2
					c0.2,0,0.3,0,0.4,0c0.6,0,1.3-0.3,1.9-1c1.1-1,2.1-2.6,3.1-4.7c1-2.1,1.9-4.8,2.6-7.8c0.7-3.1,1.3-6.5,1.6-10
					c0.3-3,0.4-6.2,0.4-9.7c-0.1-3.5-0.4-6.7-0.9-9.6c-0.5-2.9-1.2-5.3-2-7.3c-0.6-1.3-1.3-2.2-1.8-2.2
					C155.5,185.1,155.4,185.1,155.4,185.1z"/>
			</g>
		</g>
	</g>
	<g>
		<g>
			<g>
				<path class="st4" d="M186.6,226.1c-1.1-2.9-1.9-6.1-2.5-9.7c-0.6-3.6-1-7.4-1.1-11.5c-0.2-4.1-0.2-8.3-0.1-12.5
					c0.1-4.3,0.3-8.6,0.7-12.9c0.3-4.3,0.7-8.6,1.2-12.7c0.2-1.9,0.7-3.1,1.6-3.6c0.9-0.5,2.4-0.6,4.5-0.3c1.9,0.2,3.8,0.7,5.7,1.2
					c1.8,0.6,3.7,1.3,5.5,2.2c3.7,1.9,5.4,4.8,5,8.7c-0.5,3.4-0.9,7-1.4,10.9c-0.5,3.9-0.8,7.9-1.1,11.8c-0.3,4-0.5,7.8-0.5,11.6
					c0,3.8,0.1,7.1,0.4,10c0.3,2.9,0.9,5.3,1.7,7.1c0.8,1.8,1.9,2.8,3.3,3c1.7,0.2,3.2-0.9,4.5-3.2c1.3-2.3,2.3-5.4,3.2-9.2
					c0.9-3.9,1.6-8.3,2.1-13.2c0.5-5,1-10.1,1.3-15.3c0.3-5.2,0.5-10.3,0.6-15.4c0.1-5,0.2-9.5,0.3-13.5c-0.2-1.9,0.3-3.1,1.5-3.7
					c1.2-0.6,2.7-0.8,4.5-0.6c1.8,0.2,3.8,0.6,6,1.3c2.2,0.7,4.2,1.4,6,2.1c1,0.4,1.7,0.8,2.2,1.2c0.5,0.4,0.9,0.8,1.2,1.3
					c0.3,0.5,0.4,1,0.5,1.6c0,0.6,0,1.3,0,2.1c-0.4,9.1-0.9,17.6-1.6,25.2c-0.7,7.7-1.6,14.6-2.7,20.6c-1.2,6-2.7,11.2-4.5,15.4
					c-1.8,4.2-4.1,7.5-6.9,9.7c-2,1.4-4,2.5-6.1,3.2c-2.1,0.8-4.5,1.3-7.4,1.6c-5.6,0.5-10.4,0.1-14.3-1.3c-1.7-0.6-3.3-1.4-4.9-2.3
					c-1.6-0.9-3-2.2-4.2-3.8C189,231.4,187.7,229,186.6,226.1z"/>
			</g>
		</g>
		<g>
			<g>
				<path d="M209.5,242.9c-3.9,0-7.4-0.5-10.4-1.6c-1.8-0.7-3.6-1.5-5.2-2.5c-1.7-1.1-3.3-2.5-4.7-4.2c-1.8-2.1-3.3-4.7-4.4-7.8
					c-1.1-3-2-6.4-2.6-10.1c-0.6-3.6-1-7.6-1.2-11.8c-0.2-4.1-0.2-8.4-0.1-12.7c0.1-4.3,0.3-8.7,0.7-13c0.3-4.3,0.7-8.6,1.2-12.8
					c0.3-2.5,1.1-4.2,2.6-5.1c1.3-0.8,3.2-1,5.8-0.5c2,0.3,4,0.7,5.9,1.3c1.9,0.6,3.9,1.4,5.8,2.4c4.5,2.2,6.6,5.9,6,10.7
					c-0.5,3.4-0.9,7.1-1.4,11c-0.5,3.9-0.8,7.8-1.1,11.8c-0.3,3.9-0.5,7.8-0.5,11.5c0,3.7,0.1,7,0.4,9.8c0.3,2.7,0.8,4.9,1.5,6.6
					c0.7,1.7,1.4,1.8,1.7,1.8c0,0,0.1,0,0.1,0c0.8,0,1.6-0.7,2.4-2.2c1.2-2.1,2.2-5.1,3-8.7c0.8-3.8,1.5-8.2,2.1-13
					c0.5-4.9,1-10,1.3-15.2c0.3-5.2,0.5-10.3,0.6-15.3c0.1-5,0.2-9.4,0.3-13.4c-0.3-3.5,1.5-5,2.6-5.5c1.5-0.7,3.4-1,5.6-0.8
					c2,0.2,4.1,0.6,6.4,1.4c2.2,0.7,4.3,1.4,6.1,2.1c1.2,0.5,2,1,2.7,1.4c0.8,0.6,1.4,1.2,1.8,1.9c0.4,0.7,0.7,1.6,0.7,2.5
					c0,0.7,0,1.5,0,2.4c-0.4,9.1-0.9,17.6-1.6,25.3c-0.7,7.7-1.6,14.7-2.8,20.8c-1.2,6.1-2.7,11.5-4.6,15.8c-2,4.5-4.5,8-7.4,10.4
					l-0.1,0.1c-2.1,1.5-4.3,2.7-6.6,3.5c-2.2,0.8-4.9,1.4-7.8,1.7C212.6,242.8,211,242.9,209.5,242.9z M188.6,164.6
					c-0.8,0-1.2,0.2-1.2,0.2c-0.2,0.1-0.5,0.7-0.7,2.1c-0.5,4.1-0.9,8.4-1.2,12.7c-0.3,4.3-0.5,8.6-0.7,12.8
					c-0.1,4.2-0.1,8.4,0.1,12.4c0.2,4,0.5,7.8,1.1,11.3c0.6,3.4,1.4,6.6,2.4,9.4c1,2.7,2.3,4.9,3.8,6.7c1.2,1.4,2.4,2.5,3.8,3.4
					c1.4,0.9,2.9,1.6,4.5,2.2c3.6,1.3,8.1,1.7,13.4,1.1c2.6-0.3,4.9-0.7,6.9-1.4c1.9-0.7,3.8-1.7,5.6-3c2.5-2,4.6-5,6.2-8.9
					c1.8-4.1,3.2-9.1,4.4-15c1.1-5.9,2.1-12.8,2.7-20.4c0.7-7.6,1.2-16.1,1.6-25.2c0.1-0.8,0.1-1.4,0-1.9c0-0.3-0.1-0.5-0.2-0.7
					c-0.1-0.2-0.3-0.4-0.6-0.7c-0.3-0.2-0.9-0.5-1.9-1c-1.7-0.7-3.7-1.4-5.8-2c-2-0.6-3.9-1-5.6-1.2c-1.4-0.1-2.6,0-3.5,0.4
					c-0.4,0.2-0.5,0.7-0.4,1.7l0,0.1l0,0.1c-0.1,4-0.2,8.4-0.3,13.5c-0.1,5-0.3,10.2-0.6,15.5c-0.3,5.2-0.7,10.4-1.3,15.4
					c-0.5,5-1.3,9.5-2.1,13.5c-0.9,4-2,7.3-3.4,9.8c-1.7,3-3.8,4.5-6.4,4.2c-1.5-0.2-3.6-1-4.9-4.2c-0.9-2-1.5-4.6-1.8-7.7
					c-0.3-3-0.5-6.4-0.4-10.3c0-3.8,0.2-7.7,0.5-11.7c0.3-4,0.7-8,1.1-11.9c0.5-3.9,0.9-7.6,1.4-11c0.3-3-0.9-5.2-3.9-6.7
					c-1.7-0.9-3.4-1.6-5.2-2.1c-1.7-0.5-3.5-0.9-5.3-1.2C189.8,164.6,189.1,164.6,188.6,164.6z"/>
			</g>
		</g>
	</g>
	<g>
		<g>
			<g>
				<path class="st4" d="M284.5,171.9c0.5-8.1,1.1-15.7,1.8-22.6c0.2-1.9,0.8-3.1,1.7-3.7c0.9-0.6,2.4-0.8,4.5-0.7
					c1,0.1,1.8,0.2,2.6,0.2c0.8,0.1,1.5,0.2,2.3,0.4c0.8,0.2,1.6,0.4,2.5,0.7c0.9,0.3,1.9,0.7,3.1,1.2c2,0.8,3.2,1.8,3.6,2.9
					c0.4,1.1,0.5,2.5,0.3,4.2c-0.7,4.8-1.3,10.2-1.9,16.3c-0.6,6.1-1.1,12.2-1.7,18.5c-0.5,6.2-1,12.3-1.4,18.3
					c-0.4,5.9-0.8,11.2-1.1,15.6c0,2.4-1.7,3.5-5.2,3.3c-2.9-0.1-6-0.4-9.1-1c-2.9-0.6-5.1-2.1-6.7-4.6c-1.2-1.8-2.4-3.8-3.7-6.2
					c-1.3-2.4-2.7-5-4.1-7.7c-1.4-2.8-2.8-5.7-4.3-8.7c-1.5-3-2.8-6.1-4.2-9.2c0,3.9-0.1,7.9-0.2,11.8c-0.1,3.9-0.2,7.7-0.2,11.3
					c-0.1,3.6-0.1,6.9-0.2,10c0,3.1,0,5.8,0,8c-0.1,1.1-0.4,1.8-0.9,2.2c-0.5,0.4-1.6,0.5-3.3,0.3c-1.5-0.1-3.1-0.3-4.7-0.4
					c-1.6-0.2-3.1-0.5-4.7-1.2c-1.5-0.5-2.5-1.1-3.1-1.9c-0.6-0.8-1-2-1.1-3.7c-0.2-1.7-0.3-4.1-0.6-7.2c-0.2-3.1-0.4-6.7-0.6-10.7
					c-0.2-4-0.4-8.3-0.5-12.9c-0.2-4.6-0.3-9.1-0.3-13.7c-0.1-4.6-0.1-9,0-13.2c0-4.3,0.1-8,0.3-11.4c0.1-1.9,0.7-3.2,1.7-3.9
					c1-0.6,2.6-0.9,4.5-0.7c2.4,0.3,4.7,0.6,7,0.9c2.3,0.3,4.7,0.8,7.2,1.6c2,0.5,3.6,1.3,4.6,2.3c1,1.1,1.9,2.7,2.6,5
					c0.6,1.7,1.4,4,2.3,6.7c1,2.7,2,5.6,3.2,8.8c1.2,3.1,2.4,6.4,3.6,9.7c1.2,3.3,2.5,6.5,3.7,9.5
					C283.7,188.2,283.9,180,284.5,171.9z"/>
			</g>
		</g>
		<g>
			<g>
				<path d="M260.2,234.9c-0.5,0-1,0-1.6-0.1c-1.5-0.1-3.1-0.3-4.7-0.4c-1.7-0.2-3.5-0.6-5.2-1.3c-1.8-0.6-3.2-1.4-4-2.6
					c-0.8-1.1-1.3-2.7-1.5-4.7c-0.2-1.7-0.3-4.1-0.6-7.3c-0.2-3.2-0.4-6.8-0.6-10.8c-0.2-4-0.4-8.3-0.5-12.9
					c-0.2-4.6-0.3-9.3-0.3-13.7c-0.1-4.6-0.1-9.1,0-13.3c0-4.3,0.1-8.1,0.3-11.4c0.2-2.6,1.1-4.4,2.7-5.4c1.4-0.9,3.3-1.2,5.8-1
					c2.5,0.3,4.8,0.6,7.1,0.9c2.3,0.3,4.8,0.9,7.4,1.6c2.4,0.6,4.3,1.6,5.5,2.9c1.2,1.3,2.2,3.2,3.1,5.8c0.6,1.7,1.4,3.9,2.3,6.6
					c0.9,2.7,2,5.6,3.2,8.7c1.1,3,2.3,6.1,3.5,9.3c0.1-4.8,0.3-9.5,0.6-14.2c0.5-8.1,1.1-15.7,1.8-22.6c0.3-2.5,1.1-4.2,2.6-5.2
					c1.3-0.8,3.2-1.2,5.7-1c1,0.1,1.8,0.2,2.6,0.2c0.9,0.1,1.8,0.2,2.6,0.4c0.8,0.2,1.7,0.5,2.6,0.8c0.9,0.3,2,0.7,3.2,1.3
					c2.5,1,4,2.4,4.6,4c0.5,1.4,0.6,3.1,0.4,5.1c-0.7,4.8-1.3,10.2-1.9,16.2c-0.6,6-1.1,12.2-1.7,18.4c-0.5,6.1-1,12.3-1.4,18.3
					c-0.4,5.9-0.8,11.1-1.1,15.6c0,1.8-0.8,3-1.4,3.6c-1.1,1.1-2.8,1.7-5,1.7c-0.3,0-0.5,0-0.8,0c-3-0.1-6.1-0.4-9.3-1
					c-3.5-0.7-6.1-2.6-8-5.5c-1.2-1.8-2.5-3.9-3.8-6.3c-1.3-2.4-2.7-5-4.1-7.8c-1.4-2.8-2.9-5.7-4.3-8.7c-0.2-0.4-0.4-0.8-0.5-1.1
					c0,1,0,2-0.1,3l-0.2,11.3c-0.1,3.6-0.1,6.9-0.2,10c0,3,0,5.7,0,8l0,0.1l0,0.1c-0.1,1.7-0.7,2.9-1.7,3.7
					C262.6,234.6,261.6,234.9,260.2,234.9z M248.4,153.9c-1,0-1.8,0.2-2.3,0.5c-0.4,0.3-0.7,1.1-0.8,2.3c-0.1,3.2-0.2,7-0.3,11.3
					c0,4.2,0,8.6,0,13.2c0.1,4.5,0.2,9,0.3,13.7c0.2,4.5,0.3,8.9,0.5,12.8c0.2,3.9,0.4,7.5,0.6,10.6c0.2,3.1,0.4,5.5,0.6,7.2
					c0.1,1.6,0.5,2.3,0.7,2.7c0.2,0.3,0.8,0.8,2.1,1.2l0.2,0.1c1.4,0.6,2.8,0.9,4.2,1c1.6,0.1,3.1,0.3,4.7,0.4c1,0.1,1.6,0.1,1.9,0
					c0-0.1,0.1-0.3,0.1-0.6c-0.1-2.3-0.1-5,0-8c0-3.1,0.1-6.4,0.2-10l0.2-11.3c0.1-3.9,0.1-7.9,0.2-11.8l0.1-9.3l3.7,8.5
					c1.3,3,2.7,6,4.1,9.1c1.4,3,2.9,5.9,4.3,8.7c1.4,2.7,2.7,5.3,4.1,7.7c1.3,2.3,2.5,4.4,3.7,6.1c1.3,2.1,3.1,3.3,5.4,3.8
					c3,0.5,5.9,0.8,8.8,0.9c0.3,0,0.5,0,0.7,0c1.6,0,2.1-0.4,2.2-0.5c0.1-0.1,0.2-0.2,0.2-0.8l0-0.1l0-0.1c0.3-4.5,0.6-9.8,1.1-15.7
					c0.4-6,0.9-12.2,1.5-18.3c0.5-6.2,1.1-12.4,1.7-18.5c0.6-6,1.2-11.5,1.9-16.4c0.2-1.4,0.1-2.4-0.2-3.2c-0.1-0.2-0.5-0.9-2.5-1.7
					c-1.1-0.5-2.1-0.9-2.9-1.2c-0.8-0.3-1.6-0.5-2.3-0.7c-0.7-0.2-1.3-0.3-2-0.3c-0.8-0.1-1.7-0.1-2.6-0.2c-0.4,0-0.7,0-1.1,0
					c-1.4,0-2,0.2-2.2,0.4c-0.1,0.1-0.6,0.5-0.8,2.2c-0.7,6.8-1.3,14.4-1.8,22.5c-0.5,8.1-0.7,16.3-0.6,24.5l0.1,10.7l-4-10
					c-1.2-3-2.4-6.2-3.7-9.6c-1.2-3.3-2.5-6.6-3.6-9.7c-1.2-3.1-2.2-6.1-3.2-8.8c-1-2.7-1.7-4.9-2.3-6.7c-0.7-2-1.4-3.5-2.2-4.3
					c-0.7-0.8-1.9-1.4-3.6-1.8l-0.1,0c-2.4-0.7-4.8-1.2-6.9-1.5c-2.3-0.3-4.6-0.6-7-0.9C249.1,154,248.7,153.9,248.4,153.9z"/>
			</g>
		</g>
	</g>
	<g>
		<g>
			<g>
				<path class="st3" d="M424.1,211c4.5-0.3,8.5-0.5,11.8-0.6c2.4-0.1,4.3,0.2,5.9,1c1.5,0.8,3,2.1,4.3,4c1.2,1.6,2.4,3.4,3.5,5.3
					c1.1,2,1.9,3.8,2.4,5.3c0.8,1.9,0.9,3.1,0.2,3.8c-0.7,0.6-2.2,1.1-4.6,1.4c-3.7,0.2-8,0.6-12.9,1.1c-4.9,0.5-9.8,1.1-14.8,1.7
					c-5,0.6-9.7,1.3-14.2,2c-4.5,0.7-8.3,1.4-11.3,2c-2.3,0.4-4.1,0.7-5.6,0.7c-1.4,0.1-2.7,0-3.6-0.2c-1-0.2-1.8-0.5-2.6-0.9
					c-0.7-0.4-1.4-0.9-2.2-1.6c-0.9-0.6-2-1.4-3.1-2.4c-1.1-0.9-2.3-1.9-3.4-3c-1.1-1-2.2-2.1-3.3-3.2c-1.1-1.1-2-2.1-2.9-3.1
					c-0.7-0.7-1.4-1.6-1.9-2.5c-0.6-0.9-1-1.9-1.2-2.9c-0.2-1-0.1-2,0.2-2.9c0.4-0.9,1.2-1.9,2.4-2.8c5.5-4.1,11.2-8.9,17.2-14.4
					c6-5.5,11.8-11.2,17.5-17c5.7-5.8,11-11.6,15.9-17.4c5-5.8,9.1-11,12.5-15.8c3.4-4.8,5.8-8.8,7.2-12c1.4-3.2,1.4-5.3,0.1-6.3
					c-1.2-0.9-2.8-1.1-4.8-0.6c-2,0.6-4.1,1.6-6.5,3.2c-2.4,1.6-4.9,3.5-7.6,5.9c-2.7,2.4-5.3,4.8-7.9,7.3c-2,1.5-4.1,2.6-6.5,3.3
					c-2.4,0.7-4.8,1.2-7.4,1.3c-2.5,0.1-5.1,0-7.7-0.4c-2.6-0.4-5-1-7.3-1.8c-1.3-0.4-2.5-1-3.3-1.7c-0.9-0.7-1.4-1.7-1.7-2.9
					c-0.3-1.2-0.1-2.7,0.4-4.5c0.5-1.8,1.4-4,2.8-6.6c5-8.4,11-15.4,18.3-21.1c7.2-5.7,15.1-9.3,23.7-10.9c5.1-0.9,9.8-1,14.3-0.1
					c4.5,0.9,8.6,2.3,12.4,4.2c3.8,1.9,7.1,4.2,9.9,6.9c2.8,2.7,5.1,5.3,6.7,7.8c2.2,3.8,3.6,7.4,4.2,10.8c0.6,3.5,0.6,6.9,0,10.3
					c-0.6,3.4-1.7,6.8-3.3,10.2c-1.6,3.4-3.5,6.9-5.8,10.4c-2.5,4.1-5.6,8.4-9.3,12.9c-3.7,4.5-7.8,9-12.2,13.5
					c-4.4,4.5-9,8.9-13.9,13c-4.9,4.2-9.7,8-14.4,11.5C415.2,211.8,419.5,211.3,424.1,211z"/>
			</g>
		</g>
		<g>
			<g>
				<path class="st3" d="M416.2,211.2c4.5-0.3,8.5-0.5,11.8-0.6c2.4-0.1,4.3,0.2,5.9,1c1.5,0.8,3,2.1,4.3,4c1.2,1.6,2.4,3.4,3.5,5.3
					c1.1,2,1.9,3.8,2.4,5.3c0.8,1.9,0.9,3.1,0.2,3.8c-0.7,0.6-2.2,1.1-4.6,1.4c-3.7,0.2-8,0.6-12.9,1.1c-4.9,0.5-9.8,1.1-14.8,1.7
					c-5,0.6-9.7,1.3-14.2,2c-4.5,0.7-8.3,1.4-11.3,2c-2.3,0.4-4.1,0.7-5.6,0.7c-1.4,0.1-2.7,0-3.6-0.2c-1-0.2-1.8-0.5-2.6-0.9
					c-0.7-0.4-1.4-0.9-2.2-1.6c-0.9-0.6-2-1.4-3.1-2.4c-1.1-0.9-2.3-1.9-3.4-3c-1.1-1-2.2-2.1-3.3-3.2c-1.1-1.1-2-2.1-2.9-3.1
					c-0.7-0.7-1.4-1.6-1.9-2.5c-0.6-0.9-1-1.9-1.2-2.9c-0.2-1-0.1-2,0.2-2.9c0.4-0.9,1.2-1.9,2.4-2.8c5.5-4.1,11.2-8.9,17.2-14.4
					c6-5.5,11.8-11.2,17.5-17c5.7-5.8,11-11.6,15.9-17.4c5-5.8,9.1-11,12.5-15.8c3.4-4.8,5.8-8.8,7.2-12c1.4-3.2,1.4-5.3,0.1-6.3
					c-1.2-0.9-2.8-1.1-4.8-0.6c-2,0.6-4.1,1.6-6.5,3.2c-2.4,1.6-4.9,3.5-7.6,5.9c-2.7,2.4-5.3,4.8-7.9,7.3c-2,1.5-4.1,2.6-6.5,3.3
					c-2.4,0.7-4.8,1.2-7.4,1.3c-2.5,0.1-5.1,0-7.7-0.4c-2.6-0.4-5-1-7.3-1.8c-1.3-0.4-2.5-1-3.3-1.7c-0.9-0.7-1.4-1.7-1.7-2.9
					c-0.3-1.2-0.1-2.7,0.4-4.5c0.5-1.8,1.4-4,2.8-6.6c5-8.4,11-15.4,18.3-21.1c7.2-5.7,15.1-9.3,23.7-10.9c5.1-0.9,9.8-1,14.3-0.1
					c4.5,0.9,8.6,2.3,12.4,4.2c3.8,1.9,7.1,4.2,9.9,6.9c2.8,2.7,5.1,5.3,6.7,7.8c2.2,3.8,3.6,7.4,4.2,10.8c0.6,3.5,0.6,6.9,0,10.3
					c-0.6,3.4-1.7,6.8-3.3,10.2c-1.6,3.4-3.5,6.9-5.8,10.4c-2.5,4.1-5.6,8.4-9.3,12.9c-3.7,4.5-7.8,9-12.2,13.5
					c-4.4,4.5-9,8.9-13.9,13c-4.9,4.2-9.7,8-14.4,11.5C407.2,212,411.6,211.5,416.2,211.2z"/>
			</g>
		</g>
	</g>
	<g>
		<g>
			<path d="M412.7,208.2c4.5-0.3,8.5-0.5,11.8-0.6c2.4-0.1,4.3,0.2,5.9,1c1.5,0.8,3,2.1,4.3,3.9c1.2,1.5,2.4,3.3,3.5,5.3
				c1.1,2,1.9,3.7,2.4,5.3c0.8,1.9,0.9,3.1,0.2,3.7c-0.7,0.6-2.2,1.1-4.6,1.4c-3.7,0.2-8,0.6-12.9,1.1c-4.9,0.5-9.8,1.1-14.8,1.7
				c-5,0.6-9.7,1.3-14.2,2c-4.5,0.7-8.3,1.4-11.3,2c-2.3,0.4-4.1,0.6-5.6,0.7c-1.4,0.1-2.7,0-3.6-0.2c-1-0.2-1.8-0.5-2.6-0.9
				c-0.7-0.4-1.4-0.9-2.2-1.5c-0.9-0.6-2-1.4-3.1-2.3c-1.1-0.9-2.3-1.9-3.4-2.9c-1.1-1-2.2-2.1-3.3-3.2c-1.1-1.1-2-2.1-2.9-3
				c-0.7-0.7-1.4-1.5-1.9-2.5c-0.6-0.9-1-1.9-1.2-2.9c-0.2-1-0.1-1.9,0.2-2.9c0.4-0.9,1.2-1.9,2.4-2.8c5.5-4,11.2-8.7,17.2-14.2
				c6-5.4,11.8-11,17.5-16.7c5.7-5.7,11-11.4,15.9-17.1c5-5.7,9.1-10.9,12.5-15.6c3.4-4.7,5.8-8.6,7.2-11.8c1.4-3.2,1.4-5.3,0.1-6.2
				c-1.2-0.9-2.8-1.1-4.8-0.5c-2,0.6-4.1,1.6-6.5,3.2c-2.4,1.5-4.9,3.5-7.6,5.8c-2.7,2.3-5.3,4.7-7.9,7.2c-2,1.4-4.1,2.5-6.5,3.3
				c-2.4,0.7-4.8,1.1-7.4,1.2c-2.5,0.1-5.1,0-7.7-0.4c-2.6-0.4-5-1-7.3-1.8c-1.3-0.4-2.5-1-3.3-1.7c-0.9-0.7-1.4-1.7-1.7-2.9
				c-0.3-1.2-0.1-2.7,0.4-4.4c0.5-1.8,1.4-3.9,2.8-6.5c5-8.3,11-15.2,18.3-20.8c7.2-5.6,15.1-9.2,23.7-10.8c5.1-0.9,9.8-1,14.3-0.1
				c4.5,0.9,8.6,2.3,12.4,4.2c3.8,1.9,7.1,4.2,9.9,6.8c2.8,2.6,5.1,5.2,6.7,7.7c2.2,3.7,3.6,7.3,4.2,10.7c0.6,3.4,0.6,6.8,0,10.1
				c-0.6,3.4-1.7,6.7-3.3,10.1c-1.6,3.4-3.5,6.8-5.8,10.3c-2.5,4-5.6,8.3-9.3,12.7c-3.7,4.4-7.8,8.9-12.2,13.3
				c-4.4,4.4-9,8.7-13.9,12.8c-4.9,4.1-9.7,7.9-14.4,11.3C403.7,209,408.1,208.5,412.7,208.2z"/>
			<path d="M376.5,239.2c-1.3,0-2.5-0.1-3.5-0.3c-1.3-0.3-2.5-0.7-3.6-1.3c-0.9-0.5-1.7-1.1-2.5-1.8c-1-0.7-2.1-1.5-3.2-2.4
				c-1.2-1-2.4-2-3.5-3.1c-1.2-1.1-2.3-2.2-3.4-3.3c-1.1-1.1-2.1-2.1-2.9-3.1c-0.9-0.9-1.7-1.9-2.4-3c-0.8-1.3-1.3-2.6-1.6-4
				c-0.3-1.7-0.2-3.3,0.4-4.9c0.6-1.6,1.8-3,3.6-4.3c5.4-3.9,11.1-8.6,16.9-14c5.9-5.4,11.8-10.9,17.4-16.6
				c5.6-5.7,10.9-11.4,15.8-16.9c4.9-5.6,9-10.7,12.3-15.3c3.2-4.5,5.5-8.2,6.8-11.2c0.5-1,0.6-1.7,0.7-2.2c-0.3,0-0.8,0-1.3,0.2
				c-1.6,0.5-3.5,1.4-5.6,2.7c-2.2,1.5-4.7,3.3-7.2,5.5c-2.6,2.3-5.2,4.7-7.8,7.1l-0.3,0.3c-2.3,1.7-4.8,2.9-7.6,3.8
				c-2.7,0.8-5.4,1.3-8.2,1.4c-2.7,0.1-5.5,0-8.3-0.4c-2.8-0.4-5.4-1-7.9-1.9c-1.7-0.5-3.2-1.3-4.4-2.3c-1.5-1.2-2.5-2.9-2.9-4.8
				c-0.4-1.8-0.2-3.8,0.5-6.1c0.6-2,1.6-4.3,3-7.1l0.1-0.2c5.2-8.6,11.6-15.9,19.1-21.8c7.6-5.9,16.1-9.8,25.2-11.4
				c5.4-1,10.7-1,15.6-0.1c4.8,0.9,9.3,2.4,13.3,4.5c4,2.1,7.6,4.5,10.7,7.4c3,2.8,5.5,5.6,7.3,8.3l0.1,0.2c2.4,4.1,3.9,8,4.6,11.8
				c0.7,3.8,0.7,7.6,0,11.4c-0.7,3.6-1.9,7.3-3.6,10.9c-1.7,3.5-3.7,7.1-6,10.7c-2.5,4.1-5.7,8.5-9.5,13c-3.8,4.5-7.9,9-12.3,13.5
				c-4.4,4.5-9.2,8.9-14.1,13.1c-1.5,1.2-2.9,2.5-4.4,3.6c0.2,0,0.4,0,0.6,0c4.5-0.3,8.5-0.5,11.9-0.6c0.3,0,0.6,0,0.9,0
				c2.6,0,4.8,0.5,6.6,1.4c2,1,3.9,2.7,5.6,5c1.3,1.7,2.6,3.6,3.8,5.7c1.1,2.1,2,4,2.6,5.7c1.8,4.1,0.6,6.4-0.7,7.6
				c-1.3,1.2-3.3,1.9-6.5,2.3l-0.3,0c-3.7,0.2-7.9,0.6-12.8,1.1c-5,0.5-9.9,1.1-14.7,1.7c-4.9,0.6-9.7,1.3-14.1,2
				c-4.4,0.7-8.2,1.4-11.1,2c-2.5,0.5-4.5,0.7-6.2,0.8C377.2,239.1,376.8,239.2,376.5,239.2z M428.3,126.1c2,1.4,3.7,4.3,1.1,10.4
				c-1.5,3.5-4,7.6-7.6,12.5c-3.5,4.8-7.7,10.1-12.7,15.8c-5,5.7-10.4,11.5-16.1,17.3c-5.7,5.7-11.6,11.4-17.6,16.9
				c-6.1,5.5-11.9,10.3-17.5,14.4c-1,0.8-1.2,1.2-1.2,1.2c-0.1,0.3-0.1,0.6-0.1,0.9c0.1,0.6,0.4,1.2,0.7,1.8
				c0.4,0.7,0.9,1.3,1.4,1.8l0.1,0.1c0.8,0.9,1.7,1.9,2.7,2.9c1,1,2.1,2.1,3.2,3.1c1.1,1,2.2,1.9,3.3,2.8c1,0.9,2,1.6,2.8,2.1
				l0.3,0.3c0.5,0.5,1.1,0.9,1.6,1.2c0.4,0.2,0.9,0.4,1.5,0.5c0.7,0.1,1.6,0.2,2.8,0.2c1.3,0,3-0.3,5.1-0.6c3-0.6,6.8-1.3,11.4-2
				c4.6-0.7,9.4-1.4,14.4-2c4.8-0.6,9.8-1.2,14.8-1.7c4.9-0.5,9.2-0.9,13-1.1c0.6-0.1,1.1-0.2,1.4-0.2l-0.1-0.3
				c-0.5-1.3-1.2-2.9-2.1-4.7c-1-1.8-2-3.4-3.2-4.8l-0.1-0.1c-1-1.4-2-2.4-3.1-2.9c-1-0.5-2.4-0.7-4.2-0.6
				c-3.3,0.1-7.2,0.3-11.7,0.6c-4.4,0.3-8.7,0.8-12.8,1.5l-14.9,2.5l12.3-8.8c4.6-3.3,9.4-7.1,14.2-11.1c4.7-4,9.3-8.3,13.6-12.6
				c4.3-4.3,8.3-8.8,12-13.1c3.6-4.3,6.6-8.4,9-12.3c2.2-3.4,4.1-6.8,5.6-10c1.5-3.1,2.5-6.2,3-9.2c0.5-2.9,0.5-5.9,0-8.9
				c-0.5-3-1.8-6.1-3.7-9.5c-1.5-2.2-3.6-4.6-6.1-7c-2.6-2.4-5.7-4.5-9.1-6.3c-3.5-1.8-7.3-3.1-11.5-3.9c-4-0.8-8.4-0.8-13,0.1
				c-8,1.4-15.4,4.8-22.2,10.1c-6.8,5.3-12.7,12-17.4,19.8c-1.2,2.3-2,4.3-2.5,5.8c-0.5,1.5-0.4,2.3-0.3,2.7
				c0.1,0.5,0.3,0.8,0.5,0.9c0.5,0.4,1.2,0.8,2.1,1.1l0.2,0.1c2,0.7,4.2,1.3,6.6,1.6c2.4,0.3,4.7,0.5,7,0.4c2.2-0.1,4.4-0.5,6.5-1.1
				c1.9-0.6,3.7-1.5,5.3-2.6c2.6-2.4,5.2-4.9,7.9-7.2c2.8-2.4,5.5-4.5,8-6.1c2.6-1.7,5.2-2.9,7.4-3.6
				C423.5,124.1,426.2,124.5,428.3,126.1z"/>
		</g>
	</g>
	<g>
		<g>
			<g>
				<path d="M323.1,138.9c3.2-1.3,6.6-2.3,10.3-3c3.6-0.7,7.3-1,11.1-1c3.8,0.1,7.5,0.7,11.1,2c3.6,1.2,6.9,3.1,10,5.7
					c3.1,2.6,5.7,6,7.9,10.4c1.8,3.4,3,7.2,3.6,11.4c0.5,4.1,0.4,8.4-0.4,12.8c-0.8,4.4-2.3,8.8-4.5,13.2c-2.2,4.4-5,8.5-8.5,12.4
					c-3.5,3.9-7.7,7.4-12.6,10.6c-4.9,3.2-10.5,5.7-16.7,7.7c-3.2,1.2-6.5,1-10.1-0.6c-1.8-0.9-3.3-1.7-4.7-2.6
					c-1.3-0.8-2.9-1.9-4.6-3.1c-0.6-0.6-1.3-1.1-1.8-1.7c-0.6-0.5-1.1-1.2-1.5-1.9c-0.4-0.7-0.7-1.6-0.9-2.6c-0.1-1-0.1-2.4,0-4
					l4-61.7C317.1,141.5,319.9,140.2,323.1,138.9z M341.3,197.9c3.4-3.1,6.3-6.3,8.5-9.7c2.2-3.3,3.8-6.7,4.9-10
					c1.1-3.3,1.6-6.4,1.8-9.3c0.2-3.9-0.3-7-1.5-9.2c-1.2-2.2-3.2-3.8-6-4.8c-2.9-1-6.3-0.8-10.4,0.6c-2,8.5-3.8,16.9-5.3,25.2
					c-1.5,8.3-2.9,16.6-4.3,25.1C333.7,203.6,337.8,201,341.3,197.9z"/>
			</g>
		</g>
		<g>
			<g>
				<path d="M330.1,222.2c-2,0-4-0.5-6.1-1.5c-1.8-0.9-3.4-1.7-4.7-2.6c-1.3-0.8-2.9-1.9-4.6-3.2c-0.7-0.6-1.3-1.1-1.9-1.7
					c-0.6-0.6-1.1-1.2-1.6-1.9c-0.4-0.7-0.8-1.7-0.9-2.7c-0.2-1.1-0.2-2.4,0-4.1l4.1-61.9l0.2-0.1c2.4-1.4,5.2-2.8,8.4-4.1
					c3.2-1.3,6.7-2.3,10.3-3c3.6-0.7,7.4-1,11.2-1c3.8,0.1,7.6,0.7,11.2,2c3.6,1.2,7,3.2,10.1,5.8c3.1,2.6,5.8,6.1,8,10.5
					c1.8,3.5,3.1,7.3,3.6,11.5c0.5,4.1,0.4,8.5-0.4,12.9c-0.8,4.4-2.3,8.9-4.5,13.3c-2.2,4.4-5.1,8.6-8.6,12.5
					c-3.5,3.9-7.8,7.5-12.7,10.7c-4.9,3.2-10.6,5.8-16.8,7.7C333,221.9,331.6,222.2,330.1,222.2z M315.1,143.2l-4,61.5
					c-0.1,1.6-0.1,2.9,0,3.9c0.1,1,0.4,1.8,0.8,2.4c0.4,0.7,0.9,1.3,1.4,1.8c0.6,0.5,1.2,1.1,1.8,1.6c1.7,1.2,3.2,2.3,4.5,3.1
					c1.3,0.8,2.9,1.7,4.6,2.5c3.4,1.6,6.7,1.8,9.8,0.6c6.2-1.9,11.8-4.5,16.6-7.6c4.8-3.1,9.1-6.7,12.5-10.5c3.5-3.9,6.3-8,8.5-12.3
					c2.1-4.3,3.6-8.7,4.4-13c0.8-4.3,0.9-8.6,0.4-12.6c-0.5-4.1-1.7-7.8-3.5-11.2c-2.1-4.3-4.8-7.7-7.8-10.3c-3-2.5-6.3-4.4-9.9-5.6
					c-3.5-1.2-7.2-1.9-11-1.9c-3.8-0.1-7.5,0.3-11.1,0.9c-3.6,0.7-7,1.7-10.2,2.9C320.1,140.5,317.4,141.8,315.1,143.2z
					 M328.3,206.6l0.1-0.7c1.4-8.4,2.8-16.8,4.3-25.1c1.5-8.3,3.3-16.7,5.3-25.2l0-0.2l0.2-0.1c4.1-1.5,7.7-1.7,10.6-0.6
					c2.9,1.1,5,2.7,6.3,5c1.2,2.2,1.7,5.4,1.6,9.4c-0.1,2.9-0.7,6-1.8,9.4c-1.1,3.3-2.7,6.7-4.9,10.1c-2.2,3.4-5.1,6.6-8.5,9.7
					c-3.5,3.1-7.7,5.8-12.5,8.1L328.3,206.6z M338.8,155.9c-2,8.4-3.7,16.8-5.2,25c-1.5,8-2.9,16.2-4.2,24.3
					c4.5-2.2,8.4-4.7,11.7-7.6c3.4-3.1,6.2-6.3,8.4-9.6c2.2-3.3,3.8-6.6,4.8-9.9c1-3.3,1.6-6.4,1.7-9.2c0.2-3.9-0.3-6.9-1.5-9
					c-1.1-2.1-3.1-3.6-5.8-4.6C345.9,154.4,342.6,154.6,338.8,155.9z"/>
			</g>
		</g>
	</g>
	<g>
		<g>
			<g>
				<path class="st4" d="M316,140.7c3.2-1.2,6.6-2.2,10.2-2.9c3.6-0.7,7.3-1,11.1-0.9c3.8,0.1,7.5,0.7,11,1.9c3.6,1.2,6.9,3,9.9,5.5
					c3.1,2.5,5.7,5.8,7.8,10.1c1.8,3.3,3,7,3.5,11c0.5,4,0.4,8.1-0.4,12.4c-0.8,4.2-2.3,8.5-4.4,12.7c-2.2,4.2-5,8.3-8.5,12
					c-3.5,3.8-7.7,7.2-12.6,10.3c-4.9,3.1-10.4,5.5-16.6,7.4c-3.2,1.2-6.5,1-10.1-0.6c-1.8-0.8-3.3-1.7-4.7-2.5
					c-1.3-0.8-2.9-1.8-4.6-3c-0.6-0.5-1.2-1.1-1.8-1.6c-0.6-0.5-1.1-1.1-1.5-1.8c-0.4-0.7-0.7-1.5-0.9-2.5c-0.1-1-0.1-2.3,0-3.9
					l4-59.7C310,143.3,312.8,142,316,140.7z M334.1,197.9c3.4-3,6.2-6.1,8.4-9.4c2.2-3.2,3.8-6.5,4.8-9.7c1-3.2,1.6-6.2,1.8-9
					c0.2-3.8-0.3-6.8-1.5-8.9c-1.2-2.1-3.2-3.6-6-4.6c-2.8-1-6.3-0.8-10.3,0.6c-2,8.3-3.7,16.4-5.2,24.4c-1.5,8-2.9,16.1-4.3,24.3
					C326.5,203.4,330.6,200.9,334.1,197.9z"/>
			</g>
		</g>
		<g>
			<g>
				<path d="M322.9,223c-2.2,0-4.4-0.5-6.7-1.6c-1.9-0.9-3.5-1.7-4.9-2.6c-1.4-0.8-2.9-1.9-4.7-3.1l-0.2-0.1
					c-0.6-0.6-1.3-1.1-1.9-1.6c-0.7-0.6-1.3-1.4-1.9-2.2c-0.6-0.9-0.9-2-1.1-3.3c-0.2-1.2-0.2-2.6,0-4.3l4.1-60.7l0.9-0.5
					c2.4-1.4,5.3-2.8,8.6-4c3.3-1.3,6.8-2.3,10.6-3c3.7-0.7,7.6-1,11.5-1c4,0.1,7.9,0.7,11.6,2c3.8,1.3,7.3,3.3,10.6,5.9
					c3.3,2.7,6.1,6.3,8.4,10.7c1.9,3.5,3.2,7.4,3.8,11.6c0.6,4.2,0.4,8.6-0.4,13c-0.8,4.4-2.4,8.9-4.6,13.3
					c-2.2,4.4-5.2,8.6-8.8,12.5c-3.6,3.9-8,7.4-13,10.6c-5,3.1-10.7,5.7-17,7.6C326.2,222.7,324.6,223,322.9,223z M309,212.6
					c1.6,1.2,3.1,2.1,4.4,2.9c1.3,0.8,2.8,1.6,4.5,2.4c3,1.4,5.9,1.6,8.5,0.5l0.1,0c6-1.8,11.5-4.3,16.2-7.2c4.7-3,8.8-6.3,12.2-9.9
					c3.4-3.6,6.1-7.5,8.2-11.6c2.1-4.1,3.5-8.2,4.3-12.2c0.8-4,0.9-8,0.4-11.7c-0.5-3.7-1.6-7.2-3.3-10.3c-2.1-4-4.5-7.2-7.4-9.5
					c-2.9-2.3-6-4.1-9.3-5.2c-3.4-1.1-6.9-1.7-10.4-1.8c-3.6-0.1-7.2,0.2-10.7,0.9c-3.5,0.7-6.8,1.6-9.9,2.8c-2.7,1-5.1,2.1-7.1,3.3
					l-4,58.7c-0.1,1.5-0.1,2.6,0,3.4c0.1,0.7,0.3,1.3,0.6,1.8c0.3,0.5,0.7,1,1.1,1.4C307.8,211.5,308.4,212,309,212.6z M319.1,208.9
					l0.6-3.7c1.4-8.1,2.8-16.3,4.3-24.3c1.5-8,3.3-16.3,5.3-24.5l0.3-1l1-0.4c4.5-1.6,8.4-1.8,11.6-0.6c3.3,1.2,5.7,3,7.1,5.5
					c1.4,2.4,2,5.7,1.8,9.9c-0.1,2.9-0.8,6.1-1.9,9.5c-1.1,3.4-2.8,6.8-5.1,10.2c-2.3,3.4-5.2,6.7-8.8,9.7
					c-3.6,3.1-7.9,5.8-12.9,8.1L319.1,208.9z M332.9,158.5c-1.9,7.8-3.5,15.6-5,23.2c-1.3,6.7-2.5,13.6-3.7,20.4
					c3.2-1.7,6.1-3.6,8.5-5.8c3.3-2.9,6-5.9,8.1-9c2.1-3.1,3.6-6.2,4.6-9.2c1-3,1.5-5.9,1.7-8.4c0.1-3.4-0.3-6.1-1.3-7.8
					c-0.9-1.7-2.6-2.9-5-3.7C338.7,157.4,336,157.5,332.9,158.5z"/>
			</g>
		</g>
	</g>
	<g>
		<g>
			<path class="st4" d="M407.4,209.1c4.5-0.3,8.5-0.5,11.8-0.6c2.4-0.1,4.3,0.2,5.9,1c1.5,0.8,3,2.1,4.3,3.9
				c1.2,1.5,2.4,3.3,3.5,5.3c1.1,2,1.9,3.7,2.4,5.3c0.8,1.9,0.9,3.1,0.2,3.7c-0.7,0.6-2.2,1.1-4.6,1.4c-3.7,0.2-8,0.6-12.9,1.1
				c-4.9,0.5-9.8,1.1-14.8,1.7c-5,0.6-9.7,1.3-14.2,2c-4.5,0.7-8.3,1.4-11.3,2c-2.3,0.4-4.1,0.6-5.6,0.7c-1.4,0.1-2.7,0-3.6-0.2
				c-1-0.2-1.8-0.5-2.6-0.9c-0.7-0.4-1.4-0.9-2.2-1.5c-0.9-0.6-2-1.4-3.1-2.3c-1.1-0.9-2.3-1.9-3.4-2.9c-1.1-1-2.2-2.1-3.3-3.2
				c-1.1-1.1-2-2.1-2.9-3c-0.7-0.7-1.4-1.5-1.9-2.5c-0.6-0.9-1-1.9-1.2-2.9c-0.2-1-0.1-1.9,0.2-2.9c0.4-0.9,1.2-1.9,2.4-2.8
				c5.5-4,11.2-8.7,17.2-14.2c6-5.4,11.8-11,17.5-16.7c5.7-5.7,11-11.4,15.9-17.1c5-5.7,9.1-10.9,12.5-15.6
				c3.4-4.7,5.8-8.6,7.2-11.8c1.4-3.2,1.4-5.3,0.1-6.2c-1.2-0.9-2.8-1.1-4.8-0.5c-2,0.6-4.1,1.6-6.5,3.2c-2.4,1.5-4.9,3.5-7.6,5.8
				c-2.7,2.3-5.3,4.7-7.9,7.2c-2,1.4-4.1,2.5-6.5,3.3c-2.4,0.7-4.8,1.1-7.4,1.2c-2.5,0.1-5.1,0-7.7-0.4c-2.6-0.4-5-1-7.3-1.8
				c-1.3-0.4-2.5-1-3.3-1.7c-0.9-0.7-1.4-1.7-1.7-2.9c-0.3-1.2-0.1-2.7,0.4-4.4c0.5-1.8,1.4-3.9,2.8-6.5c5-8.3,11-15.2,18.3-20.8
				c7.2-5.6,15.1-9.2,23.7-10.8c5.1-0.9,9.8-1,14.3-0.1c4.5,0.9,8.6,2.3,12.4,4.2c3.8,1.9,7.1,4.2,9.9,6.8c2.8,2.6,5.1,5.2,6.7,7.7
				c2.2,3.7,3.6,7.3,4.2,10.7c0.6,3.4,0.6,6.8,0,10.1c-0.6,3.4-1.7,6.7-3.3,10.1c-1.6,3.4-3.5,6.8-5.8,10.3c-2.5,4-5.6,8.3-9.3,12.7
				c-3.7,4.4-7.8,8.9-12.2,13.3c-4.4,4.4-9,8.7-13.9,12.8c-4.9,4.1-9.7,7.9-14.4,11.3C398.5,209.9,402.9,209.4,407.4,209.1z"/>
			<path d="M371.3,240.1c-1.3,0-2.5-0.1-3.5-0.3c-1.3-0.3-2.5-0.7-3.6-1.3c-0.9-0.5-1.7-1.1-2.5-1.8c-1-0.7-2.1-1.5-3.2-2.4
				c-1.2-1-2.4-2-3.5-3.1c-1.2-1.1-2.3-2.2-3.4-3.3c-1.1-1.1-2.1-2.1-2.9-3.1c-0.9-0.9-1.7-1.9-2.4-3c-0.8-1.3-1.3-2.6-1.6-4
				c-0.3-1.7-0.2-3.3,0.4-4.9c0.6-1.6,1.8-3,3.6-4.3c5.4-3.9,11.1-8.6,16.9-14c5.9-5.4,11.8-10.9,17.4-16.6
				c5.6-5.7,10.9-11.4,15.8-16.9c4.9-5.6,9-10.7,12.3-15.3c3.2-4.5,5.5-8.2,6.8-11.2c0.5-1,0.6-1.7,0.7-2.2c-0.3,0-0.8,0-1.3,0.2
				c-1.6,0.5-3.5,1.4-5.6,2.7c-2.2,1.5-4.7,3.3-7.2,5.5c-2.6,2.3-5.2,4.7-7.8,7.1l-0.3,0.3c-2.3,1.7-4.8,2.9-7.6,3.8
				c-2.7,0.8-5.4,1.3-8.2,1.4c-2.7,0.1-5.5,0-8.3-0.4c-2.8-0.4-5.4-1-7.9-1.9c-1.7-0.5-3.2-1.3-4.4-2.3c-1.5-1.2-2.5-2.9-2.9-4.8
				c-0.4-1.8-0.2-3.8,0.5-6.1c0.6-2,1.6-4.3,3-7.1l0.1-0.2c5.2-8.6,11.6-15.9,19.1-21.8c7.6-5.9,16.1-9.8,25.2-11.4
				c5.4-1,10.7-1,15.6-0.1c4.8,0.9,9.3,2.4,13.3,4.5c4,2.1,7.6,4.5,10.7,7.4c3,2.8,5.5,5.6,7.3,8.3l0.1,0.2c2.4,4.1,3.9,8,4.6,11.8
				c0.7,3.8,0.7,7.6,0,11.4c-0.7,3.6-1.9,7.3-3.6,10.9c-1.7,3.5-3.7,7.1-6,10.7c-2.5,4.1-5.7,8.5-9.5,13c-3.8,4.5-7.9,9-12.3,13.5
				c-4.4,4.5-9.2,8.9-14.1,13.1c-1.5,1.2-2.9,2.5-4.4,3.6c0.2,0,0.4,0,0.6,0c4.5-0.3,8.5-0.5,11.9-0.6c0.3,0,0.6,0,0.9,0
				c2.6,0,4.8,0.5,6.6,1.4c2,1,3.9,2.7,5.6,5c1.3,1.7,2.6,3.6,3.8,5.7c1.1,2.1,2,4,2.6,5.7c1.8,4.1,0.6,6.4-0.7,7.6
				c-1.3,1.2-3.3,1.9-6.5,2.3l-0.3,0c-3.7,0.2-7.9,0.6-12.8,1.1c-5,0.5-9.9,1.1-14.7,1.7c-4.9,0.6-9.7,1.3-14.1,2
				c-4.4,0.7-8.2,1.4-11.1,2c-2.5,0.5-4.5,0.7-6.2,0.8C371.9,240.1,371.6,240.1,371.3,240.1z M423.1,127c2,1.4,3.7,4.3,1.1,10.4
				c-1.5,3.5-4,7.6-7.6,12.5c-3.5,4.8-7.7,10.1-12.7,15.8c-5,5.7-10.4,11.5-16.1,17.3c-5.7,5.7-11.6,11.4-17.6,16.9
				c-6.1,5.5-11.9,10.3-17.5,14.4c-1,0.8-1.2,1.2-1.2,1.2c-0.1,0.3-0.1,0.6-0.1,0.9c0.1,0.6,0.4,1.2,0.7,1.8
				c0.4,0.7,0.9,1.3,1.4,1.8l0.1,0.1c0.8,0.9,1.7,1.9,2.7,2.9c1,1,2.1,2.1,3.2,3.1c1.1,1,2.2,1.9,3.3,2.8c1,0.9,2,1.6,2.8,2.1
				l0.3,0.3c0.5,0.5,1.1,0.9,1.6,1.2c0.4,0.2,0.9,0.4,1.5,0.5c0.7,0.1,1.7,0.2,2.8,0.2c1.3,0,3-0.3,5.1-0.6c3-0.6,6.8-1.3,11.4-2
				c4.6-0.7,9.4-1.4,14.4-2c4.8-0.6,9.8-1.2,14.8-1.7c4.9-0.5,9.2-0.9,13-1.1c0.6-0.1,1.1-0.2,1.4-0.2L432,225
				c-0.5-1.3-1.2-2.9-2.1-4.7c-1-1.8-2-3.4-3.2-4.8l-0.1-0.1c-1-1.4-2-2.4-3.1-2.9c-1-0.5-2.4-0.7-4.2-0.6
				c-3.3,0.1-7.2,0.3-11.7,0.6c-4.4,0.3-8.7,0.8-12.8,1.5l-14.9,2.5l12.3-8.8c4.6-3.3,9.4-7.1,14.2-11.1c4.7-4,9.3-8.3,13.6-12.6
				c4.3-4.3,8.3-8.8,12-13.1c3.6-4.3,6.6-8.4,9-12.3c2.2-3.4,4.1-6.8,5.6-10c1.5-3.1,2.5-6.2,3-9.2c0.5-2.9,0.5-5.9,0-8.9
				c-0.5-3-1.8-6.1-3.7-9.5c-1.5-2.2-3.6-4.6-6.1-7c-2.6-2.4-5.7-4.5-9.1-6.3c-3.5-1.8-7.3-3.1-11.5-3.9c-4-0.8-8.4-0.8-13,0.1
				c-8,1.4-15.4,4.8-22.2,10.1c-6.8,5.3-12.7,12-17.4,19.8c-1.2,2.3-2,4.3-2.5,5.8c-0.5,1.5-0.4,2.3-0.3,2.7
				c0.1,0.5,0.3,0.8,0.5,0.9c0.5,0.4,1.2,0.8,2.1,1.1l0.2,0.1c2,0.7,4.2,1.3,6.6,1.6c2.4,0.3,4.7,0.5,7,0.4c2.2-0.1,4.4-0.5,6.5-1.1
				c1.9-0.6,3.7-1.5,5.3-2.6c2.6-2.4,5.2-4.9,7.9-7.2c2.8-2.4,5.5-4.5,8-6.1c2.6-1.7,5.2-2.9,7.4-3.6C418.3,125,421,125.4,423.1,127
				z"/>
		</g>
	</g>
</g>
</svg>
