<?xml version="1.0" encoding="utf-8"?>
<!-- Generator: Adobe Illustrator 23.0.0, SVG Export Plug-In . SVG Version: 6.00 Build 0)  -->
<svg version="1.1" xmlns="http://www.w3.org/2000/svg" xmlns:xlink="http://www.w3.org/1999/xlink" x="0px" y="0px"
	 viewBox="0 0 532.2 360.4" style="enable-background:new 0 0 532.2 360.4;" xml:space="preserve">
<style type="text/css">
	.st0{fill-rule:evenodd;clip-rule:evenodd;fill:#231F20;}
	.st1{fill-rule:evenodd;clip-rule:evenodd;fill:#FEC919;}
	.st2{fill-rule:evenodd;clip-rule:evenodd;fill:#FFFFFF;}
	.st3{fill:#7F6350;}
	.st4{fill:#F90F1B;}
</style>
<g id="Layer_4">
	<g>
		<path class="st0" d="M63.2,82.2c20.7,13.9,38.1,17.6,43.2,7.6c20.5-3.7,28.8-21,31-49c26.8,14.4,47.6,18.1,46.2-3
			c30.8,12.1,39.5-0.7,37.4-27c6.1,25.7,16.3,34.6,18.7,6.8c30.3,29.3,52.8,22,79.5-17.6c9.6,39,23.5,45.7,48.3,7.6
			c0.5,42.3,11.9,39.8,33.5,2.9c-21.7,36.9-11.3,45.9,31.3,14.2C415,71.2,429.6,77,470.3,42.9c-40.7,34.1-41.6,40.7,10.9,13
			c-47.2,44.7-40.9,55.1,33.4,38.6c-70.9,40.8-73.8,54.6,12.3,54.6c-82.6,21.1-76.2,28.5,5.2,32.7c-89.8,3.6-91,17.1-14.4,47
			c-79.6-5.6-81.4,5.4-18.8,30.7c-62.6-25.3-76.4-14.1-33.6,32.8c-70.4-24.5-84.1-13.4-41.1,27.6c-32.2-34.8-46.8-35.6-42.7,11.6
			c-30.4-35.5-42.1-23-44.9,19.2c-33.6-33.3-58.3-36.9-85.5-4.3c-5.6-23.7-13.6-11.1-13.3,14.1c-0.3-25.2-10-35.5-36.5-20.4
			c-5-15.5-26.6-5.7-52.6,13.8c-17.5-38-52.2-37.5-71.9-17.7c19.7-19.9,17.6-34.3-21-21.3c17.2-21,25.2-35.1,21.8-40.3
			c-2.7-5.5-16.9-2.1-44.1,12c27.3-14.1,40.4-24.9,36.7-31.2c-1.6-7-20.1-9.6-55.8-7.2c33.6-17.3,49.8-29.7,46.2-36.9
			c1-7.8-17.8-10.3-54.4-7.9c73.2-4.8,40.3-24.5-6.2-34.7c44.8-1.8,36.2-23,8.8-34c35,6.9,50.9-1.4,24.8-27.1
			c28.2,5,46,5.5,49.5,0.8C90.6,105,83.9,96.1,63.2,82.2z"/>
		<path class="st1" d="M77.8,91.7c18.9,12.7,34.7,16,39.4,6.9c18.7-3.4,26.2-19.1,28.3-44.6c24.4,13.1,43.3,16.5,42.1-2.8
			c28.1,11,36-0.6,34-24.6c5.6,23.4,14.8,31.5,17.1,6.2c27.6,26.7,48.1,20.1,72.5-16c8.8,35.6,21.4,41.6,44,6.9
			c0.4,38.5,10.8,36.3,30.5,2.7c-19.7,33.6-10.3,41.8,28.5,13c-15.9,42.3-2.6,47.6,34.5,16.5c-37.1,31-37.9,37.1,10,11.9
			c-43,40.8-37.3,50.2,30.4,35.1c-64.6,37.2-67.2,49.7,11.2,49.8c-75.2,19.3-69.4,26,4.8,29.7c-81.8,3.3-82.9,15.5-13.1,42.8
			c-72.5-5.1-74.1,4.9-17.1,27.9c-57-23-69.6-12.9-30.6,29.9c-64.1-22.3-76.6-12.2-37.4,25.1c-29.3-31.7-42.6-32.4-38.9,10.6
			c-27.7-32.4-38.4-20.9-40.9,17.5c-30.6-30.3-53.1-33.7-77.9-3.9c-5.1-21.6-12.4-10.1-12.1,12.9c-0.2-23-9.1-32.3-33.2-18.5
			c-4.5-14.1-24.2-5.2-47.9,12.6c-15.9-34.6-47.5-34.2-65.5-16.1c17.9-18.1,16-31.3-19.1-19.4c15.6-19.1,23-32,19.8-36.7
			c-2.4-5-15.3-1.9-40.2,10.9c24.8-12.8,36.8-22.6,33.4-28.4c-1.5-6.4-18.3-8.7-50.8-6.6c30.6-15.8,45.4-27.1,42.1-33.6
			c0.9-7.1-16.2-9.4-49.6-7.2c66.7-4.4,36.7-22.3-5.6-31.6c40.8-1.6,33-20.9,8-31c31.9,6.3,46.3-1.2,22.6-24.7
			c25.7,4.5,41.9,5,45.1,0.7C102.8,112.4,96.7,104.4,77.8,91.7z"/>
		<path class="st2" d="M90.4,97.8c17.6,11.8,32.4,14.9,36.7,6.4c17.4-3.1,24.4-17.8,26.4-41.6c22.8,12.3,40.4,15.4,39.3-2.6
			c26.2,10.3,33.5-0.6,31.7-22.9c5.2,21.8,13.8,29.3,15.9,5.8c25.7,24.9,44.8,18.7,67.5-15c8.2,33.1,20,38.8,41,6.5
			c0.4,35.9,10.1,33.8,28.5,2.5c-18.4,31.3-9.6,39,26.5,12.1c-14.8,39.5-2.4,44.4,32.2,15.4c-34.6,28.9-35.3,34.6,9.3,11.1
			c-40.1,38-34.7,46.8,28.4,32.7c-60.2,34.6-62.7,46.4,10.4,46.4c-70.1,18-64.7,24.2,4.5,27.7c-76.3,3.1-77.3,14.5-12.2,39.9
			c-67.6-4.7-69.1,4.6-15.9,26c-53.2-21.5-64.9-12-28.6,27.8c-59.7-20.8-71.5-11.3-34.9,23.4c-27.3-29.5-39.7-30.2-36.3,9.9
			c-25.8-30.2-35.8-19.5-38.2,16.3c-28.6-28.3-49.5-31.4-72.6-3.7c-4.7-20.1-11.5-9.4-11.3,12c-0.2-21.4-8.5-30.1-31-17.3
			c-4.2-13.2-22.6-4.8-44.6,11.7c-14.9-32.3-44.3-31.9-61-15c16.7-16.9,14.9-29.1-17.8-18.1c14.6-17.8,21.4-29.8,18.5-34.2
			c-2.3-4.7-14.3-1.8-37.5,10.2c23.2-11.9,34.3-21.1,31.1-26.5c-1.4-5.9-17-8.1-47.4-6.1c28.5-14.7,42.3-25.2,39.2-31.3
			c0.9-6.6-15.1-8.8-46.2-6.7c62.2-4.1,34.2-20.8-5.2-29.4c38-1.5,30.7-19.5,7.4-28.9c29.7,5.8,43.2-1.2,21-23
			c24,4.2,39.1,4.7,42,0.7C113.7,117.2,108,109.7,90.4,97.8z"/>
	</g>
</g>
<g id="Layer_5">
	<g>
		<g>
			<g>
				<g>
					<g>
						<g>
							<path d="M420.9,144.5c0,0-0.4-0.1-1-0.3c-0.4-0.1-0.6-0.2-1-0.3c-0.4-0.1-0.9-0.2-1.4-0.3c-0.5-0.1-1.1-0.2-1.8-0.3
								c-0.6-0.1-1.3-0.2-2-0.2c-1.4-0.1-2.9-0.2-4.4-0.2c-1.5,0-3,0-4.5,0.1c-0.7,0-1.4,0.1-2.1,0.2c-0.7,0.1-1.3,0.2-1.8,0.2
								c-0.6,0.1-1.1,0.2-1.5,0.3c-0.5,0.1-0.9,0.2-1.2,0.3c-0.6,0.2-1,0.3-1,0.3s0.3-0.2,0.9-0.6c0.3-0.2,0.7-0.3,1.1-0.6
								c0.4-0.2,0.9-0.4,1.5-0.7c0.5-0.2,1.1-0.5,1.8-0.7c0.6-0.2,1.3-0.5,2-0.7c1.4-0.4,2.9-0.9,4.5-1.2c1.5-0.4,3.1-0.7,4.6-0.9
								c0.7-0.1,1.5-0.2,2.2-0.3c0.7-0.1,1.4-0.2,2-0.2c0.6,0,1.2-0.1,1.7-0.1c0.5,0,1.1,0,1.4,0c0.7,0,1.1,0,1.1,0L420.9,144.5z"/>
						</g>
					</g>
				</g>
			</g>
		</g>
	</g>
	<g>
		<g>
			<g>
				<g>
					<g>
						<g>
							<path d="M87.9,251.5c0,0,0.4,0,1.1-0.1c0.4,0,0.7-0.1,1.1-0.1c0.4,0,1-0.1,1.5-0.2c1.1-0.2,2.5-0.5,3.9-0.8
								c1.4-0.4,3-0.8,4.5-1.3c3.1-1,6.1-2.2,8.3-3.2c0.5-0.3,1-0.5,1.5-0.8c0.4-0.3,0.8-0.5,1.1-0.7c0.6-0.4,0.9-0.6,0.9-0.6
								s-0.3,0.3-0.8,0.8c-0.3,0.3-0.6,0.6-0.9,0.9c-0.4,0.3-0.8,0.7-1.3,1.1c-1.9,1.6-4.7,3.5-7.5,5.2c-1.4,0.9-2.9,1.7-4.3,2.4
								c-1.4,0.7-2.8,1.3-4,1.8c-0.6,0.2-1.1,0.5-1.7,0.6c-0.5,0.2-1.1,0.4-1.4,0.5c-0.7,0.2-1.1,0.3-1.1,0.3L87.9,251.5z"/>
						</g>
					</g>
				</g>
			</g>
		</g>
	</g>
	<g>
		<g>
			<g>
				<g>
					<g>
						<path class="st3" d="M96.2,262.1c-0.1,3.7-0.3,7.3-0.4,10.9c-0.1,1.1-0.5,1.8-0.9,2.2c-0.5,0.4-1.5,0.6-2.9,0.5
							c-1.7-0.2-3.3-0.3-4.6-0.3c-1.3,0-2.7-0.3-3.9-0.7c-1.3-0.5-2.2-1.2-2.8-2.1c-0.6-0.9-1-2.2-1.1-3.9c-0.1-1.4-0.2-3.3-0.4-5.9
							c-0.2-2.6-0.4-5.5-0.6-8.8c-0.2-3.3-0.4-6.8-0.6-10.6c-0.2-3.8-0.4-7.5-0.5-11.3c-0.1-3.8-0.2-7.4-0.2-11
							c0-3.6,0.1-6.8,0.3-9.7c0.2-2.9,0.5-5.3,0.9-7.2c0.5-1.9,1-3.2,1.8-3.8c3.6-2.4,7.3-4.9,11.2-7.3c3.9-2.4,7.8-4.4,11.8-5.8
							c3.9-1.4,7.8-2.1,11.5-2.2c3.7,0,7.2,1.1,10.3,3.4c2.6,2.1,4.9,4.3,7.2,6.8c2.2,2.5,4.1,5.6,5.8,9.5c1.5,4.1,1.7,7.7,0.8,10.7
							c-1.5,4.8-4.4,9.4-8.8,14c-4.4,4.5-9.8,9-16.2,13.4c1.7,1.4,3.5,2.9,5.5,4.5c2,1.6,4,3.1,6.1,4.7c2.1,1.5,4.2,3,6.2,4.4
							c2,1.4,3.9,2.6,5.7,3.6c1.4,0.9,2.1,1.6,2.1,2.3c0,0.7-0.4,1.4-1.3,2.3c-1,1.1-1.8,1.8-2.6,2.1c-0.7,0.3-1.7,0.6-2.8,1
							c-1.3,0.6-2.8,1-4.5,1.1c-1.7,0.1-3.7-0.3-6.1-1.3c-1.6-0.8-3.4-1.8-5.5-3c-2.1-1.2-4.3-2.6-6.6-4.1c-2.3-1.5-4.6-3.1-6.9-4.8
							c-2.3-1.7-4.4-3.4-6.4-5.2C96.5,254.5,96.3,258.4,96.2,262.1z M99.3,220.9c-0.3,3.9-0.8,8-1.3,12.4c4-2.2,7.5-4.6,10.5-7.3
							c3-2.7,5.4-5.3,7.3-7.9c1.9-2.6,3.2-4.9,3.8-7.1c0.7-2.1,0.7-3.7,0.2-4.7c-1-1.7-3.4-2.2-7-1.6c-1.8,0.3-3.7,0.9-5.8,1.7
							c-2.1,0.8-4.3,2-6.5,3.7C100,213.4,99.6,217,99.3,220.9z"/>
					</g>
				</g>
			</g>
		</g>
		<g>
			<g>
				<g>
					<g>
						<path class="st3" d="M92.6,276.1c-0.2,0-0.4,0-0.7,0c-1.7-0.2-3.3-0.3-4.6-0.3c-1.4,0-2.7-0.3-4.1-0.7c-1.4-0.5-2.4-1.3-3-2.3
							c-0.6-1-1-2.3-1.2-4.1c-0.1-1.4-0.2-3.3-0.4-5.9c-0.2-2.6-0.4-5.5-0.6-8.8c-0.2-3.3-0.4-6.9-0.6-10.6
							c-0.2-3.8-0.4-7.6-0.5-11.3c-0.1-3.8-0.2-7.5-0.2-11c0-3.6,0.1-6.8,0.3-9.7c0.2-2.9,0.5-5.3,0.9-7.3c0.5-2.1,1.1-3.4,1.9-4
							c3.6-2.4,7.3-4.9,11.2-7.3c3.9-2.4,7.9-4.4,11.8-5.8c4-1.4,7.9-2.2,11.6-2.2c3.8,0,7.4,1.2,10.6,3.5c2.6,2.1,5,4.4,7.2,6.8
							c2.2,2.5,4.2,5.7,5.8,9.6c1.5,4.2,1.8,7.9,0.8,11c-1.5,4.8-4.5,9.6-8.9,14.1c-4.3,4.4-9.6,8.9-15.9,13.1
							c1.6,1.3,3.3,2.7,5.1,4.1c2,1.5,4,3.1,6.1,4.6c2.1,1.5,4.1,3,6.2,4.4c2,1.4,3.9,2.6,5.7,3.6c1.6,1,2.3,1.8,2.3,2.7
							c0,0.8-0.5,1.6-1.4,2.5c-1,1.1-1.9,1.8-2.7,2.2c-0.8,0.3-1.7,0.6-2.8,1c-1.3,0.6-2.8,1-4.6,1.1c-1.7,0.1-3.8-0.3-6.3-1.3
							c-1.6-0.8-3.5-1.8-5.6-3c-2.1-1.2-4.3-2.6-6.6-4.1c-2.3-1.5-4.6-3.1-6.9-4.8c-2.1-1.5-4-3.1-5.8-4.6
							c-0.2,3.7-0.4,7.3-0.5,10.8c-0.1,3.7-0.3,7.3-0.4,10.9c-0.2,1.2-0.5,2-1.1,2.5C94.6,275.9,93.8,276.1,92.6,276.1z
							 M114.6,185.5c-3.7,0-7.5,0.7-11.4,2.1c-3.9,1.4-7.8,3.3-11.7,5.8c-3.9,2.4-7.6,4.9-11.2,7.3c-0.6,0.5-1.2,1.7-1.6,3.6
							c-0.4,1.9-0.8,4.3-0.9,7.2c-0.2,2.9-0.3,6.1-0.3,9.6c0,3.5,0.1,7.2,0.2,11c0.1,3.7,0.3,7.5,0.5,11.3c0.2,3.7,0.4,7.2,0.6,10.6
							c0.2,3.3,0.4,6.2,0.6,8.8c0.2,2.6,0.3,4.6,0.4,5.9c0.1,1.6,0.5,2.8,1,3.7c0.5,0.8,1.4,1.5,2.6,2c1.2,0.4,2.5,0.6,3.8,0.7
							c1.3,0,2.9,0.1,4.7,0.3c0.2,0,0.4,0,0.6,0c1.3,0,1.8-0.2,2-0.4c0.4-0.3,0.7-1,0.8-2c0.1-3.5,0.3-7.1,0.4-10.8
							c0.1-3.7,0.3-7.6,0.6-11.6l0-0.8l0.6,0.6c1.9,1.7,4,3.5,6.3,5.1c2.3,1.7,4.6,3.3,6.9,4.8c2.3,1.5,4.5,2.9,6.6,4.1
							c2.1,1.2,4,2.2,5.5,3c2.3,0.9,4.3,1.4,5.9,1.2c1.6-0.1,3.1-0.5,4.3-1.1c1.1-0.4,2-0.7,2.8-1c0.7-0.3,1.5-0.9,2.4-2
							c0.8-0.8,1.1-1.5,1.2-2c0-0.3-0.2-0.9-1.9-1.9c-1.7-1-3.7-2.2-5.7-3.7c-2.1-1.4-4.2-2.9-6.2-4.5c-2.1-1.5-4.2-3.1-6.2-4.7
							c-2-1.5-3.9-3-5.6-4.5l-0.4-0.3l0.4-0.3c6.4-4.3,11.8-8.8,16.2-13.3c4.3-4.5,7.3-9.1,8.7-13.8c1-2.9,0.7-6.4-0.8-10.4
							c-1.6-3.8-3.5-6.9-5.7-9.4c-2.2-2.4-4.6-4.7-7.1-6.7C121.6,186.6,118.2,185.5,114.6,185.5z M97.5,234l0.1-0.8
							c0.5-4.4,0.9-8.6,1.3-12.4c0.3-3.9,0.7-7.5,1.2-10.9l0-0.2l0.1-0.1c2.2-1.6,4.5-2.9,6.6-3.7c2.1-0.8,4.1-1.4,5.9-1.7
							c3.8-0.7,6.3-0.1,7.4,1.7c0.6,1.2,0.6,2.8-0.1,5.1c-0.7,2.2-2,4.6-3.9,7.2c-1.9,2.6-4.4,5.3-7.3,8c-3,2.7-6.5,5.2-10.6,7.4
							L97.5,234z M100.8,210.2c-0.5,3.3-0.9,7-1.2,10.7c-0.3,3.6-0.7,7.5-1.2,11.6c3.7-2.1,7-4.4,9.8-6.9c2.9-2.7,5.4-5.3,7.2-7.9
							c1.8-2.5,3.1-4.9,3.8-7c0.6-2,0.7-3.5,0.2-4.4c-0.9-1.5-3.2-1.9-6.6-1.3c-1.8,0.3-3.7,0.9-5.8,1.7
							C105.1,207.4,103,208.6,100.8,210.2z"/>
					</g>
				</g>
			</g>
		</g>
	</g>
	<g>
		<g>
			<g>
				<g>
					<g>
						<path class="st3" d="M192.7,185.9c1.4,2,2.6,4.4,3.6,7.1c1.4,4.5,2.4,9.6,2.9,15.1c0.5,5.5,0.5,11.1-0.1,16.7
							c-0.6,5.6-1.8,11.1-3.5,16.3c-1.7,5.2-4.2,9.8-7.3,13.7c-2.2,2.4-4.6,4.2-7.2,5.3c-2.6,1.1-5.7,1.8-9.3,2
							c-2.4,0.1-4.9,0.2-7.4,0c-2.6-0.1-5-0.5-7.2-1.3c-1.8-0.6-3.6-1.5-5.5-2.6c-1.8-1.1-3.4-2.5-4.6-4.1c-2-2.7-3.6-5.8-4.9-9.4
							c-1.3-3.6-2.3-7.4-2.9-11.5c-0.6-4.1-0.8-8.3-0.6-12.7c0.2-4.4,0.8-8.7,1.8-13c1-4.3,2.5-8.5,4.3-12.5c1.9-4,4.2-7.7,6.9-11.2
							c1.9-2.1,4.3-3.8,7.1-5.2c2.9-1.4,5.7-2.1,8.5-2.1c3.6,0,7.1,0.3,10.5,1c3.4,0.7,6.3,1.7,8.7,3
							C189.2,182.1,191.2,183.9,192.7,185.9z M169,195.1c-1.4,1.8-2.6,4.2-3.8,7.2c-1.2,3-2.2,6.2-3.1,9.7
							c-0.9,3.5-1.5,6.9-1.9,10.1c-0.4,3.1-0.5,6.4-0.4,9.6c0.1,3.3,0.5,6.3,1.1,9.1c0.6,2.8,1.4,5.1,2.4,6.9
							c1.1,1.9,2.3,2.9,3.8,3.1c1.4,0.2,2.7-0.3,4-1.6c1.3-1.3,2.4-3.1,3.5-5.4c1.1-2.3,2-5.2,2.8-8.5c0.8-3.3,1.3-6.9,1.7-10.7
							c0.3-3.1,0.4-6.5,0.4-10.2c-0.1-3.7-0.4-7.1-0.9-10.2c-0.5-3.2-1.2-5.9-2.2-8c-1-2.2-2.1-3.3-3.4-3.5
							C171.7,192.4,170.3,193.3,169,195.1z"/>
					</g>
				</g>
			</g>
		</g>
		<g>
			<g>
				<g>
					<g>
						<path class="st3" d="M167.7,262.7c-1.1,0-2.3,0-3.4-0.1c-2.6-0.1-5-0.6-7.3-1.3c-1.8-0.6-3.7-1.5-5.6-2.6
							c-1.9-1.1-3.4-2.6-4.7-4.2c-2-2.7-3.7-5.9-5-9.5c-1.3-3.6-2.3-7.5-2.9-11.6c-0.6-4.1-0.8-8.4-0.6-12.8
							c0.2-4.4,0.8-8.8,1.8-13.1c1-4.3,2.5-8.5,4.4-12.6c1.9-4,4.2-7.8,7-11.2c1.9-2.1,4.4-3.9,7.3-5.3c2.9-1.4,5.8-2.2,8.7-2.2
							l0.4,0c3.5,0,6.9,0.3,10.2,1c3.4,0.7,6.4,1.7,8.8,3.1c2.7,1.6,4.8,3.4,6.3,5.5c1.5,2,2.7,4.5,3.6,7.2
							c1.4,4.6,2.4,9.7,2.9,15.2c0.5,5.5,0.5,11.2-0.1,16.8c-0.6,5.6-1.8,11.1-3.5,16.4c-1.7,5.2-4.2,9.9-7.4,13.8
							c-2.2,2.4-4.7,4.3-7.3,5.4c-2.6,1.1-5.8,1.8-9.5,2.1C170.4,262.6,169.1,262.7,167.7,262.7z M167.7,176.9l-0.4,0
							c-2.7,0-5.5,0.7-8.3,2.1c-2.8,1.4-5.2,3.1-7,5.2c-2.7,3.4-5,7.1-6.9,11.1c-1.8,4-3.3,8.1-4.3,12.4c-1,4.2-1.6,8.6-1.8,13
							c-0.2,4.3,0,8.6,0.6,12.6c0.6,4.1,1.6,7.9,2.9,11.4c1.3,3.5,3,6.6,4.9,9.3c1.2,1.6,2.7,2.9,4.5,4c1.8,1.1,3.6,2,5.4,2.6
							c2.2,0.7,4.6,1.1,7.1,1.3c2.5,0.1,5,0.1,7.4,0c3.5-0.2,6.6-0.9,9.2-2c2.6-1.1,4.9-2.9,7-5.2c3.1-3.9,5.5-8.4,7.2-13.6
							c1.7-5.2,2.9-10.6,3.5-16.2c0.6-5.6,0.6-11.2,0.1-16.6c-0.5-5.5-1.5-10.5-2.9-15c-0.9-2.7-2.1-5-3.5-7c-1.4-2-3.4-3.7-6-5.3
							c-2.3-1.3-5.2-2.3-8.5-3C174.5,177.3,171.2,176.9,167.7,176.9z M167.8,251.2L167.8,251.2c-0.2,0-0.5,0-0.7-0.1
							c-1.6-0.2-3-1.3-4.1-3.3c-1.1-1.9-1.9-4.2-2.5-7c-0.6-2.8-0.9-5.8-1.1-9.1c-0.1-3.3,0-6.6,0.4-9.7c0.4-3.2,1-6.6,1.9-10.1
							c0.9-3.5,1.9-6.8,3.1-9.8c1.2-3,2.5-5.4,3.9-7.3c1.4-2,3-2.8,4.5-2.6c1.4,0.2,2.7,1.4,3.7,3.7c1,2.2,1.7,4.9,2.2,8.1
							c0.5,3.1,0.8,6.6,0.9,10.3c0.1,3.7,0,7.1-0.4,10.3c-0.3,3.8-0.9,7.4-1.7,10.7c-0.8,3.3-1.7,6.2-2.8,8.6
							c-1.1,2.4-2.3,4.2-3.6,5.5C170.3,250.6,169.1,251.2,167.8,251.2z M172.6,193c-1.1,0-2.2,0.8-3.3,2.3c-1.3,1.8-2.6,4.2-3.8,7.1
							c-1.2,2.9-2.2,6.2-3.1,9.7c-0.9,3.5-1.5,6.9-1.9,10c-0.4,3.1-0.5,6.3-0.4,9.6c0.1,3.3,0.5,6.3,1.1,9c0.6,2.7,1.4,5,2.4,6.8
							c1,1.7,2.2,2.7,3.5,2.9c0.2,0,0.4,0,0.6,0c1,0,2.1-0.5,3.1-1.5c1.2-1.2,2.4-3,3.4-5.3c1.1-2.3,2-5.1,2.8-8.4
							c0.8-3.3,1.3-6.9,1.7-10.6c0.3-3.1,0.4-6.5,0.4-10.2c-0.1-3.7-0.4-7.1-0.9-10.2c-0.5-3.1-1.2-5.8-2.2-7.9
							c-0.9-2-1.9-3.1-3.1-3.3C172.9,193,172.7,193,172.6,193z"/>
					</g>
				</g>
			</g>
		</g>
	</g>
	<g>
		<g>
			<g>
				<g>
					<g>
						<path class="st3" d="M203.9,237c-1.1-3-1.9-6.3-2.5-10c-0.6-3.7-1-7.7-1.1-11.9c-0.2-4.2-0.2-8.5-0.1-13
							c0.1-4.4,0.3-8.9,0.7-13.3c0.3-4.5,0.7-8.9,1.2-13.1c0.2-1.9,0.7-3.2,1.6-3.7c0.9-0.5,2.4-0.6,4.5-0.3c2,0.3,3.9,0.7,5.7,1.3
							c1.8,0.6,3.7,1.4,5.5,2.3c3.7,1.9,5.4,4.9,5,9c-0.5,3.5-0.9,7.2-1.4,11.3c-0.5,4-0.8,8.1-1.1,12.2c-0.3,4.1-0.5,8.1-0.5,12
							c0,3.9,0.1,7.3,0.4,10.3c0.3,3,0.9,5.5,1.7,7.4c0.8,1.9,1.9,2.9,3.3,3.1c1.7,0.2,3.3-0.9,4.5-3.3c1.3-2.4,2.3-5.6,3.2-9.5
							c0.9-4,1.6-8.5,2.1-13.7c0.5-5.1,1-10.4,1.3-15.8c0.3-5.4,0.5-10.7,0.6-15.9c0.1-5.2,0.2-9.8,0.3-13.9
							c-0.2-1.9,0.3-3.2,1.5-3.8c1.2-0.6,2.7-0.8,4.5-0.6c1.8,0.2,3.9,0.6,6,1.3c2.2,0.7,4.2,1.4,6,2.2c1,0.4,1.7,0.8,2.3,1.2
							s0.9,0.8,1.2,1.3c0.3,0.5,0.4,1,0.5,1.6c0,0.6,0,1.4,0,2.2c-0.4,9.4-0.9,18.1-1.6,26.1c-0.7,7.9-1.6,15-2.7,21.2
							c-1.2,6.2-2.7,11.5-4.5,15.9c-1.8,4.4-4.1,7.7-6.9,10c-2,1.5-4,2.6-6.1,3.4c-2.1,0.8-4.6,1.3-7.4,1.6
							c-5.6,0.6-10.4,0.1-14.3-1.3c-1.7-0.6-3.3-1.4-4.9-2.4c-1.6-1-3-2.3-4.3-3.9C206.4,242.5,205,240,203.9,237z"/>
					</g>
				</g>
			</g>
		</g>
		<g>
			<g>
				<g>
					<g>
						<path class="st3" d="M226.9,252.7c-3.7,0-7-0.5-9.9-1.6c-1.7-0.6-3.4-1.5-5-2.4c-1.6-1-3.1-2.3-4.4-4c-1.7-2-3.1-4.6-4.2-7.6
							c-1.1-3-1.9-6.4-2.5-10.1c-0.6-3.7-1-7.7-1.2-11.9c-0.2-4.2-0.2-8.6-0.1-13c0.1-4.4,0.3-8.9,0.7-13.3
							c0.3-4.4,0.7-8.9,1.2-13.1c0.2-2.1,0.8-3.4,1.8-4c1-0.6,2.6-0.7,4.8-0.3c1.9,0.3,3.9,0.7,5.8,1.3c1.9,0.6,3.7,1.4,5.5,2.3
							c3.9,2,5.6,5.1,5.2,9.4c-0.5,3.5-0.9,7.3-1.4,11.3c-0.5,4-0.8,8.1-1.1,12.2c-0.3,4.1-0.5,8.1-0.5,12c0,3.8,0.1,7.3,0.4,10.3
							c0.3,3,0.9,5.4,1.6,7.3c0.7,1.8,1.7,2.7,3,2.8c0.1,0,0.2,0,0.3,0c1.4,0,2.7-1.1,3.8-3.1c1.2-2.3,2.3-5.5,3.2-9.4
							c0.9-4,1.6-8.5,2.1-13.6c0.5-5.1,1-10.4,1.3-15.8c0.3-5.4,0.5-10.7,0.6-15.9c0.1-5.2,0.2-9.8,0.3-13.9
							c-0.2-2.1,0.4-3.5,1.7-4.1c1.2-0.6,2.8-0.8,4.7-0.7c1.9,0.2,3.9,0.6,6.1,1.3c2.2,0.7,4.2,1.4,6.1,2.2c1,0.4,1.8,0.9,2.3,1.3
							c0.6,0.4,1,0.9,1.3,1.4c0.3,0.5,0.5,1.1,0.5,1.8c0,0.6,0,1.4,0,2.3c-0.4,9.4-0.9,18.2-1.6,26.1c-0.7,7.9-1.6,15.1-2.7,21.3
							c-1.2,6.2-2.7,11.6-4.5,16c-1.9,4.4-4.2,7.8-7,10.2c-2,1.5-4.1,2.6-6.3,3.4c-2.1,0.8-4.6,1.3-7.5,1.6
							C229.9,252.6,228.4,252.7,226.9,252.7z M205.9,171.8c-0.9,0-1.6,0.1-2.1,0.4c-0.8,0.5-1.3,1.6-1.5,3.4
							c-0.5,4.3-0.9,8.7-1.2,13.1c-0.3,4.4-0.6,8.9-0.7,13.3c-0.1,4.4-0.1,8.7,0.1,12.9c0.2,4.2,0.6,8.2,1.1,11.8
							c0.6,3.7,1.4,7,2.5,10c1.1,2.9,2.4,5.4,4.1,7.4c1.2,1.6,2.6,2.9,4.2,3.8c1.5,1,3.1,1.8,4.8,2.4c3.8,1.4,8.6,1.8,14.2,1.3
							c2.8-0.3,5.2-0.8,7.3-1.6c2.1-0.8,4.1-1.9,6.1-3.3c2.7-2.2,4.9-5.6,6.8-9.9c1.8-4.3,3.3-9.7,4.5-15.8
							c1.2-6.2,2.1-13.3,2.7-21.2c0.7-7.9,1.2-16.7,1.6-26c0.1-0.8,0.1-1.6,0-2.2c0-0.6-0.2-1-0.4-1.5c-0.2-0.4-0.6-0.8-1.1-1.2
							c-0.5-0.4-1.2-0.8-2.2-1.2c-1.8-0.7-3.8-1.4-6-2.2c-2.1-0.7-4.1-1.1-6-1.3c-1.8-0.2-3.2,0-4.3,0.6c-1,0.5-1.4,1.6-1.3,3.4
							c-0.1,4.1-0.2,8.8-0.3,14c-0.1,5.2-0.3,10.5-0.6,15.9c-0.3,5.4-0.7,10.7-1.3,15.8c-0.5,5.1-1.2,9.7-2.1,13.7
							c-0.9,4-1.9,7.2-3.2,9.6c-1.3,2.5-3,3.7-4.9,3.5c-1.6-0.2-2.8-1.3-3.6-3.3c-0.8-1.9-1.4-4.4-1.7-7.5c-0.3-3-0.5-6.5-0.4-10.4
							c0-3.9,0.2-7.9,0.5-12c0.3-4.1,0.7-8.2,1.1-12.2c0.5-4,0.9-7.8,1.4-11.3c0.4-3.9-1.1-6.7-4.8-8.6c-1.8-0.9-3.6-1.7-5.4-2.3
							c-1.8-0.6-3.7-1-5.6-1.3C207.3,171.9,206.6,171.8,205.9,171.8z"/>
					</g>
				</g>
			</g>
		</g>
	</g>
	<g>
		<g>
			<g>
				<g>
					<g>
						<path class="st3" d="M302.2,181c0.5-8.4,1.1-16.2,1.8-23.3c0.2-1.9,0.8-3.2,1.7-3.8c1-0.6,2.5-0.8,4.5-0.7
							c1,0.1,1.8,0.2,2.6,0.2c0.8,0.1,1.5,0.2,2.3,0.4c0.8,0.2,1.6,0.5,2.5,0.8c0.9,0.3,1.9,0.7,3.1,1.2c2,0.8,3.2,1.8,3.6,3
							c0.4,1.1,0.5,2.6,0.3,4.3c-0.7,5-1.3,10.6-1.9,16.8c-0.6,6.3-1.1,12.6-1.7,19.1c-0.5,6.4-1,12.7-1.5,18.9
							c-0.4,6.1-0.8,11.5-1.1,16.2c0,2.5-1.7,3.6-5.2,3.4c-2.9-0.1-6-0.4-9.1-1c-2.9-0.6-5.1-2.2-6.7-4.8c-1.2-1.8-2.4-4-3.8-6.4
							c-1.3-2.5-2.7-5.1-4.1-8c-1.4-2.9-2.9-5.9-4.3-9c-1.5-3.1-2.9-6.3-4.2-9.5c0,4.1-0.1,8.1-0.2,12.2c-0.1,4.1-0.2,8-0.2,11.7
							c-0.1,3.7-0.1,7.2-0.2,10.3c0,3.2,0,5.9,0,8.3c-0.1,1.1-0.4,1.9-0.9,2.3c-0.5,0.4-1.6,0.5-3.3,0.3c-1.5-0.1-3.1-0.3-4.7-0.4
							c-1.6-0.2-3.2-0.6-4.7-1.2c-1.5-0.5-2.5-1.1-3.1-2c-0.6-0.8-1-2.1-1.1-3.8c-0.2-1.7-0.3-4.2-0.6-7.5c-0.2-3.2-0.4-6.9-0.6-11
							c-0.2-4.1-0.4-8.6-0.5-13.3c-0.2-4.7-0.3-9.4-0.3-14.1c-0.1-4.7-0.1-9.3,0-13.7c0-4.4,0.1-8.3,0.3-11.7c0.1-2,0.7-3.3,1.7-4
							c1-0.7,2.6-0.9,4.6-0.7c2.4,0.3,4.7,0.6,7,1c2.3,0.3,4.7,0.9,7.2,1.6c2.1,0.5,3.6,1.3,4.6,2.4c1,1.1,1.9,2.8,2.7,5.2
							c0.6,1.8,1.4,4.1,2.3,6.9c1,2.8,2,5.8,3.2,9c1.2,3.2,2.4,6.6,3.6,10c1.3,3.4,2.5,6.7,3.7,9.8
							C301.4,197.9,301.7,189.4,302.2,181z"/>
					</g>
				</g>
			</g>
		</g>
		<g>
			<g>
				<g>
					<g>
						<path class="st3" d="M277.8,244.4c-0.4,0-0.9,0-1.4-0.1c-1.5-0.1-3.1-0.3-4.7-0.4c-1.6-0.2-3.2-0.6-4.8-1.2
							c-1.5-0.5-2.6-1.2-3.3-2.1c-0.7-0.9-1.1-2.2-1.2-4c-0.2-1.8-0.4-4.3-0.6-7.5c-0.2-3.3-0.4-7-0.6-11.1
							c-0.2-4.1-0.4-8.6-0.5-13.3c-0.2-4.8-0.3-9.5-0.3-14.2c-0.1-4.7-0.1-9.3,0-13.7c0-4.4,0.1-8.4,0.3-11.8
							c0.1-2.1,0.8-3.6,1.9-4.3c1.1-0.7,2.7-1,4.8-0.8c2.4,0.3,4.8,0.6,7.1,1c2.3,0.3,4.7,0.9,7.3,1.6c2.1,0.5,3.7,1.4,4.8,2.5
							c1,1.1,2,2.9,2.7,5.3c0.6,1.8,1.4,4.1,2.3,6.9c0.9,2.7,2,5.8,3.2,9c1.2,3.2,2.4,6.6,3.6,10c1,2.7,2,5.3,2.9,7.8
							c0-7.8,0.2-15.6,0.7-23.3c0.5-8.4,1.1-16.2,1.8-23.3c0.2-2,0.9-3.4,1.9-4.1c1-0.7,2.6-0.9,4.8-0.7c1,0.1,1.8,0.2,2.6,0.2
							c0.8,0.1,1.6,0.2,2.4,0.4c0.8,0.2,1.6,0.5,2.5,0.8c0.9,0.3,1.9,0.7,3.1,1.3c2.1,0.9,3.3,2,3.8,3.2c0.4,1.2,0.5,2.7,0.3,4.5
							c-0.7,5-1.3,10.6-1.9,16.8c-0.6,6.2-1.1,12.7-1.7,19c-0.5,6.3-1,12.7-1.5,18.9c-0.4,6.1-0.8,11.6-1.1,16.1
							c0,1.1-0.3,2-0.9,2.6c-0.9,0.9-2.5,1.3-4.6,1.2c-2.9-0.1-6-0.4-9.2-1c-3-0.6-5.3-2.3-7-4.9c-1.2-1.8-2.5-4-3.8-6.5
							c-1.3-2.5-2.7-5.2-4.1-8c-1.4-2.8-2.8-5.9-4.3-9c-1.2-2.6-2.4-5.2-3.5-7.7c0,3.4-0.1,6.9-0.2,10.3l-0.2,11.7
							c-0.1,3.7-0.1,7.2-0.2,10.3c0,3.1,0,5.9,0,8.3c-0.1,1.3-0.4,2.1-1,2.6C279.5,244.3,278.8,244.4,277.8,244.4z M266,160.9
							c-1.3,0-2.4,0.2-3.1,0.7c-0.9,0.6-1.4,1.8-1.6,3.7c-0.1,3.4-0.2,7.3-0.3,11.7c0,4.3,0,8.9,0,13.6c0.1,4.6,0.2,9.4,0.3,14.1
							c0.2,4.7,0.3,9.2,0.5,13.3c0.2,4.1,0.4,7.8,0.6,11c0.2,3.1,0.4,5.7,0.6,7.5c0.1,1.6,0.5,2.8,1.1,3.6c0.6,0.8,1.5,1.4,2.9,1.8
							c1.6,0.6,3.1,1,4.6,1.2c1.6,0.2,3.1,0.3,4.7,0.4c0.5,0.1,1,0.1,1.4,0.1c1,0,1.5-0.2,1.7-0.3c0.4-0.3,0.7-1,0.7-2
							c-0.1-2.3-0.1-5.1,0-8.3c0-3.2,0.1-6.6,0.2-10.3l0.2-11.7c0.1-4.1,0.1-8.1,0.2-12.2l0-1.9l0.7,1.8c1.3,3.1,2.7,6.3,4.2,9.4
							c1.5,3.1,2.9,6.2,4.3,9c1.4,2.8,2.8,5.5,4.1,8c1.3,2.4,2.6,4.6,3.7,6.4c1.5,2.5,3.7,4,6.4,4.6c3.1,0.6,6.2,0.9,9.1,1
							c0.3,0,0.5,0,0.7,0c1.6,0,2.7-0.3,3.3-1c0.5-0.5,0.7-1.2,0.7-2.1c0.3-4.6,0.6-10.1,1.1-16.2c0.4-6.2,0.9-12.5,1.5-18.9
							c0.5-6.4,1.1-12.8,1.7-19.1c0.6-6.2,1.2-11.9,1.9-16.8c0.2-1.7,0.1-3.1-0.2-4.1c-0.4-1-1.5-2-3.4-2.7c-1.2-0.5-2.2-0.9-3-1.2
							c-0.9-0.3-1.7-0.6-2.4-0.8c-0.7-0.2-1.5-0.3-2.2-0.4c-0.8-0.1-1.7-0.1-2.6-0.2c-1.9-0.2-3.4,0-4.3,0.6
							c-0.8,0.5-1.4,1.7-1.5,3.5c-0.7,7.1-1.3,14.9-1.8,23.3c-0.5,8.4-0.7,16.9-0.6,25.4l0,2.2l-0.8-2.1c-1.2-3.1-2.4-6.4-3.7-9.8
							c-1.3-3.4-2.5-6.8-3.6-10c-1.2-3.3-2.2-6.3-3.2-9c-1-2.8-1.7-5.1-2.3-6.9c-0.7-2.3-1.6-4-2.6-5.1c-0.9-1-2.4-1.8-4.4-2.3
							c-2.5-0.7-4.9-1.3-7.2-1.6c-2.2-0.3-4.6-0.6-7-1C266.8,160.9,266.4,160.9,266,160.9z"/>
					</g>
				</g>
			</g>
		</g>
	</g>
	<g>
		<g>
			<g>
				<g>
					<g>
						<path class="st3" d="M333.8,148.9c3.2-1.3,6.6-2.3,10.3-3c3.6-0.7,7.3-1,11.1-1c3.8,0.1,7.5,0.7,11.1,2
							c3.6,1.2,6.9,3.1,10,5.7c3.1,2.6,5.7,6,7.9,10.4c1.8,3.4,3,7.2,3.6,11.4c0.5,4.1,0.4,8.4-0.4,12.8c-0.8,4.4-2.3,8.8-4.5,13.2
							c-2.2,4.4-5,8.5-8.5,12.4c-3.5,3.9-7.7,7.4-12.6,10.6c-4.9,3.2-10.5,5.7-16.7,7.7c-3.2,1.2-6.5,1-10.1-0.6
							c-1.8-0.9-3.3-1.7-4.7-2.6c-1.3-0.8-2.9-1.9-4.6-3.1c-0.6-0.6-1.3-1.1-1.8-1.7c-0.6-0.5-1.1-1.2-1.5-1.9
							c-0.4-0.7-0.7-1.6-0.9-2.6c-0.1-1-0.1-2.4,0-4l4-61.7C327.8,151.5,330.6,150.1,333.8,148.9z M352,207.9
							c3.4-3.1,6.3-6.3,8.5-9.7c2.2-3.4,3.8-6.7,4.9-10c1.1-3.3,1.6-6.4,1.8-9.3c0.2-3.9-0.3-7-1.5-9.2c-1.2-2.2-3.2-3.8-6-4.8
							c-2.9-1-6.3-0.8-10.4,0.6c-2,8.5-3.8,16.9-5.3,25.2c-1.5,8.3-2.9,16.6-4.3,25.1C344.4,213.6,348.5,210.9,352,207.9z"/>
					</g>
				</g>
			</g>
		</g>
		<g>
			<g>
				<g>
					<g>
						<path class="st3" d="M340.8,232.1c-2,0-4-0.5-6.1-1.5c-1.8-0.9-3.4-1.7-4.7-2.6c-1.3-0.8-2.9-1.9-4.6-3.2
							c-0.7-0.6-1.3-1.1-1.9-1.7c-0.6-0.6-1.1-1.2-1.6-1.9c-0.4-0.7-0.8-1.7-0.9-2.7c-0.2-1.1-0.2-2.4,0-4.1l4.1-61.9l0.2-0.1
							c2.4-1.4,5.2-2.8,8.4-4.1c3.2-1.3,6.7-2.3,10.3-3c3.6-0.7,7.4-1,11.2-1c3.8,0.1,7.6,0.7,11.2,2c3.6,1.2,7,3.2,10.1,5.8
							c3.1,2.6,5.8,6.1,8,10.5c1.8,3.5,3.1,7.3,3.6,11.5c0.5,4.1,0.4,8.5-0.4,12.9c-0.8,4.4-2.3,8.9-4.5,13.3
							c-2.2,4.4-5.1,8.6-8.6,12.5c-3.5,3.9-7.8,7.5-12.7,10.7c-4.9,3.2-10.6,5.8-16.8,7.7C343.7,231.9,342.3,232.1,340.8,232.1z
							 M325.8,153.1l-4,61.5c-0.1,1.6-0.1,2.9,0,3.9c0.1,1,0.4,1.8,0.8,2.4c0.4,0.7,0.9,1.3,1.4,1.8c0.6,0.5,1.2,1.1,1.8,1.6
							c1.7,1.2,3.2,2.3,4.5,3.1c1.3,0.8,2.9,1.7,4.6,2.5c3.4,1.6,6.7,1.8,9.8,0.6c6.2-1.9,11.8-4.5,16.6-7.6
							c4.8-3.1,9.1-6.7,12.5-10.5c3.5-3.9,6.3-8,8.5-12.3c2.1-4.3,3.6-8.7,4.4-13c0.8-4.3,0.9-8.6,0.4-12.6
							c-0.5-4.1-1.7-7.8-3.5-11.2c-2.1-4.3-4.8-7.7-7.8-10.3c-3-2.5-6.3-4.4-9.9-5.6c-3.5-1.2-7.2-1.9-11-1.9
							c-3.8-0.1-7.5,0.3-11.1,0.9c-3.6,0.7-7,1.7-10.2,2.9C330.8,150.5,328.1,151.8,325.8,153.1z M339,216.5l0.1-0.7
							c1.4-8.4,2.8-16.8,4.3-25.1c1.5-8.3,3.3-16.7,5.3-25.2l0-0.2l0.2-0.1c4.1-1.5,7.7-1.7,10.6-0.6c2.9,1.1,5,2.7,6.3,5
							c1.2,2.2,1.7,5.4,1.6,9.4c-0.1,2.9-0.7,6-1.8,9.4c-1.1,3.3-2.7,6.7-4.9,10.1c-2.2,3.4-5.1,6.6-8.5,9.7
							c-3.5,3.1-7.7,5.8-12.5,8.1L339,216.5z M349.4,165.9c-2,8.4-3.7,16.8-5.2,25c-1.5,8-2.9,16.2-4.2,24.3
							c4.5-2.2,8.4-4.7,11.7-7.6c3.4-3.1,6.2-6.3,8.4-9.6c2.2-3.3,3.8-6.6,4.8-9.9c1-3.3,1.6-6.4,1.7-9.2c0.2-3.9-0.3-6.9-1.5-9
							c-1.1-2.1-3.1-3.6-5.8-4.6C356.6,164.3,353.3,164.5,349.4,165.9z"/>
					</g>
				</g>
			</g>
		</g>
	</g>
	<g>
		<g>
			<g>
				<g>
					<g>
						<path class="st3" d="M89.9,260.3c-0.1,3.6-0.3,7.1-0.4,10.5c-0.1,1-0.5,1.8-0.9,2.2c-0.5,0.4-1.4,0.6-2.9,0.5
							c-1.7-0.2-3.3-0.3-4.6-0.3c-1.3,0-2.6-0.3-3.9-0.7c-1.3-0.5-2.2-1.2-2.8-2.1c-0.6-0.9-1-2.1-1.1-3.8c-0.1-1.3-0.2-3.2-0.4-5.7
							c-0.2-2.5-0.4-5.3-0.6-8.5c-0.2-3.2-0.4-6.6-0.6-10.2c-0.2-3.6-0.4-7.3-0.5-11c-0.1-3.7-0.2-7.2-0.2-10.7
							c0-3.5,0.1-6.6,0.3-9.4c0.2-2.8,0.5-5.1,0.9-7c0.4-1.9,1-3.1,1.8-3.7c3.5-2.4,7.3-4.7,11.2-7.1c3.9-2.4,7.8-4.2,11.7-5.6
							c3.9-1.4,7.7-2.1,11.5-2.1c3.7,0,7.1,1.1,10.3,3.3c2.5,2,4.9,4.2,7.1,6.6c2.2,2.4,4.1,5.5,5.8,9.2c1.5,4,1.7,7.5,0.8,10.3
							c-1.5,4.6-4.4,9.1-8.8,13.5c-4.4,4.4-9.8,8.7-16.2,13c1.7,1.4,3.5,2.8,5.5,4.3c2,1.5,4,3,6.1,4.5c2.1,1.5,4.1,2.9,6.2,4.3
							c2,1.4,3.9,2.6,5.7,3.5c1.4,0.8,2.1,1.6,2.1,2.2c0,0.6-0.4,1.4-1.3,2.2c-1,1-1.8,1.7-2.6,2c-0.7,0.3-1.7,0.6-2.7,1
							c-1.3,0.6-2.8,1-4.4,1.1c-1.7,0.1-3.7-0.3-6.1-1.2c-1.6-0.8-3.4-1.7-5.5-2.9c-2.1-1.2-4.3-2.5-6.6-4c-2.3-1.5-4.6-3-6.9-4.6
							c-2.3-1.6-4.4-3.3-6.3-5C90.3,253,90.1,256.7,89.9,260.3z M93,220.4c-0.3,3.7-0.8,7.7-1.2,12c4-2.1,7.5-4.5,10.5-7.1
							c3-2.6,5.4-5.2,7.2-7.7c1.9-2.5,3.1-4.8,3.8-6.9c0.7-2.1,0.7-3.6,0.2-4.6c-1-1.6-3.4-2.1-7-1.5c-1.8,0.3-3.7,0.8-5.8,1.6
							c-2.1,0.8-4.2,2-6.5,3.5C93.7,213.2,93.3,216.7,93,220.4z"/>
					</g>
				</g>
			</g>
		</g>
		<g>
			<g>
				<g>
					<g>
						<path class="st3" d="M86.4,275.5c-0.2,0-0.5,0-0.8,0l-0.1,0c-1.7-0.2-3.2-0.2-4.5-0.3c-1.5,0-3-0.3-4.5-0.8l-0.1,0
							c-1.7-0.6-2.9-1.6-3.8-2.8c-0.8-1.2-1.3-2.7-1.4-4.7c-0.1-1.4-0.2-3.3-0.4-5.8c-0.2-2.5-0.4-5.4-0.6-8.5
							c-0.2-3.2-0.4-6.7-0.6-10.3c-0.2-3.7-0.4-7.4-0.5-11C69,227.7,69,224,69,220.6c0-3.5,0.1-6.7,0.3-9.5c0.2-2.9,0.5-5.4,1-7.3
							c0.6-2.4,1.4-3.9,2.5-4.8l0.1-0.1c3.6-2.4,7.3-4.8,11.2-7.1c4-2.4,8.1-4.4,12.1-5.8c4.1-1.4,8.2-2.2,12.1-2.2
							c4.1,0,8,1.2,11.4,3.6l0.1,0.1c2.6,2,5.1,4.3,7.4,6.8c2.3,2.5,4.4,5.8,6.1,9.7l0,0.1c1.6,4.4,1.9,8.3,0.8,11.7
							c-1.5,4.9-4.6,9.7-9.2,14.3c-3.9,4-8.7,7.9-14.2,11.7c1.1,0.9,2.2,1.7,3.4,2.6c2,1.5,4,3,6.1,4.5c2,1.5,4.1,2.9,6.1,4.3
							c2,1.3,3.8,2.5,5.5,3.4c1.4,0.8,3.2,2.1,3.1,4c0,1.2-0.6,2.3-1.8,3.5c-1.2,1.2-2.2,2.1-3.3,2.5c-0.7,0.3-1.6,0.6-2.7,1
							c-1.5,0.7-3.2,1.1-5,1.2c-2,0.1-4.2-0.3-6.9-1.4l-0.1-0.1c-1.6-0.8-3.5-1.7-5.6-3c-2.1-1.2-4.4-2.6-6.7-4
							c-2.3-1.5-4.6-3-6.9-4.7c-1.2-0.8-2.4-1.7-3.5-2.6c-0.1,2.5-0.2,4.9-0.3,7.3c-0.1,3.6-0.3,7.1-0.4,10.5l0,0.2
							c-0.2,1.6-0.7,2.7-1.6,3.4C89.1,275.2,88,275.5,86.4,275.5z M85.8,271.5c0.2,0,0.4,0,0.5,0c0.6,0,0.9-0.1,1-0.1
							c0-0.1,0.1-0.3,0.2-0.8c0.1-3.4,0.3-6.9,0.4-10.4c0.1-3.6,0.3-7.4,0.6-11.3l0.3-4l3,2.7c1.9,1.7,3.9,3.3,6.2,4.9
							c2.3,1.6,4.6,3.1,6.8,4.6c2.2,1.4,4.4,2.7,6.5,3.9c2,1.1,3.8,2.1,5.3,2.8c2.1,0.8,3.8,1.2,5.1,1.1c1.4-0.1,2.7-0.4,3.8-0.9
							l0.2-0.1c1.1-0.4,1.9-0.7,2.7-1c0.2-0.1,0.8-0.4,1.8-1.5c0.3-0.3,0.5-0.5,0.6-0.7c-0.2-0.2-0.5-0.4-1-0.7
							c-1.7-1-3.7-2.2-5.8-3.6c-2.1-1.4-4.2-2.8-6.2-4.3c-2.1-1.5-4.2-3-6.2-4.5c-2-1.5-3.9-3-5.6-4.4l-2.1-1.7l2.2-1.5
							c6.3-4.1,11.6-8.4,15.9-12.7c4.1-4.2,6.9-8.4,8.3-12.7c0.8-2.5,0.6-5.5-0.7-9c-1.5-3.5-3.3-6.4-5.4-8.6
							c-2.1-2.3-4.4-4.4-6.9-6.3c-2.8-2-5.8-2.9-9.1-2.9c-3.5,0-7.2,0.7-10.9,2c-3.8,1.3-7.6,3.2-11.4,5.4c-3.8,2.3-7.5,4.7-11,7
							c-0.1,0.1-0.6,0.7-1,2.5c-0.4,1.8-0.7,4-0.9,6.7c-0.2,2.7-0.3,5.8-0.3,9.2c0,3.4,0.1,7,0.2,10.6c0.1,3.6,0.3,7.3,0.5,10.9
							c0.2,3.6,0.4,7,0.6,10.2c0.2,3.2,0.4,6,0.6,8.5c0.2,2.5,0.3,4.4,0.4,5.7c0.1,1.6,0.5,2.4,0.8,2.8c0.3,0.5,1,1,1.8,1.3
							c1.1,0.4,2.2,0.5,3.3,0.6C82.5,271.3,84.1,271.4,85.8,271.5z M89.3,235.9l0.4-3.7c0.5-4.2,0.9-8.3,1.2-12
							c0.3-3.7,0.7-7.3,1.2-10.7l0.1-0.8l0.7-0.5c2.3-1.7,4.7-2.9,6.9-3.8c2.2-0.8,4.3-1.4,6.2-1.7c4.5-0.8,7.5,0.1,9,2.4l0.1,0.1
							c0.8,1.5,0.8,3.5,0,6.2c-0.7,2.3-2.1,4.8-4.1,7.4c-1.9,2.6-4.5,5.3-7.5,8c-3.1,2.7-6.7,5.2-10.9,7.4L89.3,235.9z M96,211
							c-0.4,3-0.8,6.3-1.1,9.6c-0.2,2.6-0.5,5.3-0.8,8.2c2.5-1.5,4.8-3.2,6.8-5c2.8-2.5,5.2-5,7-7.4c1.7-2.3,2.9-4.4,3.5-6.3
							c0.6-2,0.5-2.8,0.4-3c-0.5-0.6-1.7-0.8-2.6-0.8c-0.7,0-1.5,0.1-2.4,0.2c-1.7,0.3-3.5,0.8-5.4,1.5
							C99.7,208.8,97.9,209.7,96,211z"/>
					</g>
				</g>
			</g>
		</g>
	</g>
	<g>
		<g>
			<g>
				<g>
					<g>
						<path class="st3" d="M186,186.6c1.4,2,2.6,4.2,3.6,6.9c1.4,4.4,2.4,9.3,2.9,14.6c0.5,5.3,0.5,10.7-0.1,16.2
							c-0.6,5.5-1.7,10.7-3.5,15.8c-1.7,5-4.2,9.5-7.3,13.3c-2.2,2.3-4.5,4-7.1,5.1c-2.6,1.1-5.7,1.8-9.3,2c-2.4,0.1-4.9,0.2-7.4,0
							c-2.6-0.1-4.9-0.5-7.2-1.2c-1.8-0.6-3.6-1.4-5.5-2.5c-1.8-1.1-3.4-2.4-4.6-4c-2-2.6-3.6-5.6-4.9-9.1
							c-1.3-3.5-2.3-7.2-2.9-11.1c-0.6-4-0.8-8.1-0.6-12.3c0.2-4.2,0.8-8.5,1.8-12.6c1-4.2,2.5-8.2,4.3-12.1
							c1.9-3.9,4.2-7.5,6.9-10.8c1.9-2,4.3-3.7,7.1-5.1c2.9-1.4,5.7-2,8.5-2.1c3.6,0,7.1,0.3,10.5,0.9c3.4,0.6,6.2,1.6,8.6,3
							C182.6,182.9,184.6,184.7,186,186.6z M162.4,195.5c-1.4,1.8-2.6,4.1-3.8,7c-1.2,2.9-2.2,6-3.1,9.4c-0.9,3.4-1.5,6.7-1.9,9.8
							c-0.4,3-0.5,6.2-0.4,9.3c0.1,3.2,0.5,6.1,1.1,8.8c0.6,2.7,1.4,4.9,2.4,6.7c1.1,1.8,2.3,2.8,3.8,3c1.4,0.2,2.7-0.3,3.9-1.5
							c1.3-1.2,2.4-3,3.5-5.2c1.1-2.3,2-5,2.8-8.2c0.8-3.2,1.3-6.6,1.7-10.3c0.3-3,0.4-6.3,0.4-9.9c-0.1-3.6-0.4-6.9-0.9-9.9
							c-0.5-3.1-1.2-5.7-2.2-7.8c-1-2.1-2.1-3.2-3.4-3.4C165.1,192.9,163.8,193.7,162.4,195.5z"/>
					</g>
				</g>
			</g>
		</g>
		<g>
			<g>
				<g>
					<g>
						<path class="st3" d="M161.2,262.5c-1.1,0-2.3,0-3.5-0.1c-2.7-0.1-5.3-0.6-7.7-1.3c-2-0.6-3.9-1.5-5.9-2.7
							c-2-1.2-3.8-2.7-5.1-4.5c-2.1-2.7-3.8-6-5.2-9.6c-1.4-3.6-2.4-7.5-3-11.6c-0.6-4.1-0.8-8.3-0.6-12.7c0.2-4.4,0.8-8.7,1.9-13
							c1.1-4.3,2.6-8.5,4.5-12.5c1.9-4,4.3-7.8,7.2-11.2l0.1-0.1c2-2.2,4.6-4.1,7.7-5.5c3.1-1.5,6.2-2.2,9.3-2.3l0.4,0
							c3.6,0,7.1,0.3,10.4,1c3.6,0.7,6.7,1.8,9.2,3.2c2.9,1.7,5.2,3.6,6.8,5.8c1.5,2.1,2.8,4.6,3.8,7.4c1.5,4.6,2.5,9.6,3,15.1
							c0.5,5.4,0.5,11-0.1,16.6c-0.6,5.6-1.8,11-3.6,16.2c-1.8,5.2-4.4,9.9-7.6,13.9l-0.1,0.1c-2.3,2.5-5,4.4-7.8,5.6
							c-2.8,1.2-6.1,1.9-9.9,2.1C164,262.5,162.6,262.5,161.2,262.5z M146.7,186c-2.6,3.2-4.8,6.6-6.6,10.4
							c-1.8,3.8-3.2,7.7-4.2,11.7c-1,4-1.6,8.1-1.8,12.2c-0.2,4.1,0,8.1,0.6,11.9c0.6,3.8,1.5,7.4,2.8,10.7c1.3,3.3,2.8,6.2,4.7,8.6
							c1,1.4,2.4,2.5,4,3.5c1.7,1,3.4,1.8,5.1,2.3c2,0.7,4.3,1,6.6,1.1c2.5,0.1,4.9,0.1,7.2,0c3.3-0.2,6.2-0.8,8.6-1.8
							c2.3-1,4.5-2.5,6.4-4.6c2.9-3.6,5.2-7.9,6.9-12.6c1.7-4.9,2.8-10,3.4-15.3c0.6-5.3,0.6-10.6,0.1-15.8
							c-0.5-5.2-1.4-9.9-2.8-14.2c-0.9-2.4-2-4.5-3.3-6.3c-1.3-1.7-3.1-3.3-5.5-4.7c-2.2-1.2-4.9-2.1-8-2.7
							c-3.1-0.6-6.4-0.9-9.7-0.9l-0.4,0c-2.5,0-5,0.6-7.6,1.9C150.6,182.6,148.4,184.1,146.7,186z M161.3,251.4L161.3,251.4
							c-0.3,0-0.6,0-0.9-0.1c-2.1-0.3-3.8-1.6-5.2-3.9c-1.2-2-2.1-4.4-2.7-7.3c-0.6-2.8-1-5.8-1.1-9.1c-0.2-3.3,0-6.5,0.4-9.7
							c0.4-3.2,1-6.5,1.9-10c0.9-3.5,1.9-6.8,3.1-9.7c1.2-3,2.6-5.5,4.1-7.4c1.8-2.4,3.9-3.4,6-3.1c2,0.2,3.6,1.8,4.9,4.5
							c1,2.2,1.8,5,2.3,8.3c0.5,3.1,0.8,6.5,0.9,10.2c0.1,3.6,0,7.1-0.4,10.2c-0.3,3.7-0.9,7.3-1.7,10.6c-0.8,3.3-1.8,6.2-2.9,8.6
							c-1.2,2.5-2.5,4.4-3.9,5.8C164.6,250.7,163,251.4,161.3,251.4z M166.1,195.1c-0.5,0-1.3,0.6-2.1,1.6c-1.2,1.6-2.4,3.8-3.5,6.5
							c-1.1,2.7-2.1,5.8-3,9.1c-0.8,3.3-1.4,6.5-1.8,9.5c-0.4,2.9-0.5,5.9-0.3,9c0.1,3.1,0.5,5.9,1,8.4c0.5,2.4,1.3,4.5,2.2,6.1
							c1.1,1.9,2.1,2,2.4,2c0.2,0,0.3,0,0.4,0c0.6,0,1.3-0.3,1.9-1c1.1-1,2.1-2.6,3.1-4.7c1-2.1,1.9-4.8,2.6-7.8
							c0.7-3.1,1.3-6.5,1.6-10c0.3-3,0.4-6.2,0.4-9.7c-0.1-3.5-0.4-6.7-0.9-9.6c-0.5-2.9-1.2-5.3-2-7.3c-0.6-1.3-1.3-2.2-1.8-2.2
							C166.2,195.1,166.1,195.1,166.1,195.1z"/>
					</g>
				</g>
			</g>
		</g>
	</g>
	<g>
		<g>
			<g>
				<g>
					<g>
						<path class="st3" d="M197.3,236c-1.1-2.9-1.9-6.1-2.5-9.7c-0.6-3.6-1-7.4-1.1-11.5c-0.2-4.1-0.2-8.3-0.1-12.5
							c0.1-4.3,0.3-8.6,0.7-12.9c0.3-4.3,0.7-8.6,1.2-12.7c0.2-1.9,0.7-3.1,1.6-3.6c0.9-0.5,2.4-0.6,4.5-0.3
							c1.9,0.2,3.8,0.7,5.7,1.2c1.8,0.6,3.7,1.3,5.5,2.2c3.7,1.9,5.4,4.8,5,8.7c-0.5,3.4-0.9,7-1.4,10.9c-0.5,3.9-0.8,7.9-1.1,11.8
							c-0.3,4-0.5,7.8-0.5,11.6c0,3.8,0.1,7.1,0.4,10c0.3,2.9,0.9,5.3,1.7,7.1c0.8,1.8,1.9,2.8,3.3,3c1.7,0.2,3.2-0.9,4.5-3.2
							c1.3-2.3,2.3-5.4,3.2-9.2c0.9-3.9,1.6-8.3,2.1-13.2c0.5-5,1-10.1,1.3-15.3c0.3-5.2,0.5-10.3,0.6-15.4c0.1-5,0.2-9.5,0.3-13.5
							c-0.2-1.9,0.3-3.1,1.5-3.7c1.2-0.6,2.7-0.8,4.5-0.6c1.8,0.2,3.8,0.6,6,1.3c2.2,0.7,4.2,1.4,6,2.1c1,0.4,1.7,0.8,2.2,1.2
							c0.5,0.4,0.9,0.8,1.2,1.3c0.3,0.5,0.4,1,0.5,1.6c0,0.6,0,1.3,0,2.1c-0.4,9.1-0.9,17.6-1.6,25.2c-0.7,7.7-1.6,14.6-2.7,20.6
							c-1.2,6-2.7,11.2-4.5,15.4c-1.8,4.2-4.1,7.5-6.9,9.7c-2,1.4-4,2.5-6.1,3.2c-2.1,0.8-4.5,1.3-7.4,1.6
							c-5.6,0.5-10.4,0.1-14.3-1.3c-1.7-0.6-3.3-1.4-4.9-2.3c-1.6-0.9-3-2.2-4.2-3.8C199.7,241.4,198.4,238.9,197.3,236z"/>
					</g>
				</g>
			</g>
		</g>
		<g>
			<g>
				<g>
					<g>
						<path class="st3" d="M220.2,252.9c-3.9,0-7.4-0.5-10.4-1.6c-1.8-0.7-3.6-1.5-5.2-2.5c-1.7-1.1-3.3-2.5-4.7-4.2
							c-1.8-2.1-3.3-4.7-4.4-7.8c-1.1-3-2-6.4-2.6-10.1c-0.6-3.6-1-7.6-1.2-11.8c-0.2-4.1-0.2-8.4-0.1-12.7c0.1-4.3,0.3-8.7,0.7-13
							c0.3-4.3,0.7-8.6,1.2-12.8c0.3-2.5,1.1-4.2,2.6-5.1c1.3-0.8,3.2-1,5.8-0.5c2,0.3,4,0.7,5.9,1.3c1.9,0.6,3.9,1.4,5.8,2.4
							c4.5,2.2,6.6,5.9,6,10.7c-0.5,3.4-0.9,7.1-1.4,11c-0.5,3.9-0.8,7.8-1.1,11.8c-0.3,3.9-0.5,7.8-0.5,11.5c0,3.7,0.1,7,0.4,9.8
							c0.3,2.7,0.8,4.9,1.5,6.6c0.7,1.7,1.4,1.8,1.7,1.8c0,0,0.1,0,0.1,0c0.8,0,1.6-0.7,2.4-2.2c1.2-2.1,2.2-5.1,3-8.7
							c0.8-3.8,1.5-8.2,2.1-13c0.5-4.9,1-10,1.3-15.2c0.3-5.2,0.5-10.3,0.6-15.3c0.1-5,0.2-9.4,0.3-13.4c-0.3-3.5,1.5-5,2.6-5.5
							c1.5-0.7,3.4-1,5.6-0.8c2,0.2,4.1,0.6,6.4,1.4c2.2,0.7,4.3,1.4,6.1,2.1c1.2,0.5,2,1,2.7,1.4c0.8,0.6,1.4,1.2,1.8,1.9
							c0.4,0.7,0.7,1.6,0.7,2.5c0,0.7,0,1.5,0,2.4c-0.4,9.1-0.9,17.6-1.6,25.3c-0.7,7.7-1.6,14.7-2.8,20.8
							c-1.2,6.1-2.7,11.5-4.6,15.8c-2,4.5-4.5,8-7.4,10.4l-0.1,0.1c-2.1,1.5-4.3,2.7-6.6,3.5c-2.2,0.8-4.9,1.4-7.8,1.7
							C223.3,252.8,221.7,252.9,220.2,252.9z M199.3,174.5c-0.8,0-1.2,0.2-1.2,0.2c-0.2,0.1-0.5,0.7-0.7,2.1
							c-0.5,4.1-0.9,8.4-1.2,12.7c-0.3,4.3-0.5,8.6-0.7,12.8c-0.1,4.2-0.1,8.4,0.1,12.4c0.2,4,0.5,7.8,1.1,11.3
							c0.6,3.4,1.4,6.6,2.4,9.4c1,2.7,2.3,4.9,3.8,6.7c1.2,1.4,2.4,2.5,3.8,3.4c1.4,0.9,2.9,1.6,4.5,2.2c3.6,1.3,8.1,1.7,13.4,1.1
							c2.6-0.3,4.9-0.7,6.9-1.4c1.9-0.7,3.8-1.7,5.6-3c2.5-2,4.6-5,6.2-8.9c1.8-4.1,3.2-9.1,4.4-15c1.1-5.9,2.1-12.8,2.7-20.4
							c0.7-7.6,1.2-16.1,1.6-25.2c0.1-0.8,0.1-1.4,0-1.9c0-0.3-0.1-0.5-0.2-0.7c-0.1-0.2-0.3-0.4-0.6-0.7c-0.3-0.2-0.9-0.5-1.9-1
							c-1.7-0.7-3.7-1.4-5.8-2c-2-0.6-3.9-1-5.6-1.2c-1.4-0.1-2.6,0-3.5,0.4c-0.4,0.2-0.5,0.7-0.4,1.7l0,0.1l0,0.1
							c-0.1,4-0.2,8.4-0.3,13.5c-0.1,5-0.3,10.2-0.6,15.5c-0.3,5.2-0.7,10.4-1.3,15.4c-0.5,5-1.3,9.5-2.1,13.5c-0.9,4-2,7.3-3.4,9.8
							c-1.7,3-3.8,4.5-6.4,4.2c-1.5-0.2-3.6-1-4.9-4.2c-0.9-2-1.5-4.6-1.8-7.7c-0.3-3-0.5-6.4-0.4-10.3c0-3.8,0.2-7.7,0.5-11.7
							c0.3-4,0.7-8,1.1-11.9c0.5-3.9,0.9-7.6,1.4-11c0.3-3-0.9-5.2-3.9-6.7c-1.7-0.9-3.4-1.6-5.2-2.1c-1.7-0.5-3.5-0.9-5.3-1.2
							C200.4,174.6,199.8,174.5,199.3,174.5z"/>
					</g>
				</g>
			</g>
		</g>
	</g>
	<g>
		<g>
			<g>
				<g>
					<g>
						<path class="st3" d="M295.2,181.8c0.5-8.1,1.1-15.7,1.8-22.6c0.2-1.9,0.8-3.1,1.7-3.7c0.9-0.6,2.4-0.8,4.5-0.7
							c1,0.1,1.8,0.2,2.6,0.2c0.8,0.1,1.5,0.2,2.3,0.4c0.8,0.2,1.6,0.4,2.5,0.7c0.9,0.3,1.9,0.7,3.1,1.2c2,0.8,3.2,1.8,3.6,2.9
							c0.4,1.1,0.5,2.5,0.3,4.2c-0.7,4.8-1.3,10.2-1.9,16.3c-0.6,6.1-1.1,12.2-1.7,18.5c-0.5,6.2-1,12.3-1.4,18.3
							c-0.4,5.9-0.8,11.2-1.1,15.6c0,2.4-1.7,3.5-5.2,3.3c-2.9-0.1-6-0.4-9.1-1c-2.9-0.6-5.1-2.1-6.7-4.6c-1.2-1.8-2.4-3.8-3.7-6.2
							c-1.3-2.4-2.7-5-4.1-7.7c-1.4-2.8-2.8-5.7-4.3-8.7c-1.5-3-2.8-6.1-4.2-9.2c0,3.9-0.1,7.9-0.2,11.8c-0.1,3.9-0.2,7.7-0.2,11.3
							c-0.1,3.6-0.1,6.9-0.2,10c0,3.1,0,5.8,0,8c-0.1,1.1-0.4,1.8-0.9,2.2c-0.5,0.4-1.6,0.5-3.3,0.3c-1.5-0.1-3.1-0.3-4.7-0.4
							c-1.6-0.2-3.1-0.5-4.7-1.2c-1.5-0.5-2.5-1.1-3.1-1.9c-0.6-0.8-1-2-1.1-3.7c-0.2-1.7-0.3-4.1-0.6-7.2
							c-0.2-3.1-0.4-6.7-0.6-10.7c-0.2-4-0.4-8.3-0.5-12.9c-0.2-4.6-0.3-9.1-0.3-13.7c-0.1-4.6-0.1-9,0-13.2c0-4.3,0.1-8,0.3-11.4
							c0.1-1.9,0.7-3.2,1.7-3.9c1-0.6,2.6-0.9,4.5-0.7c2.4,0.3,4.7,0.6,7,0.9c2.3,0.3,4.7,0.8,7.2,1.6c2,0.5,3.6,1.3,4.6,2.3
							c1,1.1,1.9,2.7,2.6,5c0.6,1.7,1.4,4,2.3,6.7c1,2.7,2,5.6,3.2,8.8c1.2,3.1,2.4,6.4,3.6,9.7c1.2,3.3,2.5,6.5,3.7,9.5
							C294.4,198.2,294.6,190,295.2,181.8z"/>
					</g>
				</g>
			</g>
		</g>
		<g>
			<g>
				<g>
					<g>
						<path class="st3" d="M270.9,244.8c-0.5,0-1,0-1.6-0.1c-1.5-0.1-3.1-0.3-4.7-0.4c-1.7-0.2-3.5-0.6-5.2-1.3
							c-1.8-0.6-3.2-1.4-4-2.6c-0.8-1.1-1.3-2.7-1.5-4.7c-0.2-1.7-0.3-4.1-0.6-7.3c-0.2-3.2-0.4-6.8-0.6-10.8
							c-0.2-4-0.4-8.3-0.5-12.9c-0.2-4.6-0.3-9.3-0.3-13.7c-0.1-4.6-0.1-9.1,0-13.3c0-4.3,0.1-8.1,0.3-11.4c0.2-2.6,1.1-4.4,2.7-5.4
							c1.4-0.9,3.3-1.2,5.8-1c2.5,0.3,4.8,0.6,7.1,0.9c2.3,0.3,4.8,0.9,7.4,1.6c2.4,0.6,4.3,1.6,5.5,2.9c1.2,1.3,2.2,3.2,3.1,5.8
							c0.6,1.7,1.4,3.9,2.3,6.6c0.9,2.7,2,5.6,3.2,8.7c1.1,3,2.3,6.1,3.5,9.3c0.1-4.8,0.3-9.5,0.6-14.2c0.5-8.1,1.1-15.7,1.8-22.6
							c0.3-2.5,1.1-4.2,2.6-5.2c1.3-0.8,3.2-1.2,5.7-1c1,0.1,1.8,0.2,2.6,0.2c0.9,0.1,1.8,0.2,2.6,0.4c0.8,0.2,1.7,0.5,2.6,0.8
							c0.9,0.3,2,0.7,3.2,1.3c2.5,1,4,2.4,4.6,4c0.5,1.4,0.6,3.1,0.4,5.1c-0.7,4.8-1.3,10.2-1.9,16.2c-0.6,6-1.1,12.2-1.7,18.4
							c-0.5,6.1-1,12.3-1.4,18.3c-0.4,5.9-0.8,11.1-1.1,15.6c0,1.8-0.8,3-1.4,3.6c-1.1,1.1-2.8,1.7-5,1.7c-0.3,0-0.5,0-0.8,0
							c-3-0.1-6.1-0.4-9.3-1c-3.5-0.7-6.1-2.6-8-5.5c-1.2-1.8-2.5-3.9-3.8-6.3c-1.3-2.4-2.7-5-4.1-7.8c-1.4-2.8-2.9-5.7-4.3-8.7
							c-0.2-0.4-0.4-0.8-0.5-1.1c0,1,0,2-0.1,3l-0.2,11.3c-0.1,3.6-0.1,6.9-0.2,10c0,3,0,5.7,0,8l0,0.1l0,0.1
							c-0.1,1.7-0.7,2.9-1.7,3.7C273.3,244.6,272.3,244.8,270.9,244.8z M259.1,163.9c-1,0-1.8,0.2-2.3,0.5c-0.4,0.3-0.7,1.1-0.8,2.3
							c-0.1,3.2-0.2,7-0.3,11.3c0,4.2,0,8.6,0,13.2c0.1,4.5,0.2,9,0.3,13.7c0.2,4.5,0.3,8.9,0.5,12.8c0.2,3.9,0.4,7.5,0.6,10.6
							c0.2,3.1,0.4,5.5,0.6,7.2c0.1,1.6,0.5,2.3,0.7,2.7c0.2,0.3,0.8,0.8,2.1,1.2l0.2,0.1c1.4,0.6,2.8,0.9,4.2,1
							c1.6,0.1,3.1,0.3,4.7,0.4c1,0.1,1.6,0.1,1.9,0c0-0.1,0.1-0.3,0.1-0.6c-0.1-2.3-0.1-5,0-8c0-3.1,0.1-6.4,0.2-10l0.2-11.3
							c0.1-3.9,0.1-7.9,0.2-11.8l0.1-9.3l3.7,8.5c1.3,3,2.7,6,4.1,9.1c1.4,3,2.9,5.9,4.3,8.7c1.4,2.7,2.7,5.3,4.1,7.7
							c1.3,2.3,2.5,4.4,3.7,6.1c1.3,2.1,3.1,3.3,5.4,3.8c3,0.5,5.9,0.8,8.8,0.9c0.3,0,0.5,0,0.7,0c1.6,0,2.1-0.4,2.2-0.5
							c0.1-0.1,0.2-0.2,0.2-0.8l0-0.1l0-0.1c0.3-4.5,0.6-9.8,1.1-15.7c0.4-6,0.9-12.2,1.5-18.3c0.5-6.2,1.1-12.4,1.7-18.5
							c0.6-6,1.2-11.5,1.9-16.4c0.2-1.4,0.1-2.4-0.2-3.2c-0.1-0.2-0.5-0.9-2.5-1.7c-1.1-0.5-2.1-0.9-2.9-1.2
							c-0.8-0.3-1.6-0.5-2.3-0.7c-0.7-0.2-1.3-0.3-2-0.3c-0.8-0.1-1.7-0.1-2.6-0.2c-0.4,0-0.7,0-1.1,0c-1.4,0-2,0.2-2.2,0.4
							c-0.1,0.1-0.6,0.5-0.8,2.2c-0.7,6.8-1.3,14.4-1.8,22.5c-0.5,8.1-0.7,16.3-0.6,24.5l0.1,10.7l-4-10c-1.2-3-2.4-6.2-3.7-9.6
							c-1.2-3.3-2.5-6.6-3.6-9.7c-1.2-3.1-2.2-6.1-3.2-8.8c-1-2.7-1.7-4.9-2.3-6.7c-0.7-2-1.4-3.5-2.2-4.3c-0.7-0.8-1.9-1.4-3.6-1.8
							l-0.1,0c-2.4-0.7-4.8-1.2-6.9-1.5c-2.3-0.3-4.6-0.6-7-0.9C259.8,163.9,259.4,163.9,259.1,163.9z"/>
					</g>
				</g>
			</g>
		</g>
	</g>
	<g>
		<g>
			<g>
				<g>
					<g>
						<path class="st3" d="M326.7,150.7c3.2-1.2,6.6-2.2,10.2-2.9c3.6-0.7,7.3-1,11.1-0.9c3.8,0.1,7.5,0.7,11,1.9
							c3.6,1.2,6.9,3,9.9,5.5c3.1,2.5,5.7,5.8,7.8,10.1c1.8,3.3,3,7,3.5,11c0.5,4,0.4,8.1-0.4,12.4c-0.8,4.2-2.3,8.5-4.4,12.7
							c-2.2,4.2-5,8.3-8.5,12c-3.5,3.8-7.7,7.2-12.6,10.3c-4.9,3.1-10.4,5.5-16.6,7.4c-3.2,1.2-6.5,1-10.1-0.6
							c-1.8-0.8-3.3-1.7-4.7-2.5c-1.3-0.8-2.9-1.8-4.6-3c-0.6-0.5-1.2-1.1-1.8-1.6c-0.6-0.5-1.1-1.1-1.5-1.8
							c-0.4-0.7-0.7-1.5-0.9-2.5c-0.1-1-0.1-2.3,0-3.9l4-59.7C320.7,153.2,323.5,151.9,326.7,150.7z M344.8,207.8
							c3.4-3,6.2-6.1,8.4-9.4c2.2-3.2,3.8-6.5,4.8-9.7c1-3.2,1.6-6.2,1.8-9c0.2-3.8-0.3-6.8-1.5-8.9c-1.2-2.1-3.2-3.6-6-4.6
							c-2.8-1-6.3-0.8-10.3,0.6c-2,8.3-3.7,16.4-5.2,24.4c-1.5,8-2.9,16.1-4.3,24.3C337.2,213.4,341.3,210.8,344.8,207.8z"/>
					</g>
				</g>
			</g>
		</g>
		<g>
			<g>
				<g>
					<g>
						<path class="st3" d="M333.6,232.9c-2.2,0-4.4-0.5-6.7-1.6c-1.9-0.9-3.5-1.7-4.9-2.6c-1.4-0.8-2.9-1.9-4.7-3.1l-0.2-0.1
							c-0.6-0.6-1.3-1.1-1.9-1.6c-0.7-0.6-1.3-1.4-1.9-2.2c-0.6-0.9-0.9-2-1.1-3.3c-0.2-1.2-0.2-2.6,0-4.3l4.1-60.7l0.9-0.5
							c2.4-1.4,5.3-2.8,8.6-4c3.3-1.3,6.8-2.3,10.6-3c3.7-0.7,7.6-1,11.5-1c4,0.1,7.9,0.7,11.6,2c3.8,1.3,7.3,3.3,10.6,5.9
							c3.3,2.7,6.1,6.3,8.4,10.7c1.9,3.5,3.2,7.4,3.8,11.6c0.6,4.2,0.4,8.6-0.4,13c-0.8,4.4-2.4,8.9-4.6,13.3
							c-2.2,4.4-5.2,8.6-8.8,12.5c-3.6,3.9-8,7.4-13,10.6c-5,3.1-10.7,5.7-17,7.6C336.9,232.7,335.3,232.9,333.6,232.9z
							 M319.7,222.5c1.6,1.2,3.1,2.1,4.4,2.9c1.3,0.8,2.8,1.6,4.5,2.4c3,1.4,5.9,1.6,8.5,0.5l0.1,0c6-1.8,11.5-4.3,16.2-7.2
							c4.7-3,8.8-6.3,12.2-9.9c3.4-3.6,6.1-7.5,8.2-11.6c2.1-4.1,3.5-8.2,4.3-12.2c0.8-4,0.9-8,0.4-11.7c-0.5-3.7-1.6-7.2-3.3-10.3
							c-2.1-4-4.5-7.2-7.4-9.5c-2.9-2.3-6-4.1-9.3-5.2c-3.4-1.1-6.9-1.7-10.4-1.8c-3.6-0.1-7.2,0.2-10.7,0.9
							c-3.5,0.7-6.8,1.6-9.9,2.8c-2.7,1-5.1,2.1-7.1,3.3l-4,58.7c-0.1,1.5-0.1,2.6,0,3.4c0.1,0.7,0.3,1.3,0.6,1.8
							c0.3,0.5,0.7,1,1.1,1.4C318.5,221.5,319.1,222,319.7,222.5z M329.8,218.9l0.6-3.7c1.4-8.1,2.8-16.3,4.3-24.3
							c1.5-8,3.3-16.3,5.3-24.5l0.3-1l1-0.4c4.5-1.6,8.4-1.8,11.6-0.6c3.3,1.2,5.7,3,7.1,5.5c1.4,2.4,2,5.7,1.8,9.9
							c-0.1,2.9-0.8,6.1-1.9,9.5c-1.1,3.4-2.8,6.8-5.1,10.2c-2.3,3.4-5.2,6.7-8.8,9.7c-3.6,3.1-7.9,5.8-12.9,8.1L329.8,218.9z
							 M343.6,168.4c-1.9,7.8-3.5,15.6-5,23.2c-1.3,6.7-2.5,13.6-3.7,20.4c3.2-1.7,6.1-3.6,8.5-5.8c3.3-2.9,6-5.9,8.1-9
							c2.1-3.1,3.6-6.2,4.6-9.2c1-3,1.5-5.9,1.7-8.4c0.1-3.4-0.3-6.1-1.3-7.8c-0.9-1.7-2.6-2.9-5-3.7
							C349.4,167.4,346.7,167.5,343.6,168.4z"/>
					</g>
				</g>
			</g>
		</g>
	</g>
	<g>
		<g>
			<g>
				<g>
					<g>
						<path d="M92.3,256.4c-0.1,3.7-0.3,7.3-0.4,10.9c-0.1,1.1-0.5,1.8-0.9,2.2c-0.5,0.4-1.5,0.6-2.9,0.5c-1.7-0.2-3.3-0.3-4.6-0.3
							c-1.3,0-2.7-0.3-3.9-0.7c-1.3-0.5-2.2-1.2-2.8-2.1c-0.6-0.9-1-2.2-1.1-3.9c-0.1-1.4-0.2-3.3-0.4-5.9c-0.2-2.6-0.4-5.5-0.6-8.8
							c-0.2-3.3-0.4-6.8-0.6-10.6c-0.2-3.8-0.4-7.5-0.5-11.3c-0.1-3.8-0.2-7.4-0.2-11c0-3.6,0.1-6.8,0.3-9.7
							c0.2-2.9,0.5-5.3,0.9-7.2c0.5-1.9,1-3.2,1.8-3.8c3.6-2.4,7.3-4.9,11.2-7.3c3.9-2.4,7.8-4.4,11.8-5.8c3.9-1.4,7.8-2.1,11.5-2.2
							c3.7,0,7.2,1.1,10.3,3.4c2.6,2.1,4.9,4.3,7.2,6.8c2.2,2.5,4.1,5.6,5.8,9.5c1.5,4.1,1.7,7.7,0.8,10.7c-1.5,4.8-4.4,9.4-8.8,14
							c-4.4,4.5-9.8,9-16.2,13.4c1.7,1.4,3.5,2.9,5.5,4.5c2,1.6,4,3.1,6.1,4.7c2.1,1.5,4.2,3,6.2,4.4c2,1.4,3.9,2.6,5.7,3.6
							c1.4,0.9,2.1,1.6,2.1,2.3c0,0.7-0.4,1.4-1.3,2.3c-1,1.1-1.8,1.8-2.6,2.1c-0.7,0.3-1.7,0.6-2.8,1c-1.3,0.6-2.8,1-4.5,1.1
							c-1.7,0.1-3.7-0.3-6.1-1.3c-1.6-0.8-3.4-1.8-5.5-3c-2.1-1.2-4.3-2.6-6.6-4.1c-2.3-1.5-4.6-3.1-6.9-4.8
							c-2.3-1.7-4.4-3.4-6.4-5.2C92.6,248.8,92.5,252.7,92.3,256.4z M95.4,215.2c-0.3,3.9-0.8,8-1.3,12.4c4-2.2,7.5-4.6,10.5-7.3
							c3-2.7,5.4-5.3,7.3-7.9c1.9-2.6,3.2-4.9,3.8-7.1c0.7-2.1,0.7-3.7,0.2-4.7c-1-1.7-3.4-2.2-7-1.6c-1.8,0.3-3.7,0.9-5.8,1.7
							c-2.1,0.8-4.3,2-6.5,3.7C96.1,207.7,95.7,211.3,95.4,215.2z"/>
					</g>
				</g>
			</g>
		</g>
		<g>
			<g>
				<g>
					<g>
						<path d="M88.7,270.4c-0.2,0-0.4,0-0.7,0c-1.7-0.2-3.3-0.3-4.6-0.3c-1.4,0-2.7-0.3-4.1-0.7c-1.4-0.5-2.4-1.3-3-2.3
							c-0.6-1-1-2.3-1.2-4.1c-0.1-1.4-0.2-3.3-0.4-5.9c-0.2-2.6-0.4-5.5-0.6-8.8c-0.2-3.3-0.4-6.9-0.6-10.6
							c-0.2-3.8-0.4-7.6-0.5-11.3c-0.1-3.8-0.2-7.5-0.2-11c0-3.6,0.1-6.8,0.3-9.7c0.2-2.9,0.5-5.3,0.9-7.3c0.5-2.1,1.1-3.4,1.9-4
							c3.6-2.4,7.3-4.9,11.2-7.3c3.9-2.4,7.9-4.4,11.8-5.8c4-1.4,7.9-2.2,11.6-2.2c3.8,0,7.4,1.2,10.6,3.5c2.6,2.1,5,4.4,7.2,6.8
							c2.2,2.5,4.2,5.7,5.8,9.6c1.5,4.2,1.8,7.9,0.8,11c-1.5,4.8-4.5,9.6-8.9,14.1c-4.3,4.4-9.6,8.9-15.9,13.1
							c1.6,1.3,3.3,2.7,5.1,4.1c2,1.5,4,3.1,6.1,4.6c2.1,1.5,4.1,3,6.2,4.4c2,1.4,3.9,2.6,5.7,3.6c1.6,1,2.3,1.8,2.3,2.7
							c0,0.8-0.5,1.6-1.4,2.5c-1,1.1-1.9,1.8-2.7,2.2c-0.8,0.3-1.7,0.6-2.8,1c-1.3,0.6-2.8,1-4.6,1.1c-1.7,0.1-3.8-0.3-6.3-1.3
							c-1.6-0.8-3.5-1.8-5.6-3c-2.1-1.2-4.3-2.6-6.6-4.1c-2.3-1.5-4.6-3.1-6.9-4.8c-2.1-1.5-4-3.1-5.8-4.6
							c-0.2,3.7-0.4,7.3-0.5,10.8c-0.1,3.7-0.3,7.3-0.4,10.9c-0.2,1.2-0.5,2-1.1,2.5C90.8,270.2,89.9,270.4,88.7,270.4z
							 M110.7,179.8c-3.7,0-7.5,0.7-11.4,2.1c-3.9,1.4-7.8,3.3-11.7,5.8c-3.9,2.4-7.6,4.9-11.2,7.3c-0.6,0.5-1.2,1.7-1.6,3.6
							c-0.4,1.9-0.8,4.3-0.9,7.2c-0.2,2.9-0.3,6.1-0.3,9.6c0,3.5,0.1,7.2,0.2,11c0.1,3.7,0.3,7.5,0.5,11.3c0.2,3.7,0.4,7.2,0.6,10.6
							c0.2,3.3,0.4,6.2,0.6,8.8c0.2,2.6,0.3,4.6,0.4,5.9c0.1,1.6,0.5,2.8,1,3.7c0.5,0.8,1.4,1.5,2.6,2c1.2,0.4,2.5,0.6,3.8,0.7
							c1.3,0,2.9,0.1,4.7,0.3c0.2,0,0.4,0,0.6,0c1.3,0,1.8-0.2,2-0.4c0.4-0.3,0.7-1,0.8-2c0.1-3.5,0.3-7.1,0.4-10.8
							c0.1-3.7,0.3-7.6,0.6-11.6l0-0.8l0.6,0.6c1.9,1.7,4,3.5,6.3,5.1c2.3,1.7,4.6,3.3,6.9,4.8c2.3,1.5,4.5,2.9,6.6,4.1
							c2.1,1.2,4,2.2,5.5,3c2.3,0.9,4.3,1.4,5.9,1.2c1.6-0.1,3.1-0.5,4.3-1.1c1.1-0.4,2-0.7,2.8-1c0.7-0.3,1.5-0.9,2.4-2
							c0.8-0.8,1.1-1.5,1.2-2c0-0.3-0.2-0.9-1.9-1.9c-1.7-1-3.7-2.2-5.7-3.7c-2.1-1.4-4.2-2.9-6.2-4.5c-2.1-1.5-4.2-3.1-6.2-4.7
							c-2-1.5-3.9-3-5.6-4.5l-0.4-0.3l0.4-0.3c6.4-4.3,11.8-8.8,16.2-13.3c4.3-4.5,7.3-9.1,8.7-13.8c1-2.9,0.7-6.4-0.8-10.4
							c-1.6-3.8-3.5-6.9-5.7-9.4c-2.2-2.4-4.6-4.7-7.1-6.7C117.7,180.9,114.3,179.8,110.7,179.8z M93.6,228.3l0.1-0.8
							c0.5-4.4,0.9-8.6,1.3-12.4c0.3-3.9,0.7-7.5,1.2-10.9l0-0.2l0.1-0.1c2.2-1.6,4.5-2.9,6.6-3.7c2.1-0.8,4.1-1.4,5.9-1.7
							c3.8-0.7,6.3-0.1,7.4,1.7c0.6,1.2,0.6,2.8-0.1,5.1c-0.7,2.2-2,4.6-3.9,7.2c-1.9,2.6-4.4,5.3-7.3,8c-3,2.7-6.5,5.2-10.6,7.4
							L93.6,228.3z M97,204.5c-0.5,3.3-0.9,7-1.2,10.7c-0.3,3.6-0.7,7.5-1.2,11.6c3.7-2.1,7-4.4,9.8-6.9c2.9-2.7,5.4-5.3,7.2-7.9
							c1.8-2.5,3.1-4.9,3.8-7c0.6-2,0.7-3.5,0.2-4.4c-0.9-1.5-3.2-1.9-6.6-1.3c-1.8,0.3-3.7,0.9-5.8,1.7
							C101.2,201.8,99.1,202.9,97,204.5z"/>
					</g>
				</g>
			</g>
		</g>
	</g>
	<g>
		<g>
			<g>
				<g>
					<g>
						<path d="M188.8,180.3c1.4,2,2.6,4.4,3.6,7.1c1.4,4.5,2.4,9.6,2.9,15.1c0.5,5.5,0.5,11.1-0.1,16.7c-0.6,5.6-1.8,11.1-3.5,16.3
							c-1.7,5.2-4.2,9.8-7.3,13.7c-2.2,2.4-4.6,4.2-7.2,5.3c-2.6,1.1-5.7,1.8-9.3,2c-2.4,0.1-4.9,0.2-7.4,0c-2.6-0.1-5-0.5-7.2-1.3
							c-1.8-0.6-3.6-1.5-5.5-2.6c-1.8-1.1-3.4-2.5-4.6-4.1c-2-2.7-3.6-5.8-4.9-9.4c-1.3-3.6-2.3-7.4-2.9-11.5
							c-0.6-4.1-0.8-8.3-0.6-12.7c0.2-4.4,0.8-8.7,1.8-13c1-4.3,2.5-8.5,4.3-12.5c1.9-4,4.2-7.7,6.9-11.2c1.9-2.1,4.3-3.8,7.1-5.2
							c2.9-1.4,5.7-2.1,8.5-2.1c3.6,0,7.1,0.3,10.5,1c3.4,0.7,6.3,1.7,8.7,3C185.3,176.5,187.3,178.3,188.8,180.3z M165.1,189.4
							c-1.4,1.8-2.6,4.2-3.8,7.2c-1.2,3-2.2,6.2-3.1,9.7c-0.9,3.5-1.5,6.9-1.9,10.1c-0.4,3.1-0.5,6.4-0.4,9.6
							c0.1,3.3,0.5,6.3,1.1,9.1c0.6,2.8,1.4,5.1,2.4,6.9c1.1,1.9,2.3,2.9,3.8,3.1c1.4,0.2,2.7-0.3,4-1.6c1.3-1.3,2.4-3.1,3.5-5.4
							c1.1-2.3,2-5.2,2.8-8.5c0.8-3.3,1.3-6.9,1.7-10.7c0.3-3.1,0.4-6.5,0.4-10.2c-0.1-3.7-0.4-7.1-0.9-10.2c-0.5-3.2-1.2-5.9-2.2-8
							c-1-2.2-2.1-3.3-3.4-3.5C167.8,186.8,166.4,187.6,165.1,189.4z"/>
					</g>
				</g>
			</g>
		</g>
		<g>
			<g>
				<g>
					<g>
						<path d="M163.8,257c-1.1,0-2.3,0-3.4-0.1c-2.6-0.1-5-0.6-7.3-1.3c-1.8-0.6-3.7-1.5-5.6-2.6c-1.9-1.1-3.4-2.6-4.7-4.2
							c-2-2.7-3.7-5.9-5-9.5c-1.3-3.6-2.3-7.5-2.9-11.6c-0.6-4.1-0.8-8.4-0.6-12.8c0.2-4.4,0.8-8.8,1.8-13.1c1-4.3,2.5-8.5,4.4-12.6
							c1.9-4,4.2-7.8,7-11.2c1.9-2.1,4.4-3.9,7.3-5.3c2.9-1.4,5.8-2.2,8.7-2.2l0.4,0c3.5,0,6.9,0.3,10.2,1c3.4,0.7,6.4,1.7,8.8,3.1
							c2.7,1.6,4.8,3.4,6.3,5.5c1.5,2,2.7,4.5,3.6,7.2c1.4,4.6,2.4,9.7,2.9,15.2c0.5,5.5,0.5,11.2-0.1,16.8
							c-0.6,5.6-1.8,11.1-3.5,16.4c-1.7,5.2-4.2,9.9-7.4,13.8c-2.2,2.4-4.7,4.3-7.3,5.4c-2.6,1.1-5.8,1.8-9.5,2.1
							C166.5,257,165.2,257,163.8,257z M163.9,171.3l-0.4,0c-2.7,0-5.5,0.7-8.3,2.1c-2.8,1.4-5.2,3.1-7,5.2c-2.7,3.4-5,7.1-6.9,11.1
							c-1.8,4-3.3,8.1-4.3,12.4c-1,4.2-1.6,8.6-1.8,13c-0.2,4.3,0,8.6,0.6,12.6c0.6,4.1,1.6,7.9,2.9,11.4c1.3,3.5,3,6.6,4.9,9.3
							c1.2,1.6,2.7,2.9,4.5,4c1.8,1.1,3.6,2,5.4,2.6c2.2,0.7,4.6,1.1,7.1,1.3c2.5,0.1,5,0.1,7.4,0c3.5-0.2,6.6-0.9,9.2-2
							c2.6-1.1,4.9-2.9,7-5.2c3.1-3.9,5.5-8.4,7.2-13.6c1.7-5.2,2.9-10.6,3.5-16.2c0.6-5.6,0.6-11.2,0.1-16.6
							c-0.5-5.5-1.5-10.5-2.9-15c-0.9-2.7-2.1-5-3.5-7c-1.4-2-3.4-3.7-6-5.3c-2.3-1.3-5.2-2.3-8.5-3
							C170.7,171.6,167.3,171.3,163.9,171.3z M164,245.5L164,245.5c-0.2,0-0.5,0-0.7-0.1c-1.6-0.2-3-1.3-4.1-3.3
							c-1.1-1.9-1.9-4.2-2.5-7c-0.6-2.8-0.9-5.8-1.1-9.1c-0.1-3.3,0-6.6,0.4-9.7c0.4-3.2,1-6.6,1.9-10.1c0.9-3.5,1.9-6.8,3.1-9.8
							c1.2-3,2.5-5.4,3.9-7.3c1.4-2,3-2.8,4.5-2.6c1.4,0.2,2.7,1.4,3.7,3.7c1,2.2,1.7,4.9,2.2,8.1c0.5,3.1,0.8,6.6,0.9,10.3
							c0.1,3.7,0,7.1-0.4,10.3c-0.3,3.8-0.9,7.4-1.7,10.7c-0.8,3.3-1.7,6.2-2.8,8.6c-1.1,2.4-2.3,4.2-3.6,5.5
							C166.4,245,165.2,245.5,164,245.5z M168.7,187.4c-1.1,0-2.2,0.8-3.3,2.3c-1.3,1.8-2.6,4.2-3.8,7.1c-1.2,2.9-2.2,6.2-3.1,9.7
							c-0.9,3.5-1.5,6.9-1.9,10c-0.4,3.1-0.5,6.3-0.4,9.6c0.1,3.3,0.5,6.3,1.1,9c0.6,2.7,1.4,5,2.4,6.8c1,1.7,2.2,2.7,3.5,2.9
							c0.2,0,0.4,0,0.6,0c1,0,2.1-0.5,3.1-1.5c1.2-1.2,2.4-3,3.4-5.3c1.1-2.3,2-5.1,2.8-8.4c0.8-3.3,1.3-6.9,1.7-10.6
							c0.3-3.1,0.4-6.5,0.4-10.2c-0.1-3.7-0.4-7.1-0.9-10.2c-0.5-3.1-1.2-5.8-2.2-7.9c-0.9-2-1.9-3.1-3.1-3.3
							C169,187.4,168.9,187.4,168.7,187.4z"/>
					</g>
				</g>
			</g>
		</g>
	</g>
	<g>
		<g>
			<g>
				<g>
					<g>
						<path d="M200,231.3c-1.1-3-1.9-6.3-2.5-10c-0.6-3.7-1-7.7-1.1-11.9c-0.2-4.2-0.2-8.5-0.1-13c0.1-4.4,0.3-8.9,0.7-13.3
							c0.3-4.5,0.7-8.9,1.2-13.1c0.2-1.9,0.7-3.2,1.6-3.7s2.4-0.6,4.5-0.3c2,0.3,3.9,0.7,5.7,1.3c1.8,0.6,3.7,1.4,5.5,2.3
							c3.7,1.9,5.4,4.9,5,9c-0.5,3.5-0.9,7.2-1.4,11.3c-0.5,4-0.8,8.1-1.1,12.2c-0.3,4.1-0.5,8.1-0.5,12c0,3.9,0.1,7.3,0.4,10.3
							c0.3,3,0.9,5.5,1.7,7.4c0.8,1.9,1.9,2.9,3.3,3.1c1.7,0.2,3.3-0.9,4.5-3.3c1.3-2.4,2.3-5.6,3.2-9.5c0.9-4,1.6-8.5,2.1-13.7
							c0.5-5.1,1-10.4,1.3-15.8c0.3-5.4,0.5-10.7,0.6-15.9c0.1-5.2,0.2-9.8,0.3-13.9c-0.2-1.9,0.3-3.2,1.5-3.8
							c1.2-0.6,2.7-0.8,4.5-0.6c1.8,0.2,3.9,0.6,6,1.3c2.2,0.7,4.2,1.4,6,2.2c1,0.4,1.7,0.8,2.3,1.2s0.9,0.8,1.2,1.3
							c0.3,0.5,0.4,1,0.5,1.6c0,0.6,0,1.4,0,2.2c-0.4,9.4-0.9,18.1-1.6,26.1c-0.7,7.9-1.6,15-2.7,21.2c-1.2,6.2-2.7,11.5-4.5,15.9
							c-1.8,4.4-4.1,7.7-6.9,10c-2,1.5-4,2.6-6.1,3.4c-2.1,0.8-4.6,1.3-7.4,1.6c-5.6,0.6-10.4,0.1-14.3-1.3
							c-1.7-0.6-3.3-1.4-4.9-2.4c-1.6-1-3-2.3-4.3-3.9C202.5,236.8,201.1,234.3,200,231.3z"/>
					</g>
				</g>
			</g>
		</g>
		<g>
			<g>
				<g>
					<g>
						<path d="M223,247.1c-3.7,0-7-0.5-9.9-1.6c-1.7-0.6-3.4-1.5-5-2.4c-1.6-1-3.1-2.3-4.4-4c-1.7-2-3.1-4.6-4.2-7.6
							c-1.1-3-1.9-6.4-2.5-10.1c-0.6-3.7-1-7.7-1.2-11.9c-0.2-4.2-0.2-8.6-0.1-13c0.1-4.4,0.3-8.9,0.7-13.3
							c0.3-4.4,0.7-8.9,1.2-13.1c0.2-2.1,0.8-3.4,1.8-4c1-0.6,2.6-0.7,4.8-0.3c1.9,0.3,3.9,0.7,5.8,1.3c1.9,0.6,3.7,1.4,5.5,2.3
							c3.9,2,5.6,5.1,5.2,9.4c-0.5,3.5-0.9,7.3-1.4,11.3c-0.5,4-0.8,8.1-1.1,12.2c-0.3,4.1-0.5,8.1-0.5,12c0,3.8,0.1,7.3,0.4,10.3
							c0.3,3,0.9,5.4,1.6,7.3c0.7,1.8,1.7,2.7,3,2.8c0.1,0,0.2,0,0.3,0c1.4,0,2.7-1.1,3.8-3.1c1.2-2.3,2.3-5.5,3.2-9.4
							c0.9-4,1.6-8.5,2.1-13.6c0.5-5.1,1-10.4,1.3-15.8c0.3-5.4,0.5-10.7,0.6-15.9c0.1-5.2,0.2-9.8,0.3-13.9
							c-0.2-2.1,0.4-3.5,1.7-4.1c1.2-0.6,2.8-0.8,4.7-0.7c1.9,0.2,3.9,0.6,6.1,1.3c2.2,0.7,4.2,1.4,6.1,2.2c1,0.4,1.8,0.9,2.3,1.3
							c0.6,0.4,1,0.9,1.3,1.4c0.3,0.5,0.5,1.1,0.5,1.8c0,0.6,0,1.4,0,2.3c-0.4,9.4-0.9,18.2-1.6,26.1c-0.7,7.9-1.6,15.1-2.7,21.3
							c-1.2,6.2-2.7,11.6-4.5,16c-1.9,4.4-4.2,7.8-7,10.2c-2,1.5-4.1,2.6-6.3,3.4c-2.1,0.8-4.6,1.3-7.5,1.6
							C226.1,247,224.5,247.1,223,247.1z M202.1,166.2c-0.9,0-1.6,0.1-2.1,0.4c-0.8,0.5-1.3,1.6-1.5,3.4c-0.5,4.3-0.9,8.7-1.2,13.1
							c-0.3,4.4-0.6,8.9-0.7,13.3c-0.1,4.4-0.1,8.7,0.1,12.9c0.2,4.2,0.6,8.2,1.1,11.8c0.6,3.7,1.4,7,2.5,10
							c1.1,2.9,2.4,5.4,4.1,7.4c1.2,1.6,2.6,2.9,4.2,3.8c1.5,1,3.1,1.8,4.8,2.4c3.8,1.4,8.6,1.8,14.2,1.3c2.8-0.3,5.2-0.8,7.3-1.6
							c2.1-0.8,4.1-1.9,6.1-3.3c2.7-2.2,4.9-5.6,6.8-9.9c1.8-4.3,3.3-9.7,4.5-15.8c1.2-6.2,2.1-13.3,2.7-21.2
							c0.7-7.9,1.2-16.7,1.6-26c0.1-0.8,0.1-1.6,0-2.2c0-0.6-0.2-1-0.4-1.5c-0.2-0.4-0.6-0.8-1.1-1.2c-0.5-0.4-1.2-0.8-2.2-1.2
							c-1.8-0.7-3.8-1.4-6-2.2c-2.1-0.7-4.1-1.1-6-1.3c-1.8-0.2-3.2,0-4.3,0.6c-1,0.5-1.4,1.6-1.3,3.4c-0.1,4.1-0.2,8.8-0.3,14
							c-0.1,5.2-0.3,10.5-0.6,15.9c-0.3,5.4-0.7,10.7-1.3,15.8c-0.5,5.1-1.2,9.7-2.1,13.7c-0.9,4-1.9,7.2-3.2,9.6
							c-1.3,2.5-3,3.7-4.9,3.5c-1.6-0.2-2.8-1.3-3.6-3.3c-0.8-1.9-1.4-4.4-1.7-7.5c-0.3-3-0.5-6.5-0.4-10.4c0-3.9,0.2-7.9,0.5-12
							c0.3-4.1,0.7-8.2,1.1-12.2c0.5-4,0.9-7.8,1.4-11.3c0.4-3.9-1.1-6.7-4.8-8.6c-1.8-0.9-3.6-1.7-5.4-2.3c-1.8-0.6-3.7-1-5.6-1.3
							C203.4,166.2,202.7,166.2,202.1,166.2z"/>
					</g>
				</g>
			</g>
		</g>
	</g>
	<g>
		<g>
			<g>
				<g>
					<g>
						<path d="M298.3,175.3c0.5-8.4,1.1-16.2,1.8-23.3c0.2-1.9,0.8-3.2,1.7-3.8c1-0.6,2.5-0.8,4.5-0.7c1,0.1,1.8,0.2,2.6,0.2
							c0.8,0.1,1.5,0.2,2.3,0.4c0.8,0.2,1.6,0.5,2.5,0.8c0.9,0.3,1.9,0.7,3.1,1.2c2,0.8,3.2,1.8,3.6,3c0.4,1.1,0.5,2.6,0.3,4.3
							c-0.7,5-1.3,10.6-1.9,16.8c-0.6,6.3-1.1,12.6-1.7,19.1c-0.5,6.4-1,12.7-1.5,18.9c-0.4,6.1-0.8,11.5-1.1,16.2
							c0,2.5-1.7,3.6-5.2,3.4c-2.9-0.1-6-0.4-9.1-1c-2.9-0.6-5.1-2.2-6.7-4.8c-1.2-1.8-2.4-4-3.8-6.4c-1.3-2.5-2.7-5.1-4.1-8
							c-1.4-2.9-2.9-5.9-4.3-9c-1.5-3.1-2.9-6.3-4.2-9.5c0,4.1-0.1,8.1-0.2,12.2c-0.1,4.1-0.2,8-0.2,11.7c-0.1,3.7-0.1,7.2-0.2,10.3
							c0,3.2,0,5.9,0,8.3c-0.1,1.1-0.4,1.9-0.9,2.3c-0.5,0.4-1.6,0.5-3.3,0.3c-1.5-0.1-3.1-0.3-4.7-0.4c-1.6-0.2-3.2-0.6-4.7-1.2
							c-1.5-0.5-2.5-1.1-3.1-2c-0.6-0.8-1-2.1-1.1-3.8c-0.2-1.7-0.3-4.2-0.6-7.5c-0.2-3.2-0.4-6.9-0.6-11c-0.2-4.1-0.4-8.6-0.5-13.3
							c-0.2-4.7-0.3-9.4-0.3-14.1c-0.1-4.7-0.1-9.3,0-13.7c0-4.4,0.1-8.3,0.3-11.7c0.1-2,0.7-3.3,1.7-4c1-0.7,2.6-0.9,4.6-0.7
							c2.4,0.3,4.7,0.6,7,1c2.3,0.3,4.7,0.9,7.2,1.6c2.1,0.5,3.6,1.3,4.6,2.4c1,1.1,1.9,2.8,2.7,5.2c0.6,1.8,1.4,4.1,2.3,6.9
							c1,2.8,2,5.8,3.2,9c1.2,3.2,2.4,6.6,3.6,10c1.3,3.4,2.5,6.7,3.7,9.8C297.6,192.2,297.8,183.8,298.3,175.3z"/>
					</g>
				</g>
			</g>
		</g>
		<g>
			<g>
				<g>
					<g>
						<path d="M274,238.8c-0.4,0-0.9,0-1.4-0.1c-1.5-0.1-3.1-0.3-4.7-0.4c-1.6-0.2-3.2-0.6-4.8-1.2c-1.5-0.5-2.6-1.2-3.3-2.1
							c-0.7-0.9-1.1-2.2-1.2-4c-0.2-1.8-0.4-4.3-0.6-7.5c-0.2-3.3-0.4-7-0.6-11.1c-0.2-4.1-0.4-8.6-0.5-13.3
							c-0.2-4.8-0.3-9.5-0.3-14.2c-0.1-4.7-0.1-9.3,0-13.7c0-4.4,0.1-8.4,0.3-11.8c0.1-2.1,0.8-3.6,1.9-4.3c1.1-0.7,2.7-1,4.8-0.8
							c2.4,0.3,4.8,0.6,7.1,1c2.3,0.3,4.7,0.9,7.3,1.6c2.1,0.5,3.7,1.4,4.8,2.5c1,1.1,2,2.9,2.7,5.3c0.6,1.8,1.4,4.1,2.3,6.9
							c0.9,2.7,2,5.8,3.2,9c1.2,3.2,2.4,6.6,3.6,10c1,2.7,2,5.3,2.9,7.8c0-7.8,0.2-15.6,0.7-23.3c0.5-8.4,1.1-16.2,1.8-23.3
							c0.2-2,0.9-3.4,1.9-4.1c1-0.7,2.6-0.9,4.8-0.7c1,0.1,1.8,0.2,2.6,0.2c0.8,0.1,1.6,0.2,2.4,0.4c0.8,0.2,1.6,0.5,2.5,0.8
							c0.9,0.3,1.9,0.7,3.1,1.3c2.1,0.9,3.3,2,3.8,3.2c0.4,1.2,0.5,2.7,0.3,4.5c-0.7,5-1.3,10.6-1.9,16.8c-0.6,6.2-1.1,12.7-1.7,19
							c-0.5,6.3-1,12.7-1.5,18.9c-0.4,6.1-0.8,11.6-1.1,16.1c0,1.1-0.3,2-0.9,2.6c-0.9,0.9-2.5,1.3-4.6,1.2c-2.9-0.1-6-0.4-9.2-1
							c-3-0.6-5.3-2.3-7-4.9c-1.2-1.8-2.4-4-3.8-6.5c-1.3-2.5-2.7-5.2-4.1-8c-1.4-2.8-2.8-5.9-4.3-9c-1.2-2.6-2.4-5.2-3.5-7.7
							c0,3.4-0.1,6.9-0.2,10.3l-0.2,11.7c-0.1,3.7-0.1,7.2-0.2,10.3c0,3.1,0,5.9,0,8.3c-0.1,1.3-0.4,2.1-1,2.6
							C275.7,238.6,275,238.8,274,238.8z M262.1,155.2c-1.3,0-2.4,0.2-3.1,0.7c-0.9,0.6-1.4,1.8-1.6,3.7c-0.1,3.4-0.2,7.3-0.3,11.7
							c0,4.3,0,8.9,0,13.6c0.1,4.6,0.2,9.4,0.3,14.1c0.2,4.7,0.3,9.2,0.5,13.3c0.2,4.1,0.4,7.8,0.6,11c0.2,3.1,0.4,5.7,0.6,7.5
							c0.1,1.6,0.5,2.8,1.1,3.6c0.6,0.8,1.5,1.4,2.9,1.8c1.6,0.6,3.1,1,4.6,1.2c1.6,0.2,3.1,0.3,4.7,0.4c0.5,0.1,1,0.1,1.4,0.1
							c1,0,1.5-0.2,1.7-0.3c0.4-0.3,0.7-1,0.7-2c-0.1-2.3-0.1-5.1,0-8.3c0-3.2,0.1-6.6,0.2-10.3l0.2-11.7c0.1-4.1,0.1-8.1,0.2-12.2
							l0-1.9l0.7,1.8c1.3,3.1,2.7,6.3,4.2,9.4c1.5,3.1,2.9,6.2,4.3,9c1.4,2.8,2.8,5.5,4.1,8c1.3,2.4,2.6,4.6,3.7,6.4
							c1.5,2.5,3.7,4,6.4,4.6c3.1,0.6,6.2,0.9,9.1,1c0.3,0,0.5,0,0.7,0c1.6,0,2.7-0.3,3.3-1c0.5-0.5,0.7-1.2,0.7-2.1
							c0.3-4.6,0.6-10.1,1.1-16.2c0.4-6.2,0.9-12.5,1.5-18.9c0.5-6.4,1.1-12.8,1.7-19.1c0.6-6.2,1.2-11.9,1.9-16.8
							c0.2-1.7,0.1-3.1-0.2-4.1c-0.4-1-1.5-2-3.4-2.7c-1.2-0.5-2.2-0.9-3-1.2c-0.9-0.3-1.7-0.6-2.4-0.8c-0.7-0.2-1.5-0.3-2.2-0.4
							c-0.8-0.1-1.7-0.1-2.6-0.2c-1.9-0.2-3.4,0-4.3,0.6c-0.8,0.5-1.4,1.7-1.5,3.5c-0.7,7.1-1.3,14.9-1.8,23.3
							c-0.5,8.4-0.7,16.9-0.6,25.4l0,2.2l-0.8-2.1c-1.2-3.1-2.4-6.4-3.7-9.8c-1.3-3.4-2.5-6.8-3.6-10c-1.2-3.3-2.2-6.3-3.2-9
							c-1-2.8-1.7-5.1-2.3-6.9c-0.7-2.3-1.6-4-2.6-5.1c-0.9-1-2.4-1.8-4.4-2.3c-2.5-0.7-4.9-1.3-7.2-1.6c-2.2-0.3-4.6-0.6-7-1
							C262.9,155.2,262.5,155.2,262.1,155.2z"/>
					</g>
				</g>
			</g>
		</g>
	</g>
	<g>
		<g>
			<g>
				<g>
					<g>
						<path class="st4" d="M86.1,254.7c-0.1,3.6-0.3,7.1-0.4,10.5c-0.1,1-0.5,1.8-0.9,2.2c-0.5,0.4-1.4,0.6-2.9,0.5
							c-1.7-0.2-3.3-0.3-4.6-0.3c-1.3,0-2.6-0.3-3.9-0.7c-1.3-0.5-2.2-1.2-2.8-2.1c-0.6-0.9-1-2.1-1.1-3.8c-0.1-1.3-0.2-3.2-0.4-5.7
							c-0.2-2.5-0.4-5.3-0.6-8.5c-0.2-3.2-0.4-6.6-0.6-10.2c-0.2-3.6-0.4-7.3-0.5-11c-0.1-3.7-0.2-7.2-0.2-10.7
							c0-3.5,0.1-6.6,0.3-9.4c0.2-2.8,0.5-5.1,0.9-7c0.4-1.9,1-3.1,1.8-3.7c3.5-2.4,7.3-4.7,11.2-7.1c3.9-2.4,7.8-4.2,11.7-5.6
							c3.9-1.4,7.7-2.1,11.5-2.1c3.7,0,7.1,1.1,10.3,3.3c2.5,2,4.9,4.2,7.1,6.6c2.2,2.4,4.1,5.5,5.8,9.2c1.5,4,1.7,7.5,0.8,10.3
							c-1.5,4.6-4.4,9.1-8.8,13.5c-4.4,4.4-9.8,8.7-16.2,13c1.7,1.4,3.5,2.8,5.5,4.3c2,1.5,4,3,6.1,4.5c2.1,1.5,4.1,2.9,6.2,4.3
							c2,1.4,3.9,2.6,5.7,3.5c1.4,0.8,2.1,1.6,2.1,2.2c0,0.6-0.4,1.4-1.3,2.2c-1,1-1.8,1.7-2.6,2c-0.7,0.3-1.7,0.6-2.7,1
							c-1.3,0.6-2.8,1-4.4,1.1c-1.7,0.1-3.7-0.3-6.1-1.2c-1.6-0.8-3.4-1.7-5.5-2.9c-2.1-1.2-4.3-2.5-6.6-4c-2.3-1.5-4.6-3-6.9-4.6
							c-2.3-1.6-4.4-3.3-6.3-5C86.4,247.3,86.2,251.1,86.1,254.7z M89.1,214.7c-0.3,3.7-0.8,7.7-1.2,12c4-2.1,7.5-4.5,10.5-7.1
							c3-2.6,5.4-5.2,7.2-7.7c1.9-2.5,3.1-4.8,3.8-6.9c0.7-2.1,0.7-3.6,0.2-4.6c-1-1.6-3.4-2.1-7-1.5c-1.8,0.3-3.7,0.8-5.8,1.6
							c-2.1,0.8-4.2,2-6.5,3.5C89.9,207.5,89.5,211,89.1,214.7z"/>
					</g>
				</g>
			</g>
		</g>
		<g>
			<g>
				<g>
					<g>
						<path d="M82.5,269.8c-0.2,0-0.5,0-0.8,0l-0.1,0c-1.7-0.2-3.2-0.2-4.5-0.3c-1.5,0-3-0.3-4.5-0.8l-0.1,0
							c-1.7-0.6-2.9-1.6-3.8-2.8c-0.8-1.2-1.3-2.7-1.4-4.7c-0.1-1.4-0.2-3.3-0.4-5.8c-0.2-2.5-0.4-5.4-0.6-8.5
							c-0.2-3.2-0.4-6.7-0.6-10.3c-0.2-3.7-0.4-7.4-0.5-11c-0.1-3.7-0.2-7.3-0.2-10.7c0-3.5,0.1-6.7,0.3-9.5c0.2-2.9,0.5-5.4,1-7.3
							c0.6-2.4,1.4-3.9,2.5-4.8l0.1-0.1c3.6-2.4,7.3-4.8,11.2-7.1c4-2.4,8.1-4.4,12.1-5.8c4.1-1.4,8.2-2.2,12.1-2.2
							c4.1,0,8,1.2,11.4,3.6l0.1,0.1c2.6,2,5.1,4.3,7.4,6.8c2.3,2.5,4.4,5.8,6.1,9.7l0,0.1c1.6,4.4,1.9,8.3,0.8,11.7
							c-1.5,4.9-4.6,9.7-9.2,14.3c-3.9,4-8.7,7.9-14.2,11.7c1.1,0.9,2.2,1.7,3.4,2.6c2,1.5,4,3,6.1,4.5c2,1.5,4.1,2.9,6.1,4.3
							c2,1.3,3.8,2.5,5.5,3.4c1.4,0.8,3.2,2.1,3.1,4c0,1.2-0.6,2.3-1.8,3.5c-1.2,1.2-2.2,2.1-3.3,2.5c-0.7,0.3-1.6,0.6-2.7,1
							c-1.5,0.7-3.2,1.1-5,1.2c-2,0.1-4.2-0.3-6.9-1.4l-0.1-0.1c-1.6-0.8-3.5-1.7-5.6-3c-2.1-1.2-4.4-2.6-6.7-4
							c-2.3-1.5-4.6-3-6.9-4.7c-1.2-0.8-2.4-1.7-3.5-2.6c-0.1,2.5-0.2,4.9-0.3,7.3c-0.1,3.6-0.3,7.1-0.4,10.5l0,0.2
							c-0.2,1.6-0.7,2.7-1.6,3.4C85.2,269.5,84.1,269.8,82.5,269.8z M82,265.8c0.2,0,0.4,0,0.5,0c0.6,0,0.9-0.1,1-0.1
							c0-0.1,0.1-0.3,0.2-0.8c0.1-3.4,0.3-6.9,0.4-10.4c0.1-3.6,0.3-7.4,0.6-11.3l0.3-4l3,2.7c1.9,1.7,3.9,3.3,6.2,4.9
							c2.3,1.6,4.6,3.1,6.8,4.6c2.2,1.4,4.4,2.7,6.5,3.9c2,1.1,3.8,2.1,5.3,2.8c2.1,0.8,3.8,1.2,5.1,1.1c1.4-0.1,2.7-0.4,3.8-0.9
							l0.2-0.1c1.1-0.4,1.9-0.7,2.7-1c0.2-0.1,0.8-0.4,1.8-1.5c0.3-0.3,0.5-0.5,0.6-0.7c-0.2-0.2-0.5-0.4-1-0.7
							c-1.7-1-3.7-2.2-5.8-3.6c-2.1-1.4-4.2-2.8-6.2-4.3c-2.1-1.5-4.2-3-6.2-4.5c-2-1.5-3.9-3-5.6-4.4l-2.1-1.7l2.2-1.5
							c6.3-4.1,11.6-8.4,15.9-12.7c4.1-4.2,6.9-8.4,8.3-12.7c0.8-2.5,0.6-5.5-0.7-9c-1.5-3.5-3.3-6.4-5.4-8.6
							c-2.1-2.3-4.4-4.4-6.9-6.3c-2.8-2-5.8-2.9-9.1-2.9c-3.5,0-7.2,0.7-10.9,2c-3.8,1.3-7.6,3.2-11.4,5.4c-3.8,2.3-7.5,4.7-11,7
							c-0.1,0.1-0.6,0.7-1,2.5c-0.4,1.8-0.7,4-0.9,6.7c-0.2,2.7-0.3,5.8-0.3,9.2c0,3.4,0.1,7,0.2,10.6c0.1,3.6,0.3,7.3,0.5,10.9
							c0.2,3.6,0.4,7,0.6,10.2c0.2,3.2,0.4,6,0.6,8.5c0.2,2.5,0.3,4.4,0.4,5.7c0.1,1.6,0.5,2.4,0.8,2.8c0.3,0.5,1,1,1.8,1.3
							c1.1,0.4,2.2,0.5,3.3,0.6C78.6,265.6,80.2,265.7,82,265.8z M85.5,230.3l0.4-3.7c0.5-4.2,0.9-8.3,1.2-12
							c0.3-3.7,0.7-7.3,1.2-10.7l0.1-0.8l0.7-0.5c2.3-1.7,4.7-2.9,6.9-3.8c2.2-0.8,4.3-1.4,6.2-1.7c4.5-0.8,7.5,0.1,9,2.4l0.1,0.1
							c0.8,1.5,0.8,3.5,0,6.2c-0.7,2.3-2.1,4.8-4.1,7.4c-1.9,2.6-4.5,5.3-7.5,8c-3.1,2.7-6.7,5.2-10.9,7.4L85.5,230.3z M92.2,205.3
							c-0.4,3-0.8,6.3-1.1,9.6c-0.2,2.6-0.5,5.3-0.8,8.2c2.5-1.5,4.8-3.2,6.8-5c2.8-2.5,5.2-5,7-7.4c1.7-2.3,2.9-4.4,3.5-6.3
							c0.6-2,0.5-2.8,0.4-3c-0.5-0.6-1.7-0.8-2.6-0.8c-0.7,0-1.5,0.1-2.4,0.2c-1.7,0.3-3.5,0.8-5.4,1.5
							C95.8,203.1,94,204.1,92.2,205.3z"/>
					</g>
				</g>
			</g>
		</g>
	</g>
	<g>
		<g>
			<g>
				<g>
					<g>
						<path class="st4" d="M182.2,180.9c1.4,2,2.6,4.2,3.6,6.9c1.4,4.4,2.4,9.3,2.9,14.6c0.5,5.3,0.5,10.7-0.1,16.2
							c-0.6,5.5-1.7,10.7-3.5,15.8c-1.7,5-4.2,9.5-7.3,13.3c-2.2,2.3-4.5,4-7.1,5.1c-2.6,1.1-5.7,1.8-9.3,2c-2.4,0.1-4.9,0.2-7.4,0
							c-2.6-0.1-4.9-0.5-7.2-1.2c-1.8-0.6-3.6-1.4-5.5-2.5c-1.8-1.1-3.4-2.4-4.6-4c-2-2.6-3.6-5.6-4.9-9.1
							c-1.3-3.5-2.3-7.2-2.9-11.1c-0.6-4-0.8-8.1-0.6-12.3c0.2-4.2,0.8-8.5,1.8-12.6c1-4.2,2.5-8.2,4.3-12.1
							c1.9-3.9,4.2-7.5,6.9-10.8c1.9-2,4.3-3.7,7.1-5.1c2.9-1.4,5.7-2,8.5-2.1c3.6,0,7.1,0.3,10.5,0.9c3.4,0.6,6.2,1.6,8.6,3
							C178.7,177.2,180.7,179,182.2,180.9z M158.6,189.8c-1.4,1.8-2.6,4.1-3.8,7c-1.2,2.9-2.2,6-3.1,9.4c-0.9,3.4-1.5,6.7-1.9,9.8
							c-0.4,3-0.5,6.2-0.4,9.3c0.1,3.2,0.5,6.1,1.1,8.8c0.6,2.7,1.4,4.9,2.4,6.7c1.1,1.8,2.3,2.8,3.8,3c1.4,0.2,2.7-0.3,3.9-1.5
							c1.3-1.2,2.4-3,3.5-5.2c1.1-2.3,2-5,2.8-8.2c0.8-3.2,1.3-6.6,1.7-10.3c0.3-3,0.4-6.3,0.4-9.9c-0.1-3.6-0.4-6.9-0.9-9.9
							c-0.5-3.1-1.2-5.7-2.2-7.8c-1-2.1-2.1-3.2-3.4-3.4C161.3,187.2,159.9,188,158.6,189.8z"/>
					</g>
				</g>
			</g>
		</g>
		<g>
			<g>
				<g>
					<g>
						<path d="M157.3,256.9c-1.1,0-2.3,0-3.5-0.1c-2.7-0.1-5.3-0.6-7.7-1.3c-2-0.6-3.9-1.5-5.9-2.7c-2-1.2-3.8-2.7-5.1-4.5
							c-2.1-2.7-3.8-6-5.2-9.6c-1.4-3.6-2.4-7.5-3-11.6c-0.6-4.1-0.8-8.3-0.6-12.7c0.2-4.4,0.8-8.7,1.9-13c1.1-4.3,2.6-8.5,4.5-12.5
							c1.9-4,4.3-7.8,7.2-11.2l0.1-0.1c2-2.2,4.6-4.1,7.7-5.5c3.1-1.5,6.2-2.2,9.3-2.3l0.4,0c3.6,0,7.1,0.3,10.4,1
							c3.6,0.7,6.7,1.8,9.2,3.2c2.9,1.7,5.2,3.6,6.8,5.8c1.5,2.1,2.8,4.6,3.8,7.4c1.5,4.6,2.5,9.6,3,15.1c0.5,5.4,0.5,11-0.1,16.6
							c-0.6,5.6-1.8,11-3.6,16.2c-1.8,5.2-4.4,9.9-7.6,13.9l-0.1,0.1c-2.3,2.5-5,4.4-7.8,5.6c-2.8,1.2-6.1,1.9-9.9,2.1
							C160.1,256.8,158.7,256.9,157.3,256.9z M142.8,180.3c-2.6,3.2-4.8,6.6-6.6,10.4c-1.8,3.8-3.2,7.7-4.2,11.7
							c-1,4-1.6,8.1-1.8,12.2c-0.2,4.1,0,8.1,0.6,11.9c0.6,3.8,1.5,7.4,2.8,10.7c1.3,3.3,2.8,6.2,4.7,8.6c1,1.4,2.4,2.5,4,3.5
							c1.7,1,3.4,1.8,5.1,2.3c2,0.7,4.3,1,6.6,1.1c2.5,0.1,4.9,0.1,7.2,0c3.3-0.2,6.2-0.8,8.6-1.8c2.3-1,4.5-2.5,6.4-4.6
							c2.9-3.6,5.2-7.9,6.9-12.6c1.7-4.9,2.8-10,3.4-15.3c0.6-5.3,0.6-10.6,0.1-15.8c-0.5-5.2-1.4-9.9-2.8-14.2
							c-0.9-2.4-2-4.5-3.3-6.3c-1.3-1.7-3.1-3.3-5.5-4.7c-2.2-1.2-4.9-2.1-8-2.7c-3.1-0.6-6.4-0.9-9.7-0.9l-0.4,0
							c-2.5,0-5,0.6-7.6,1.9C146.7,176.9,144.5,178.5,142.8,180.3z M157.4,245.7L157.4,245.7c-0.3,0-0.6,0-0.9-0.1
							c-2.1-0.3-3.8-1.6-5.2-3.9c-1.2-2-2.1-4.4-2.7-7.3c-0.6-2.8-1-5.8-1.1-9.1c-0.2-3.3,0-6.5,0.4-9.7c0.4-3.2,1-6.5,1.9-10
							c0.9-3.5,1.9-6.8,3.1-9.7c1.2-3,2.6-5.5,4.1-7.4c1.8-2.4,3.9-3.4,6-3.1c2,0.2,3.6,1.8,4.9,4.5c1,2.2,1.8,5,2.3,8.3
							c0.5,3.1,0.8,6.5,0.9,10.2c0.1,3.6,0,7.1-0.4,10.2c-0.3,3.7-0.9,7.3-1.7,10.6c-0.8,3.3-1.8,6.2-2.9,8.6
							c-1.2,2.5-2.5,4.4-3.9,5.8C160.7,245,159.1,245.7,157.4,245.7z M162.2,189.4c-0.5,0-1.3,0.6-2.1,1.6c-1.2,1.6-2.4,3.8-3.5,6.5
							c-1.1,2.7-2.1,5.8-3,9.1c-0.8,3.3-1.4,6.5-1.8,9.5c-0.4,2.9-0.5,5.9-0.3,9c0.1,3.1,0.5,5.9,1,8.4c0.5,2.4,1.3,4.5,2.2,6.1
							c1.1,1.9,2.1,2,2.4,2c0.2,0,0.3,0,0.4,0c0.6,0,1.3-0.3,1.9-1c1.1-1,2.1-2.6,3.1-4.7c1-2.1,1.9-4.8,2.6-7.8
							c0.7-3.1,1.3-6.5,1.6-10c0.3-3,0.4-6.2,0.4-9.7c-0.1-3.5-0.4-6.7-0.9-9.6c-0.5-2.9-1.2-5.3-2-7.3c-0.6-1.3-1.3-2.2-1.8-2.2
							C162.3,189.4,162.2,189.4,162.2,189.4z"/>
					</g>
				</g>
			</g>
		</g>
	</g>
	<g>
		<g>
			<g>
				<g>
					<g>
						<path class="st4" d="M193.4,230.4c-1.1-2.9-1.9-6.1-2.5-9.7c-0.6-3.6-1-7.4-1.1-11.5c-0.2-4.1-0.2-8.3-0.1-12.5
							c0.1-4.3,0.3-8.6,0.7-12.9c0.3-4.3,0.7-8.6,1.2-12.7c0.2-1.9,0.7-3.1,1.6-3.6c0.9-0.5,2.4-0.6,4.5-0.3
							c1.9,0.2,3.8,0.7,5.7,1.2c1.8,0.6,3.7,1.3,5.5,2.2c3.7,1.9,5.4,4.8,5,8.7c-0.5,3.4-0.9,7-1.4,10.9c-0.5,3.9-0.8,7.9-1.1,11.8
							c-0.3,4-0.5,7.8-0.5,11.6c0,3.8,0.1,7.1,0.4,10c0.3,2.9,0.9,5.3,1.7,7.1c0.8,1.8,1.9,2.8,3.3,3c1.7,0.2,3.2-0.9,4.5-3.2
							c1.3-2.3,2.3-5.4,3.2-9.2c0.9-3.9,1.6-8.3,2.1-13.2c0.5-5,1-10.1,1.3-15.3c0.3-5.2,0.5-10.3,0.6-15.4c0.1-5,0.2-9.5,0.3-13.5
							c-0.2-1.9,0.3-3.1,1.5-3.7c1.2-0.6,2.7-0.8,4.5-0.6c1.8,0.2,3.8,0.6,6,1.3c2.2,0.7,4.2,1.4,6,2.1c1,0.4,1.7,0.8,2.2,1.2
							c0.5,0.4,0.9,0.8,1.2,1.3c0.3,0.5,0.4,1,0.5,1.6c0,0.6,0,1.3,0,2.1c-0.4,9.1-0.9,17.6-1.6,25.2c-0.7,7.7-1.6,14.6-2.7,20.6
							c-1.2,6-2.7,11.2-4.5,15.4c-1.8,4.2-4.1,7.5-6.9,9.7c-2,1.4-4,2.5-6.1,3.2c-2.1,0.8-4.5,1.3-7.4,1.6
							c-5.6,0.5-10.4,0.1-14.3-1.3c-1.7-0.6-3.3-1.4-4.9-2.3c-1.6-0.9-3-2.2-4.2-3.8C195.8,235.7,194.5,233.3,193.4,230.4z"/>
					</g>
				</g>
			</g>
		</g>
		<g>
			<g>
				<g>
					<g>
						<path d="M216.3,247.2c-3.9,0-7.4-0.5-10.4-1.6c-1.8-0.7-3.6-1.5-5.2-2.5c-1.7-1.1-3.3-2.5-4.7-4.2c-1.8-2.1-3.3-4.7-4.4-7.8
							c-1.1-3-2-6.4-2.6-10.1c-0.6-3.6-1-7.6-1.2-11.8c-0.2-4.1-0.2-8.4-0.1-12.7c0.1-4.3,0.3-8.7,0.7-13c0.3-4.3,0.7-8.6,1.2-12.8
							c0.3-2.5,1.1-4.2,2.6-5.1c1.3-0.8,3.2-1,5.8-0.5c2,0.3,4,0.7,5.9,1.3c1.9,0.6,3.9,1.4,5.8,2.4c4.5,2.2,6.6,5.9,6,10.7
							c-0.5,3.4-0.9,7.1-1.4,11c-0.5,3.9-0.8,7.8-1.1,11.8c-0.3,3.9-0.5,7.8-0.5,11.5c0,3.7,0.1,7,0.4,9.8c0.3,2.7,0.8,4.9,1.5,6.6
							c0.7,1.7,1.4,1.8,1.7,1.8c0,0,0.1,0,0.1,0c0.8,0,1.6-0.7,2.4-2.2c1.2-2.1,2.2-5.1,3-8.7c0.8-3.8,1.5-8.2,2.1-13
							c0.5-4.9,1-10,1.3-15.2c0.3-5.2,0.5-10.3,0.6-15.3c0.1-5,0.2-9.4,0.3-13.4c-0.3-3.5,1.5-5,2.6-5.5c1.5-0.7,3.4-1,5.6-0.8
							c2,0.2,4.1,0.6,6.4,1.4c2.2,0.7,4.3,1.4,6.1,2.1c1.2,0.5,2,1,2.7,1.4c0.8,0.6,1.4,1.2,1.8,1.9c0.4,0.7,0.7,1.6,0.7,2.5
							c0,0.7,0,1.5,0,2.4c-0.4,9.1-0.9,17.6-1.6,25.3c-0.7,7.7-1.6,14.7-2.8,20.8c-1.2,6.1-2.7,11.5-4.6,15.8c-2,4.5-4.5,8-7.4,10.4
							l-0.1,0.1c-2.1,1.5-4.3,2.7-6.6,3.5c-2.2,0.8-4.9,1.4-7.8,1.7C219.4,247.1,217.8,247.2,216.3,247.2z M195.4,168.9
							c-0.8,0-1.2,0.2-1.2,0.2c-0.2,0.1-0.5,0.7-0.7,2.1c-0.5,4.1-0.9,8.4-1.2,12.7c-0.3,4.3-0.5,8.6-0.7,12.8
							c-0.1,4.2-0.1,8.4,0.1,12.4c0.2,4,0.5,7.8,1.1,11.3c0.6,3.4,1.4,6.6,2.4,9.4c1,2.7,2.3,4.9,3.8,6.7c1.2,1.4,2.4,2.5,3.8,3.4
							c1.4,0.9,2.9,1.6,4.5,2.2c3.6,1.3,8.1,1.7,13.4,1.1c2.6-0.3,4.9-0.7,6.9-1.4c1.9-0.7,3.8-1.7,5.6-3c2.5-2,4.6-5,6.2-8.9
							c1.8-4.1,3.2-9.1,4.4-15c1.1-5.9,2.1-12.8,2.7-20.4c0.7-7.6,1.2-16.1,1.6-25.2c0.1-0.8,0.1-1.4,0-1.9c0-0.3-0.1-0.5-0.2-0.7
							c-0.1-0.2-0.3-0.4-0.6-0.7c-0.3-0.2-0.9-0.5-1.9-1c-1.7-0.7-3.7-1.4-5.8-2c-2-0.6-3.9-1-5.6-1.2c-1.4-0.1-2.6,0-3.5,0.4
							c-0.4,0.2-0.5,0.7-0.4,1.7l0,0.1l0,0.1c-0.1,4-0.2,8.4-0.3,13.5c-0.1,5-0.3,10.2-0.6,15.5c-0.3,5.2-0.7,10.4-1.3,15.4
							c-0.5,5-1.3,9.5-2.1,13.5c-0.9,4-2,7.3-3.4,9.8c-1.7,3-3.8,4.5-6.4,4.2c-1.5-0.2-3.6-1-4.9-4.2c-0.9-2-1.5-4.6-1.8-7.7
							c-0.3-3-0.5-6.4-0.4-10.3c0-3.8,0.2-7.7,0.5-11.7c0.3-4,0.7-8,1.1-11.9c0.5-3.9,0.9-7.6,1.4-11c0.3-3-0.9-5.2-3.9-6.7
							c-1.7-0.9-3.4-1.6-5.2-2.1c-1.7-0.5-3.5-0.9-5.3-1.2C196.6,168.9,195.9,168.9,195.4,168.9z"/>
					</g>
				</g>
			</g>
		</g>
	</g>
	<g>
		<g>
			<g>
				<g>
					<g>
						<path class="st4" d="M291.3,176.2c0.5-8.1,1.1-15.7,1.8-22.6c0.2-1.9,0.8-3.1,1.7-3.7c0.9-0.6,2.4-0.8,4.5-0.7
							c1,0.1,1.8,0.2,2.6,0.2c0.8,0.1,1.5,0.2,2.3,0.4c0.8,0.2,1.6,0.4,2.5,0.7c0.9,0.3,1.9,0.7,3.1,1.2c2,0.8,3.2,1.8,3.6,2.9
							c0.4,1.1,0.5,2.5,0.3,4.2c-0.7,4.8-1.3,10.2-1.9,16.3c-0.6,6.1-1.1,12.2-1.7,18.5c-0.5,6.2-1,12.3-1.4,18.3
							c-0.4,5.9-0.8,11.2-1.1,15.6c0,2.4-1.7,3.5-5.2,3.3c-2.9-0.1-6-0.4-9.1-1c-2.9-0.6-5.1-2.1-6.7-4.6c-1.2-1.8-2.4-3.8-3.7-6.2
							c-1.3-2.4-2.7-5-4.1-7.7c-1.4-2.8-2.8-5.7-4.3-8.7c-1.5-3-2.8-6.1-4.2-9.2c0,3.9-0.1,7.9-0.2,11.8c-0.1,3.9-0.2,7.7-0.2,11.3
							c-0.1,3.6-0.1,6.9-0.2,10c0,3.1,0,5.8,0,8c-0.1,1.1-0.4,1.8-0.9,2.2c-0.5,0.4-1.6,0.5-3.3,0.3c-1.5-0.1-3.1-0.3-4.7-0.4
							c-1.6-0.2-3.1-0.5-4.7-1.2c-1.5-0.5-2.5-1.1-3.1-1.9c-0.6-0.8-1-2-1.1-3.7c-0.2-1.7-0.3-4.1-0.6-7.2
							c-0.2-3.1-0.4-6.7-0.6-10.7c-0.2-4-0.4-8.3-0.5-12.9c-0.2-4.6-0.3-9.1-0.3-13.7c-0.1-4.6-0.1-9,0-13.2c0-4.3,0.1-8,0.3-11.4
							c0.1-1.9,0.7-3.2,1.7-3.9c1-0.6,2.6-0.9,4.5-0.7c2.4,0.3,4.7,0.6,7,0.9c2.3,0.3,4.7,0.8,7.2,1.6c2,0.5,3.6,1.3,4.6,2.3
							c1,1.1,1.9,2.7,2.6,5c0.6,1.7,1.4,4,2.3,6.7c1,2.7,2,5.6,3.2,8.8c1.2,3.1,2.4,6.4,3.6,9.7c1.2,3.3,2.5,6.5,3.7,9.5
							C290.6,192.5,290.8,184.3,291.3,176.2z"/>
					</g>
				</g>
			</g>
		</g>
		<g>
			<g>
				<g>
					<g>
						<path d="M267,239.2c-0.5,0-1,0-1.6-0.1c-1.5-0.1-3.1-0.3-4.7-0.4c-1.7-0.2-3.5-0.6-5.2-1.3c-1.8-0.6-3.2-1.4-4-2.6
							c-0.8-1.1-1.3-2.7-1.5-4.7c-0.2-1.7-0.3-4.1-0.6-7.3c-0.2-3.2-0.4-6.8-0.6-10.8c-0.2-4-0.4-8.3-0.5-12.9
							c-0.2-4.6-0.3-9.3-0.3-13.7c-0.1-4.6-0.1-9.1,0-13.3c0-4.3,0.1-8.1,0.3-11.4c0.2-2.6,1.1-4.4,2.7-5.4c1.4-0.9,3.3-1.2,5.8-1
							c2.5,0.3,4.8,0.6,7.1,0.9c2.3,0.3,4.8,0.9,7.4,1.6c2.4,0.6,4.3,1.6,5.5,2.9c1.2,1.3,2.2,3.2,3.1,5.8c0.6,1.7,1.4,3.9,2.3,6.6
							c0.9,2.7,2,5.6,3.2,8.7c1.1,3,2.3,6.1,3.5,9.3c0.1-4.8,0.3-9.5,0.6-14.2c0.5-8.1,1.1-15.7,1.8-22.6c0.3-2.5,1.1-4.2,2.6-5.2
							c1.3-0.8,3.2-1.2,5.7-1c1,0.1,1.8,0.2,2.6,0.2c0.9,0.1,1.8,0.2,2.6,0.4c0.8,0.2,1.7,0.5,2.6,0.8c0.9,0.3,2,0.7,3.2,1.3
							c2.5,1,4,2.4,4.6,4c0.5,1.4,0.6,3.1,0.4,5.1c-0.7,4.8-1.3,10.2-1.9,16.2c-0.6,6-1.1,12.2-1.7,18.4c-0.5,6.1-1,12.3-1.4,18.3
							c-0.4,5.9-0.8,11.1-1.1,15.6c0,1.8-0.8,3-1.4,3.6c-1.1,1.1-2.8,1.7-5,1.7c-0.3,0-0.5,0-0.8,0c-3-0.1-6.1-0.4-9.3-1
							c-3.5-0.7-6.1-2.6-8-5.5c-1.2-1.8-2.5-3.9-3.8-6.3c-1.3-2.4-2.7-5-4.1-7.8c-1.4-2.8-2.9-5.7-4.3-8.7c-0.2-0.4-0.4-0.8-0.5-1.1
							c0,1,0,2-0.1,3l-0.2,11.3c-0.1,3.6-0.1,6.9-0.2,10c0,3,0,5.7,0,8l0,0.1l0,0.1c-0.1,1.7-0.7,2.9-1.7,3.7
							C269.4,238.9,268.4,239.2,267,239.2z M255.2,158.2c-1,0-1.8,0.2-2.3,0.5c-0.4,0.3-0.7,1.1-0.8,2.3c-0.1,3.2-0.2,7-0.3,11.3
							c0,4.2,0,8.6,0,13.2c0.1,4.5,0.2,9,0.3,13.7c0.2,4.5,0.3,8.9,0.5,12.8c0.2,3.9,0.4,7.5,0.6,10.6c0.2,3.1,0.4,5.5,0.6,7.2
							c0.1,1.6,0.5,2.3,0.7,2.7c0.2,0.3,0.8,0.8,2.1,1.2l0.2,0.1c1.4,0.6,2.8,0.9,4.2,1c1.6,0.1,3.1,0.3,4.7,0.4
							c1,0.1,1.6,0.1,1.9,0c0-0.1,0.1-0.3,0.1-0.6c-0.1-2.3-0.1-5,0-8c0-3.1,0.1-6.4,0.2-10l0.2-11.3c0.1-3.9,0.1-7.9,0.2-11.8
							l0.1-9.3l3.7,8.5c1.3,3,2.7,6,4.1,9.1c1.4,3,2.9,5.9,4.3,8.7c1.4,2.7,2.7,5.3,4.1,7.7c1.3,2.3,2.5,4.4,3.7,6.1
							c1.3,2.1,3.1,3.3,5.4,3.8c3,0.5,5.9,0.8,8.8,0.9c0.3,0,0.5,0,0.7,0c1.6,0,2.1-0.4,2.2-0.5c0.1-0.1,0.2-0.2,0.2-0.8l0-0.1
							l0-0.1c0.3-4.5,0.6-9.8,1.1-15.7c0.4-6,0.9-12.2,1.5-18.3c0.5-6.2,1.1-12.4,1.7-18.5c0.6-6,1.2-11.6,1.9-16.4
							c0.2-1.4,0.1-2.4-0.2-3.2c-0.1-0.2-0.5-0.9-2.5-1.7c-1.1-0.5-2.1-0.9-2.9-1.2c-0.8-0.3-1.6-0.5-2.3-0.7
							c-0.7-0.2-1.3-0.3-2-0.3c-0.8-0.1-1.7-0.1-2.6-0.2c-0.4,0-0.7,0-1.1,0c-1.4,0-2,0.2-2.2,0.4c-0.1,0.1-0.6,0.5-0.8,2.2
							c-0.7,6.8-1.3,14.4-1.8,22.5c-0.5,8.1-0.7,16.3-0.6,24.5l0.1,10.7l-4-10c-1.2-3-2.4-6.2-3.7-9.6c-1.2-3.3-2.5-6.6-3.6-9.7
							c-1.2-3.1-2.2-6.1-3.2-8.8c-1-2.7-1.7-4.9-2.3-6.7c-0.7-2-1.4-3.5-2.2-4.3c-0.7-0.8-1.9-1.4-3.6-1.8l-0.1,0
							c-2.4-0.7-4.8-1.2-6.9-1.5c-2.3-0.3-4.6-0.6-7-0.9C255.9,158.3,255.6,158.2,255.2,158.2z"/>
					</g>
				</g>
			</g>
		</g>
	</g>
	<g>
		<g>
			<g>
				<g>
					<g>
						<path d="M329.9,143.2c3.2-1.3,6.6-2.3,10.3-3c3.6-0.7,7.3-1,11.1-1c3.8,0.1,7.5,0.7,11.1,2c3.6,1.2,6.9,3.1,10,5.7
							c3.1,2.6,5.7,6,7.9,10.4c1.8,3.4,3,7.2,3.6,11.4c0.5,4.1,0.4,8.4-0.4,12.8c-0.8,4.4-2.3,8.8-4.5,13.2c-2.2,4.4-5,8.5-8.5,12.4
							c-3.5,3.9-7.7,7.4-12.6,10.6c-4.9,3.2-10.5,5.7-16.7,7.7c-3.2,1.2-6.5,1-10.1-0.6c-1.8-0.9-3.3-1.7-4.7-2.6
							c-1.3-0.8-2.9-1.9-4.6-3.1c-0.6-0.6-1.3-1.1-1.8-1.7c-0.6-0.5-1.1-1.2-1.5-1.9c-0.4-0.7-0.7-1.6-0.9-2.6c-0.1-1-0.1-2.4,0-4
							l4-61.7C323.9,145.8,326.7,144.5,329.9,143.2z M348.1,202.2c3.4-3.1,6.3-6.3,8.5-9.7c2.2-3.4,3.8-6.7,4.9-10
							c1.1-3.3,1.6-6.4,1.8-9.3c0.2-3.9-0.3-7-1.5-9.2c-1.2-2.2-3.2-3.8-6-4.8c-2.9-1-6.3-0.8-10.4,0.6c-2,8.5-3.8,16.9-5.3,25.2
							c-1.5,8.3-2.9,16.6-4.3,25.1C340.5,207.9,344.6,205.3,348.1,202.2z"/>
					</g>
				</g>
			</g>
		</g>
		<g>
			<g>
				<g>
					<g>
						<path d="M336.9,226.5c-2,0-4-0.5-6.1-1.5c-1.8-0.9-3.4-1.7-4.7-2.6c-1.3-0.8-2.9-1.9-4.6-3.2c-0.7-0.6-1.3-1.1-1.9-1.7
							c-0.6-0.6-1.1-1.2-1.6-1.9c-0.4-0.7-0.8-1.7-0.9-2.7c-0.2-1.1-0.2-2.4,0-4.1l4.1-61.9l0.2-0.1c2.4-1.4,5.2-2.8,8.4-4.1
							c3.2-1.3,6.7-2.3,10.3-3c3.6-0.7,7.4-1,11.2-1c3.8,0.1,7.6,0.7,11.2,2c3.6,1.2,7,3.2,10.1,5.8c3.1,2.6,5.8,6.1,8,10.5
							c1.8,3.5,3.1,7.3,3.6,11.5c0.5,4.1,0.4,8.5-0.4,12.9c-0.8,4.4-2.3,8.9-4.5,13.3c-2.2,4.4-5.1,8.6-8.6,12.5
							c-3.5,3.9-7.8,7.5-12.7,10.7c-4.9,3.2-10.6,5.8-16.8,7.7C339.8,226.2,338.4,226.5,336.9,226.5z M321.9,147.5l-4,61.5
							c-0.1,1.6-0.1,2.9,0,3.9c0.1,1,0.4,1.8,0.8,2.4c0.4,0.7,0.9,1.3,1.4,1.8c0.6,0.5,1.2,1.1,1.8,1.6c1.7,1.2,3.2,2.3,4.5,3.1
							c1.3,0.8,2.9,1.7,4.6,2.5c3.4,1.6,6.7,1.8,9.8,0.6c6.2-1.9,11.8-4.5,16.6-7.6c4.8-3.1,9.1-6.7,12.5-10.5
							c3.5-3.9,6.3-8,8.5-12.3c2.1-4.3,3.6-8.7,4.4-13c0.8-4.3,0.9-8.6,0.4-12.6c-0.5-4.1-1.7-7.8-3.5-11.2
							c-2.1-4.3-4.8-7.7-7.8-10.3c-3-2.5-6.3-4.4-9.9-5.6c-3.5-1.2-7.2-1.9-11-1.9c-3.8-0.1-7.5,0.3-11.1,0.9
							c-3.6,0.7-7,1.7-10.2,2.9C327,144.8,324.2,146.1,321.9,147.5z M335.1,210.9l0.1-0.7c1.4-8.4,2.8-16.8,4.3-25.1
							c1.5-8.3,3.3-16.7,5.3-25.2l0-0.2l0.2-0.1c4.1-1.5,7.7-1.7,10.6-0.6c2.9,1.1,5,2.7,6.3,5c1.2,2.2,1.7,5.4,1.6,9.4
							c-0.1,2.9-0.7,6-1.8,9.4c-1.1,3.3-2.7,6.7-4.9,10.1c-2.2,3.4-5.1,6.6-8.5,9.7c-3.5,3.1-7.7,5.8-12.5,8.1L335.1,210.9z
							 M345.6,160.2c-2,8.4-3.7,16.8-5.2,25c-1.5,8-2.9,16.2-4.2,24.3c4.5-2.2,8.4-4.7,11.7-7.6c3.4-3.1,6.2-6.3,8.4-9.6
							c2.2-3.3,3.8-6.6,4.8-9.9c1-3.3,1.6-6.4,1.7-9.2c0.2-3.9-0.3-6.9-1.5-9c-1.1-2.1-3.1-3.6-5.8-4.6
							C352.8,158.7,349.4,158.9,345.6,160.2z"/>
					</g>
				</g>
			</g>
		</g>
	</g>
	<g>
		<g>
			<g>
				<g>
					<g>
						<path class="st4" d="M322.8,145c3.2-1.2,6.6-2.2,10.2-2.9c3.6-0.7,7.3-1,11.1-0.9c3.8,0.1,7.5,0.7,11,1.9
							c3.6,1.2,6.9,3,9.9,5.5c3.1,2.5,5.7,5.8,7.8,10.1c1.8,3.3,3,7,3.5,11c0.5,4,0.4,8.1-0.4,12.4c-0.8,4.2-2.3,8.5-4.4,12.7
							c-2.2,4.2-5,8.3-8.5,12c-3.5,3.8-7.7,7.2-12.6,10.3c-4.9,3.1-10.4,5.5-16.6,7.4c-3.2,1.2-6.5,1-10.1-0.6
							c-1.8-0.8-3.3-1.7-4.7-2.5c-1.3-0.8-2.9-1.8-4.6-3c-0.6-0.5-1.2-1.1-1.8-1.6c-0.6-0.5-1.1-1.1-1.5-1.8
							c-0.4-0.7-0.7-1.5-0.9-2.5c-0.1-1-0.1-2.3,0-3.9l4-59.7C316.8,147.5,319.6,146.2,322.8,145z M340.9,202.1
							c3.4-3,6.2-6.1,8.4-9.4c2.2-3.2,3.8-6.5,4.8-9.7c1-3.2,1.6-6.2,1.8-9c0.2-3.8-0.3-6.8-1.5-8.9c-1.2-2.1-3.2-3.6-6-4.6
							c-2.8-1-6.3-0.8-10.3,0.6c-2,8.3-3.7,16.4-5.2,24.4c-1.5,8-2.9,16.1-4.3,24.3C333.3,207.7,337.5,205.1,340.9,202.1z"/>
					</g>
				</g>
			</g>
		</g>
		<g>
			<g>
				<g>
					<g>
						<path d="M329.7,227.3c-2.2,0-4.4-0.5-6.7-1.6c-1.9-0.9-3.5-1.7-4.9-2.6c-1.4-0.8-2.9-1.9-4.7-3.1l-0.2-0.1
							c-0.6-0.6-1.3-1.1-1.9-1.6c-0.7-0.6-1.3-1.4-1.9-2.2c-0.6-0.9-0.9-2-1.1-3.3c-0.2-1.2-0.2-2.6,0-4.3l4.1-60.7l0.9-0.5
							c2.4-1.4,5.3-2.8,8.6-4c3.3-1.3,6.8-2.3,10.6-3c3.7-0.7,7.6-1,11.5-1c4,0.1,7.9,0.7,11.6,2c3.8,1.3,7.3,3.3,10.6,5.9
							c3.3,2.7,6.1,6.3,8.4,10.7c1.9,3.5,3.2,7.4,3.8,11.6c0.6,4.2,0.4,8.6-0.4,13c-0.8,4.4-2.4,8.9-4.6,13.3
							c-2.2,4.4-5.2,8.6-8.8,12.5c-3.6,3.9-8,7.4-13,10.6c-5,3.1-10.7,5.7-17,7.6C333,227,331.4,227.3,329.7,227.3z M315.8,216.8
							c1.6,1.2,3.1,2.1,4.4,2.9c1.3,0.8,2.8,1.6,4.5,2.4c3,1.4,5.9,1.6,8.5,0.5l0.1,0c6-1.8,11.5-4.3,16.2-7.2
							c4.7-3,8.8-6.3,12.2-9.9c3.4-3.6,6.1-7.5,8.2-11.6c2.1-4.1,3.5-8.2,4.3-12.2c0.8-4,0.9-8,0.4-11.7c-0.5-3.7-1.6-7.2-3.3-10.3
							c-2.1-4-4.5-7.2-7.4-9.5c-2.9-2.3-6-4.1-9.3-5.2c-3.4-1.1-6.9-1.7-10.4-1.8c-3.6-0.1-7.2,0.2-10.7,0.9
							c-3.5,0.7-6.8,1.6-9.9,2.8c-2.7,1-5.1,2.1-7.1,3.3l-4,58.7c-0.1,1.5-0.1,2.6,0,3.4c0.1,0.7,0.3,1.3,0.6,1.8
							c0.3,0.5,0.7,1,1.1,1.4C314.7,215.8,315.2,216.3,315.8,216.8z M325.9,213.2l0.6-3.7c1.4-8.1,2.8-16.3,4.3-24.3
							c1.5-8,3.3-16.3,5.3-24.5l0.3-1l1-0.4c4.5-1.6,8.4-1.8,11.6-0.6c3.3,1.2,5.7,3,7.1,5.5c1.4,2.4,2,5.7,1.8,9.9
							c-0.1,2.9-0.8,6.1-1.9,9.5c-1.1,3.4-2.8,6.8-5.1,10.2c-2.3,3.4-5.2,6.7-8.8,9.7c-3.6,3.1-7.9,5.8-12.9,8.1L325.9,213.2z
							 M339.7,162.8c-1.9,7.8-3.5,15.6-5,23.2c-1.3,6.7-2.5,13.6-3.7,20.4c3.2-1.7,6.1-3.6,8.5-5.8c3.3-2.9,6-5.9,8.1-9
							c2.1-3.1,3.6-6.2,4.6-9.2c1-3,1.5-5.9,1.7-8.4c0.1-3.4-0.3-6.1-1.3-7.8c-0.9-1.7-2.6-2.9-5-3.7
							C345.5,161.7,342.9,161.8,339.7,162.8z"/>
					</g>
				</g>
			</g>
		</g>
	</g>
	<g>
		<g>
			<path class="st3" d="M449.5,136.3c-1.7,6.2-3.4,12.7-5.1,19.5c-1.7,6.8-3.4,13.7-5.1,20.8c-1.7,7.1-3.3,14-4.8,20.7
				c-1.5,6.7-2.8,13-4,19c-1.2,6-2.2,11.3-3,15.9c-0.5,1.8-1.2,2.9-2.1,3.5c-0.9,0.5-2.7,0.4-5.3-0.3c-2.5-0.6-4.9-1.2-7.4-1.8
				c-2.4-0.6-4.9-1.5-7.4-2.7c-2-1.2-3.3-2.5-3.9-4.1c-0.6-1.6-0.8-3.7-0.6-6.4c0.2-3.9,0.7-9.1,1.5-15.6c0.8-6.5,1.8-13.7,2.9-21.4
				c1.2-7.7,2.5-15.6,4-23.7c1.5-8.1,3-15.7,4.6-22.7c-2.1-1-3.8-2-5.1-2.8c-1.3-0.8-2.3-1.6-2.9-2.4c-0.6-0.8-0.8-1.8-0.7-2.7
				c0.1-1,0.5-2.3,1.2-3.9c1.8-3.7,3.8-7.4,6.2-11.2c2.4-3.8,4.6-7.1,6.7-10c1-1.3,1.9-2.3,2.7-3c0.8-0.7,1.6-1.3,2.5-1.6
				c0.9-0.3,1.9-0.4,3-0.3c1.1,0.1,2.5,0.4,4,0.8c3.1,0.8,6.1,2,9.1,3.4c2.9,1.4,5.9,3.2,8.9,5.3c2.8,1.9,4.5,3.6,5.3,5
				c0.7,1.5,0.6,3.6-0.5,6.3C452.8,124.5,451.2,130.1,449.5,136.3z"/>
		</g>
	</g>
	<g>
		<g>
			<path class="st3" d="M442.5,136.3c-1.7,6.2-3.4,12.7-5.1,19.5c-1.7,6.8-3.4,13.7-5.1,20.8c-1.7,7.1-3.3,14-4.8,20.7
				c-1.5,6.7-2.8,13-4,19c-1.2,6-2.2,11.3-3,15.9c-0.5,1.8-1.2,2.9-2.1,3.5c-0.9,0.5-2.7,0.4-5.3-0.3c-2.5-0.6-4.9-1.2-7.4-1.8
				c-2.4-0.6-4.9-1.5-7.4-2.7c-2-1.2-3.3-2.5-3.9-4.1c-0.6-1.6-0.8-3.7-0.6-6.4c0.2-3.9,0.7-9.1,1.5-15.6c0.8-6.5,1.8-13.7,2.9-21.4
				c1.2-7.7,2.5-15.6,4-23.7c1.5-8.1,3-15.7,4.6-22.7c-2.1-1-3.8-2-5.1-2.8c-1.3-0.8-2.3-1.6-2.9-2.4c-0.6-0.8-0.8-1.8-0.7-2.7
				c0.1-1,0.5-2.3,1.2-3.9c1.8-3.7,3.8-7.4,6.2-11.2c2.4-3.8,4.6-7.1,6.7-10c1-1.3,1.9-2.3,2.7-3c0.8-0.7,1.6-1.3,2.5-1.6
				c0.9-0.3,1.9-0.4,3-0.3c1.1,0.1,2.5,0.4,4,0.8c3.1,0.8,6.1,2,9.1,3.4c2.9,1.4,5.9,3.2,8.9,5.3c2.8,1.9,4.5,3.6,5.3,5
				c0.7,1.5,0.6,3.6-0.5,6.3C445.8,124.5,444.2,130.1,442.5,136.3z"/>
		</g>
	</g>
	<g>
		<g>
			<path d="M434.7,134.9c-1.7,6.1-3.4,12.5-5.1,19.2c-1.7,6.7-3.4,13.5-5.1,20.5c-1.7,7-3.3,13.8-4.8,20.4c-1.5,6.6-2.8,12.8-4,18.7
				c-1.2,5.9-2.2,11.1-3,15.6c-0.5,1.8-1.2,2.9-2.1,3.4c-0.9,0.5-2.7,0.4-5.3-0.3c-2.5-0.6-4.9-1.2-7.4-1.8
				c-2.4-0.6-4.9-1.5-7.4-2.7c-2-1.1-3.3-2.5-3.9-4c-0.6-1.5-0.8-3.7-0.6-6.3c0.2-3.8,0.7-9,1.5-15.4c0.8-6.4,1.8-13.5,2.9-21.1
				c1.2-7.6,2.5-15.4,4-23.4c1.5-8,3-15.5,4.6-22.4c-2.1-1-3.8-1.9-5.1-2.7c-1.3-0.8-2.3-1.6-2.9-2.4c-0.6-0.8-0.8-1.7-0.7-2.7
				c0.1-1,0.5-2.2,1.2-3.8c1.8-3.6,3.8-7.3,6.2-11.1c2.4-3.8,4.6-7,6.7-9.8c1-1.2,1.9-2.2,2.7-2.9c0.8-0.7,1.6-1.2,2.5-1.5
				c0.9-0.3,1.9-0.4,3-0.3c1.1,0.1,2.5,0.4,4,0.8c3.1,0.8,6.1,1.9,9.1,3.3c2.9,1.4,5.9,3.1,8.9,5.2c2.8,1.9,4.5,3.5,5.3,5
				c0.7,1.4,0.6,3.5-0.5,6.2C437.9,123.3,436.4,128.8,434.7,134.9z"/>
			<path d="M408.9,236.6c-1.3,0-2.8-0.2-4.7-0.8c-2.4-0.6-4.8-1.2-7.2-1.8c-2.7-0.6-5.4-1.6-8.1-3l-0.2-0.1
				c-2.6-1.5-4.5-3.5-5.4-5.8c-0.8-2.1-1.1-4.7-0.9-7.9c0.2-3.8,0.7-9.1,1.5-15.6c0.8-6.5,1.8-13.6,3-21.2c1.2-7.5,2.5-15.4,4-23.5
				c1.3-7,2.6-13.6,4-19.8c-1.1-0.6-2-1.1-2.9-1.6c-1.8-1-3.1-2.2-4-3.5c-1-1.5-1.5-3.3-1.3-5.1c0.1-1.4,0.6-3,1.5-4.9
				c1.8-3.8,4-7.6,6.4-11.5c2.4-3.8,4.7-7.2,6.8-10l0.1-0.2c1.1-1.3,2.1-2.4,3-3.3c1.1-1.1,2.4-1.8,3.7-2.3c1.3-0.5,2.8-0.6,4.5-0.5
				c1.3,0.1,2.9,0.4,4.6,0.9c3.3,0.9,6.5,2.1,9.7,3.5c3.1,1.5,6.2,3.3,9.4,5.5c3.3,2.2,5.4,4.2,6.4,6.3c1.2,2.4,1.1,5.3-0.3,8.9
				c-1.4,4.7-3,10.2-4.7,16.2c-1.7,6-3.4,12.5-5.1,19.1c-1.7,6.7-3.4,13.6-5.1,20.5c-1.7,7-3.3,13.8-4.8,20.3
				c-1.5,6.6-2.8,12.9-4,18.7c-1.2,5.8-2.2,11.1-3,15.6l-0.1,0.4c-0.8,2.7-2,4.4-3.7,5.4C411.4,236.3,410.3,236.6,408.9,236.6z
				 M392.1,224.8c2.2,1.1,4.4,1.9,6.5,2.4c2.4,0.6,4.9,1.2,7.4,1.8c1.5,0.4,2.3,0.5,2.8,0.5c0.1-0.2,0.3-0.5,0.4-1
				c0.8-4.5,1.8-9.7,3-15.5c1.2-5.8,2.5-12.2,4-18.8c1.5-6.5,3.1-13.4,4.8-20.4c1.7-6.9,3.4-13.8,5.1-20.5
				c1.7-6.7,3.4-13.2,5.1-19.3c1.7-6.2,3.3-11.7,4.7-16.5l0.1-0.3c1-2.6,0.6-3.4,0.6-3.4c-0.2-0.3-0.9-1.5-4.1-3.6
				c-2.9-2-5.7-3.6-8.5-4.9c-2.7-1.3-5.6-2.3-8.5-3.1c-1.3-0.4-2.5-0.6-3.4-0.7c-0.6-0.1-1.1,0-1.5,0.1c-0.4,0.1-0.8,0.4-1.3,0.8
				c-0.7,0.6-1.4,1.5-2.3,2.5c-2,2.7-4.2,5.9-6.4,9.5c-2.3,3.6-4.3,7.3-6,10.7c-0.7,1.6-0.9,2.4-0.9,2.6c0,0.1,0,0.2,0.1,0.4
				c0.1,0.2,0.5,0.7,1.7,1.4c1.3,0.7,3,1.6,4.9,2.6l2.5,1.2l-0.6,2.7c-1.5,6.9-3.1,14.4-4.5,22.2c-1.5,8-2.8,15.8-4,23.3
				c-1.2,7.5-2.2,14.5-2.9,20.9c-0.8,6.3-1.2,11.4-1.5,15.2c-0.2,2.7,0.1,4.1,0.4,4.9C390.2,223.4,390.9,224.1,392.1,224.8z"/>
		</g>
	</g>
	<g>
		<g>
			<path class="st4" d="M427.7,134.9c-1.7,6.1-3.4,12.5-5.1,19.2c-1.7,6.7-3.4,13.5-5.1,20.5c-1.7,7-3.3,13.8-4.8,20.4
				c-1.5,6.6-2.8,12.8-4,18.7c-1.2,5.9-2.2,11.1-3,15.6c-0.5,1.8-1.2,2.9-2.1,3.4c-0.9,0.5-2.7,0.4-5.3-0.3
				c-2.5-0.6-4.9-1.2-7.4-1.8c-2.4-0.6-4.9-1.5-7.4-2.7c-2-1.1-3.3-2.5-3.9-4c-0.6-1.5-0.8-3.7-0.6-6.3c0.2-3.8,0.7-9,1.5-15.4
				c0.8-6.4,1.8-13.5,2.9-21.1c1.2-7.6,2.5-15.4,4-23.4c1.5-8,3-15.5,4.6-22.4c-2.1-1-3.8-1.9-5.1-2.7c-1.3-0.8-2.3-1.6-2.9-2.4
				c-0.6-0.8-0.8-1.7-0.7-2.7c0.1-1,0.5-2.2,1.2-3.8c1.8-3.6,3.8-7.3,6.2-11.1c2.4-3.8,4.6-7,6.7-9.8c1-1.2,1.9-2.2,2.7-2.9
				c0.8-0.7,1.6-1.2,2.5-1.5c0.9-0.3,1.9-0.4,3-0.3c1.1,0.1,2.5,0.4,4,0.8c3.1,0.8,6.1,1.9,9.1,3.3c2.9,1.4,5.9,3.1,8.9,5.2
				c2.8,1.9,4.5,3.5,5.3,5c0.7,1.4,0.6,3.5-0.5,6.2C430.9,123.3,429.4,128.8,427.7,134.9z"/>
			<path d="M401.9,236.6c-1.3,0-2.8-0.2-4.7-0.8c-2.4-0.6-4.8-1.2-7.2-1.8c-2.7-0.6-5.4-1.6-8.1-3l-0.2-0.1
				c-2.6-1.5-4.5-3.5-5.4-5.8c-0.8-2.1-1.1-4.7-0.9-7.9c0.2-3.8,0.7-9.1,1.5-15.6c0.8-6.5,1.8-13.6,3-21.2c1.2-7.5,2.5-15.4,4-23.5
				c1.3-7,2.6-13.6,4-19.8c-1.1-0.6-2-1.1-2.9-1.6c-1.8-1-3.1-2.2-4-3.5c-1-1.5-1.5-3.3-1.3-5.1c0.1-1.4,0.6-3,1.5-4.9
				c1.8-3.8,4-7.6,6.4-11.5c2.4-3.8,4.7-7.2,6.8-10l0.1-0.2c1.1-1.3,2.1-2.4,3-3.3c1.1-1.1,2.4-1.8,3.7-2.3c1.3-0.5,2.8-0.6,4.5-0.5
				c1.3,0.1,2.9,0.4,4.6,0.9c3.3,0.9,6.5,2.1,9.7,3.5c3.1,1.5,6.2,3.3,9.4,5.5c3.3,2.2,5.4,4.2,6.4,6.3c1.2,2.4,1.1,5.3-0.3,8.9
				c-1.4,4.7-3,10.2-4.7,16.2c-1.7,6-3.4,12.5-5.1,19.1c-1.7,6.7-3.4,13.6-5.1,20.5c-1.7,7-3.3,13.8-4.8,20.3
				c-1.5,6.6-2.8,12.9-4,18.7c-1.2,5.8-2.2,11.1-3,15.6l-0.1,0.4c-0.8,2.7-2,4.4-3.7,5.4C404.4,236.3,403.3,236.6,401.9,236.6z
				 M385.1,224.8c2.2,1.1,4.4,1.9,6.5,2.4c2.4,0.6,4.9,1.2,7.4,1.8c1.5,0.4,2.3,0.5,2.8,0.5c0.1-0.2,0.3-0.5,0.4-1
				c0.8-4.5,1.8-9.7,3-15.5c1.2-5.8,2.5-12.2,4-18.8c1.5-6.5,3.1-13.4,4.8-20.4c1.7-6.9,3.4-13.8,5.1-20.5
				c1.7-6.7,3.4-13.2,5.1-19.3c1.7-6.2,3.3-11.7,4.7-16.5l0.1-0.3c1-2.6,0.6-3.4,0.6-3.4c-0.2-0.3-0.9-1.5-4.1-3.6
				c-2.9-2-5.7-3.6-8.5-4.9c-2.7-1.3-5.6-2.3-8.5-3.1c-1.3-0.4-2.5-0.6-3.4-0.7c-0.6-0.1-1.1,0-1.5,0.1c-0.4,0.1-0.8,0.4-1.3,0.8
				c-0.7,0.6-1.4,1.5-2.3,2.5c-2,2.7-4.2,5.9-6.4,9.5c-2.3,3.6-4.3,7.3-6,10.7c-0.7,1.6-0.9,2.4-0.9,2.6c0,0.1,0,0.2,0.1,0.4
				c0.1,0.2,0.5,0.7,1.7,1.4c1.3,0.7,3,1.6,4.9,2.6l2.5,1.2l-0.6,2.7c-1.5,6.9-3.1,14.4-4.5,22.2c-1.5,8-2.8,15.8-4,23.3
				c-1.2,7.5-2.2,14.5-2.9,20.9c-0.8,6.3-1.2,11.4-1.5,15.2c-0.2,2.7,0.1,4.1,0.4,4.9C383.2,223.4,383.9,224.1,385.1,224.8z"/>
		</g>
	</g>
</g>
</svg>
